<svg width="10" height="10" viewBox="0 0 10 10" fill="none" xmlns="http://www.w3.org/2000/svg">
    <path
        d="M9.35145 1.93308C9.70869 1.57378 9.70545 0.992438 9.34424 0.637134C8.98576 0.284518 8.40977 0.287722 8.05523 0.644305L4.99932 3.71785L1.94342 0.644304C1.58888 0.287722 1.01289 0.284518 0.654409 0.637134C0.293195 0.992438 0.289961 1.57378 0.6472 1.93308L3.69619 4.99967L0.647227 8.06625C0.289991 8.42555 0.293225 9.0069 0.654438 9.3622C1.01292 9.71481 1.58891 9.71161 1.94345 9.35502L4.99932 6.28149L8.05526 9.35503C8.4098 9.71161 8.98579 9.71482 9.34427 9.3622C9.70548 9.0069 9.70872 8.42555 9.35148 8.06625L6.30246 4.99967L9.35145 1.93308Z"
        fill="currentColor" />
</svg>