<svg width="20" height="20" viewBox="0 0 20 20" fill="none" xmlns="http://www.w3.org/2000/svg">
    <path
        d="M15.2944 6.11364C15.6837 5.72428 15.6837 5.093 15.2944 4.70364C14.905 4.31428 14.2737 4.31428 13.8844 4.70364L9.99937 8.58864L6.11437 4.70364C5.72501 4.31428 5.09373 4.31428 4.70437 4.70364C4.31501 5.093 4.31501 5.72428 4.70437 6.11364L8.58937 9.99864L4.70437 13.8836C4.31501 14.273 4.31501 14.9043 4.70437 15.2936C5.09373 15.683 5.72501 15.683 6.11437 15.2936L9.99937 11.4086L13.8844 15.2936C14.2737 15.683 14.905 15.683 15.2944 15.2936C15.6837 14.9043 15.6837 14.273 15.2944 13.8836L11.4094 9.99864L15.2944 6.11364Z"
        fill="currentColor" />
</svg>