<svg width="16" height="16" viewBox="0 0 16 16" fill="none" xmlns="http://www.w3.org/2000/svg">
    <path
        d="M12.2956 5.11474C12.685 4.72538 12.685 4.0941 12.2956 3.70474C11.9062 3.31538 11.275 3.31538 10.8856 3.70474L8.00059 6.58974L5.11559 3.70474C4.72623 3.31538 4.09496 3.31538 3.70559 3.70474C3.31623 4.0941 3.31623 4.72538 3.70559 5.11474L6.5906 7.99974L3.70559 10.8847C3.31623 11.2741 3.31623 11.9054 3.70559 12.2947C4.09496 12.6841 4.72623 12.6841 5.11559 12.2947L8.00059 9.40974L10.8856 12.2947C11.275 12.6841 11.9062 12.6841 12.2956 12.2947C12.685 11.9054 12.685 11.2741 12.2956 10.8847L9.41059 7.99974L12.2956 5.11474Z"
        fill="currentColor" />
</svg>