<svg width="48" height="48" viewBox="0 0 48 48" fill="none" xmlns="http://www.w3.org/2000/svg">
<path d="M24 12.48C26.656 12.48 28.8 14.624 28.8 17.28C28.8 19.936 26.656 22.08 24 22.08C21.344 22.08 19.2 19.936 19.2 17.28C19.2 14.624 21.344 12.48 24 12.48ZM24 35.2C20.2667 35.2 16.9376 33.4161 14.8322 30.6546C14.5381 30.2688 14.3718 29.7767 14.526 29.3167C15.4372 26.598 21.0542 25.12 24 25.12C26.9311 25.12 32.5605 26.598 33.4737 29.3168C33.6282 29.7767 33.4619 30.2688 33.1678 30.6546C31.0624 33.4161 27.7333 35.2 24 35.2Z" fill="currentColor"/>
</svg>
