<svg width="48" height="48" viewBox="0 0 48 48" fill="none" xmlns="http://www.w3.org/2000/svg">
<path fill-rule="evenodd" clip-rule="evenodd" d="M31.2 20.16C32.7906 20.16 34.08 18.8706 34.08 17.28C34.08 15.6894 32.7906 14.4 31.2 14.4C29.6094 14.4 28.32 15.6894 28.32 17.28C28.32 18.8706 29.6094 20.16 31.2 20.16ZM12.4199 32.4C11.2184 32.4 10.5045 31.058 11.176 30.0616L18.6874 18.9171C19.2419 18.0943 20.4282 18.027 21.0722 18.7818L26.88 25.5877L29.2141 23.2171C29.8535 22.5677 30.9195 22.6339 31.4737 23.3574L36.5524 29.9879C37.3083 30.9747 36.6047 32.4 35.3616 32.4H12.4199Z" fill="currentColor"/>
</svg>
