<svg width="48" height="48" viewBox="0 0 48 48" fill="none" xmlns="http://www.w3.org/2000/svg">
<path d="M22.9406 14.6301C23.3576 13.7261 24.6424 13.7261 25.0594 14.6301L27.018 18.8765C27.188 19.2449 27.5372 19.4986 27.9401 19.5464L32.5839 20.097C33.5725 20.2142 33.9696 21.4362 33.2386 22.1121L29.8054 25.2871C29.5075 25.5626 29.3741 25.9731 29.4532 26.371L30.3645 30.9577C30.5586 31.9342 29.5191 32.6894 28.6504 32.2031L24.5698 29.919C24.2158 29.7208 23.7842 29.7208 23.4301 29.919L19.3496 32.2031C18.4809 32.6894 17.4414 31.9342 17.6354 30.9577L18.5468 26.371C18.6259 25.9731 18.4925 25.5626 18.1946 25.2871L14.7613 22.1121C14.0304 21.4362 14.4274 20.2142 15.4161 20.097L20.0599 19.5464C20.4628 19.4986 20.812 19.2449 20.9819 18.8765L22.9406 14.6301Z" fill="currentColor"/>
</svg>
