<svg width="48" height="48" viewBox="0 0 48 48" fill="none" xmlns="http://www.w3.org/2000/svg">
<path d="M22.4866 10.6144C23.0823 9.32294 24.9178 9.32294 25.5135 10.6144L28.3116 16.6807C28.5543 17.207 29.0531 17.5694 29.6287 17.6377L36.2628 18.4242C37.6751 18.5917 38.2423 20.3373 37.1981 21.3029L32.2934 25.8387C31.8679 26.2322 31.6773 26.8186 31.7903 27.3871L33.0923 33.9395C33.3694 35.3345 31.8845 36.4133 30.6435 35.7187L24.8141 32.4556C24.3083 32.1725 23.6917 32.1725 23.186 32.4556L17.3566 35.7187C16.1156 36.4133 14.6306 35.3345 14.9078 33.9395L16.2098 27.3871C16.3227 26.8186 16.1322 26.2322 15.7066 25.8387L10.8019 21.3029C9.75776 20.3373 10.325 18.5917 11.7373 18.4242L18.3713 17.6377C18.9469 17.5694 19.4457 17.207 19.6885 16.6807L22.4866 10.6144Z" fill="currentColor"/>
</svg>
