<svg width="48" height="48" viewBox="0 0 48 48" fill="none" xmlns="http://www.w3.org/2000/svg">
<path d="M23.6217 11.1379C23.7706 10.8151 24.2295 10.8151 24.3784 11.1379L25.5135 10.6144L24.3784 11.1379L27.1765 17.2042L28.3116 16.6807L27.1765 17.2042C27.6013 18.1253 28.4743 18.7595 29.4816 18.879L36.1156 19.6655C36.4687 19.7074 36.6105 20.1438 36.3494 20.3852L31.4447 24.9209C30.7 25.6096 30.3666 26.6358 30.5643 27.6307L31.8662 34.1831C31.9355 34.5319 31.5643 34.8016 31.254 34.6279L25.4246 31.3649C24.5395 30.8694 23.4605 30.8694 22.5754 31.3649L16.746 34.6279C16.4358 34.8016 16.0645 34.5319 16.1338 34.1831L17.4358 27.6307C17.6335 26.6358 17.3001 25.6096 16.5553 24.9209L11.6506 20.3852C11.3896 20.1438 11.5314 19.7074 11.8845 19.6655L18.5185 18.879C19.5258 18.7595 20.3987 18.1253 20.8236 17.2042L23.6217 11.1379Z" stroke="currentColor" stroke-width="2.5"/>
</svg>
