<svg width="48" height="48" viewBox="0 0 48 48" fill="none" xmlns="http://www.w3.org/2000/svg">
<path d="M23.6595 12.4241C23.7935 12.1336 24.2065 12.1336 24.3406 12.4241L26.8588 17.8838C27.2412 18.7128 28.0268 19.2836 28.9334 19.3911L34.904 20.099C35.2218 20.1366 35.3494 20.5294 35.1145 20.7467L30.7003 24.8288C30.03 25.4487 29.7299 26.3722 29.9078 27.2676L31.0796 33.1648C31.142 33.4787 30.8079 33.7214 30.5286 33.5651L25.2822 30.6284C24.4856 30.1825 23.5145 30.1825 22.7179 30.6284L17.4714 33.5651C17.1922 33.7214 16.8581 33.4787 16.9205 33.1648L18.0922 27.2677C18.2701 26.3722 17.9701 25.4487 17.2998 24.8288L12.8856 20.7467C12.6506 20.5294 12.7782 20.1366 13.096 20.099L19.0666 19.3911C19.9732 19.2836 20.7588 18.7128 21.1412 17.8838L23.6595 12.4241Z" stroke="currentColor" stroke-width="2.25"/>
</svg>
