<svg width="48" height="48" viewBox="0 0 48 48" fill="none" xmlns="http://www.w3.org/2000/svg">
<path d="M22.7893 13.2915C23.2659 12.2584 24.7342 12.2584 25.2108 13.2915L27.4493 18.1446C27.6435 18.5656 28.0425 18.8556 28.503 18.9102L33.8103 19.5394C34.9401 19.6734 35.3939 21.0699 34.5585 21.8424L30.6348 25.471C30.2943 25.7858 30.1419 26.2549 30.2323 26.7097L31.2738 31.9517C31.4956 33.0676 30.3076 33.9307 29.3148 33.375L24.6513 30.7645C24.2467 30.538 23.7534 30.538 23.3488 30.7645L18.6853 33.375C17.6925 33.9307 16.5045 33.0676 16.7263 31.9516L17.7678 26.7097C17.8582 26.2549 17.7058 25.7858 17.3653 25.471L13.4416 21.8424C12.6062 21.0699 13.06 19.6734 14.1899 19.5394L19.4971 18.9102C19.9576 18.8556 20.3566 18.5656 20.5508 18.1446L22.7893 13.2915Z" fill="currentColor"/>
</svg>
