<svg width="48" height="48" viewBox="0 0 48 48" fill="none" xmlns="http://www.w3.org/2000/svg">
<path d="M23.6974 13.7104C23.8165 13.4521 24.1836 13.4521 24.3027 13.7104L26.5412 18.5634C26.8811 19.3003 27.5794 19.8077 28.3853 19.9032L33.6925 20.5325C33.975 20.5659 34.0884 20.9151 33.8796 21.1082L29.9558 24.7368C29.36 25.2878 29.0933 26.1087 29.2514 26.9046L30.293 32.1465C30.3484 32.4255 30.0515 32.6413 29.8032 32.5024L25.1397 29.8919L24.6513 30.7645L25.1397 29.8919C24.4316 29.4956 23.5685 29.4956 22.8604 29.8919L18.1969 32.5024C17.9487 32.6413 17.6517 32.4255 17.7071 32.1465L18.7487 26.9046C18.9068 26.1087 18.6401 25.2877 18.0443 24.7368L14.1205 21.1082C13.9117 20.9151 14.0251 20.5659 14.3076 20.5325L19.6148 19.9032C20.4207 19.8077 21.119 19.3003 21.4589 18.5634L23.6974 13.7104Z" stroke="currentColor" stroke-width="2"/>
</svg>
