<svg width="48" height="48" viewBox="0 0 48 48" fill="none" xmlns="http://www.w3.org/2000/svg">
<path d="M23.7351 14.9966C23.8394 14.7706 24.1606 14.7706 24.2648 14.9966L26.2235 19.243C26.5209 19.8878 27.1319 20.3317 27.8371 20.4153L32.4809 20.9659C32.728 20.9952 32.8273 21.3007 32.6446 21.4697L29.2113 24.6447C28.69 25.1268 28.4566 25.8451 28.5949 26.5416L29.5063 31.1282C29.5548 31.3724 29.295 31.5612 29.0778 31.4396L24.9972 29.1555C24.3776 28.8086 23.6223 28.8086 23.0027 29.1555L18.9222 31.4396C18.705 31.5612 18.4451 31.3724 18.4936 31.1282L19.405 26.5416C19.5434 25.8451 19.31 25.1268 18.7887 24.6447L15.3554 21.4697C15.1727 21.3007 15.2719 20.9952 15.5191 20.9659L20.1629 20.4153C20.868 20.3317 21.4791 19.8878 21.7765 19.243L23.7351 14.9966Z" stroke="currentColor" stroke-width="1.75"/>
</svg>
