<svg width="48" height="48" viewBox="0 0 48 48" fill="none" xmlns="http://www.w3.org/2000/svg">
<path d="M22.6379 11.9529C23.1741 10.7906 24.826 10.7906 25.3621 11.9529L27.8804 17.4126C28.0989 17.8863 28.5478 18.2125 29.0659 18.2739L35.0365 18.9818C36.3076 19.1325 36.8181 20.7036 35.8783 21.5726L31.4641 25.6548C31.0811 26.009 30.9096 26.5367 31.0113 27.0484L32.183 32.9456C32.4325 34.201 31.0961 35.172 29.9791 34.5468L24.7327 31.6101C24.2775 31.3552 23.7226 31.3552 23.2674 31.6101L18.0209 34.5468C16.904 35.172 15.5676 34.201 15.817 32.9456L16.9888 27.0484C17.0905 26.5367 16.919 26.009 16.536 25.6548L12.1217 21.5726C11.182 20.7036 11.6925 19.1325 12.9636 18.9818L18.9342 18.2739C19.4522 18.2125 19.9012 17.8863 20.1197 17.4126L22.6379 11.9529Z" fill="currentColor"/>
</svg>
