<svg width="24" height="16" viewBox="0 0 24 16" fill="none" xmlns="http://www.w3.org/2000/svg">
<g clip-path="url(#clip0_15610_340463)">
<g clip-path="url(#clip1_15610_340463)">
<path d="M24 0H0V15.9685H24V0Z" fill="#D80027"/>
<path d="M24.0001 0H15.4785V15.969H24.0001V0Z" fill="#496E2D"/>
<path d="M8.52155 0H0V15.969H8.52155V0Z" fill="black"/>
<path d="M11.9994 5.20703C10.4626 5.20703 9.2168 6.4504 9.2168 7.9842C9.2168 9.518 10.4626 10.7614 11.9994 10.7614C13.5362 10.7614 14.782 9.518 14.782 7.9842C14.782 6.4504 13.5362 5.20703 11.9994 5.20703ZM11.9994 9.71992C11.0389 9.71992 10.2603 8.9428 10.2603 7.9842C10.2603 7.0256 11.0389 6.24848 11.9994 6.24848C12.9599 6.24848 13.7385 7.02556 13.7385 7.9842C13.7385 8.94284 12.9599 9.71992 11.9994 9.71992Z" fill="#FFDA44"/>
<path d="M11.9994 6.94311C11.6152 6.94311 11.3037 7.25394 11.3037 7.63738V8.67883H12.6951V7.63738C12.695 7.25389 12.3835 6.94311 11.9994 6.94311Z" fill="#FFDA44"/>
</g>
</g>
<defs>
<clipPath id="clip0_15610_340463">
<rect width="24" height="16" fill="white"/>
</clipPath>
<clipPath id="clip1_15610_340463">
<rect width="24.0001" height="16" fill="white"/>
</clipPath>
</defs>
</svg>
