<svg width="24" height="16" viewBox="0 0 24 16" fill="none" xmlns="http://www.w3.org/2000/svg">
<path d="M24 0H0V16H24V0Z" fill="black"/>
<path d="M24 0H0V7.99974H24V0Z" fill="#D80027"/>
<path d="M10.9026 6.36273L11.5808 6.85491L11.3224 7.65201L12 7.15908L12.6783 7.65121L12.4188 6.85439L13.0965 6.36137L12.2586 6.36193L11.9991 5.56506L11.7406 6.36221L10.9026 6.36273Z" fill="#FFDA44"/>
<path d="M13.9996 4.53554C13.3692 4.17156 12.6799 3.99976 11.9996 4.00098V5.04418C12.5025 5.04328 13.0119 5.17017 13.4779 5.43919C14.8897 6.25429 15.3752 8.06599 14.56 9.4778C13.745 10.8896 11.9331 11.3751 10.5214 10.56C10.1101 10.3226 9.77802 10.0001 9.53324 9.62803L8.66211 10.2032C8.99333 10.7066 9.44314 11.1424 9.99959 11.4637C11.9098 12.5665 14.3608 11.9097 15.4637 9.9996C16.5665 8.08947 15.9097 5.63831 13.9996 4.53554Z" fill="#FFDA44"/>
<path d="M9.69304 7.30374C9.41648 7.80933 9.60215 8.4434 10.1077 8.72L13.4967 10.5718C13.2663 10.9931 13.3886 11.5059 13.8099 11.7363L14.7254 12.2371C15.1468 12.4676 15.6752 12.3128 15.9057 11.8915L16.4064 10.9761L9.69304 7.30374Z" fill="#FFDA44"/>
</svg>
