<svg width="24" height="16" viewBox="0 0 24 16" fill="none" xmlns="http://www.w3.org/2000/svg">
<path d="M24 0H0V16H24V0Z" fill="#0052B4"/>
<path d="M19.3282 8.04974C19.4389 7.7796 19.5251 7.38468 19.5251 7.18809C19.5251 6.8723 19.1134 6.61632 19.1134 6.61632C19.1134 6.61632 18.7017 6.8723 18.7017 7.18809C18.7017 7.38468 18.7878 7.7796 18.8986 8.04974L18.6609 8.58636C18.8006 8.64317 18.9533 8.67472 19.1134 8.67472C19.2735 8.67472 19.4262 8.64317 19.5659 8.58636L19.3282 8.04974Z" fill="#FF9811"/>
<path d="M17.7193 6.31247C17.4301 6.35166 17.045 6.47461 16.8748 6.5729C16.6013 6.73083 16.5854 7.21528 16.5854 7.21528C16.5854 7.21528 17.013 7.44379 17.2865 7.28592C17.4567 7.18762 17.7556 6.91561 17.9341 6.68461L18.5177 6.62212C18.497 6.47278 18.448 6.3248 18.368 6.1861C18.2878 6.04744 18.1843 5.93091 18.0652 5.83838L17.7193 6.31247Z" fill="#FF9811"/>
<path d="M17.0191 8.57472C17.1977 8.80557 17.4967 9.07759 17.6669 9.17583C17.9404 9.33371 18.3679 9.10519 18.3679 9.10519C18.3679 9.10519 18.352 8.6207 18.0785 8.46278C17.9082 8.36448 17.5232 8.24167 17.2339 8.20253L16.888 7.7284C16.769 7.82098 16.6654 7.9375 16.5853 8.07602C16.5052 8.21477 16.4562 8.3627 16.4355 8.51214L17.0191 8.57472Z" fill="#FF9811"/>
<path d="M15.8633 9.73926C16.5129 10.7816 18.0004 11.1304 18.0004 11.1304C18.0004 11.1304 19.4879 10.7816 20.1375 9.73926H15.8633Z" fill="#338AF3"/>
<path fill-rule="evenodd" clip-rule="evenodd" d="M20.4348 8.69524C20.4348 9.16328 20.2812 9.54976 20.0512 9.86626L15.9489 9.86631C15.7188 9.5499 15.5652 9.16333 15.5652 8.69529V5.21716C15.8559 5.43545 16.2171 5.56487 16.6087 5.56487C17.1776 5.56487 17.6827 5.29164 18 4.8693C18.3174 5.29164 18.8224 5.56487 19.3914 5.56487C19.783 5.56487 20.1441 5.43541 20.4348 5.21702V8.69524ZM17.7186 6.31256C17.4293 6.35174 17.0443 6.4747 16.8741 6.57299C16.6005 6.73091 16.5847 7.21536 16.5847 7.21536C16.5847 7.21536 17.0122 7.44388 17.2857 7.286C17.456 7.18771 17.7548 6.91569 17.9333 6.68469L18.517 6.62221C18.4963 6.47287 18.4472 6.32489 18.3673 6.18618C18.2871 6.04753 18.1836 5.931 18.0645 5.83847L17.7186 6.31256ZM19.3275 8.04983C19.4382 7.77969 19.5244 7.38477 19.5244 7.18818C19.5244 6.87239 19.1127 6.61641 19.1127 6.61641C19.1127 6.61641 18.701 6.87239 18.701 7.18818C18.701 7.38477 18.7871 7.77969 18.8978 8.04983L18.6602 8.58645C18.7999 8.64326 18.9525 8.6748 19.1127 8.6748C19.2728 8.6748 19.4255 8.64326 19.5651 8.58645L19.3275 8.04983ZM17.6661 9.17592C17.4959 9.07767 17.197 8.80566 17.0184 8.5748L16.4348 8.51223C16.4555 8.36279 16.5045 8.21486 16.5845 8.07611C16.6646 7.93759 16.7683 7.82106 16.8873 7.72849L17.2331 8.20262C17.5225 8.24176 17.9075 8.36457 18.0778 8.46287C18.3513 8.62079 18.3671 9.10528 18.3671 9.10528C18.3671 9.10528 17.9396 9.3338 17.6661 9.17592Z" fill="#F0F0F0"/>
<path d="M11.9999 4.75027H6.75022V8.00013H7.49994V5.70712L10.9392 8.00013H11.9999L8.24966 5.49998H9.31034L11.9999 7.29321V6.94001L9.84045 5.50002H11.9999V4.75027Z" fill="#F0F0F0"/>
<path d="M8.24966 2.49963L11.9999 0H10.9392L7.49994 2.29249V0H6.75022V3.24986H11.9999V2.49963H9.84045L11.9999 1.06016V0.706961L9.31039 2.49963H8.24966Z" fill="#F0F0F0"/>
<path d="M4.5 0V2.29249L1.06069 0H0L3.75028 2.49963H2.68955L0 0.706914V1.06016L2.15948 2.49963H0V3.2499H5.24972V0H4.5Z" fill="#F0F0F0"/>
<path d="M0 4.75027V5.49998H2.15948L0 6.94001V7.29321L2.68955 5.50002H3.75023L0 8.00017H1.06069L4.5 5.70712V8.00013H5.24972V4.75027H0Z" fill="#F0F0F0"/>
<path d="M6.75 0H5.25V3.25H0V4.74998H5.25V7.99998H6.75V4.74998H12V3.25H6.75V0Z" fill="#D80027"/>
<path d="M3.75 2.50001L0 0V0.707009L2.68955 2.50001H3.75Z" fill="#D80027"/>
<path d="M8.25 2.50001H9.31045L12 0.707009V0L8.25 2.50001Z" fill="#D80027"/>
<path d="M2.68955 5.49997L0 7.29301V7.99997L3.75 5.49997H2.68955Z" fill="#D80027"/>
<path d="M8.25 5.49997L12 7.99997V7.29301L9.31045 5.49997H8.25Z" fill="#D80027"/>
</svg>
