<svg width="24" height="16" viewBox="0 0 24 16" fill="none" xmlns="http://www.w3.org/2000/svg">
<path d="M24 0H0V16H24V0Z" fill="#D80027"/>
<path d="M16.522 5.93767H13.6243C13.8033 5.75036 13.9133 5.49681 13.9133 5.2173C13.9133 4.64098 13.4462 4.17383 12.8698 4.17383C12.5068 4.17383 12.1872 4.35931 12.0003 4.6406C11.8133 4.35936 11.4938 4.17383 11.1307 4.17383C10.5544 4.17383 10.0872 4.64098 10.0872 5.2173C10.0872 5.49681 10.1973 5.75036 10.3762 5.93767H7.47852C7.47852 6.70608 8.1478 7.3289 8.91617 7.3289H8.86986C8.86986 8.09732 9.49278 8.72023 10.2612 8.72023C10.2612 8.96909 10.3268 9.20243 10.4413 9.40437L9.28728 10.5585L10.1727 11.4438L11.4286 10.1879C11.4778 10.2059 11.5288 10.2203 11.5813 10.2302L10.8223 11.9438L12.0003 13.2172L13.1782 11.9438L12.4193 10.2302C12.4719 10.2204 12.5227 10.2059 12.572 10.1879L13.8279 11.4438L14.7133 10.5585L13.5592 9.40437C13.6737 9.20238 13.7393 8.96909 13.7393 8.72023C14.5077 8.72023 15.1306 8.09732 15.1306 7.3289H15.0843C15.8527 7.32895 16.522 6.70608 16.522 5.93767Z" fill="black"/>
</svg>
