<svg width="24" height="16" viewBox="0 0 24 16" fill="none" xmlns="http://www.w3.org/2000/svg">
<g clip-path="url(#clip0_15610_340444)">
<g clip-path="url(#clip1_15610_340444)">
<path d="M24 0H0V16H24V0Z" fill="#FFDA44"/>
<path d="M7.99983 0H0V16H7.99983V0Z" fill="#0052B4"/>
<path d="M24.001 0H16.0012V16H24.001V0Z" fill="#D80027"/>
<path d="M12.001 10.7827C12.001 9.50608 12.001 8.0001 12.001 8.0001H14.088V9.04357C14.088 9.22488 13.7401 9.88909 12.8816 10.4349C12.5564 10.6417 12.2199 10.7081 12.001 10.7827Z" fill="#D80027"/>
<path d="M12.001 5.91251H9.91406V7.99946L12.001 8.0001L12.001 5.91251Z" fill="#D80027"/>
<path d="M13.0429 5.2171C13.0429 4.83292 12.7314 4.52148 12.3472 4.52148C12.2204 4.52148 12.1018 4.55598 11.9994 4.61528C11.897 4.55594 11.7784 4.52148 11.6515 4.52148C11.2674 4.52148 10.9559 4.83292 10.9559 5.2171H9.2168V8.69529C9.2168 9.99015 10.2451 10.739 11.0515 11.1271C10.9911 11.2302 10.9559 11.3498 10.9559 11.4779C10.9559 11.8621 11.2674 12.1735 11.6515 12.1735C11.7784 12.1735 11.897 12.139 11.9994 12.0797C12.1018 12.1391 12.2204 12.1735 12.3472 12.1735C12.7314 12.1735 13.0429 11.8621 13.0429 11.4779C13.0429 11.3498 13.0077 11.2302 12.9473 11.1271C13.7536 10.739 14.782 9.9901 14.782 8.69529V5.2171H13.0429ZM13.7385 8.69533C13.7385 8.87664 13.7385 9.42822 12.88 9.97403C12.5549 10.1808 12.2182 10.3148 11.9994 10.3894C11.7805 10.3148 11.444 10.1808 11.1187 9.97403C10.2603 9.42822 10.2603 8.87664 10.2603 8.69538V6.26067H13.7385V8.69538H13.7385V8.69533Z" fill="#FF9811"/>
</g>
</g>
<defs>
<clipPath id="clip0_15610_340444">
<rect width="24" height="16" fill="white"/>
</clipPath>
<clipPath id="clip1_15610_340444">
<rect width="24.0001" height="16" fill="white"/>
</clipPath>
</defs>
</svg>
