<svg width="24" height="16" viewBox="0 0 24 16" fill="none" xmlns="http://www.w3.org/2000/svg">
<g clip-path="url(#clip0_15610_340446)">
<g clip-path="url(#clip1_15610_340446)">
<path d="M24 0H0V15.9999H24V0Z" fill="black"/>
<path d="M4.16017 6.4C4.05522 6.91699 4 7.45203 4 8.00005C4 8.54803 4.05527 9.08311 4.16017 9.6001L12 10.087L19.8398 9.60001C19.9447 9.08302 19.9999 8.54798 19.9999 7.99996C19.9999 7.45193 19.9447 6.91689 19.8398 6.3999" fill="#0052B4"/>
<path d="M19.8397 9.6001H4.16016C4.90139 13.2517 8.12967 16.0002 12 16.0002C15.8702 16.0002 19.0985 13.2517 19.8397 9.6001Z" fill="#F0F0F0"/>
<path d="M15.478 6.39972H8.52148L9.94273 5.73118L9.18589 4.35468L10.7292 4.6499L10.9248 3.09082L11.9998 4.23749L13.0747 3.09082L13.2703 4.6499L14.8136 4.35468L14.0568 5.73123L15.478 6.39972Z" fill="#FFDA44"/>
<path d="M11.9999 15.9999L0 0V15.9999H11.9999Z" fill="#A2001D"/>
<path d="M24.0001 15.9999V0L11.9999 15.9999H24.0001Z" fill="#A2001D"/>
</g>
</g>
<defs>
<clipPath id="clip0_15610_340446">
<rect width="24" height="16" fill="white"/>
</clipPath>
<clipPath id="clip1_15610_340446">
<rect width="24.0001" height="16" fill="white"/>
</clipPath>
</defs>
</svg>
