<svg width="24" height="16" viewBox="0 0 24 16" fill="none" xmlns="http://www.w3.org/2000/svg">
<path d="M24 0H0V16H24V0Z" fill="#F0F0F0"/>
<path d="M24 0H0V5.33332H24V0Z" fill="#338AF3"/>
<path d="M24 10.6663H0V15.9996H24V10.6663Z" fill="#338AF3"/>
<path d="M13.9137 8.00039L13.1321 8.36808L13.5483 9.12508L12.6995 8.9627L12.592 9.82011L12.0008 9.18949L11.4096 9.82011L11.3021 8.9627L10.4533 9.12503L10.8695 8.36799L10.0879 8.00039L10.8696 7.63269L10.4533 6.87574L11.302 7.03807L11.4096 6.18066L12.0008 6.81129L12.592 6.18066L12.6995 7.03807L13.5483 6.87574L13.1321 7.63274L13.9137 8.00039Z" fill="#FFDA44"/>
</svg>
