<svg width="24" height="16" viewBox="0 0 24 16" fill="none" xmlns="http://www.w3.org/2000/svg">
<g clip-path="url(#clip0_15610_340427)">
<path d="M24 0H0V16H24V0Z" fill="#0052B4"/>
<path d="M24 1.14448L2.79839 8.10641L24 15.0682V15.9999L0 8.10641L24 0.212891V1.14448Z" fill="#D80027"/>
<path d="M24.0004 13.4952V15.0683L2.79883 8.10645L24.0004 1.14453V2.7177" fill="#F0F0F0"/>
<path d="M23.1226 7.88379H21.7503C22.1071 7.4589 22.0851 6.82676 21.6832 6.42815C22.109 6.00591 22.109 5.32119 21.6832 4.89882L21.6576 4.92434C22.0833 4.50211 22.109 3.79186 21.6832 3.36963L15.5156 9.48671C15.9414 9.90909 16.6196 9.90402 17.0453 9.48169L17.164 9.37411L20.1173 9.10781V10.3676H21.119V9.01748L22.6216 8.88205L23.1226 7.88379Z" fill="#A2001D"/>
<path d="M15.6115 10.7933L14.6094 10.2966L15.6115 9.7998H22.1228V10.7933H15.6115Z" fill="#FFDA44"/>
</g>
<defs>
<clipPath id="clip0_15610_340427">
<rect width="24" height="16" fill="white"/>
</clipPath>
</defs>
</svg>
