<svg width="24" height="16" viewBox="0 0 24 16" fill="none" xmlns="http://www.w3.org/2000/svg">
<path d="M24 0H0V16H24V0Z" fill="#0052B4"/>
<path d="M8.86964 9.96506L9.38329 11.0391L10.5433 10.7711L10.0238 11.8423L10.9566 12.582L9.79523 12.8438L9.79846 14.0343L8.86964 13.2895L7.94086 14.0343L7.94409 12.8438L6.78271 12.582L7.71553 11.8423L7.19601 10.7711L8.35598 11.0391L8.86964 9.96506Z" fill="#F0F0F0"/>
<path d="M18.1442 11.2989L18.3892 11.8112L18.9425 11.6833L18.6947 12.1942L19.1397 12.5471L18.5857 12.6719L18.5872 13.2398L18.1442 12.8845L17.7013 13.2398L17.7028 12.6719L17.1488 12.5471L17.5937 12.1942L17.346 11.6833L17.8993 11.8112L18.1442 11.2989Z" fill="#F0F0F0"/>
<path d="M15.8651 5.86449L16.1101 6.37683L16.6634 6.24891L16.4156 6.75989L16.8605 7.11276L16.3066 7.23758L16.3081 7.80547L15.8651 7.45016L15.4221 7.80547L15.4236 7.23758L14.8697 7.11276L15.3146 6.75989L15.0669 6.24891L15.6201 6.37683L15.8651 5.86449Z" fill="#F0F0F0"/>
<path d="M18.1442 2.75925L18.3892 3.27158L18.9425 3.14362L18.6947 3.65464L19.1396 4.00747L18.5857 4.13234L18.5872 4.70018L18.1442 4.34487L17.7013 4.70018L17.7028 4.13234L17.1488 4.00747L17.5937 3.65464L17.346 3.14362L17.8993 3.27158L18.1442 2.75925Z" fill="#F0F0F0"/>
<path d="M20.135 5.08844L20.38 5.60073L20.9332 5.47285L20.6855 5.98379L21.1304 6.33661L20.5765 6.46148L20.578 7.02932L20.135 6.67411L19.692 7.02932L19.6935 6.46148L19.1396 6.33661L19.5845 5.98379L19.3367 5.47285L19.89 5.60073L20.135 5.08844Z" fill="#F0F0F0"/>
<path d="M18.7115 7.8055L18.9041 8.39856H19.5278L19.0232 8.76512L19.216 9.35817L18.7115 8.99166L18.2069 9.35817L18.3996 8.76512L17.8951 8.39856H18.5187L18.7115 7.8055Z" fill="#F0F0F0"/>
<path d="M12 0V1.43216L9.8828 2.60866H12V5.39108H9.22955L12 6.93021V7.99974H10.7494L7.30434 6.08604V7.99974H4.69566V5.72291L0.597375 7.99974H0V6.56759L2.1172 5.39108H0V2.60866H2.77045L0 1.06902V0H1.25063L4.69566 1.91375V0H7.30434V2.27684L11.4026 0H12Z" fill="#F0F0F0"/>
<path d="M7.30444 5.39082L12.0001 7.99948V7.26182L8.63227 5.39082H7.30444Z" fill="#D80027"/>
<path d="M7.30444 5.39082L12.0001 7.99948V7.26182L8.63227 5.39082H7.30444Z" fill="#D80027"/>
<path d="M4.69566 2.60866L0 0V0.737664L3.36783 2.60866H4.69566Z" fill="#D80027"/>
<path d="M4.69566 2.60866L0 0V0.737664L3.36783 2.60866H4.69566Z" fill="#D80027"/>
<path d="M6.75 0H5.25V3.2499H0V4.74989H5.25V7.99988H6.75V4.74989H12V3.2499H6.75V0Z" fill="#D80027"/>
<path d="M7.30444 5.39082L12.0001 7.99948V7.26182L8.63227 5.39082H7.30444Z" fill="#D80027"/>
<path d="M3.36778 5.39082L0 7.26182V7.99948L4.69566 5.39082H3.36778Z" fill="#D80027"/>
<path d="M4.69566 2.60866L0 0V0.737664L3.36783 2.60866H4.69566Z" fill="#D80027"/>
<path d="M8.63209 2.60866L11.9999 0.737664V0L7.30421 2.60866H8.63209Z" fill="#D80027"/>
</svg>
