<svg width="24" height="16" viewBox="0 0 24 16" fill="none" xmlns="http://www.w3.org/2000/svg">
<path d="M24 0H0V15.9997H24V0Z" fill="#D80027"/>
<path d="M24 0H0V5.33321H24V0Z" fill="#338AF3"/>
<path d="M24 10.667H0V16.0002H24V10.667Z" fill="#6DA544"/>
<path d="M12.15 9.94961C11.073 9.94961 10.2 9.07656 10.2 7.99961C10.2 6.92265 11.073 6.04961 12.15 6.04961C12.4858 6.04961 12.8018 6.1345 13.0776 6.28398C12.6449 5.86084 12.0531 5.59961 11.4 5.59961C10.0745 5.59961 9 6.67412 9 7.99961C9 9.32509 10.0745 10.3996 11.4 10.3996C12.0531 10.3996 12.6449 10.1384 13.0776 9.71523C12.8018 9.86472 12.4858 9.94961 12.15 9.94961Z" fill="#F0F0F0"/>
<path d="M13.65 6.64935L13.9083 7.37577L14.6046 7.04474L14.2736 7.74102L15 7.99935L14.2736 8.25768L14.6046 8.95396L13.9083 8.62293L13.65 9.34935L13.3918 8.62293L12.6954 8.95396L13.0265 8.25768L12.3 7.99935L13.0265 7.74102L12.6954 7.04474L13.3918 7.37577L13.65 6.64935Z" fill="#F0F0F0"/>
</svg>
