<svg width="24" height="16" viewBox="0 0 24 16" fill="none" xmlns="http://www.w3.org/2000/svg">
<g clip-path="url(#clip0_15610_340445)">
<g clip-path="url(#clip1_15610_340445)">
<path d="M24 0H0V15.9995H24V0Z" fill="#D80027"/>
<path d="M10.1186 8.00043L0 14.7459V1.25439L10.1186 8.00043Z" fill="#6DA544"/>
<path d="M24 1.25439V14.7459L13.8814 8.00043L24 1.25439Z" fill="#6DA544"/>
<path fill-rule="evenodd" clip-rule="evenodd" d="M15.3407 7.02735L24 1.25427V0H22.1191L14.1826 5.29097C13.5858 4.80943 12.8265 4.52113 12 4.52113C11.1734 4.52113 10.4142 4.80943 9.81735 5.29095L1.88086 0H0V1.25427L8.65921 7.02732C8.56957 7.33586 8.52151 7.66209 8.52151 7.99954C8.52151 8.33744 8.56969 8.66408 8.65956 8.97298L0 14.7458V16H1.88086L9.81799 10.7087C10.4147 11.1899 11.1737 11.478 12 11.478C12.8262 11.478 13.5852 11.1899 14.182 10.7086L22.1191 16H24V14.7458L15.3404 8.97294C15.4302 8.66406 15.4784 8.33743 15.4784 7.99954C15.4784 7.6621 15.4304 7.33588 15.3407 7.02735ZM12 5.56499L12.3012 6.0867H12.9037L12.6025 6.60841L12.9037 7.13017H12.3012L12 7.65189L11.6988 7.13017H11.0964L11.3976 6.60841L11.0964 6.0867H11.6988L12 5.56499ZM10.4689 7.9999L10.7701 8.52161H11.3725L11.0713 9.04337L11.3725 9.56508H10.7701L10.4689 10.0868L10.1676 9.56508H9.56519L9.8664 9.04337L9.56519 8.52161H10.1676L10.4689 7.9999ZM13.8322 8.52161L13.531 7.9999L13.2298 8.52161H12.6273L12.9285 9.04337L12.6273 9.56508H13.2298L13.531 10.0868L13.8322 9.56508H14.4347L14.1335 9.04337L14.4347 8.52161H13.8322Z" fill="#F0F0F0"/>
</g>
</g>
<defs>
<clipPath id="clip0_15610_340445">
<rect width="24" height="16" fill="white"/>
</clipPath>
<clipPath id="clip1_15610_340445">
<rect width="24" height="16" fill="white"/>
</clipPath>
</defs>
</svg>
