<svg width="24" height="16" viewBox="0 0 24 16" fill="none" xmlns="http://www.w3.org/2000/svg">
<path d="M24 0H0V16H24V0Z" fill="#0052B4"/>
<path d="M4.68359 0H20.6836V15.9999" fill="#FFDA44"/>
<path d="M1.71484 0.717883L2.41061 0.21131L3.1075 0.717274L2.87411 0H1.94753L1.71484 0.717883Z" fill="#F0F0F0"/>
<path d="M4.14166 0.857992L3.87527 0.0390008L3.60939 0.857992L2.74853 0.858554L3.44542 1.36461L3.18006 2.18309L3.87583 1.67656L4.57267 2.18257L4.30623 1.36349L5.00252 0.857476L4.14166 0.857992Z" fill="#F0F0F0"/>
<path d="M5.6068 2.32322L5.34037 1.50413L5.07444 2.32322L4.21358 2.32373L4.91048 2.82974L4.64512 3.64827L5.34093 3.14169L6.03777 3.64775L5.77129 2.82867L6.46766 2.3227L5.6068 2.32322Z" fill="#F0F0F0"/>
<path d="M7.07201 3.78775L6.80561 2.96871L6.53969 3.78775L5.67888 3.78827L6.37572 4.29433L6.11036 5.1128L6.80613 4.60628L7.50297 5.11228L7.23658 4.2932L7.93291 3.78724L7.07201 3.78775Z" fill="#F0F0F0"/>
<path d="M8.53712 5.25315L8.27072 4.43406L8.00485 5.25315L7.14394 5.25366L7.84079 5.75967L7.57547 6.57819L8.27124 6.07162L8.96808 6.57768L8.70165 5.75864L9.39797 5.25263L8.53712 5.25315Z" fill="#F0F0F0"/>
<path d="M10.0022 6.71813L9.73585 5.89914L9.46998 6.71813L8.60912 6.7187L9.30596 7.22471L9.04065 8.04323L9.73637 7.5367L10.4332 8.04266L10.1668 7.22363L10.8632 6.71762L10.0022 6.71813Z" fill="#F0F0F0"/>
<path d="M11.4675 8.18353L11.2011 7.36449L10.9352 8.18353L10.0743 8.18409L10.7712 8.6901L10.5058 9.50862L11.2016 9.00205L11.8985 9.50801L11.632 8.68902L12.3283 8.18306L11.4675 8.18353Z" fill="#F0F0F0"/>
<path d="M12.9326 9.64916L12.6662 8.83012L12.4003 9.64916L11.5395 9.64967L12.2363 10.1557L11.971 10.9742L12.6667 10.4677L13.3636 10.9737L13.0972 10.1546L13.7934 9.64864L12.9326 9.64916Z" fill="#F0F0F0"/>
<path d="M14.3977 11.1135L14.1313 10.2944L13.8653 11.1135L13.0045 11.114L13.7014 11.62L13.436 12.4385L14.1318 11.932L14.8287 12.438L14.5622 11.6189L15.2586 11.113L14.3977 11.1135Z" fill="#F0F0F0"/>
<path d="M15.8629 12.5787L15.5965 11.7598L15.3307 12.5787L14.4698 12.5793L15.1666 13.0853L14.9013 13.9038L15.5971 13.3973L16.2939 13.9033L16.0275 13.0843L16.7238 12.5782L15.8629 12.5787Z" fill="#F0F0F0"/>
<path d="M17.3281 14.0439L17.0617 13.2249L16.7958 14.0439L15.9349 14.0445L16.6317 14.5504L16.3664 15.369L17.0622 14.8624L17.759 15.3684L17.4926 14.5494L18.1889 14.0434L17.3281 14.0439Z" fill="#F0F0F0"/>
<path d="M18.5268 14.6904L18.2609 15.5094L17.4 15.51L18.0748 16H18.9784L19.6541 15.5089L18.7932 15.5094L18.5268 14.6904Z" fill="#F0F0F0"/>
</svg>
