<svg width="24" height="16" viewBox="0 0 24 16" fill="none" xmlns="http://www.w3.org/2000/svg">
<path d="M24 0H0V16H24V0Z" fill="#F0F0F0"/>
<path d="M18.2831 6.43451H15.6512C15.6512 5.95433 15.2619 5.56494 14.7817 5.56494L14.086 6.95627C14.086 6.95627 14.8281 9.04322 14.8049 9.04322H15.6745C16.1548 9.04322 16.5441 8.65388 16.5441 8.17365C17.0243 8.17365 17.4136 7.78431 17.4136 7.30408H17.3847C17.8648 7.30408 18.2831 6.91479 18.2831 6.43451Z" fill="#ACABB1"/>
<path d="M5.71484 6.43451H8.34674C8.34674 5.95433 8.73608 5.56494 9.21632 5.56494L9.91194 6.95627C9.91194 6.95627 9.16986 9.04322 9.19307 9.04322H8.32349C7.8432 9.04322 7.45391 8.65388 7.45391 8.17365C6.97363 8.17365 6.58433 7.78431 6.58433 7.30408H6.6133C6.1332 7.30408 5.71484 6.91479 5.71484 6.43451Z" fill="#ACABB1"/>
<path d="M14.7827 11.1298V11.4776H9.21747V11.1298H7.82617V12.5211H9.21747V12.8689H14.7827V12.5211H16.174V11.1298H14.7827Z" fill="#FFDA44"/>
<path d="M13.3912 3.8255V4.34721L13.0434 4.52112L12.6955 4.17335V3.12988H11.3043V4.17335L10.9564 4.52112L10.6085 4.34721V3.8255H9.21729V5.56459H14.7825V3.8255H13.3912Z" fill="#FFDA44"/>
<path d="M9.2168 5.56494V9.04312C9.2168 11.1731 11.9994 11.8257 11.9994 11.8257C11.9994 11.8257 14.782 11.1731 14.782 9.04312V5.56494H11.9994H9.2168Z" fill="#0052B4"/>
<path d="M14.7822 6.95654H9.2168V9.04349H14.7822V6.95654Z" fill="#D80027"/>
</svg>
