<svg width="24" height="16" viewBox="0 0 24 16" fill="none" xmlns="http://www.w3.org/2000/svg">
<g clip-path="url(#clip0_15610_340228)">
<g clip-path="url(#clip1_15610_340228)">
<path d="M23.9993 0.0244141H0.0253906V15.9755H23.9993V0.0244141Z" fill="#6DA544"/>
<path d="M0 10.7743H23.9739V0.0244141H0" fill="#A2001D"/>
<path d="M4.69055 10.7743V10.0807V0.0244141H0V15.9759H23.9739H4.69055V10.7743Z" fill="#F0F0F0"/>
<path d="M3.21332 7.42188L2.34468 5.84906L3.21332 4.30095L4.08187 5.84906L3.21332 7.42188Z" fill="#A2001D"/>
<path d="M1.47602 7.42188L0.607422 5.84906L1.47602 4.30095L2.34468 5.84906L1.47602 7.42188Z" fill="#A2001D"/>
<path d="M3.21332 11.6991L2.34468 10.1263L3.21332 8.57812L4.08187 10.1263L3.21332 11.6991Z" fill="#A2001D"/>
<path d="M1.47602 11.6991L0.607422 10.1263L1.47602 8.57812L2.34468 10.1263L1.47602 11.6991Z" fill="#A2001D"/>
<path d="M3.21332 15.9755L2.34468 14.4027L3.21332 12.8545L4.08187 14.4027L3.21332 15.9755Z" fill="#A2001D"/>
<path d="M1.47602 15.9755L0.607422 14.4027L1.47602 12.8545L2.34468 14.4027L1.47602 15.9755Z" fill="#A2001D"/>
<path d="M3.21332 3.14544L2.34468 1.57262L3.21332 0.0244141L4.08187 1.57262L3.21332 3.14544Z" fill="#A2001D"/>
<path d="M1.47602 3.14544L0.607422 1.57262L1.47602 0.0244141L2.34468 1.57262L1.47602 3.14544Z" fill="#A2001D"/>
</g>
</g>
<defs>
<clipPath id="clip0_15610_340228">
<rect width="24" height="16" fill="white"/>
</clipPath>
<clipPath id="clip1_15610_340228">
<rect width="24.0001" height="15.9514" fill="white" transform="translate(0 0.0244141)"/>
</clipPath>
</defs>
</svg>
