<svg width="24" height="16" viewBox="0 0 24 16" fill="none" xmlns="http://www.w3.org/2000/svg">
<path d="M24 0H0V15.9999H24V0Z" fill="#0052B4"/>
<path fill-rule="evenodd" clip-rule="evenodd" d="M14.0868 7.99947C14.0868 9.15205 13.1524 10.0864 11.9998 10.0864C10.8472 10.0864 9.91284 9.15205 9.91284 7.99947C9.91284 6.84689 10.8472 5.91254 11.9998 5.91254C13.1524 5.91254 14.0868 6.84689 14.0868 7.99947ZM10.8694 7.99928L11.9998 7.47757L13.1303 7.99928V8.86879L11.9998 9.56449L10.8694 8.86879V7.99928Z" fill="#F0F0F0"/>
<path fill-rule="evenodd" clip-rule="evenodd" d="M11.9997 11.825C14.1127 11.825 15.8256 10.1121 15.8256 7.99915C15.8256 5.88622 14.1127 4.17334 11.9997 4.17334C9.88674 4.17334 8.17383 5.88622 8.17383 7.99915C8.17383 10.1121 9.88674 11.825 11.9997 11.825ZM15.1303 7.99942C15.1303 9.72829 13.7287 11.1298 11.9998 11.1298C10.2709 11.1298 8.86938 9.72829 8.86938 7.99942C8.86938 6.27055 10.2709 4.86902 11.9998 4.86902C13.7287 4.86902 15.1303 6.27055 15.1303 7.99942Z" fill="#F0F0F0"/>
<path fill-rule="evenodd" clip-rule="evenodd" d="M15.1301 7.99954C15.1301 9.72841 13.7285 11.1299 11.9996 11.1299C10.2707 11.1299 8.86914 9.72841 8.86914 7.99954C8.86914 6.27067 10.2707 4.86914 11.9996 4.86914C13.7285 4.86914 15.1301 6.27067 15.1301 7.99954ZM14.0865 7.99959C14.0865 9.15217 13.1522 10.0865 11.9996 10.0865C10.847 10.0865 9.9126 9.15217 9.9126 7.99959C9.9126 6.84701 10.847 5.91266 11.9996 5.91266C13.1522 5.91266 14.0865 6.84701 14.0865 7.99959Z" fill="#6DA544"/>
<path d="M13.1298 6.95605H10.8691V7.99952H13.1298V6.95605Z" fill="#FFDA44"/>
<path d="M24 0H0V1.39122H24V0Z" fill="#A2001D"/>
<path d="M24 14.6087H0V16H24V14.6087Z" fill="#A2001D"/>
</svg>
