<svg width="24" height="16" viewBox="0 0 24 16" fill="none" xmlns="http://www.w3.org/2000/svg">
<path d="M24 0.000488281H0V16H24V0.000488281Z" fill="#D80027"/>
<path d="M5.25 0.000488281H0L3.75 2.50042H2.68955L0 0.707475V3.24985H5.25V0.000488281Z" fill="#F0F0F0"/>
<path d="M0 4.74979V7.29323L2.68955 5.50024H3.75L0.000273041 7.99999H11.9997L8.25 5.50024H9.31045L12 7.29323V4.74979H6.75V7.99968H5.25V4.74979H0Z" fill="#F0F0F0"/>
<path d="M12 3.24985V0.707475L9.31045 2.50042H8.25L12 0.000488281H6.75V3.24985H12Z" fill="#F0F0F0"/>
<path d="M0 1.06112V2.50069H2.15948L0 1.06112Z" fill="#2E52B2"/>
<path d="M4.50008 0.000488281V2.29319L1.06077 0.000488281H4.50008Z" fill="#2E52B2"/>
<path d="M12 1.06112V2.50069H9.84054L12 1.06112Z" fill="#2E52B2"/>
<path d="M7.5 0.000488281V2.29319L10.9393 0.000488281H7.5Z" fill="#2E52B2"/>
<path d="M0 6.93985V5.50024H2.15948L0 6.93985Z" fill="#2E52B2"/>
<path d="M4.50008 7.99996V5.7073L1.06077 7.99996H4.50008Z" fill="#2E52B2"/>
<path d="M12 6.93985V5.50024H9.84054L12 6.93985Z" fill="#2E52B2"/>
<path d="M7.5 7.99996V5.7073L10.9393 7.99996H7.5Z" fill="#2E52B2"/>
<path d="M15.5645 4.86963V8.69555C15.5645 10.5592 20.434 10.5592 20.434 8.69555V4.86963H15.5645Z" fill="#F3F3F3"/>
<path d="M15.5645 8.6958C15.5645 10.5595 17.9992 11.1305 17.9992 11.1305C17.9992 11.1305 20.434 10.5595 20.434 8.6958V8.69585H15.5645V8.6958Z" fill="#6DA544"/>
<path d="M17.9996 7.16504L16.8691 7.65196V8.6954L17.9996 9.39104L19.13 8.6954V7.65196L17.9996 7.16504Z" fill="#A2001D"/>
<path d="M19.1298 6.60889H16.8691V7.65233H19.1298V6.60889Z" fill="#338AF3"/>
</svg>
