<svg width="24" height="16" viewBox="0 0 24 16" fill="none" xmlns="http://www.w3.org/2000/svg">
<path d="M24 0H0V16H24V0Z" fill="#6DA544"/>
<path d="M12 3.57861L18 7.99963L12 12.4207L6 7.99963L12 3.57861Z" fill="#FFDA44"/>
<path d="M11.9989 10.5261C13.3942 10.5261 14.5252 9.3951 14.5252 7.99989C14.5252 6.60467 13.3942 5.47363 11.9989 5.47363C10.6037 5.47363 9.47266 6.60467 9.47266 7.99989C9.47266 9.3951 10.6037 10.5261 11.9989 10.5261Z" fill="#F0F0F0"/>
<path d="M10.737 7.84182C10.2976 7.84182 9.8737 7.90867 9.47461 8.0326C9.49228 9.41259 10.6159 10.526 12.0001 10.526C12.856 10.526 13.6119 10.1 14.0689 9.44877C13.2872 8.47008 12.0841 7.84182 10.737 7.84182Z" fill="#0052B4"/>
<path d="M14.4795 8.48396C14.5099 8.32721 14.5264 8.16554 14.5264 7.99993C14.5264 6.60471 13.3953 5.47363 12.0001 5.47363C10.959 5.47363 10.0653 6.10353 9.67848 7.00282C10.0203 6.93204 10.3743 6.89468 10.7369 6.89468C12.2042 6.89473 13.5316 7.50461 14.4795 8.48396Z" fill="#0052B4"/>
</svg>
