<svg width="24" height="16" viewBox="0 0 24 16" fill="none" xmlns="http://www.w3.org/2000/svg">
<g clip-path="url(#clip0_15610_340452)">
<g clip-path="url(#clip1_15610_340452)">
<path d="M24 0H0V16H24V0Z" fill="#FFDA44"/>
<path d="M7.99983 0H0V16H7.99983V0Z" fill="#0052B4"/>
<path d="M24 0H16.0002V16H24V0Z" fill="#0052B4"/>
<path d="M14.4339 4.86945L14.9005 5.10279L14.4339 4.86945L13.9672 4.6361C13.9391 4.6924 13.3298 5.93214 13.2302 7.82591H12.5208V4.8694L11.9991 4.17383L11.4774 4.86945V7.82596H10.768C10.6684 5.93218 10.0591 4.69245 10.031 4.63615L9.09766 5.10279C9.10408 5.11558 9.73825 6.40641 9.73825 8.34772V8.86943H11.4774V11.8259H12.5208V8.86943H14.26V8.34772C14.26 7.344 14.4336 6.51643 14.5793 5.99889C14.7382 5.43452 14.8995 5.1049 14.9011 5.10166L14.4339 4.86945Z" fill="black"/>
</g>
</g>
<defs>
<clipPath id="clip0_15610_340452">
<rect width="24" height="16" fill="white"/>
</clipPath>
<clipPath id="clip1_15610_340452">
<rect width="24" height="16" fill="white"/>
</clipPath>
</defs>
</svg>
