<svg width="24" height="16" viewBox="0 0 24 16" fill="none" xmlns="http://www.w3.org/2000/svg">
<path d="M24 0H0V16H24V0Z" fill="#FFDA44"/>
<path d="M0 5.33205L24 15.044V12.8563L12.8077 8.43149L0 3.14453V5.33205Z" fill="black"/>
<path d="M24 12.856V10.6685L0 0.956543V3.14439" fill="#F0F0F0"/>
<path d="M14.2615 7.13058C14.2615 8.37903 13.2494 9.39113 12.001 9.39113C10.7525 9.39113 9.74045 8.37903 9.74045 7.13058C9.74045 6.74132 9.83884 6.37503 10.0121 6.05524C9.52159 6.55691 9.21878 7.24294 9.21878 8.00003C9.21878 9.53658 10.4644 10.7823 12.001 10.7823C13.5375 10.7823 14.7831 9.53658 14.7831 8.00003C14.7831 7.24299 14.4803 6.55691 13.9898 6.05524C14.1631 6.37503 14.2615 6.74132 14.2615 7.13058Z" fill="#D80027"/>
<path d="M12.5225 4.52197H11.4792V9.73843H12.5225V4.52197Z" fill="#D80027"/>
<path d="M13.7398 5.56527H10.2621C10.2621 5.80537 10.4712 5.99999 10.7113 5.99999H10.6968C10.6968 6.24009 10.8915 6.43472 11.1315 6.43472C11.1315 6.67482 11.3262 6.86945 11.5663 6.86945H12.4357C12.6758 6.86945 12.8704 6.67482 12.8704 6.43472C13.1105 6.43472 13.3051 6.24009 13.3051 5.99999H13.2907C13.5306 5.99999 13.7398 5.80541 13.7398 5.56527Z" fill="#D80027"/>
<path d="M14.4354 10.0868H9.56659V11.1302H14.4354V10.0868Z" fill="#D80027"/>
<path d="M15.1311 10.4341H13.0445V11.4775H15.1311V10.4341Z" fill="#D80027"/>
<path d="M10.9577 10.4341H8.87109V11.4775H10.9577V10.4341Z" fill="#D80027"/>
</svg>
