<svg width="24" height="16" viewBox="0 0 24 16" fill="none" xmlns="http://www.w3.org/2000/svg">
<path d="M24 0H0V16H24V0Z" fill="#FF9811"/>
<path d="M24 0H0V15.9998" fill="#FFDA44"/>
<path d="M16.5257 4.52121V3.12988H13.8589L13.6552 3.3336C12.9306 4.05823 13.0525 4.90361 13.1415 5.52086C13.224 6.09348 13.2339 6.31276 13.021 6.52571C12.8081 6.73861 12.5887 6.72872 12.0161 6.64617C11.3989 6.55721 10.5535 6.43529 9.82891 7.15987C9.10431 7.8845 9.22623 8.72984 9.3153 9.34704C9.39789 9.91951 9.40778 10.1389 9.19492 10.3517C8.98202 10.5646 8.76259 10.5547 8.1902 10.4721C7.96698 10.4399 7.73617 10.4066 7.48989 10.4039L7.47461 11.7951C7.62878 11.7968 7.80503 11.8222 7.99159 11.8491C8.21247 11.881 8.46245 11.9171 8.7258 11.9171C8.99866 11.9171 9.28572 11.8782 9.56922 11.7557V12.8689H11.6562V11.8254H10.6127V11.1298H11.3083V10.0863H10.7523C10.7787 9.74875 10.7323 9.4255 10.6923 9.14838C10.6097 8.5759 10.5998 8.35653 10.8127 8.14367C11.0256 7.93077 11.245 7.94061 11.8175 8.02321C12.2673 8.08808 12.8382 8.16997 13.3953 7.9295V9.04282H15.4822V7.99935H14.4387V7.30373H15.1344V6.26026H14.5784C14.6048 5.92267 14.5585 5.59947 14.5185 5.32225C14.4608 4.92222 14.4386 4.6946 14.503 4.52112H16.5257V4.52121Z" fill="#F0F0F0"/>
</svg>
