<svg width="24" height="16" viewBox="0 0 24 16" fill="none" xmlns="http://www.w3.org/2000/svg">
<path d="M24 0H0V16H24V0Z" fill="#D80027"/>
<path d="M9.91303 8H0V12.0001H9.91303V8Z" fill="#6DA544"/>
<path d="M24 8H14.0869V12.0001H24V8Z" fill="#6DA544"/>
<path d="M0 0V0.000140546V3.99989H9.91303V0.000140546H14.087V3.99989H24V0.000140546V0H0Z" fill="#0052B4"/>
<path d="M24 3.99951H14.0869V7.99964H24V3.99951Z" fill="#F0F0F0"/>
<path d="M9.91303 3.99951H0V7.99964H9.91303V3.99951Z" fill="#F0F0F0"/>
<path d="M14.087 15.9999H9.91303V12.0001H0V15.9999L24 16V12.0001H14.087V15.9999Z" fill="#FFDA44"/>
<path d="M5.61004 1.21729L5.82585 1.88159H6.52438L5.95935 2.29216L6.17516 2.95642L5.61004 2.5459L5.04501 2.95642L5.26087 2.29216L4.69579 1.88159H5.39423L5.61004 1.21729Z" fill="#FFDA44"/>
</svg>
