<svg width="24" height="16" viewBox="0 0 24 16" fill="none" xmlns="http://www.w3.org/2000/svg">
<g clip-path="url(#clip0_15610_340464)">
<g clip-path="url(#clip1_15610_340464)">
<path d="M24 0H0V16H24V0Z" fill="#F0F0F0"/>
<path d="M24 0H0V7.99972H24V0Z" fill="#F0F0F0"/>
<path d="M6.1573 2.60888L0.000244141 1.06967V2.60888H6.1573Z" fill="#0052B4"/>
<path d="M10.435 2.60864L0.000244141 0V0.737667L7.48428 2.60864H10.435Z" fill="#0052B4"/>
<path d="M2.77969 0L10.435 1.91395V0H2.77969Z" fill="#0052B4"/>
<path d="M17.8432 5.39082L24.0003 6.93003V5.39082H17.8432Z" fill="#0052B4"/>
<path d="M13.5654 5.39082L24.0002 7.99946V7.26175L16.5162 5.39082H13.5654Z" fill="#0052B4"/>
<path d="M21.2208 7.99995L13.5654 6.08595V7.99995H21.2208Z" fill="#0052B4"/>
<path d="M4.70549 5.39082L0.000244141 6.56706V5.39082H4.70549Z" fill="#0052B4"/>
<path d="M10.435 5.72282V7.99975H1.32794L10.435 5.72282Z" fill="#0052B4"/>
<path d="M19.295 2.60833L24.0002 1.43204V2.60833H19.295Z" fill="#0052B4"/>
<path d="M13.5654 2.27683V0H22.6725L13.5654 2.27683Z" fill="#0052B4"/>
<path d="M24.0003 8.74212V9.78872C23.7927 9.8237 23.3977 10.0475 23.1035 10.215C22.5901 10.5066 22.1049 10.7821 21.641 10.7821C21.1767 10.7821 20.692 10.5066 20.178 10.215C19.8577 10.0329 19.4189 9.78402 19.2306 9.78402C19.0422 9.78402 18.6034 10.0329 18.2831 10.215C17.7697 10.5066 17.2845 10.7821 16.8206 10.7821C16.3568 10.7821 15.8716 10.5066 15.3577 10.215C15.0373 10.0329 14.5985 9.78402 14.4102 9.78402C14.2224 9.78402 13.7836 10.0329 13.4632 10.215C12.9493 10.5066 12.4641 10.7821 12.0003 10.7821C11.5364 10.7821 11.0512 10.5066 10.5373 10.215C10.217 10.0329 9.77814 9.78402 9.59032 9.78402C9.40199 9.78402 8.96317 10.0329 8.64284 10.215C8.12895 10.5066 7.64373 10.7821 7.17987 10.7821C6.71607 10.7821 6.23084 10.5066 5.71742 10.215C5.39709 10.0329 4.95828 9.78402 4.76994 9.78402C4.5816 9.78402 4.14279 10.0329 3.82246 10.215C3.30857 10.5066 2.82386 10.7821 2.35949 10.7821C1.89568 10.7821 1.41046 10.5066 0.897037 10.215C0.602974 10.0475 0.207987 9.8237 0.000349335 9.78872V8.74212C0.448528 8.76039 0.91756 9.02649 1.41272 9.30769C1.73305 9.48925 2.17186 9.73864 2.35968 9.73864C2.54802 9.73864 2.98683 9.48925 3.30716 9.30769C3.82105 9.01604 4.30627 8.74057 4.77013 8.74057C5.23398 8.74057 5.71916 9.01604 6.23258 9.30769C6.55291 9.48925 6.99172 9.73864 7.18006 9.73864C7.3684 9.73864 7.80721 9.48925 8.12754 9.30769C8.64143 9.01604 9.12614 8.74057 9.59051 8.74057C10.0543 8.74057 10.5395 9.01604 11.053 9.30769C11.3733 9.48925 11.8121 9.73864 12.0004 9.73864C12.1888 9.73864 12.6276 9.48925 12.9479 9.30769C13.4613 9.01604 13.9465 8.74057 14.4104 8.74057C14.8747 8.74057 15.3594 9.01604 15.8733 9.30769C16.1937 9.48925 16.6325 9.73864 16.8208 9.73864C17.0092 9.73864 17.448 9.48925 17.7683 9.30769C18.2817 9.01604 18.7669 8.74057 19.2308 8.74057C19.6946 8.74057 20.1798 9.01604 20.6937 9.30769C21.0141 9.48925 21.4529 9.73864 21.6412 9.73864C21.829 9.73864 22.2678 9.48925 22.5882 9.30769C23.0831 9.02649 23.5522 8.76039 24.0003 8.74212Z" fill="#0052B4"/>
<path d="M24.0002 11.351V12.3976C23.7926 12.4326 23.3976 12.6564 23.1033 12.8239C22.5899 13.1155 22.1047 13.391 21.6409 13.391C21.1765 13.391 20.6918 13.1155 20.1779 12.8239C19.8576 12.6418 19.4187 12.3929 19.2304 12.3929C19.0421 12.3929 18.6033 12.6418 18.2829 12.8239C17.7696 13.1155 17.2843 13.391 16.8205 13.391C16.3566 13.391 15.8714 13.1155 15.3575 12.8239C15.0372 12.6418 14.5984 12.3929 14.41 12.3929C14.2222 12.3929 13.7834 12.6418 13.4631 12.8239C12.9492 13.1155 12.4639 13.391 12.0001 13.391C11.5362 13.391 11.0511 13.1155 10.5371 12.8239C10.2168 12.6418 9.77798 12.3929 9.59016 12.3929C9.40182 12.3929 8.96301 12.6418 8.64268 12.8239C8.12879 13.1155 7.64357 13.391 7.17971 13.391C6.7159 13.391 6.23068 13.1155 5.71726 12.8239C5.39693 12.6418 4.95812 12.3929 4.76978 12.3929C4.58144 12.3929 4.14263 12.6418 3.8223 12.8239C3.30841 13.1155 2.8237 13.391 2.35933 13.391C1.89552 13.391 1.4103 13.1155 0.896876 12.8239C0.602624 12.6564 0.207638 12.4325 0 12.3976V11.351C0.448179 11.3693 0.917211 11.6354 1.41237 11.9166C1.7327 12.0981 2.17151 12.3475 2.35933 12.3475C2.54767 12.3475 2.98648 12.0981 3.30681 11.9166C3.8207 11.6249 4.30592 11.3495 4.76978 11.3495C5.23363 11.3495 5.71881 11.6249 6.23223 11.9166C6.55256 12.0981 6.99137 12.3475 7.17971 12.3475C7.36805 12.3475 7.80686 12.0981 8.12719 11.9166C8.64108 11.6249 9.12579 11.3495 9.59016 11.3495C10.054 11.3495 10.5392 11.6249 11.0526 11.9166C11.3729 12.0981 11.8118 12.3475 12.0001 12.3475C12.1884 12.3475 12.6272 12.0981 12.9476 11.9166C13.4609 11.6249 13.9462 11.3495 14.41 11.3495C14.8744 11.3495 15.3591 11.6249 15.873 11.9166C16.1933 12.0981 16.6321 12.3475 16.8205 12.3475C17.0088 12.3475 17.4476 12.0981 17.768 11.9166C18.2813 11.6249 18.7666 11.3495 19.2304 11.3495C19.6942 11.3495 20.1794 11.6249 20.6934 11.9166C21.0137 12.0981 21.4525 12.3475 21.6409 12.3475C21.8287 12.3475 22.2675 12.0981 22.5878 11.9166C23.083 11.6353 23.552 11.3692 24.0002 11.351Z" fill="#0052B4"/>
<path d="M24.0002 13.9594V15.006C23.7926 15.0409 23.3976 15.2647 23.1033 15.4322C22.5899 15.7239 22.1047 15.9993 21.6409 15.9993C21.1765 15.9993 20.6918 15.7239 20.1779 15.4322C19.8576 15.2501 19.4187 15.0013 19.2304 15.0013C19.0421 15.0013 18.6033 15.2501 18.2829 15.4322C17.7696 15.7239 17.2843 15.9993 16.8205 15.9993C16.3566 15.9993 15.8714 15.7239 15.3575 15.4322C15.0372 15.2501 14.5984 15.0013 14.41 15.0013C14.2222 15.0013 13.7834 15.2501 13.4631 15.4322C12.9492 15.7239 12.4639 15.9993 12.0001 15.9993C11.5362 15.9993 11.0511 15.7239 10.5371 15.4322C10.2168 15.2501 9.77798 15.0013 9.59016 15.0013C9.40182 15.0013 8.96301 15.2501 8.64268 15.4322C8.12879 15.7239 7.64357 15.9993 7.17971 15.9993C6.7159 15.9993 6.23068 15.7239 5.71726 15.4322C5.39693 15.2501 4.95812 15.0013 4.76978 15.0013C4.58144 15.0013 4.14263 15.2501 3.8223 15.4322C3.30841 15.7239 2.8237 15.9993 2.35933 15.9993C1.89552 15.9993 1.4103 15.7239 0.896876 15.4322C0.602624 15.2647 0.207638 15.0409 0 15.006V13.9594C0.448179 13.9776 0.917211 14.2437 1.41237 14.5249C1.7327 14.7065 2.17151 14.9559 2.35933 14.9559C2.54767 14.9559 2.98648 14.7065 3.30681 14.5249C3.8207 14.2333 4.30592 13.9578 4.76978 13.9578C5.23363 13.9578 5.71881 14.2333 6.23223 14.5249C6.55256 14.7065 6.99137 14.9559 7.17971 14.9559C7.36805 14.9559 7.80686 14.7065 8.12719 14.5249C8.64108 14.2333 9.12579 13.9578 9.59016 13.9578C10.054 13.9578 10.5392 14.2333 11.0526 14.5249C11.3729 14.7065 11.8118 14.9559 12.0001 14.9559C12.1884 14.9559 12.6272 14.7065 12.9476 14.5249C13.4609 14.2333 13.9462 13.9578 14.41 13.9578C14.8744 13.9578 15.3591 14.2333 15.873 14.5249C16.1933 14.7065 16.6321 14.9559 16.8205 14.9559C17.0088 14.9559 17.4476 14.7065 17.768 14.5249C18.2813 14.2333 18.7666 13.9578 19.2304 13.9578C19.6942 13.9578 20.1794 14.2333 20.6934 14.5249C21.0137 14.7065 21.4525 14.9559 21.6409 14.9559C21.8287 14.9559 22.2675 14.7065 22.5878 14.5249C23.083 14.2437 23.552 13.9776 24.0002 13.9594Z" fill="#0052B4"/>
<path d="M24 3.24995H0V4.74995H24V3.24995Z" fill="#D80027"/>
<path d="M13.5652 5.39082L24 7.99946V7.26175L16.5159 5.39082H13.5652Z" fill="#D80027"/>
<path d="M7.48399 5.39082L0 7.26175V7.99946L10.4348 5.39082H7.48399Z" fill="#D80027"/>
<path d="M10.4348 2.60864L0 0V0.737667L7.48404 2.60864H10.4348Z" fill="#D80027"/>
<path d="M16.516 2.60864L24 0.737714V0L13.5652 2.60864H16.516Z" fill="#D80027"/>
<path d="M12.7497 0.000458652H11.2502V8.00018H12.7497V0.000458652Z" fill="#D80027"/>
<path d="M14.4266 14.2666L15.3191 12.6434L13.4989 12.9915L13.2683 11.1528L12.0005 12.5051L10.7328 11.1528L10.5021 12.9915L8.68206 12.6434L9.5746 14.2666L7.89844 15.0551L9.57455 15.8434L9.48869 15.9997H14.5123L14.4265 15.8434L16.1026 15.0551L14.4266 14.2666Z" fill="#FFDA44"/>
</g>
</g>
<defs>
<clipPath id="clip0_15610_340464">
<rect width="24" height="16" fill="white"/>
</clipPath>
<clipPath id="clip1_15610_340464">
<rect width="24.0003" height="16" fill="white"/>
</clipPath>
</defs>
</svg>
