<svg width="24" height="16" viewBox="0 0 24 16" fill="none" xmlns="http://www.w3.org/2000/svg">
<path d="M24 0H0V16H24V0Z" fill="#6DA544"/>
<path d="M16.2814 11.4777L16.5009 11.9367L16.9967 11.8221L16.7747 12.28L17.1733 12.5961L16.677 12.7079L16.6784 13.2168L16.2814 12.8985L15.8845 13.2168L15.8859 12.7079L15.3895 12.5961L15.7882 12.28L15.5662 11.8221L16.0619 11.9367L16.2814 11.4777Z" fill="#FFDA44"/>
<path d="M14.2393 6.60792L14.4589 7.06701L14.9546 6.95236L14.7326 7.41023L15.1312 7.72635L14.6349 7.83824L14.6362 8.34706L14.2393 8.02869L13.8424 8.34706L13.8437 7.83824L13.3474 7.72635L13.746 7.41023L13.524 6.95236L14.0197 7.06701L14.2393 6.60792Z" fill="#FFDA44"/>
<path d="M16.2814 3.82596L16.5009 4.28496L16.9967 4.17035L16.7747 4.62827L17.1733 4.94439L16.677 5.05628L16.6784 5.56505L16.2814 5.24673L15.8845 5.56505L15.8859 5.05628L15.3895 4.94439L15.7882 4.62827L15.5662 4.17035L16.0619 4.28496L16.2814 3.82596Z" fill="#FFDA44"/>
<path d="M18.0653 5.91302L18.2848 6.37202L18.7806 6.25745L18.5586 6.71533L18.9572 7.03145L18.4609 7.14329L18.4622 7.65211L18.0653 7.33379L17.6683 7.65211L17.6697 7.14329L17.1733 7.03145L17.572 6.71533L17.35 6.25745L17.8458 6.37202L18.0653 5.91302Z" fill="#FFDA44"/>
<path d="M16.7897 8.34716L16.9624 8.87862H17.5212L17.0692 9.20702L17.2419 9.73839L16.7897 9.40998L16.3377 9.73839L16.5104 9.20702L16.0583 8.87862H16.6171L16.7897 8.34716Z" fill="#FFDA44"/>
<path d="M12.8703 10.2602C11.6216 10.2602 10.6094 9.24803 10.6094 7.99939C10.6094 6.75074 11.6216 5.73853 12.8703 5.73853C13.2596 5.73853 13.6259 5.83697 13.9457 6.01027C13.444 5.51963 12.7579 5.21682 12.0007 5.21682C10.4639 5.21682 9.21807 6.46261 9.21807 7.99939C9.21807 9.53617 10.4639 10.7819 12.0007 10.7819C12.7579 10.7819 13.444 10.4791 13.9457 9.9885C13.6259 10.1618 13.2596 10.2602 12.8703 10.2602Z" fill="#FFDA44"/>
<path d="M9.03154 3.13019C8.79093 2.71441 8.34168 2.43457 7.82685 2.43457C7.31202 2.43457 6.86272 2.71446 6.62216 3.13019H9.03154Z" fill="#FFDA44"/>
<path d="M9.03617 3.13792L7.82684 4.34723L6.61752 3.13792C6.50197 3.34079 6.43555 3.57531 6.43555 3.82552C6.43555 4.59393 7.05847 5.21685 7.82689 5.21685C8.59531 5.21685 9.21823 4.59393 9.21823 3.82552C9.21814 3.57531 9.15172 3.34079 9.03617 3.13792Z" fill="#FFDA44"/>
<path d="M7.47852 3.99951V5.17306C7.5897 5.20165 7.70623 5.21689 7.82637 5.21689C7.94652 5.21689 8.06305 5.20165 8.17423 5.17306V3.99951H7.47852Z" fill="#A2001D"/>
</svg>
