<svg width="24" height="16" viewBox="0 0 24 16" fill="none" xmlns="http://www.w3.org/2000/svg">
<path d="M24 0H0V16H24V0Z" fill="#FCFCFC"/>
<path d="M14.4352 6.6084V7.30402H15.3899C14.9915 7.85779 14.4607 8.3098 13.8441 8.61425C13.6859 8.44991 13.4639 8.34749 13.2178 8.34749C12.8029 8.34749 12.4561 8.63811 12.3693 9.02679C12.2478 9.03744 12.1247 9.04311 12.0004 9.04311C11.876 9.04311 11.753 9.03744 11.6314 9.02679C11.5446 8.63811 11.1978 8.34749 10.783 8.34749C10.5369 8.34749 10.3148 8.44991 10.1566 8.61421C9.54005 8.30985 9.00933 7.85774 8.61089 7.30402H9.56564V6.6084H7.13086C7.13086 9.29773 9.31106 11.4779 12.0004 11.4779C14.6898 11.4779 16.87 9.29773 16.87 6.6084H14.4352Z" fill="#D80027"/>
</svg>
