<svg width="24" height="16" viewBox="0 0 24 16" fill="none" xmlns="http://www.w3.org/2000/svg">
<path d="M24 0H0V16H24V0Z" fill="#FFDA44"/>
<path fill-rule="evenodd" clip-rule="evenodd" d="M1 0.986328H23V15.0135H1V0.986328ZM14.8989 8.50033C14.8998 8.33253 14.8855 8.16227 14.8549 7.99115C14.584 6.47842 13.1381 5.47175 11.6254 5.74263C10.2795 5.98363 9.33423 7.15465 9.33277 8.47532C9.33258 8.63915 9.34691 8.80529 9.37681 8.97224C9.43771 9.31237 9.55801 9.62691 9.72513 9.90709L12.1158 8.48179L12.1183 8.4835L14.5017 9.9138C14.7533 9.49501 14.896 9.00896 14.8989 8.50033ZM10.7827 12.4867C10.7828 11.8144 11.3278 11.2694 12.0001 11.2694C12.6724 11.2695 13.2174 11.8144 13.2175 12.4867H10.7827Z" fill="#D80027"/>
<path fill-rule="evenodd" clip-rule="evenodd" d="M9.72513 9.90707L9.71616 9.89191L1 15.0136H23L12.1183 8.48348L12.1157 8.48193L12.107 8.48704L9.72513 9.90707ZM10.7827 12.4867C10.7828 11.8144 11.3278 11.2695 12.0001 11.2695C12.6724 11.2696 13.2174 11.8145 13.2175 12.4867H10.7827Z" fill="#F0F0F0"/>
<path fill-rule="evenodd" clip-rule="evenodd" d="M1 3.79491V0.986328H4.64507L10.1488 6.51318C9.90503 6.75717 9.70808 7.04482 9.56877 7.36052L1 3.79491ZM9.3348 8.37218H1V11.6928L9.41517 9.15248C9.40053 9.09325 9.38772 9.03316 9.37681 8.97224C9.35419 8.84591 9.34048 8.72005 9.33523 8.59531C9.33208 8.52049 9.33196 8.44607 9.3348 8.37218ZM14.5017 9.91369C14.6316 9.69749 14.7325 9.46337 14.8001 9.21748L23 11.6929V15.0135L14.5017 9.91369ZM10.9941 5.93448C11.192 5.84753 11.4032 5.78241 11.6254 5.74263C11.7509 5.72015 11.876 5.70647 12 5.70115L12 0.986328H8.95233L10.9941 5.93448ZM13.9632 6.40065C13.6939 6.1619 13.3797 5.97618 13.0383 5.85589L15.0477 0.986328H19.3549L13.9632 6.40065ZM14.6261 7.27946C14.7317 7.5002 14.8096 7.73863 14.8549 7.99115C14.8777 8.1189 14.8915 8.24617 14.8966 8.37229L23 8.37257V3.79514L14.6261 7.27946ZM12.0001 13.704C12.6724 13.704 13.2175 13.159 13.2175 12.4867H10.7827C10.7827 13.159 11.3278 13.704 12.0001 13.704Z" fill="#0052B4"/>
</svg>
