<svg width="24" height="16" viewBox="0 0 24 16" fill="none" xmlns="http://www.w3.org/2000/svg">
<path d="M24 0H0V16H24V0Z" fill="#D80027"/>
<path d="M8.38685 4.88589L9.07385 7.00026H11.2971L9.49844 8.30703L10.1855 10.4215L8.38685 9.11468L6.5882 10.4215L7.2752 8.30703L5.47656 7.00026H7.6998L8.38685 4.88589Z" fill="#FFDA44"/>
<path d="M12.717 11.9182L12.0424 11.4281L11.368 11.9182L11.6256 11.1253L10.9511 10.6352H11.7848L12.0424 9.84232L12.3002 10.6352H13.1338L12.4593 11.1253L12.717 11.9182Z" fill="#FFDA44"/>
<path d="M14.4766 9.49639H13.6429L13.3853 10.2892L13.1277 9.49644L12.2939 9.49639L12.9685 9.00632L12.7108 8.21344L13.3853 8.70341L14.0598 8.21344L13.8021 9.00632L14.4766 9.49639Z" fill="#FFDA44"/>
<path d="M14.4766 6.50301L13.8021 6.99308L14.0597 7.78591L13.3853 7.29593L12.7108 7.78601L12.9685 6.99303L12.2939 6.5031L13.1277 6.50301L13.3853 5.71008L13.6429 6.50301H14.4766Z" fill="#FFDA44"/>
<path d="M12.717 4.0811L12.4595 4.87403L13.1339 5.36401L12.3002 5.36406L12.0425 6.15704L11.7849 5.36401L10.9512 5.36411L11.6257 4.87399L11.3681 4.08105L12.0425 4.57113L12.717 4.0811Z" fill="#FFDA44"/>
</svg>
