<svg width="24" height="16" viewBox="0 0 24 16" fill="none" xmlns="http://www.w3.org/2000/svg">
<path d="M24 0H0V16H24V0Z" fill="#0052B4"/>
<path d="M18.0001 3.34596L18.2477 4.10786H19.0488L18.4007 4.57871L18.6482 5.34061L18.0001 4.86966L17.3521 5.34061L17.5996 4.57871L16.9515 4.10786H17.7526L18.0001 3.34596Z" fill="#F0F0F0"/>
<path d="M14.709 4.70841L15.4228 5.07207L15.9892 4.50568L15.8639 5.29688L16.5777 5.66058L15.7865 5.78587L15.6612 6.57711L15.2974 5.86336L14.5063 5.98865L15.0728 5.42222L14.709 4.70841Z" fill="#F0F0F0"/>
<path d="M13.3458 7.99937L14.1077 7.75183L14.1077 6.95079L14.5785 7.59883L15.3404 7.35124L14.8695 7.99937L15.3404 8.64746L14.5785 8.39996L14.1077 9.048V8.24691L13.3458 7.99937Z" fill="#F0F0F0"/>
<path d="M14.709 11.2903L15.0727 10.5764L14.5063 10.01L15.2976 10.1354L15.6612 9.4216L15.7865 10.2128L16.5777 10.338L15.8639 10.7017L15.9892 11.4931L15.4228 10.9265L14.709 11.2903Z" fill="#F0F0F0"/>
<path d="M18.0001 12.6541L17.7525 11.8923H16.9514L17.5995 11.4214L17.352 10.6595L18.0001 11.1303L18.6482 10.6595L18.4007 11.4214L19.0488 11.8923H18.2477L18.0001 12.6541Z" fill="#F0F0F0"/>
<path d="M21.2912 11.2903L20.5773 10.9266L20.011 11.4931L20.1363 10.7017L19.4225 10.3382L20.2137 10.2128L20.3391 9.4216L20.7026 10.1354L21.4939 10.01L20.9274 10.5765L21.2912 11.2903Z" fill="#F0F0F0"/>
<path d="M22.6543 7.99937L21.8924 8.24691V9.048L21.4215 8.39991L20.6596 8.64746L21.1305 7.99937L20.6596 7.35124L21.4215 7.59883L21.8924 6.95079V7.75183L22.6543 7.99937Z" fill="#F0F0F0"/>
<path d="M21.2912 4.70898L20.9276 5.42269L21.4939 5.98912L20.7026 5.86383L20.3391 6.57759L20.2137 5.78634L19.4225 5.66095L20.1363 5.29735L20.011 4.5062L20.5774 5.07254L21.2912 4.70898Z" fill="#F0F0F0"/>
<path d="M0 4.75031V5.5003H2.15948L0 6.93991V7.2933L2.68955 5.50026H3.75L0 8.00026H5.25V4.75027L0 4.75031ZM4.5 8.00017H1.06069L4.5 5.7074V8.00017Z" fill="#F0F0F0"/>
<path d="M8.25 2.5L12 0H6.75V3.25H12V2.5H9.84052L12 1.0603V0.706914L9.31045 2.49991L8.25 2.5ZM7.5 9.36975e-05H10.9393L7.5 2.29287V9.36975e-05Z" fill="#F0F0F0"/>
<path d="M6.75 7.99992H12L8.25 5.49991H9.31045L12 7.29301V6.93962L9.84052 5.49996H12V4.74997H6.75V7.99992ZM7.5 5.70705L10.9393 7.99983H7.5V5.70705Z" fill="#F0F0F0"/>
<path d="M5.25 0H0L3.75 2.5H2.68955L0 0.706961V1.06035L2.15948 2.49996H0V3.24995H5.25V0ZM4.5 2.29287L1.06069 9.36975e-05H4.5V2.29287Z" fill="#F0F0F0"/>
<path d="M6.75 0H5.25V3.25H0V4.74998H5.25V7.99993H6.75V4.74998H12V3.25H6.75V0Z" fill="#D80027"/>
<path d="M3.75 2.5L0 0V0.706961L2.68955 2.5H3.75Z" fill="#D80027"/>
<path d="M8.25 2.5H9.31045L12 0.706961V0L8.25 2.5Z" fill="#D80027"/>
<path d="M2.68955 5.49996L0 7.29301V7.99992L3.75 5.49996H2.68955Z" fill="#D80027"/>
<path d="M8.25 5.49996L12 7.99992V7.29301L9.31045 5.49996H8.25Z" fill="#D80027"/>
</svg>
