<svg width="24" height="16" viewBox="0 0 24 16" fill="none" xmlns="http://www.w3.org/2000/svg">
<g clip-path="url(#clip0_15610_340432)">
<path d="M0 0H24V15.9995H0.000776873L12 8.00031L0 0Z" fill="#0052B4"/>
<path d="M5.13057 5.62161C4.0367 5.86048 3.21751 6.83421 3.21751 7.99974C3.21751 9.16528 4.03665 10.139 5.13057 10.3779C4.96243 10.4146 4.78801 10.4345 4.60885 10.4345C3.26415 10.4345 2.17407 9.34443 2.17407 7.99974C2.17407 6.65505 3.2641 5.56499 4.60885 5.56499C4.78801 5.56499 4.96243 5.58486 5.13057 5.62161Z" fill="#0052B4"/>
<path d="M5.23316 6.31141L5.10369 5.91284L4.97413 6.31141H4.55507L4.89416 6.55778L4.7646 6.95631L5.10369 6.70998L5.44269 6.95631L5.31323 6.55778L5.65223 6.31141H5.23316Z" fill="#0052B4"/>
<path d="M5.10369 6.95609L5.23316 7.35467H5.65223L5.31323 7.60099L5.44269 7.99957L5.10369 7.75324L4.7646 7.99957L4.89416 7.60099L4.55507 7.35467H4.97413L5.10369 6.95609Z" fill="#0052B4"/>
<path d="M5.23316 8.39847L5.10369 7.9999L4.97413 8.39847H4.55507L4.89416 8.6448L4.7646 9.04337L5.10369 8.79705L5.44269 9.04337L5.31323 8.6448L5.65223 8.39847H5.23316Z" fill="#0052B4"/>
<path d="M5.10369 9.04314L5.23316 9.44167H5.65223L5.31323 9.68804L5.44269 10.0866L5.10369 9.84029L4.7646 10.0866L4.89416 9.68804L4.55507 9.44167H4.97413L5.10369 9.04314Z" fill="#0052B4"/>
<path d="M0 0H24V4.00013H5.99996L0 0Z" fill="#FFDA44"/>
<path d="M6 12.0001H23.9998V8H11.9992L6 12.0001Z" fill="#D80027"/>
<path fill-rule="evenodd" clip-rule="evenodd" d="M0 16L12 8.00031L0 0V16ZM3.21751 7.99974C3.21751 6.83421 4.0367 5.86048 5.13057 5.62161C4.96243 5.58486 4.78801 5.56499 4.60885 5.56499C3.2641 5.56499 2.17407 6.65505 2.17407 7.99974C2.17407 9.34443 3.26415 10.4345 4.60885 10.4345C4.78801 10.4345 4.96243 10.4146 5.13057 10.3779C4.03665 10.139 3.21751 9.16528 3.21751 7.99974ZM5.10369 5.91284L5.23316 6.31141H5.65223L5.31323 6.55778L5.44269 6.95631L5.10369 6.70998L4.7646 6.95631L4.89416 6.55778L4.55507 6.31141H4.97413L5.10369 5.91284ZM5.23316 7.35467L5.10369 6.95609L4.97413 7.35467H4.55507L4.89416 7.60099L4.7646 7.99957L5.10369 7.75324L5.44269 7.99957L5.31323 7.60099L5.65223 7.35467H5.23316ZM5.10369 7.9999L5.23316 8.39847H5.65223L5.31323 8.6448L5.44269 9.04337L5.10369 8.79705L4.7646 9.04337L4.89416 8.6448L4.55507 8.39847H4.97413L5.10369 7.9999ZM5.23316 9.44167L5.10369 9.04314L4.97413 9.44167H4.55507L4.89416 9.68804L4.7646 10.0866L5.10369 9.84029L5.44269 10.0866L5.31323 9.68804L5.65223 9.44167H5.23316Z" fill="#6DA544"/>
<path d="M3.21727 8.00013H2.17383C2.17383 8.00002 2.17383 8.00024 2.17383 8.00013C2.17383 6.65544 3.26386 5.56505 4.60861 5.56505C4.78777 5.56505 4.96219 5.58492 5.13033 5.62167C4.03645 5.86054 3.21727 6.83459 3.21727 8.00013C3.21727 8.00024 3.21727 8.00002 3.21727 8.00013Z" fill="#F0F0F0"/>
<path d="M11.9994 8.00013L5.99944 4H23.9998V8.00013H11.9994Z" fill="#F0F0F0"/>
<path d="M5.23292 6.31147L5.10345 5.9129L4.97389 6.31147H4.55482L4.89392 6.55784L4.76436 6.95637L5.10345 6.71004L5.44245 6.95637L5.31298 6.55784L5.65198 6.31147H5.23292Z" fill="#F0F0F0"/>
<path d="M5.10345 6.95615L5.23292 7.35472H5.65198L5.31298 7.60105L5.44245 7.99962L5.10345 7.7533L4.76436 7.99962L4.89392 7.60105L4.55482 7.35472H4.97389L5.10345 6.95615Z" fill="#F0F0F0"/>
<path d="M3.21727 8.00013C3.21727 6.83459 4.03645 5.86054 5.13033 5.62167C4.96219 5.58492 4.78777 5.56505 4.60861 5.56505C3.26386 5.56505 2.17383 6.65544 2.17383 8.00013C2.17383 9.34482 3.26391 10.4346 4.60861 10.4346C4.78777 10.4346 4.96219 10.4146 5.13033 10.3779C4.03641 10.1391 3.21727 9.16566 3.21727 8.00013Z" fill="#F0F0F0"/>
<path d="M5.10345 5.9129L5.23292 6.31147H5.65198L5.31298 6.55784L5.44245 6.95637L5.10345 6.71004L4.76436 6.95637L4.89392 6.55784L4.55482 6.31147H4.97389L5.10345 5.9129Z" fill="#F0F0F0"/>
<path d="M5.10345 6.95615L5.23292 7.35472H5.65198L5.31298 7.60105L5.44245 7.99962L5.10345 7.7533L4.76436 7.99962L4.89392 7.60105L4.55482 7.35472H4.97389L5.10345 6.95615Z" fill="#F0F0F0"/>
<path d="M5.10339 8.00013L5.23292 8.39853H5.65198L5.31298 8.64486L5.44245 9.04343L5.10345 8.7971L4.76436 9.04343L4.89392 8.64486L4.55482 8.39853H4.97389L5.10339 8.00013Z" fill="#F0F0F0"/>
<path d="M5.10345 9.0432L5.23292 9.44172H5.65198L5.31298 9.6881L5.44245 10.0867L5.10345 9.84035L4.76436 10.0867L4.89392 9.6881L4.55482 9.44172H4.97389L5.10345 9.0432Z" fill="#F0F0F0"/>
</g>
<defs>
<clipPath id="clip0_15610_340432">
<rect width="24" height="16" fill="white"/>
</clipPath>
</defs>
</svg>
