<svg width="24" height="16" viewBox="0 0 24 16" fill="none" xmlns="http://www.w3.org/2000/svg">
<path d="M24 0H0V16H24V0Z" fill="#0052B4"/>
<path d="M24 11.1299H0V12.1734H24V11.1299Z" fill="#D80027"/>
<path d="M24 10.0864H0V11.1299H24V10.0864Z" fill="#F0F0F0"/>
<path d="M24 12.1735H0V13.217H24V12.1735Z" fill="#F0F0F0"/>
<path d="M8.4549 8.24707L8.59571 8.68061H9.05157L8.68281 8.9485L8.82367 9.38199L8.4549 9.1141L8.08614 9.38199L8.22699 8.9485L7.85828 8.68061H8.31409L8.4549 8.24707Z" fill="#FFDA44"/>
<path d="M8.4549 13.9215L8.59571 14.3549H9.05157L8.68281 14.6228L8.82367 15.0563L8.4549 14.7884L8.08614 15.0563L8.22699 14.6228L7.85828 14.3549H8.31409L8.4549 13.9215Z" fill="#FFDA44"/>
<path d="M5.81347 12.0025L5.95428 12.436H6.41014L6.04142 12.7039L6.18223 13.1374L5.81347 12.8695L5.4447 13.1374L5.58556 12.7039L5.2168 12.436H5.67266L5.81347 12.0025Z" fill="#FFDA44"/>
<path d="M6.8225 8.81471L6.96331 9.24821H7.41917L7.05045 9.51615L7.19127 9.94964L6.8225 9.68171L6.45374 9.94964L6.5946 9.51615L6.22583 9.24821H6.68169L6.8225 8.81471Z" fill="#FFDA44"/>
<path d="M5.2168 10.5999L5.67256 10.5999L5.81342 10.1664L5.95428 10.5999L6.41014 10.5998L6.04137 10.8678L6.18223 11.3013L5.81342 11.0334L5.4447 11.3012L5.58552 10.8678L5.2168 10.5999Z" fill="#FFDA44"/>
<path d="M6.45366 14.4065L6.59452 13.9731L6.22571 13.7051H6.68157L6.82243 13.2716L6.96329 13.7051H7.4191L7.05033 13.973L7.19115 14.4066L6.82238 14.1386L6.45366 14.4065Z" fill="#FFDA44"/>
<path d="M11.0955 12.0025L10.9547 12.436H10.4988L10.8675 12.7039L10.7267 13.1374L11.0955 12.8695L11.4642 13.1374L11.3234 12.7039L11.6921 12.436H11.2363L11.0955 12.0025Z" fill="#FFDA44"/>
<path d="M10.0865 8.81471L9.94569 9.24821H9.48983L9.85855 9.51615L9.71774 9.94964L10.0865 9.68171L10.4553 9.94964L10.3144 9.51615L10.6832 9.24821H10.2273L10.0865 8.81471Z" fill="#FFDA44"/>
<path d="M11.6921 10.5999L11.2364 10.5999L11.0955 10.1664L10.9547 10.5999L10.4988 10.5998L10.8676 10.8678L10.7267 11.3013L11.0955 11.0334L11.4642 11.3012L11.3234 10.8678L11.6921 10.5999Z" fill="#FFDA44"/>
<path d="M10.4553 14.4065L10.3144 13.9731L10.6832 13.7051H10.2274L10.0865 13.2716L9.94564 13.7051H9.48983L9.8586 13.973L9.71778 14.4066L10.0865 14.1386L10.4553 14.4065Z" fill="#FFDA44"/>
</svg>
