<svg width="24" height="16" viewBox="0 0 24 16" fill="none" xmlns="http://www.w3.org/2000/svg">
<path d="M24 0.015625H0V15.984H24V0.015625Z" fill="#F0F0F0"/>
<path fill-rule="evenodd" clip-rule="evenodd" d="M24 0.015625H0V3.20922H24V0.015625ZM3.75475 6.40315H0V9.59674H2.71508L3.07489 8.49154L1.71875 7.5081H3.39505L3.75475 6.40315ZM4.07128 6.40315L4.43099 7.5081H6.10738L4.75124 8.49154L5.11098 9.59674H24V6.40315H4.07128ZM4.599 9.59674L3.91302 9.09931L3.22703 9.59674H4.599ZM0 12.7901H24V15.9837H0V12.7901Z" fill="#0052B4"/>
<path fill-rule="evenodd" clip-rule="evenodd" d="M0 15.9846L12 8.00033L0 0.015625V15.9846ZM4.43099 7.5081L3.91302 5.91699L3.39505 7.5081H1.71875L3.07489 8.49154L2.55688 10.0827L3.91302 9.09931L5.26916 10.0827L4.75124 8.49154L6.10738 7.5081H4.43099Z" fill="#D80027"/>
</svg>
