<svg width="24" height="16" viewBox="0 0 24 16" fill="none" xmlns="http://www.w3.org/2000/svg">
<path fill-rule="evenodd" clip-rule="evenodd" d="M0 0H24V16H0V0ZM12.6957 9.39112H12C12.2957 8.78241 12 8.3476 12 8.3476C11.3044 7.99983 10.9565 8.69545 10.9565 8.69545L10.6086 8.3476L10.9565 7.65198L10.6087 6.95636H10.9565C10.9565 6.95636 11.1304 7.47807 11.826 7.47807C12.5217 7.47807 12.6956 6.95636 12.6956 6.95636H13.0435L13.3913 7.65202L12.6957 8.34764C12.9971 8.85787 12.6957 9.39112 12.6957 9.39112Z" fill="#0052B4"/>
<path d="M5.98032 12.5213L6.19988 12.9803L6.69558 12.8657L6.47358 13.3236L6.87221 13.6397L6.3759 13.7515L6.37726 14.2604L5.98032 13.942L5.58338 14.2604L5.58474 13.7515L5.08833 13.6397L5.48705 13.3236L5.26505 12.8657L5.76076 12.9803L5.98032 12.5213Z" fill="#F0F0F0"/>
<path d="M4.54428 8.69552L4.7638 9.15457L5.2595 9.04001L5.03755 9.49788L5.43617 9.814L4.93986 9.92584L4.94122 10.4347L4.54428 10.1163L4.1473 10.4347L4.14866 9.92584L3.65234 9.814L4.05102 9.49788L3.82902 9.04001L4.32472 9.15457L4.54428 8.69552Z" fill="#F0F0F0"/>
<path d="M5.98026 5.56494L6.19983 6.02394L6.69553 5.90937L6.47353 6.36725L6.87216 6.68337L6.37584 6.79521L6.3772 7.30408L5.98026 6.98571L5.58333 7.30408L5.58469 6.79521L5.08833 6.68337L5.48695 6.36725L5.265 5.90937L5.7607 6.02394L5.98026 5.56494Z" fill="#F0F0F0"/>
<path d="M7.76417 7.99985L7.98373 8.45889L8.47948 8.34424L8.25748 8.80216L8.65606 9.11828L8.15975 9.23017L8.16111 9.73894L7.76417 9.42062L7.36728 9.73894L7.36864 9.23017L6.87223 9.11828L7.2709 8.80216L7.0489 8.34424L7.54465 8.45889L7.76417 7.99985Z" fill="#F0F0F0"/>
<path d="M6.48863 10.0864L6.66132 10.6178H7.22011L6.76805 10.9462L6.94074 11.4777L6.48863 11.1493L6.03661 11.4777L6.2093 10.9462L5.75719 10.6178H6.31599L6.48863 10.0864Z" fill="#F0F0F0"/>
<path d="M0 0H24V15.9998" fill="#6DA544"/>
<path d="M12 9.39112H12.6957C12.6957 9.39112 12.9971 8.85787 12.6957 8.34764L13.3913 7.65202L13.0435 6.95636H12.6956C12.6956 6.95636 12.5217 7.47807 11.826 7.47807C11.1304 7.47807 10.9565 6.95636 10.9565 6.95636H10.6087L10.9565 7.65198L10.6086 8.3476L10.9565 8.69545C10.9565 8.69545 11.3044 7.99983 12 8.3476C12 8.3476 12.2957 8.78241 12 9.39112Z" fill="#6DA544"/>
<path fill-rule="evenodd" clip-rule="evenodd" d="M14.088 7.99968C14.088 9.15227 13.1536 10.0866 12.001 10.0866C10.8484 10.0866 9.91406 9.15227 9.91406 7.99968C9.91406 6.84709 10.8484 5.91274 12.001 5.91274C13.1536 5.91274 14.088 6.84709 14.088 7.99968ZM12.6966 9.39103H12.001C12.2967 8.78231 12.001 8.3475 12.001 8.3475C11.3053 7.99974 10.9575 8.69536 10.9575 8.69536L10.6096 8.3475L10.9575 7.65188L10.6097 6.95626H10.9575C10.9575 6.95626 11.1313 7.47798 11.827 7.47798C12.5227 7.47798 12.6966 6.95626 12.6966 6.95626H13.0445L13.3923 7.65193L12.6966 8.34755C12.9981 8.85778 12.6966 9.39103 12.6966 9.39103Z" fill="#FFDA44"/>
<path d="M18.5845 5.41318C18.601 5.32773 18.6097 5.23956 18.6097 5.14932C18.6097 4.53058 18.2057 4.00648 17.6472 3.82568C17.8178 4.17255 17.914 4.56269 17.914 4.97537C17.914 5.11459 17.9028 5.25109 17.8818 5.3844C17.7977 5.24903 17.6898 5.12528 17.5579 5.02028C17.061 4.62489 16.3819 4.61444 15.8799 4.94744C16.2675 5.03204 16.6423 5.20407 16.9737 5.46784C17.2332 5.67432 17.4429 5.95364 17.6034 6.22326L15.4792 6.88841C17.5662 7.23627 19.3053 5.84494 19.3053 5.84494C19.1127 5.45959 18.8133 5.39467 18.5845 5.41318Z" fill="#FFDA44"/>
</svg>
