<svg width="24" height="16" viewBox="0 0 24 16" fill="none" xmlns="http://www.w3.org/2000/svg">
<path d="M24 0H0V16H24V0Z" fill="#0052B4"/>
<path d="M18.0007 5.91254C18.7691 5.91254 19.3921 5.28962 19.3921 4.52121C19.3921 3.7528 18.7691 3.12988 18.0007 3.12988C17.2323 3.12988 16.6094 3.7528 16.6094 4.52121C16.6094 5.28962 17.2323 5.91254 18.0007 5.91254Z" fill="#6DA544"/>
<path d="M15.5645 9.39111V10.7824H16.2965C16.7354 11.2126 17.3361 11.4781 17.9992 11.4781C18.6624 11.4781 19.2631 11.2126 19.702 10.7824H19.7384H20.434V9.39111H15.5645Z" fill="#FFDA44"/>
<path d="M15.5645 5.9126V7.99954C15.5645 9.86322 17.9992 10.4343 17.9992 10.4343C17.9992 10.4343 20.434 9.86327 20.434 7.99954V5.9126H15.5645V5.9126Z" fill="#338AF3"/>
<path d="M17.9999 7.02778C17.3912 7.02778 17.3912 7.58432 16.7825 7.58432C16.1739 7.58432 16.1739 7.02778 15.5652 7.02778V8.00169C16.1739 8.00169 16.1739 8.55823 16.7825 8.55823C17.3912 8.55823 17.3912 8.00169 17.9999 8.00169C18.6086 8.00169 18.6086 8.55823 19.2174 8.55823C19.8261 8.55823 19.8261 8.00169 20.4348 8.00169V7.02778C19.8261 7.02778 19.8261 7.58432 19.2174 7.58432C18.6086 7.58428 18.6086 7.02778 17.9999 7.02778Z" fill="#F0F0F0"/>
<path d="M17.9999 5.0782C17.3912 5.0782 17.3912 5.63474 16.7825 5.63474C16.1739 5.63474 16.1739 5.0782 15.5652 5.0782V6.05212C16.1739 6.05212 16.1739 6.60866 16.7825 6.60866C17.3912 6.60866 17.3912 6.05212 17.9999 6.05212C18.6086 6.05212 18.6086 6.60866 19.2174 6.60866C19.8261 6.60866 19.8261 6.05212 20.4348 6.05212V5.0782C19.8261 5.0782 19.8261 5.63474 19.2174 5.63474C18.6086 5.63474 18.6086 5.0782 17.9999 5.0782Z" fill="#F0F0F0"/>
<path d="M12 0V1.06016L9.84052 2.49963H12V5.4996H9.84052L12 6.93958V7.99974H10.9393L7.5 5.70669V7.99974H4.5V5.70669L1.06069 7.99974H0V6.93958L2.15948 5.4996H0V2.49963H2.15948L0 1.06016V0H1.06069L4.5 2.29249V0H7.5V2.29249L10.9393 0H12Z" fill="#F0F0F0"/>
<path d="M17.9999 5.0782C17.6955 5.0782 17.5434 5.21734 17.3912 5.35647C17.239 5.49561 17.0869 5.63474 16.7825 5.63474C16.4782 5.63474 16.326 5.49561 16.1739 5.35647C16.0217 5.21734 15.8695 5.0782 15.5652 5.0782C15.8181 5.0782 15.9141 5.0782 15.5652 5.0782L15.5649 4.17362H20.4343V5.0782C20.1303 5.07836 19.9782 5.21741 19.8261 5.35647C19.6739 5.4956 19.5217 5.63474 19.2174 5.63474C18.913 5.63474 18.7608 5.49562 18.6086 5.35648C18.4565 5.21734 18.3043 5.0782 17.9999 5.0782Z" fill="#D80027"/>
<path d="M6.75 0H5.25V3.25H0V4.74998H5.25V7.99998H6.75V4.74998H12V3.25H6.75V0Z" fill="#D80027"/>
<path d="M0 0V0.706962L2.68955 2.50001H3.75L0 0Z" fill="#D80027"/>
<path d="M12 0V0.706962L9.31045 2.50001H8.25L12 0Z" fill="#D80027"/>
<path d="M0 0V0.706962L2.68955 2.50001H3.75L0 0Z" fill="#D80027"/>
<path d="M12 0V0.706962L9.31045 2.50001H8.25L12 0Z" fill="#D80027"/>
<path d="M0 7.99997V7.29301L2.68955 5.49997H3.75L0 7.99997Z" fill="#D80027"/>
<path d="M12 7.99997V7.29301L9.31045 5.49997H8.25L12 7.99997Z" fill="#D80027"/>
</svg>
