<svg width="24" height="16" viewBox="0 0 24 16" fill="none" xmlns="http://www.w3.org/2000/svg">
<path d="M24 0H0V16H24V0Z" fill="#F0F0F0"/>
<path d="M10.9763 6.36279L11.6326 7.26728L12.6956 6.92256L12.0383 7.8263L12.6946 8.73084L11.6319 8.38481L10.9745 9.28855L10.9751 8.17101L9.91251 7.82503L10.9755 7.48032L10.9763 6.36279Z" fill="#D80027"/>
<path d="M9.18486 10.0861C7.93625 10.0861 6.92399 9.0739 6.92399 7.82526C6.92399 6.57662 7.93621 5.56441 9.18486 5.56441C9.57421 5.56441 9.94049 5.66285 10.2603 5.83614C9.75857 5.34551 9.07241 5.0427 8.31529 5.0427C6.77849 5.0427 5.53269 6.28848 5.53269 7.82526C5.53269 9.36204 6.77849 10.6078 8.31529 10.6078C9.07241 10.6078 9.75857 10.305 10.2603 9.81438C9.94054 9.98767 9.57421 10.0861 9.18486 10.0861Z" fill="#D80027"/>
<path d="M24 2.6084H0V3.65187H24V2.6084Z" fill="#D80027"/>
<path d="M24 11.9998H0V13.0432H24V11.9998Z" fill="#D80027"/>
</svg>
