<svg width="24" height="16" viewBox="0 0 24 16" fill="none" xmlns="http://www.w3.org/2000/svg">
<path d="M24 0H0V16H24V0Z" fill="#FCFCFC"/>
<path d="M16.5 6.96338C16.2577 6.96338 15.9577 6.96338 15.4615 6.96338C15.4615 8.87511 13.9117 10.4249 12 10.4249C10.0882 10.4249 8.53847 8.87511 8.53847 6.96338C8.20388 6.96338 7.83459 6.96338 7.5 6.96338C7.5 9.02262 8.88323 10.7588 10.7713 11.2935C10.5643 11.6867 10.5958 12.1818 10.8915 12.5508C11.2798 12.2395 11.682 11.9173 12.0231 11.6439C12.3642 11.9173 12.7663 12.2395 13.1547 12.5508C13.4533 12.1781 13.4827 11.6767 13.2688 11.2816C15.1362 10.7339 16.5 9.00804 16.5 6.96338Z" fill="#6DA544"/>
<path d="M9.23047 6.61688C9.23047 6.61688 9.23047 8.34763 10.9612 8.34763L11.3074 8.69379H11.9997C11.9997 8.69379 12.3459 7.65534 13.0382 7.65534C13.0382 7.65534 13.0382 6.96305 13.7305 6.96305C14.4228 6.96305 14.7689 6.96305 14.7689 6.96305C14.7689 6.96305 14.4228 5.57847 16.1535 4.54002L15.4612 4.19385C15.4612 4.19385 13.0382 5.92459 11.3074 5.57842V6.27071H10.6151L10.2689 5.92455L9.23047 6.61688Z" fill="#FFDA44"/>
</svg>
