<svg width="24" height="16" viewBox="0 0 24 16" fill="none" xmlns="http://www.w3.org/2000/svg">
<g clip-path="url(#clip0_15610_340234)">
<path d="M24 -0.015625H0V15.9844H24V-0.015625Z" fill="#496E2D"/>
<path fill-rule="evenodd" clip-rule="evenodd" d="M10.5 0H13.5V5.70188L13.1619 5.45678L13.2913 5.85449L12.9522 6.10039H13.3713L13.5009 6.49819L13.5045 6.4873H24V9.48146H13.5044L13.5008 9.47049L13.3713 9.86829L12.9522 9.86834L13.2913 10.1142L13.1619 10.512L13.5 10.2668V15.9685H10.5V10.267L10.8379 10.5119L10.7084 10.1142L11.0475 9.86829H10.6284L10.4989 9.47049L10.4953 9.48146H0V6.4873H10.4954L10.499 6.49819L10.6285 6.10039L11.0475 6.10034L10.7085 5.85449L10.838 5.45674L10.5 5.70175V0ZM11.9999 4.85986L12.1295 5.25766H12.5485L12.2095 5.50356L12.339 5.90131L11.9999 5.65551L11.6609 5.90131L11.7904 5.50356L11.4514 5.25766H11.8704L11.9999 4.85986ZM12.8716 8.41013C12.5871 7.84208 12.2171 7.26631 12.2171 7.26631C12.2171 7.26631 12.2263 7.00419 12.2263 6.84797C12.2263 6.61265 12.0352 6.42192 11.7994 6.42192C11.5761 6.42192 11.3931 6.59319 11.3744 6.8112C11.1988 6.82266 11.0598 6.96802 11.0598 7.14622C11.0598 7.27577 11.1333 7.388 11.2409 7.44414C11.2944 7.31927 11.3992 7.22178 11.5288 7.17733C11.5499 7.19464 11.5726 7.20999 11.5968 7.22304L11.6514 7.24919C11.6514 7.24919 11.4487 7.81963 11.4487 8.12615C11.4487 8.98772 12.0178 9.25341 12.0178 9.25341V9.26229L11.7332 9.54623H12.3024V8.97818L12.587 9.26225L12.5877 9.26154L12.5906 9.2594L12.5941 9.25688C12.657 9.21146 13.1094 8.88469 12.8716 8.41013ZM9.02271 7.01883H9.44172L9.57124 6.62107L9.7008 7.01883H10.1198L9.78081 7.26468L9.91038 7.66248L9.57124 7.41668L9.23219 7.66243L9.36171 7.26468L9.02271 7.01883ZM9.36171 8.70391L9.02271 8.94971H9.44172L9.57124 9.34747L9.7008 8.94976L10.1199 8.94971L9.78082 8.70387L9.91028 8.30607L9.57124 8.55191L9.23219 8.30611L9.36171 8.70391ZM11.8704 10.7106L11.9999 11.1084L12.1295 10.7106L12.5485 10.7106L12.2095 10.4647L12.339 10.0669L11.9999 10.3127L11.6609 10.0669L11.7904 10.4647L11.4514 10.7106H11.8704ZM14.5581 8.94954H14.9771L14.6381 8.70369L14.7676 8.30594L14.4286 8.55174L14.0894 8.30594L14.219 8.70369L13.8799 8.94959H14.299L14.4286 9.34729L14.5581 8.94954ZM14.9771 7.01883L14.6381 7.26468L14.7676 7.66243L14.4286 7.41663L14.0895 7.66248L14.219 7.26468L13.8799 7.01887L14.299 7.01883L14.4285 6.62107L14.5581 7.01883H14.9771Z" fill="black"/>
<path d="M10.5 0H11.4997V5.25766H11.4514L11.4997 5.29268V6.4873H11.5722C11.4622 6.5566 11.3861 6.67475 11.3744 6.8112C11.1988 6.82266 11.0598 6.96802 11.0598 7.14622C11.0598 7.27577 11.1333 7.388 11.2409 7.44414C11.2944 7.31927 11.3992 7.22178 11.5288 7.17733C11.5499 7.19464 11.5726 7.20999 11.5968 7.22304L11.6514 7.24919C11.6514 7.24919 11.6163 7.34803 11.5753 7.48553H11.4997V7.7694C11.4704 7.89709 11.4487 8.02577 11.4487 8.12615C11.4487 8.28515 11.468 8.42386 11.4997 8.54434V10.6756L11.4514 10.7106H11.4997V15.9685H10.5V10.267L10.8379 10.5119L10.7084 10.1142L11.0475 9.86829H10.6284L10.5 9.47392V7.48553H9.85275L9.78081 7.26468L10.1198 7.01883H9.7008L9.57124 6.62107L9.44172 7.01883H9.02271L9.36171 7.26468L9.28979 7.48553H0V6.4873H10.4954L10.499 6.49819L10.6285 6.10039L11.0475 6.10034L10.7085 5.85449L10.838 5.45674L10.5 5.70175V0Z" fill="#FFDA44"/>
<path d="M9.47625 7.48553H9.66623L9.57124 7.41668L9.47625 7.48553Z" fill="#FFDA44"/>
<path d="M12.3535 7.48553H14.1471L14.219 7.26468L13.8799 7.01887L14.299 7.01883L14.4285 6.62107L14.5581 7.01883H14.9771L14.6381 7.26468L14.71 7.48553H24V6.4873H13.5045L13.5009 6.49819L13.4974 6.4873H12.0268C12.1467 6.56274 12.2263 6.69607 12.2263 6.84797C12.2263 7.00419 12.2171 7.26631 12.2171 7.26631C12.2171 7.26631 12.271 7.3502 12.3535 7.48553Z" fill="#FFDA44"/>
<path d="M14.5236 7.48553L14.4286 7.41663L14.3336 7.48553H14.5236Z" fill="#FFDA44"/>
<path d="M12.5002 0H13.4999V5.70181L13.1619 5.45678L13.2913 5.85449L12.9522 6.10039H13.3713L13.4999 6.49508V8.4834H14.1472L14.219 8.70369L13.8799 8.94959H14.299L14.4286 9.34729L14.5581 8.94954H14.9771L14.6381 8.70369L14.7098 8.4834H24V9.48163H13.5044L13.5008 9.47049L13.3713 9.86829L12.9522 9.86834L13.2913 10.1142L13.1619 10.512L13.4999 10.2669V15.9685H12.5002V10.7106L12.5485 10.7106L12.5002 10.6756V9.48163H12.3024V8.97818L12.587 9.26225L12.5877 9.26154L12.5906 9.2594L12.5941 9.25688C12.657 9.21146 13.1094 8.88469 12.8716 8.41013C12.7516 8.1706 12.6165 7.92969 12.5002 7.73116V5.29268L12.5485 5.25766H12.5002V0Z" fill="#F0F0F0"/>
<path d="M11.4851 8.4834H9.85257L9.78082 8.70387L10.1199 8.94971L9.7008 8.94976L9.57124 9.34747L9.44172 8.94971H9.02271L9.36171 8.70391L9.28991 8.4834H0V9.48163H10.4953L10.4989 9.47049L10.5025 9.48163H11.798L12.0178 9.26229V9.25341C12.0178 9.25341 11.6106 9.06334 11.4851 8.4834Z" fill="#F0F0F0"/>
<path d="M9.47673 8.4834L9.57124 8.55191L9.66573 8.4834H9.47673Z" fill="#F0F0F0"/>
<path d="M14.5228 8.4834H14.3343L14.4286 8.55174L14.5228 8.4834Z" fill="#F0F0F0"/>
<path fill-rule="evenodd" clip-rule="evenodd" d="M15.8256 7.98444C15.8256 10.0933 14.1127 11.8029 11.9997 11.8029C9.88674 11.8029 8.17383 10.0933 8.17383 7.98444C8.17383 5.87558 9.88674 4.16602 11.9997 4.16602C14.1127 4.16602 15.8256 5.87558 15.8256 7.98444ZM11.9997 4.85986L12.1292 5.25766H12.5483L12.2092 5.50356L12.3388 5.90131L11.9997 5.65551L11.6606 5.90131L11.7902 5.50356L11.4511 5.25766H11.8702L11.9997 4.85986ZM12.8714 8.41013C12.5868 7.84208 12.2169 7.26631 12.2169 7.26631C12.2169 7.26631 12.2261 7.00419 12.2261 6.84797C12.2261 6.61265 12.035 6.42192 11.7992 6.42192C11.5758 6.42192 11.3929 6.59319 11.3742 6.8112C11.1986 6.82266 11.0595 6.96802 11.0595 7.14622C11.0595 7.27577 11.1331 7.388 11.2407 7.44414C11.2941 7.31927 11.3989 7.22178 11.5285 7.17733C11.5496 7.19464 11.5724 7.20999 11.5965 7.22304L11.6512 7.24919C11.6512 7.24919 11.4484 7.81963 11.4484 8.12615C11.4484 8.98772 12.0176 9.25341 12.0176 9.25341V9.26229L11.733 9.54623H12.3021V8.97818L12.5867 9.26225L12.5875 9.26154L12.5904 9.2594L12.5938 9.25688C12.6567 9.21146 13.1091 8.88469 12.8714 8.41013ZM10.4987 5.70254L10.1597 5.45674L10.2892 5.85449L9.95013 6.10034L10.3692 6.10039L10.4987 6.49819L10.6283 6.10039L11.0473 6.10034L10.7082 5.85449L10.8377 5.45674L10.4987 5.70254ZM9.02246 7.01883H9.44148L9.57099 6.62107L9.70055 7.01883H10.1196L9.78057 7.26468L9.91013 7.66248L9.57099 7.41668L9.23195 7.66243L9.36146 7.26468L9.02246 7.01883ZM9.36146 8.70391L9.02246 8.94971H9.44148L9.57099 9.34747L9.70055 8.94976L10.1197 8.94971L9.78057 8.70387L9.91004 8.30607L9.57099 8.55191L9.23195 8.30611L9.36146 8.70391ZM10.1596 10.5119L10.2891 10.1142L9.95001 9.86834H10.3691L10.4986 9.47049L10.6282 9.86829H11.0472L10.7082 10.1142L10.8376 10.5119L10.4986 10.2661L10.1596 10.5119ZM11.8702 10.7106L11.9997 11.1084L12.1292 10.7106L12.5483 10.7106L12.2092 10.4647L12.3388 10.0669L11.9997 10.3127L11.6606 10.0669L11.7902 10.4647L11.4511 10.7106H11.8702ZM13.8397 10.5119L13.5007 10.2661L13.1616 10.512L13.2911 10.1142L12.952 9.86834L13.3711 9.86829L13.5006 9.47049L13.6301 9.86834H14.0492L13.7102 10.1142L13.8397 10.5119ZM14.5579 8.94954H14.9769L14.6379 8.70369L14.7673 8.30594L14.4283 8.55174L14.0892 8.30594L14.2188 8.70369L13.8797 8.94959H14.2988L14.4283 9.34729L14.5579 8.94954ZM14.9769 7.01883L14.6379 7.26468L14.7674 7.66243L14.4283 7.41663L14.0892 7.66248L14.2188 7.26468L13.8797 7.01887L14.2988 7.01883L14.4283 6.62107L14.5579 7.01883H14.9769ZM13.7102 5.85449L13.8397 5.45674L13.5007 5.70254L13.1616 5.45678L13.2911 5.85449L12.952 6.10039H13.3711L13.5007 6.49819L13.6301 6.10034H14.0492L13.7102 5.85449Z" fill="#D80027"/>
</g>
<defs>
<clipPath id="clip0_15610_340234">
<rect width="24" height="16" fill="white"/>
</clipPath>
</defs>
</svg>
