<svg width="24" height="16" viewBox="0 0 24 16" fill="none" xmlns="http://www.w3.org/2000/svg">
<path d="M24 0H0V15.9998H24V0Z" fill="#F0F0F0"/>
<path d="M14.0879 8.00051C14.0879 9.15308 13.1536 10.0875 12.001 10.0875C10.8484 10.0875 9.91406 9.15313 9.91406 8.00051C9.91406 6.84789 12.001 5.91357 12.001 5.91357C12.001 5.91357 14.0879 6.84789 14.0879 8.00051Z" fill="#496E2D"/>
<path d="M9.91303 0H0V5.91341H9.91303V0Z" fill="#0052B4"/>
<path d="M23.9999 10.0871H14.0869V16H23.9999V10.0871Z" fill="#0052B4"/>
<path d="M9.91309 8.00035C9.91309 6.84778 10.8474 5.91342 12 5.91342C13.1526 5.91342 14.0869 6.84774 14.0869 8.00035" fill="#0052B4"/>
<path d="M9.91303 10.0871H0V16H9.91303V10.0871Z" fill="#D80027"/>
<path d="M23.9999 0H14.0869V5.91341H23.9999V0Z" fill="#D80027"/>
<path d="M10.8262 6.95696V8.26127C10.8262 8.9096 11.3517 9.43512 12.0001 9.43512C12.6484 9.43512 13.174 8.90955 13.174 8.26127V6.95696H10.8262Z" fill="#D80027"/>
</svg>
