<svg width="24" height="16" viewBox="0 0 24 16" fill="none" xmlns="http://www.w3.org/2000/svg">
<path d="M24 0H0V15.9995H24V0Z" fill="#496E2D"/>
<path d="M24 0H12V16H24V0Z" fill="#F0F0F0"/>
<path d="M13.7192 6.46531L13.0628 7.36975L11.9998 7.02509L12.6572 7.92882L12.0008 8.83331L13.0635 8.48733L13.7209 9.39107L13.7203 8.27354L14.7829 7.92756L13.7199 7.58284L13.7192 6.46531Z" fill="#D80027"/>
<path d="M12.6639 10.2607C11.4153 10.2607 10.403 9.24849 10.403 7.99985C10.403 6.75121 11.4152 5.739 12.6639 5.739C13.0532 5.739 13.4195 5.83743 13.7393 6.01073C13.2376 5.52009 12.5514 5.21729 11.7943 5.21729C10.2575 5.21729 9.01172 6.46307 9.01172 7.99985C9.01172 9.53663 10.2575 10.7824 11.7943 10.7824C12.5514 10.7824 13.2376 10.4796 13.7393 9.98897C13.4195 10.1623 13.0532 10.2607 12.6639 10.2607Z" fill="#D80027"/>
</svg>
