<svg width="24" height="16" viewBox="0 0 24 16" fill="none" xmlns="http://www.w3.org/2000/svg">
<path d="M24 0H0V16H24V0Z" fill="#FFDA44"/>
<path fill-rule="evenodd" clip-rule="evenodd" d="M14.7824 8.00029C14.7824 9.53703 13.5367 10.7828 12 10.7828C10.4633 10.7828 9.21753 9.53703 9.21753 8.00029C9.21753 8.00019 9.21753 8.0001 9.21753 8H0V12.0003H24V8H14.7824C14.7824 8.0001 14.7824 8.00019 14.7824 8.00029Z" fill="#0052B4"/>
<path d="M24 12H0V15.9997H24V12Z" fill="#D80027"/>
<path d="M12.0005 9.84238C11.0115 9.84238 10.207 9.03785 10.207 8.04886V6.97273C10.207 5.98373 11.0115 5.1792 12.0005 5.1792C12.9895 5.1792 13.794 5.98373 13.794 6.97273V8.04886C13.794 9.03785 12.9895 9.84238 12.0005 9.84238Z" fill="#338AF3"/>
<path d="M14.8699 3.74474H12.7178C12.7178 3.34859 12.3965 3.02734 12.0004 3.02734C11.6043 3.02734 11.283 3.34859 11.283 3.74474H9.13086C9.13086 4.14093 9.476 4.46213 9.87214 4.46213H9.84823C9.84823 4.85832 10.1694 5.17952 10.5656 5.17952C10.5656 5.57571 10.8868 5.89691 11.283 5.89691H12.7178C13.114 5.89691 13.4352 5.57571 13.4352 5.17952C13.8313 5.17952 14.1525 4.85832 14.1525 4.46213H14.1286C14.5249 4.46213 14.8699 4.14093 14.8699 3.74474Z" fill="black"/>
</svg>
