<svg width="24" height="16" viewBox="0 0 24 16" fill="none" xmlns="http://www.w3.org/2000/svg">
<path d="M24 0H0V15.9997H24V0Z" fill="#F0F0F0"/>
<path d="M24 0H0V5.33321H24V0Z" fill="#D80027"/>
<path d="M24 10.667H0V16.0002H24V10.667Z" fill="black"/>
<path d="M15 7.07568H12.75C12.75 6.6615 12.4142 6.32568 12 6.32568C11.5858 6.32568 11.25 6.6615 11.25 7.07568H9C9 7.48987 9.3608 7.82568 9.77498 7.82568H9.75C9.75 8.23987 10.0858 8.57568 10.5 8.57568C10.5 8.98987 10.8358 9.32568 11.25 9.32568H12.75C13.1642 9.32568 13.5 8.98987 13.5 8.57568C13.9142 8.57568 14.25 8.23987 14.25 7.82568H14.225C14.6392 7.82568 15 7.48992 15 7.07568Z" fill="#FF9811"/>
</svg>
