<svg width="24" height="16" viewBox="0 0 24 16" fill="none" xmlns="http://www.w3.org/2000/svg">
<path d="M24 0H0V16H24V0Z" fill="#338AF3"/>
<path d="M24 0H0V8H24V0Z" fill="#6DA544"/>
<path d="M1.09862e-09 16C-0.000187499 16.0013 24 7.99972 24 7.99972L1.09862e-09 0V16Z" fill="#D80027"/>
<path d="M6.60836 4.99951C5.21533 4.99951 4.08203 6.13279 4.08203 7.52589V8.47331C4.08203 9.86637 5.21537 10.9997 6.60836 10.9997C8.00134 10.9997 9.13469 9.86641 9.13469 8.47331V7.52589C9.13469 6.13288 8.00134 4.99951 6.60836 4.99951ZM8.1873 8.47331C8.1873 9.17898 7.72197 9.77791 7.08203 9.97962V8.94703L7.7523 8.2768L7.08245 7.60694L7.08208 7.36848V7.05231H6.13469V7.99972L5.46494 8.66948L6.13469 9.33925V9.97971C5.4948 9.77801 5.02942 9.17907 5.02942 8.4734V7.52594C5.02942 6.65531 5.73775 5.94697 6.60836 5.94697C7.47897 5.94697 8.1873 6.65531 8.1873 7.52594V8.47331V8.47331V8.47331Z" fill="#FFDA44"/>
</svg>
