<svg width="24" height="16" viewBox="0 0 24 16" fill="none" xmlns="http://www.w3.org/2000/svg">
<path d="M24 0H0V16H24V0Z" fill="#F0F0F0"/>
<path fill-rule="evenodd" clip-rule="evenodd" d="M10.6085 6.6084L4 0H12V6.6084H10.6085ZM10.261 7.99988L0 7.99988V15.9998H4.00003L10.2902 9.70959C10.271 9.60625 10.261 9.49973 10.261 9.39091V7.99988ZM13.7099 9.70982C13.5597 10.517 12.8502 11.13 12.0001 11.13C12.0001 11.13 12 11.13 12 11.13L12 15.9998H20L13.7099 9.70982ZM13.3915 6.6084H13.7392V7.99988H24V0H20L13.3915 6.6084Z" fill="black"/>
<path fill-rule="evenodd" clip-rule="evenodd" d="M9.2168 9.39093C9.2168 10.9252 10.4651 12.1735 11.9994 12.1735C13.5337 12.1735 14.782 10.9252 14.782 9.39093V6.60846L13.7385 5.56494H10.2603L9.2168 6.60846V9.39093ZM10.2605 9.39091C10.2605 10.3499 11.0406 11.13 11.9996 11.13C12.9586 11.13 13.7387 10.3498 13.7388 9.39091V6.6084H10.2605V9.39091Z" fill="#D80027"/>
<path d="M9.2168 5.56479H14.782V3.89521L13.6689 4.45176L11.9994 2.78223L10.3298 4.45176L9.2168 3.89521V5.56479Z" fill="#FFDA44"/>
<path d="M10.2605 5.56497L9.2168 5.56479L9.21704 6.60844H10.2605V5.56497Z" fill="#FFDA44"/>
<path d="M14.782 5.56479L13.7385 5.56497V6.60844H14.782L14.782 5.56479Z" fill="#FFDA44"/>
<path d="M14.782 7.82598H13.7385V8.86945H14.782V7.82598Z" fill="#FFDA44"/>
<path d="M10.2605 7.82598H9.21704V8.86945H10.2605V7.82598Z" fill="#FFDA44"/>
<path d="M11.9995 11.1305C11.8177 11.1305 11.6425 11.1024 11.4778 11.0504V12.1242C11.6469 12.1565 11.8211 12.174 11.9995 12.174C12.1778 12.174 12.3521 12.1565 12.5212 12.1242V11.0504C12.3564 11.1024 12.1812 11.1305 11.9995 11.1305Z" fill="#FFDA44"/>
<path d="M10.2836 9.67341L9.45086 10.5062C9.59528 10.8349 9.8012 11.1305 10.0544 11.3783L10.7919 10.6409C10.5288 10.3865 10.3454 10.0503 10.2836 9.67341Z" fill="#FFDA44"/>
<path d="M14.5481 10.5062L13.7153 9.67341C13.6535 10.0502 13.4702 10.3865 13.207 10.6408L13.9445 11.3783C14.1977 11.1305 14.4037 10.835 14.5481 10.5062Z" fill="#FFDA44"/>
<path d="M11.6529 7.18848V7.76818C11.6529 7.96027 11.8086 8.11604 12.0008 8.11604C12.1929 8.11604 12.3486 7.96032 12.3486 7.76818V7.18848H11.6529Z" fill="#0052B4"/>
<path d="M11.6529 9.50693V10.0866C11.6529 10.2787 11.8086 10.4345 12.0008 10.4345C12.1929 10.4345 12.3486 10.2788 12.3486 10.0866V9.50693H11.6529Z" fill="#0052B4"/>
<path d="M12.6963 8.34769V8.92743C12.6963 9.11948 12.852 9.27529 13.0442 9.27529C13.2363 9.27529 13.392 9.11948 13.392 8.92743V8.34769H12.6963Z" fill="#0052B4"/>
<path d="M11.6529 8.34769V8.92743C11.6529 9.11948 11.8086 9.27529 12.0008 9.27529C12.1929 9.27529 12.3486 9.11948 12.3486 8.92743V8.34769H11.6529Z" fill="#0052B4"/>
<path d="M10.6094 8.34769V8.92743C10.6094 9.11948 10.7651 9.27529 10.9572 9.27529C11.1494 9.27529 11.3051 9.11948 11.3051 8.92743V8.34769H10.6094Z" fill="#0052B4"/>
</svg>
