<svg width="24" height="16" viewBox="0 0 24 16" fill="none" xmlns="http://www.w3.org/2000/svg">
<path d="M24 0H0V16H24V0Z" fill="#338AF3"/>
<path d="M16.174 8.69531H7.82617V9.73878H16.174V8.69531Z" fill="#818085"/>
<path d="M9.2168 5.56479L11.9994 5.9127L14.782 5.56479V3.89526L13.6689 4.45176L11.9994 2.78223L10.3298 4.45176L9.2168 3.89526V5.56479Z" fill="#FFDA44"/>
<path d="M8.522 10.7823H7.47852V8.86932L7.47852 8.34756L7.47852 7.82585V6.60847H8.522V10.7823Z" fill="#F0F0F0"/>
<path d="M16.522 10.7823H15.4786V6.60847H16.522V7.8258V8.35628V8.86941V10.7823Z" fill="#F0F0F0"/>
<path d="M12.0001 12.1735C10.4658 12.1735 9.21753 10.9253 9.21753 9.39097V5.56494H14.7828V9.39097C14.7827 10.9253 13.5344 12.1735 12.0001 12.1735Z" fill="#F0F0F0"/>
<path d="M16.5218 7.82568H7.47852V8.86916H16.5218V7.82568Z" fill="#ACABB1"/>
<path d="M12.0008 11.1301C11.0419 11.1301 10.2617 10.3499 10.2617 9.39096V6.6084H13.74V9.39096C13.7399 10.3499 12.9598 11.1301 12.0008 11.1301Z" fill="#0052B4"/>
<path d="M10.2603 5.56445H9.2168V6.60793H10.2603V5.56445Z" fill="#D80027"/>
<path d="M14.7817 5.56445H13.7382V6.60793H14.7817V5.56445Z" fill="#D80027"/>
<path d="M14.7817 7.8256H13.7382V8.86907H14.7817V7.8256Z" fill="#D80027"/>
<path d="M10.2603 7.8256H9.2168V8.86907H10.2603V7.8256Z" fill="#D80027"/>
<path d="M12.521 5.56445H11.4775V6.60793H12.521V5.56445Z" fill="#D80027"/>
<path d="M11.9992 11.1299C11.8175 11.1299 11.6423 11.1018 11.4775 11.0498V12.1236C11.6466 12.1558 11.8209 12.1734 11.9992 12.1734C12.1776 12.1734 12.3518 12.1558 12.5209 12.1236V11.0498C12.3562 11.1018 12.181 11.1299 11.9992 11.1299Z" fill="#D80027"/>
<path d="M10.2834 9.67289L9.45061 10.5057C9.59504 10.8344 9.80096 11.13 10.0542 11.3778L10.7917 10.6403C10.5285 10.386 10.3452 10.0497 10.2834 9.67289Z" fill="#D80027"/>
<path d="M14.5478 10.5057L13.7151 9.67289C13.6532 10.0497 13.47 10.3859 13.2068 10.6403L13.9443 11.3778C14.1975 11.13 14.4034 10.8344 14.5478 10.5057Z" fill="#D80027"/>
</svg>
