<svg width="24" height="16" viewBox="0 0 24 16" fill="none" xmlns="http://www.w3.org/2000/svg">
<path d="M24 0H0V16H24V0Z" fill="#D80027"/>
<path d="M24 3.55472H0V5.33225H24V3.55472Z" fill="#FFDA44"/>
<path d="M24 7.11067H0V8.88819H24V7.11067Z" fill="#FFDA44"/>
<path d="M24 10.6664H0V12.4439H24V10.6664Z" fill="#FFDA44"/>
<path d="M24 14.2223H0V15.9999H24V14.2223Z" fill="#FFDA44"/>
<path d="M24 0H0V1.77753H24V0Z" fill="#FFDA44"/>
<path d="M12 0H0V7.99974H12V0Z" fill="#4A1F63"/>
<path d="M8.08636 3.30357V3.99924H7.7385V3.30357H7.04288V3.99924H6.69502V2.60791H5.30377V3.99924H4.95591V3.30357H4.26028V3.99924H3.91242V3.30357H3.2168V5.39052H8.78198V3.30357H8.08636Z" fill="#F0F0F0"/>
</svg>
