<svg width="24" height="16" viewBox="0 0 24 16" fill="none" xmlns="http://www.w3.org/2000/svg">
<g clip-path="url(#clip0_15610_340345)">
<path d="M24 0H0V15.9997H24V0Z" fill="#FFDA44"/>
<path fill-rule="evenodd" clip-rule="evenodd" d="M0 0H24V5.33321H12.0954L11.9992 5.03711L11.9029 5.33321H0V0Z" fill="#6DA544"/>
<path fill-rule="evenodd" clip-rule="evenodd" d="M11.6522 10.667H0V16.0002H24V10.667H12.3479V10.7821H11.6522V10.667Z" fill="#D80027"/>
<path fill-rule="evenodd" clip-rule="evenodd" d="M15.8256 8.00021C15.8256 10.1132 14.1127 11.8261 11.9997 11.8261C9.88674 11.8261 8.17383 10.1132 8.17383 8.00021C8.17383 5.88723 9.88674 4.17432 11.9997 4.17432C14.1127 4.17432 15.8256 5.88723 15.8256 8.00021ZM12.5315 6.67598L11.9989 5.03711L11.4669 6.67442L10.6457 5.54405L10.0829 5.95289L10.9618 7.16271H9.07129L10.4253 8.14543L9.24597 8.52858L9.46089 9.19023L10.7896 8.75848L10.1881 10.606L11.6519 9.54092V10.7821H12.3476V9.54226L13.8126 10.6084L13.2084 8.75799L14.5386 9.19023L14.7536 8.52858L13.5735 8.14513L14.9282 7.16271H13.0377L13.9166 5.95294L13.3539 5.544L12.5315 6.67598Z" fill="#0052B4"/>
</g>
<defs>
<clipPath id="clip0_15610_340345">
<rect width="24" height="16" fill="white"/>
</clipPath>
</defs>
</svg>
