<svg width="24" height="16" viewBox="0 0 24 16" fill="none" xmlns="http://www.w3.org/2000/svg">
<g clip-path="url(#clip0_15610_340225)">
<path d="M24 0.015625H0V15.9846H24V0.015625Z" fill="#0052B4"/>
<path d="M12 3.5083L12.2394 4.24351H13.0139L12.3873 4.69791L12.6266 5.43312L12 4.97876L11.3734 5.43312L11.6127 4.69791L10.9861 4.24351H11.7606L12 3.5083Z" fill="#FFDA44"/>
<path d="M8.81806 4.82385L9.5082 5.17478L10.0559 4.6282L9.93466 5.39171L10.6248 5.74268L9.85981 5.86362L9.73863 6.62718L9.38698 5.93838L8.62202 6.05927L9.16971 5.51265L8.81806 4.82385Z" fill="#FFDA44"/>
<path d="M7.5 7.99954L8.23664 7.76066L8.23669 6.98766L8.69189 7.61306L9.42858 7.37419L8.97328 7.99954L9.42858 8.62495L8.69189 8.38612L8.23669 9.01147V8.23847L7.5 7.99954Z" fill="#FFDA44"/>
<path d="M8.81806 11.1754L9.16962 10.4866L8.62202 9.94L9.38707 10.0609L9.73863 9.37214L9.85981 10.1357L10.6248 10.2566L9.93471 10.6076L10.0559 11.371L9.5082 10.8245L8.81806 11.1754Z" fill="#FFDA44"/>
<path d="M12 12.4905L11.7606 11.7553H10.9861L11.6128 11.3009L11.3734 10.5657L12 11.0201L12.6266 10.5657L12.3873 11.3009L13.0139 11.7553H12.2394L12 12.4905Z" fill="#FFDA44"/>
<path d="M15.1819 11.1754L14.4918 10.8245L13.9441 11.3711L14.0653 10.6075L13.3752 10.2566L14.1401 10.1357L14.2614 9.37214L14.613 10.0609L15.378 9.94L14.8303 10.4866L15.1819 11.1754Z" fill="#FFDA44"/>
<path d="M16.5001 7.99954L15.7634 8.23847V9.01147L15.3082 8.38602L14.5715 8.62495L15.0268 7.99954L14.5715 7.37419L15.3082 7.61302L15.7634 6.98766L15.7634 7.76071L16.5001 7.99954Z" fill="#FFDA44"/>
<path d="M15.1819 4.82385L14.8303 5.51265L15.378 6.05927L14.6129 5.93829L14.2614 6.62713L14.1401 5.86362L13.3752 5.74268L14.0653 5.39171L13.9441 4.6282L14.4918 5.17482L15.1819 4.82385Z" fill="#FFDA44"/>
</g>
<defs>
<clipPath id="clip0_15610_340225">
<rect width="24" height="15.969" fill="white" transform="translate(0 0.015625)"/>
</clipPath>
</defs>
</svg>
