<svg width="24" height="16" viewBox="0 0 24 16" fill="none" xmlns="http://www.w3.org/2000/svg">
<path d="M24 0H0V16H24V0Z" fill="#2E52B2"/>
<path d="M12 0V1.19272L9.84052 2.81217H12V6.18725H9.84052L12 7.80728V9H10.9393L7.5 6.42023V9H4.5V6.42023L1.06069 9H0V7.80728L2.15948 6.18725H0V2.81217H2.15948L0 1.19272V0H1.06069L4.5 2.57914V0H7.5V2.57914L10.9393 0H12Z" fill="#F3F3F3"/>
<path d="M16 5.7059V8.52942C16 10.4206 18 11 18 11C18 11 20 10.4206 20 8.52942V5.7059L18 5L16 5.7059Z" fill="#F3F3F3"/>
<path d="M6.75 0H5.25V3.65626H0V5.34374H5.25V9H6.75V5.34374H12V3.65626H6.75V0Z" fill="#D80027"/>
<path d="M0 0V0.795387L2.68955 2.81252H3.75L0 0Z" fill="#D80027"/>
<path d="M12 0V0.795387L9.31045 2.81252H8.25L12 0Z" fill="#D80027"/>
<path d="M0 0V0.795387L2.68955 2.81252H3.75L0 0Z" fill="#D80027"/>
<path d="M12 0V0.795387L9.31045 2.81252H8.25L12 0Z" fill="#D80027"/>
<path d="M0 8.99961V8.20428L2.68955 6.1871H3.75L0 8.99961Z" fill="#D80027"/>
<path d="M12 8.99961V8.20428L9.31045 6.1871H8.25L12 8.99961Z" fill="#D80027"/>
<path d="M19.9999 6.00001V5H16V6.00001H17.7142V8.00007H16V8.66666L17.7142 8.66671V10.8977C17.8867 10.969 18 11 18 11C18 11 18.1133 10.969 18.2857 10.8978V8.66671H20V8.00007H18.2856V6.00001H19.9999Z" fill="#D80027"/>
</svg>
