<svg width="24" height="16" viewBox="0 0 24 16" fill="none" xmlns="http://www.w3.org/2000/svg">
<path d="M24 0H0V16H24V0Z" fill="#0052B4"/>
<path d="M19.3905 9.73877V10.0866H16.6079V9.73877H15.5645V11.1301H16.2601V11.4779H19.7383V11.1301H20.434V9.73877H19.3905Z" fill="#FFDA44"/>
<path d="M15.5645 4.52148V8.34752C15.5645 10.2112 17.9992 10.7823 17.9992 10.7823C17.9992 10.7823 20.434 10.2113 20.434 8.34752V4.52148H15.5645Z" fill="#338AF3"/>
<path d="M17.9999 7.37514C17.3912 7.37514 17.3912 7.93168 16.7825 7.93168C16.1739 7.93168 16.1739 7.37514 15.5652 7.37514V8.34905C16.1739 8.34905 16.1739 8.90559 16.7825 8.90559C17.3912 8.90559 17.3912 8.34905 17.9999 8.34905C18.6086 8.34905 18.6086 8.90559 19.2174 8.90559C19.8261 8.90559 19.8261 8.34905 20.4348 8.34905V7.37514C19.8261 7.37514 19.8261 7.93168 19.2174 7.93168C18.6086 7.93168 18.6086 7.37514 17.9999 7.37514Z" fill="#F0F0F0"/>
<path d="M17.9999 5.42556C17.3912 5.42556 17.3912 5.9821 16.7825 5.9821C16.1739 5.9821 16.1739 5.42556 15.5652 5.42556V6.39947C16.1739 6.39947 16.1739 6.95601 16.7825 6.95601C17.3912 6.95601 17.3912 6.39947 17.9999 6.39947C18.6086 6.39947 18.6086 6.95601 19.2174 6.95601C19.8261 6.95601 19.8261 6.39947 20.4348 6.39947V5.42556C19.8261 5.42556 19.8261 5.9821 19.2174 5.9821C18.6086 5.9821 18.6086 5.42556 17.9999 5.42556Z" fill="#F0F0F0"/>
<path d="M12 0V1.43216L9.8828 2.60866H12V5.39108H9.22955L12 6.93021V7.99974H10.7494L7.30434 6.086V7.99974H4.69566V5.72291L0.597375 7.99974H0V6.56754L2.1172 5.39108H0V2.60866H2.77045L0 1.06902V0H1.25063L4.69566 1.91375V0H7.30434V2.27684L11.4026 0H12Z" fill="#F0F0F0"/>
<path d="M7.30444 5.39082L12 7.99974L12.0001 7.26182L8.63227 5.39082H7.30444Z" fill="#F0F0F0"/>
<path d="M7.30444 5.39082L12 7.99974L12.0001 7.26182L8.63227 5.39082H7.30444Z" fill="#F0F0F0"/>
<path d="M4.69566 2.60866L0 0V0.737664L3.36783 2.60866H4.69566Z" fill="#F0F0F0"/>
<path d="M4.69566 2.60866L0 0V0.737664L3.36783 2.60866H4.69566Z" fill="#F0F0F0"/>
<path d="M6.75 0H5.25V3.2499H0V4.74989H5.25V7.99988H6.75V4.74989H12V3.2499H6.75V0Z" fill="#D80027"/>
<path d="M7.30444 5.39082L12.0001 7.99948V7.26182L8.63226 5.39082H7.30444Z" fill="#D80027"/>
<path d="M3.36778 5.39082L0 7.26182V7.99948L4.69566 5.39082H3.36778Z" fill="#D80027"/>
<path d="M4.69566 2.60866L0 0V0.737664L3.36783 2.60866H4.69566Z" fill="#D80027"/>
<path d="M8.63231 2.60866L12.0001 0.737664V0L7.30444 2.60866H8.63231Z" fill="#D80027"/>
</svg>
