<svg width="24" height="16" viewBox="0 0 24 16" fill="none" xmlns="http://www.w3.org/2000/svg">
<path d="M24 0H0V16H24V0Z" fill="#F0F0F0"/>
<path d="M14.7857 6.77598C14.7857 5.084 13.4141 3.7124 11.7221 3.7124C10.4736 3.7124 9.40013 4.45958 8.92294 5.53094L8.54503 6.90076L8.89289 7.24861L8.19727 8.63994L8.89289 8.98779L8.54503 9.33565V9.6835L8.89289 10.0314V10.727L9.24075 11.0748L10.2842 10.727C10.2842 10.727 10.2842 11.0748 10.6321 11.4226C10.98 11.7704 11.3278 12.4661 11.3278 12.4661C11.3278 12.4661 12.3713 12.814 13.0669 11.7705C13.7625 10.727 14.4582 10.3792 14.4582 10.3792L13.7877 9.03809C14.4008 8.47789 14.7857 7.67203 14.7857 6.77598Z" fill="black"/>
<path d="M15.0353 7.94747C16.4486 7.70902 16.6841 4.94141 16.6841 4.94141H14.7363C15.745 7.37616 14.6893 7.53994 14.6893 7.53994C14.5462 7.43354 9.42759 5.00872 9.26527 4.94703C9.22617 4.99934 9.08231 5.13673 8.90738 5.56456C8.73244 5.99238 8.68945 6.37727 8.68945 6.37727C8.77144 6.43066 14.2075 8.32879 14.3512 8.34463C14.6363 8.5311 14.9872 9.08858 14.7911 10.7417L16.6659 10.2132C16.6658 10.2132 16.0296 8.52065 15.0353 7.94747Z" fill="#ACABB1"/>
</svg>
