<svg width="24" height="16" viewBox="0 0 24 16" fill="none" xmlns="http://www.w3.org/2000/svg">
<path d="M24 0H0V16H24V0Z" fill="#338AF3"/>
<path d="M12.0002 3.47803L12.3455 4.54086H13.4632L12.559 5.19785L12.9044 6.26064L12.0002 5.60379L11.0961 6.26064L11.4415 5.19785L10.5373 4.54086H11.6549L12.0002 3.47803Z" fill="#F0F0F0"/>
<path d="M7.47852 7.99988L8.54136 7.65451V6.53693L9.19831 7.44104L10.2612 7.09567L9.6043 7.99988L10.2612 8.9039L9.19831 8.55858L8.54136 9.46269V8.34516L7.47852 7.99988Z" fill="#F0F0F0"/>
<path d="M12.0003 12.5212L11.655 11.4584H10.5373L11.4415 10.8014L11.0961 9.73855L12.0003 10.3955L12.9044 9.73855L12.559 10.8014L13.4632 11.4584H12.3456L12.0003 12.5212Z" fill="#F0F0F0"/>
<path d="M16.522 7.99974L15.4591 8.34511V9.46269L14.8022 8.55858L13.7393 8.9039L14.3962 7.99974L13.7393 7.09567L14.8022 7.44104L15.4591 6.53693V7.65446L16.522 7.99974Z" fill="#F0F0F0"/>
</svg>
