<svg width="24" height="16" viewBox="0 0 24 16" fill="none" xmlns="http://www.w3.org/2000/svg">
<path d="M24 0H0V16H24V0Z" fill="#0052B4"/>
<path d="M18.7831 6.30433L18.0005 6.56519L17.2179 6.30433L16.957 5.65216L17.2179 5H18.7831L18.5222 5.65216L18.7831 6.30433Z" fill="#ACABB1"/>
<path d="M16.1738 6.3042V9.17372C16.1738 10.5716 17.9999 10.9998 17.9999 10.9998C17.9999 10.9998 19.826 10.5715 19.826 9.17372V6.3042H16.1738Z" fill="#338AF3"/>
<path d="M16.3379 9.8531C16.7868 10.7149 17.9994 10.9994 17.9994 10.9994C17.9994 10.9994 19.212 10.7149 19.6609 9.8531L17.9994 7.08643L16.3379 9.8531Z" fill="#6DA544"/>
<path d="M19.826 9.14475L17.9999 6.3042L16.1738 9.14475V9.17372C16.1738 9.43237 16.2365 9.65783 16.3385 9.85354L17.9999 7.26902L19.6614 9.85354C19.7634 9.65783 19.826 9.43246 19.826 9.17372V9.14475Z" fill="#FFDA44"/>
<path d="M12 0V1.43216L9.8828 2.60866H12V5.39108H9.22955L12 6.93021V7.99974H10.7494L7.30434 6.08604V7.99974H4.69566V5.72291L0.597375 7.99974H0V6.56754L2.1172 5.39108H0V2.60866H2.77045L0 1.06902V0H1.25063L4.69566 1.91365V0H7.30434V2.27679L11.4026 0H12Z" fill="#F0F0F0"/>
<path d="M7.30444 5.39082L12 7.99974L12.0001 7.26182L8.63227 5.39082H7.30444Z" fill="#F0F0F0"/>
<path d="M7.30444 5.39082L12 7.99974L12.0001 7.26182L8.63227 5.39082H7.30444Z" fill="#F0F0F0"/>
<path d="M4.69566 2.60866L0 0V0.737664L3.36783 2.60866H4.69566Z" fill="#F0F0F0"/>
<path d="M4.69566 2.60866L0 0V0.737664L3.36783 2.60866H4.69566Z" fill="#D80027"/>
<path d="M6.75 0H5.25V3.2499H0V4.74989H5.25V7.99988H6.75V4.74989H12V3.2499H6.75V0Z" fill="#D80027"/>
<path d="M7.30421 5.39082L11.9999 7.99948V7.26182L8.63204 5.39082H7.30421Z" fill="#D80027"/>
<path d="M3.36778 5.39082L0 7.26182V7.99948L4.69566 5.39082H3.36778Z" fill="#D80027"/>
<path d="M4.69566 2.60866L0 0V0.737664L3.36783 2.60866H4.69566Z" fill="#D80027"/>
<path d="M8.63209 2.60866L11.9999 0.737664V0L7.30421 2.60866H8.63209Z" fill="#D80027"/>
</svg>
