<svg width="24" height="16" viewBox="0 0 24 16" fill="none" xmlns="http://www.w3.org/2000/svg">
<path d="M24 0H0V16H24V0Z" fill="#F0F0F0"/>
<path fill-rule="evenodd" clip-rule="evenodd" d="M0 0H24V2.28569H7.16828L7.39156 2.12345H7.09353L7.00142 1.84L6.90936 2.12345H6.61133L6.83456 2.28569H5.16576L5.38899 2.12345H5.09096L4.9989 1.84L4.90679 2.12345H4.60876L4.83204 2.28569H0V0ZM5.90802 1.77565L6.00013 1.49215L6.09229 1.77565H6.39022L6.14915 1.95077L6.24121 2.23417L6.00013 2.05905L5.75905 2.23417L5.85112 1.95077L5.61004 1.77565H5.90802Z" fill="#6DA544"/>
<path d="M7.21753 4.57134H24V6.85703H0V4.57134H5.13056V4.66846L5.47842 5.36408H6.52186L7.21753 4.66846V4.57134Z" fill="#6DA544"/>
<path d="M24 9.14251H0V11.4282H24V9.14251Z" fill="#6DA544"/>
<path d="M0 13.7135H24V15.9992H0V13.7135Z" fill="#6DA544"/>
<path fill-rule="evenodd" clip-rule="evenodd" d="M0 0H12V6.85713H0V0ZM5.90802 1.77565L6.00013 1.49215L6.09229 1.77565H6.39022L6.14915 1.95077L6.24121 2.23417L6.00013 2.05905L5.75905 2.23417L5.85112 1.95077L5.61004 1.77565H5.90802ZM5.09096 2.12345L4.9989 1.84L4.90679 2.12345H4.60876L4.84988 2.29866L4.75777 2.58207L4.9989 2.4069L5.23998 2.58207L5.14791 2.29866L5.38899 2.12345H5.09096ZM4.30333 2.53541L4.39544 2.81891H4.69347L4.45235 2.99403L4.54446 3.27743L4.30333 3.10231L4.06225 3.27743L4.15436 2.99403L3.91324 2.81891H4.21127L4.30333 2.53541ZM5.13056 4.66846L5.47842 5.36408H6.52186L7.21753 4.66846V3.9728L6.86972 4.32061V3.27714L6.00014 2.58152L5.13056 3.27714V4.66846ZM3.69969 3.51482L3.60758 3.23137L3.51551 3.51482H3.21753L3.45856 3.68994L3.3665 3.97339L3.60758 3.79822L3.84875 3.97339L3.75659 3.68994L3.99767 3.51482H3.69969ZM8.39263 3.23137L8.30052 3.51482H8.00253L8.24361 3.68994L8.15145 3.97339L8.39263 3.79822L8.63371 3.97339L8.54164 3.68994L8.78267 3.51482H8.48469L8.39263 3.23137ZM7.60482 2.81891L7.69689 2.53541L7.789 2.81891H8.08703L7.8459 2.99403L7.93806 3.27743L7.69689 3.10231L7.45581 3.27743L7.54792 2.99403L7.30684 2.81891H7.60482ZM7.00142 1.84L6.90936 2.12345H6.61133L6.85241 2.29866L6.76034 2.58207L7.00142 2.4069L7.24255 2.58207L7.15044 2.29866L7.39156 2.12345H7.09353L7.00142 1.84Z" fill="#D80027"/>
</svg>
