<svg width="24" height="16" viewBox="0 0 24 16" fill="none" xmlns="http://www.w3.org/2000/svg">
<path d="M24 0H0V16H24V0Z" fill="#F0F0F0"/>
<path d="M13.5 0H10.5V6.4999H0V9.49987H10.5V15.9998H13.5V9.49987H24V6.4999H13.5V0Z" fill="#D80027"/>
<path d="M5.7718 2.72805V1.68457H4.72837V2.72805H3.68488V3.77152H4.72837V4.81499H5.7718V3.77152H6.81529V2.72805H5.7718Z" fill="#D80027"/>
<path d="M19.2718 2.72805V1.68457H18.2284V2.72805H17.1849V3.77152H18.2284V4.81499H19.2718V3.77152H20.3153V2.72805H19.2718Z" fill="#D80027"/>
<path d="M5.7718 12.2278V11.1843H4.72837V12.2278H3.68488V13.2713H4.72837V14.3148H5.7718V13.2713H6.81529V12.2278H5.7718Z" fill="#D80027"/>
<path d="M19.2718 12.2278V11.1843H18.2284V12.2278H17.1849V13.2713H18.2284V14.3148H19.2718V13.2713H20.3153V12.2278H19.2718Z" fill="#D80027"/>
</svg>
