<svg width="24" height="16" viewBox="0 0 24 16" fill="none" xmlns="http://www.w3.org/2000/svg">
<path d="M24 0H0V16H24V0Z" fill="#F0F0F0"/>
<path d="M24 10.6664H0V15.9995H24V10.6664Z" fill="#D80027"/>
<path d="M15.1305 6.6084V5.56493H15.4783V4.86931H14.7826V5.21707H14.087V4.86931H13.3914V5.56493H13.7391V6.6084H13.0435V4.17374H13.3914V3.47803H12.6956V3.82584H12.3479V3.47803H11.6522V3.82584H11.3044V3.47803H10.6087V4.17374H10.9565V6.6084H10.2609V5.56493H10.6087V4.86931H9.91305V5.21707H9.21742V4.86931H8.52175V5.56493H8.86956V6.6084H8.17393V9.39096H15.8261V6.6084H15.1305Z" fill="#D80027"/>
<path d="M12.0007 9.04297C11.4244 9.04297 10.9572 9.51012 10.9572 10.0864C10.9572 10.5407 11.2476 10.927 11.6529 11.0703V12.5212H10.6094V13.9125H12.3485V11.0703C12.7538 10.9271 13.0442 10.5408 13.0442 10.0865C13.0442 9.51012 12.577 9.04297 12.0007 9.04297ZM12.0007 10.4343C11.8086 10.4343 11.6529 10.2785 11.6529 10.0864C11.6529 9.89426 11.8085 9.73854 12.0007 9.73854C12.1928 9.73854 12.3486 9.89421 12.3486 10.0864C12.3486 10.2785 12.1928 10.4343 12.0007 10.4343Z" fill="#FFDA44"/>
</svg>
