<svg width="24" height="16" viewBox="0 0 24 16" fill="none" xmlns="http://www.w3.org/2000/svg">
<path d="M24 0H0V15.9995H24V0Z" fill="#F0F0F0"/>
<path d="M24 10.6665H0V15.9996H24V10.6665Z" fill="#D80027"/>
<path d="M13.1152 6.29883V8.38212C13.1152 9.65785 14.7819 10.0488 14.7819 10.0488C14.7819 10.0488 16.4485 9.6579 16.4485 8.38212V6.29883H13.1152Z" fill="#DEDDE0"/>
<path d="M15.2005 8.00732H14.3672V9.21566H15.2005V8.00732Z" fill="#786145"/>
<path d="M24 0H0V5.33315H24V0Z" fill="#6DA544"/>
<path d="M15.6161 7.54899C15.6161 7.08878 15.243 6.71566 14.7827 6.71566C14.3225 6.71566 13.9494 7.08873 13.9494 7.54899C13.7192 7.54899 13.5327 7.7355 13.5327 7.96566C13.5327 8.19581 13.7192 8.38232 13.9494 8.38232C14.086 8.38232 15.4794 8.38232 15.616 8.38232C15.8462 8.38232 16.0327 8.19581 16.0327 7.96566C16.0327 7.7355 15.8462 7.54899 15.6161 7.54899Z" fill="#6DA544"/>
<path d="M12 8.00031L0 16V0L12 8.00031Z" fill="#0052B4"/>
</svg>
