<svg width="24" height="16" viewBox="0 0 24 16" fill="none" xmlns="http://www.w3.org/2000/svg">
<path d="M24 0H0V16H24V0Z" fill="#A2001D"/>
<path fill-rule="evenodd" clip-rule="evenodd" d="M10.4694 8.91227C10.3099 8.64545 10.2183 8.33341 10.2183 7.99996C10.2183 7.66648 10.3099 7.3544 10.4694 7.08756L2.08594 2.08691V13.9129L10.4694 8.91227ZM5.04523 7.86748C5.25068 8.19214 5.15412 8.62181 4.82951 8.82737C4.5049 9.03292 4.07519 8.93631 3.86965 8.61164C3.4976 8.02381 3.71332 7.06397 3.71332 7.06397C3.71332 7.06397 4.67309 7.2797 5.04523 7.86748ZM13.5285 7.08757C13.688 7.35441 13.7796 7.66648 13.7796 7.99996C13.7796 8.3334 13.688 8.64544 13.5285 8.91225L21.912 13.9129V2.08691L13.5285 7.08757Z" fill="#496E2D"/>
<path fill-rule="evenodd" clip-rule="evenodd" d="M7.97193 0.486816L8.12736 0.965092H8.63019L8.22341 1.26069L8.37885 1.73902L7.97193 1.44337L7.5651 1.73902L7.72049 1.26069L7.31361 0.965092H7.81649L7.97193 0.486816ZM11.999 0.486816L12.1544 0.965092H12.6573L12.2505 1.26069L12.4059 1.73902L11.999 1.44337L11.5921 1.73902L11.7476 1.26069L11.3407 0.965092H11.8436L11.999 0.486816ZM16.0256 0.486816L16.1811 0.965092H16.6839L16.2771 1.26069L16.4325 1.73902L16.0256 1.44337L15.6188 1.73902L15.7742 1.26069L15.3674 0.965092H15.8702L16.0256 0.486816ZM11.999 14.2598L12.1544 14.7381H12.6573L12.2505 15.0337L12.4059 15.512L11.999 15.2164L11.5921 15.512L11.7476 15.0337L11.3407 14.7381H11.8436L11.999 14.2598ZM7.97193 14.2598L8.12736 14.7381H8.63019L8.22341 15.0337L8.37885 15.512L7.97193 15.2164L7.5651 15.512L7.72049 15.0337L7.31361 14.7381H7.81649L7.97193 14.2598ZM16.0256 14.2598L16.1811 14.7381H16.6839L16.2771 15.0337L16.4325 15.512L16.0256 15.2164L15.6188 15.512L15.7742 15.0337L15.3674 14.7381H15.8702L16.0256 14.2598ZM11.9992 6.21924L12.3981 7.44672H13.69L12.6448 8.2062L13.044 9.43487L11.9989 8.67553L10.9536 9.43487L11.3529 8.2062L10.3078 7.44672H11.5996L11.9985 6.21924C11.3487 6.2194 10.7803 6.56757 10.4695 7.0875L2.08594 2.08691H21.912L13.5284 7.08752C13.2176 6.56753 12.6491 6.21934 11.9992 6.21924ZM5.04523 7.86672C5.24787 8.18695 5.1567 8.60933 4.8427 8.81805C4.93254 8.75516 4.99128 8.6509 4.99128 8.53291C4.99128 8.34082 4.83556 8.18509 4.64347 8.18509C4.45138 8.18509 4.29565 8.34082 4.29565 8.53291C4.29565 8.72501 4.45138 8.88073 4.64347 8.88073C4.70577 8.88073 4.76426 8.86435 4.81484 8.83565C4.49206 9.02922 4.07211 8.93069 3.86965 8.61089C3.4976 8.02306 3.71332 7.06322 3.71332 7.06322C3.71332 7.06322 4.67309 7.27894 5.04523 7.86672ZM11.9989 9.78069C11.3489 9.78069 10.7802 9.43237 10.4693 8.9122L2.08594 13.9128H21.912L13.5286 8.91218C13.2177 9.43237 12.649 9.78069 11.9989 9.78069Z" fill="#FFDA44"/>
</svg>
