<svg width="24" height="16" viewBox="0 0 24 16" fill="none" xmlns="http://www.w3.org/2000/svg">
<g clip-path="url(#clip0_15610_340383)">
<g clip-path="url(#clip1_15610_340383)">
<path d="M24 0H0V16H24V0Z" fill="#F0F0F0"/>
<path d="M7.99983 0H0V16H7.99983V0Z" fill="#338AF3"/>
<path d="M24 0H16.0002V16H24V0Z" fill="#338AF3"/>
<path d="M14.2539 9.44068L12.7955 7.98232L14.1837 6.59409L14.1208 5.86087L13.7234 5.46338L12 7.18677L10.2766 5.46338L9.87917 5.86087L9.81627 6.59409L11.2045 7.98232L9.74609 9.44068L10.5416 10.2361L12 8.77778L13.4584 10.2361L14.2539 9.44068Z" fill="#ACABB1"/>
<path d="M14.1213 5.86084L13.3258 6.65635C13.6651 6.99567 13.875 7.46441 13.875 7.98219C13.875 9.01774 13.0355 9.85721 12 9.85721C10.9644 9.85721 10.1249 9.01774 10.1249 7.98219C10.1249 7.46446 10.3348 6.99572 10.6741 6.65635L9.87858 5.86084C9.33572 6.40374 9 7.15373 9 7.98219C9 9.63901 10.3432 10.9822 12 10.9822C13.6568 10.9822 15 9.63901 15 7.98219C15 7.15373 14.6642 6.40374 14.1213 5.86084Z" fill="#6DA544"/>
</g>
</g>
<defs>
<clipPath id="clip0_15610_340383">
<rect width="24" height="16" fill="white"/>
</clipPath>
<clipPath id="clip1_15610_340383">
<rect width="24" height="16" fill="white"/>
</clipPath>
</defs>
</svg>
