<svg width="24" height="16" viewBox="0 0 24 16" fill="none" xmlns="http://www.w3.org/2000/svg">
<path fill-rule="evenodd" clip-rule="evenodd" d="M24 0H0V16H24V0Z" fill="#D80027"/>
<path fill-rule="evenodd" clip-rule="evenodd" d="M21.478 0.521484H2.52148C1.41691 0.521484 0.521484 1.41866 0.521484 2.52537V13.4741C0.521484 14.5808 1.41691 15.478 2.52148 15.478H21.478C22.5826 15.478 23.478 14.5808 23.478 13.4741V2.52537C23.478 1.41865 22.5826 0.521484 21.478 0.521484ZM11.5471 13.0493C11.4378 12.9556 8.86938 10.7229 8.86938 7.99949C8.86938 5.27612 11.4378 3.04335 11.5471 2.94965L11.9998 2.56157L12.4526 2.94965C12.5619 3.04335 15.1303 5.27612 15.1303 7.99949C15.1303 10.7229 12.5619 12.9556 12.4526 13.0493L11.9998 13.4374L11.5471 13.0493ZM13.8902 10.0863C14.2065 9.45635 14.4345 8.74419 14.4345 7.99936H9.56494C9.56494 8.74419 9.79299 9.45635 10.1093 10.0863L11.9997 10.4342L13.8902 10.0863Z" fill="#0052B4"/>
<path fill-rule="evenodd" clip-rule="evenodd" d="M11.9992 3.47803C11.9992 3.47803 14.4339 5.56484 14.434 7.99949H9.56445C9.56461 5.56493 11.9992 3.47803 11.9992 3.47803ZM10.1102 10.0867H10.1088C9.7925 9.45673 9.56445 8.74456 9.56445 7.99973C9.56445 7.99965 9.56445 7.99957 9.56445 7.99949C9.56445 8.74432 9.7925 9.45648 10.1088 10.0864L10.1102 10.0867ZM13.8883 10.0867H13.8897C14.206 9.45673 14.434 8.74456 14.434 7.99973C14.434 7.99969 14.434 7.99965 14.434 7.99961C14.434 8.7444 14.206 9.45652 13.8897 10.0864L13.8883 10.0867Z" fill="#338AF3"/>
<path d="M10.4355 6.6084H13.566L12.0008 8.17358L10.4355 6.6084Z" fill="#6DA544"/>
<path d="M12.522 7.65137H11.4785V10.7818H12.522V7.65137Z" fill="#A2001D"/>
<path fill-rule="evenodd" clip-rule="evenodd" d="M10.1099 10.0864H10.1094C10.827 11.5156 11.9998 12.5212 11.9998 12.5212C11.9998 12.5212 13.1726 11.5156 13.8902 10.0864H13.8895L11.9997 10.4342L10.1099 10.0864Z" fill="#FFDA44"/>
</svg>
