<svg width="24" height="16" viewBox="0 0 24 16" fill="none" xmlns="http://www.w3.org/2000/svg">
<path d="M24 0H0V16H24V0Z" fill="#D80027"/>
<path d="M12.8265 6.05161C12.6447 6.80779 12.3217 6.66361 12.1631 7.32308C11.2293 7.0986 10.6542 6.15952 10.8787 5.22559C11.1031 4.29181 12.0423 3.71666 12.9761 3.94114C12.659 5.26014 12.9891 5.37526 12.8265 6.05161Z" fill="#F0F0F0"/>
<path d="M10.4033 6.61182C11.0663 7.01841 10.8293 7.2811 11.4075 7.63566C10.9053 8.45442 9.83458 8.71115 9.01577 8.20903C8.19701 7.70695 7.94023 6.63611 8.44235 5.81735C9.5988 6.52651 9.81021 6.24817 10.4033 6.61182Z" fill="#F0F0F0"/>
<path d="M10.1874 9.08986C10.779 8.58493 10.9555 8.89149 11.4714 8.45115C12.095 9.18169 12.0082 10.2794 11.2777 10.903C10.5471 11.5265 9.44942 11.4397 8.82589 10.7092C9.85766 9.82865 9.65825 9.5415 10.1874 9.08986Z" fill="#F0F0F0"/>
<path d="M12.4773 10.0608C12.1798 9.34216 12.5259 9.2689 12.2667 8.64223C13.1542 8.27497 14.1714 8.69665 14.5388 9.58413C14.906 10.4716 14.4843 11.4888 13.5968 11.8561C13.078 10.6027 12.7434 10.7036 12.4773 10.0608Z" fill="#F0F0F0"/>
<path d="M14.1084 8.1829C13.333 8.24375 13.3702 7.89186 12.6941 7.94492C12.619 6.98742 13.3344 6.15029 14.292 6.0751C15.2495 6.00015 16.0866 6.71554 16.1617 7.67305C14.8093 7.77908 14.8018 8.12858 14.1084 8.1829Z" fill="#F0F0F0"/>
</svg>
