<svg width="24" height="16" viewBox="0 0 24 16" fill="none" xmlns="http://www.w3.org/2000/svg">
<path d="M24 0H0V16H24V0Z" fill="#F0F0F0"/>
<path d="M24 0H0V5.3333H24V0Z" fill="#338AF3"/>
<path d="M24 10.6667H0V16H24V10.6667Z" fill="#338AF3"/>
<path d="M9.53856 5.77382L9.7458 6.41156H10.4163L9.87381 6.80569L10.081 7.44339L9.53856 7.04926L8.99612 7.44339L9.20336 6.80569L8.66083 6.41156H9.33137L9.53856 5.77382Z" fill="#338AF3"/>
<path d="M9.53856 8.55637L9.7458 9.19417H10.4163L9.87381 9.58821L10.081 10.226L9.53856 9.83182L8.99612 10.226L9.20336 9.58821L8.66083 9.19417H9.33137L9.53856 8.55637Z" fill="#338AF3"/>
<path d="M14.4613 5.77382L14.6685 6.41156H15.3391L14.7965 6.80569L15.0038 7.44339L14.4613 7.04926L13.9189 7.44339L14.1261 6.80569L13.5836 6.41156H14.2541L14.4613 5.77382Z" fill="#338AF3"/>
<path d="M14.4613 8.55637L14.6685 9.19417H15.3391L14.7965 9.58821L15.0038 10.226L14.4613 9.83182L13.9189 10.226L14.1261 9.58821L13.5836 9.19417H14.2541L14.4613 8.55637Z" fill="#338AF3"/>
<path d="M12 7.16484L12.2073 7.80259H12.8778L12.3353 8.19673L12.5425 8.83448L12 8.44034L11.4576 8.83448L11.6648 8.19673L11.1223 7.80259H11.7928L12 7.16484Z" fill="#338AF3"/>
</svg>
