<svg width="24" height="16" viewBox="0 0 24 16" fill="none" xmlns="http://www.w3.org/2000/svg">
<path d="M24 0H0V15.9997H24V0Z" fill="#F0F0F0"/>
<path d="M9.2168 5.21745L11.2573 5.21746L11.0718 3.82653L10.1443 3.13086L9.2168 3.82653V5.21745Z" fill="#338AF3"/>
<path d="M14.7819 5.21789L12.7415 5.21748L12.927 3.82653L13.8545 3.13086L14.782 3.82653L14.7819 5.21789Z" fill="#338AF3"/>
<path d="M24 0H0V5.33321H9.21729V3.82629L10.1448 3.13062L11.0723 3.82629L11.2578 5.21722L12.742 5.21723L12.9275 3.82629L13.855 3.13062L14.7825 3.82629L14.7824 5.33321H24V0Z" fill="#D80027"/>
<path d="M10.3306 5.21769H9.21753V6.33074H10.3306V5.21769Z" fill="#D80027"/>
<path d="M12.5563 5.21769H11.4433V6.33074H12.5563V5.21769Z" fill="#D80027"/>
<path d="M14.7826 5.21769H13.6696V6.33074H14.7826V5.21769Z" fill="#D80027"/>
<path d="M11.4433 6.33074H10.3306L10.3305 7.44361H11.4435L11.4433 6.33074Z" fill="#D80027"/>
<path d="M13.6696 6.33074H12.5563L12.5566 7.44361H13.6696L13.6696 6.33074Z" fill="#D80027"/>
<path d="M10.3305 7.44361L9.21753 7.44372V8.55677H10.3306L10.3305 7.44361Z" fill="#D80027"/>
<path d="M11.4435 8.55608L10.3306 8.55677L10.3305 9.66913H11.4435V8.55608Z" fill="#D80027"/>
<path d="M12.5566 7.44361H11.4435V8.55608L12.5563 8.55677L12.5566 7.44361Z" fill="#D80027"/>
<path d="M14.7826 7.44372L13.6696 7.44361L13.6696 8.55677H14.7826V7.44372Z" fill="#D80027"/>
<path d="M13.6696 8.55677H12.5563L12.5566 9.66913H13.6696L13.6696 8.55677Z" fill="#D80027"/>
<path d="M12.5566 9.66913H11.4435L11.4433 10.7824H12.5563L12.5566 9.66913Z" fill="#D80027"/>
<path d="M10.3305 9.66913L9.28928 9.66918C9.38482 10.0829 9.5725 10.4616 9.83003 10.7822H10.3305L10.3305 9.66913Z" fill="#D80027"/>
<path d="M13.6696 10.7827H14.17C14.4275 10.462 14.6153 10.0834 14.7108 9.66969L13.6696 9.66913L13.6696 10.7827Z" fill="#D80027"/>
<path d="M10.3305 10.7822L10.3305 11.2677C10.6542 11.5113 11.0325 11.686 11.4435 11.7697L11.4433 10.7824L10.3305 10.7822Z" fill="#D80027"/>
<path d="M12.5563 10.7824L12.5566 11.7697C12.9676 11.686 13.3459 11.5113 13.6696 11.2677L13.6696 10.7827L12.5563 10.7824Z" fill="#D80027"/>
<path d="M9.7412 10.667C9.90757 10.8979 10.1084 11.1023 10.3361 11.2727L10.823 11.1508L11.4375 11.769C11.6192 11.8064 11.8072 11.8261 11.9998 11.8261C12.1914 11.8261 12.3784 11.8067 12.5592 11.7696L13.2607 11.1856L13.6636 11.2716C13.8909 11.1014 14.0915 10.8974 14.2578 10.667H24V16.0002H0V10.667H9.7412Z" fill="#0052B4"/>
<path d="M12.9276 5.21748L11.0725 5.21746V3.82653L12.0001 3.13086L12.9276 3.82653V5.21748Z" fill="#0052B4"/>
</svg>
