<svg width="24" height="16" viewBox="0 0 24 16" fill="none" xmlns="http://www.w3.org/2000/svg">
<path fill-rule="evenodd" clip-rule="evenodd" d="M0 0.000488281H24V16H0V0.000488281ZM13.3913 8.34819C13.3913 9.1166 12.7684 9.73953 12 9.73953C11.2316 9.73953 10.6086 9.1166 10.6086 8.34819C10.6086 7.57978 11.2316 6.95686 12 6.95686C12.7684 6.95686 13.3913 7.57978 13.3913 8.34819Z" fill="#A2001D"/>
<path d="M12.0001 9.04377C12.3843 9.04377 12.6957 8.73234 12.6957 8.34816C12.6957 7.96398 12.3843 7.65254 12.0001 7.65254C11.6159 7.65254 11.3044 7.96398 11.3044 8.34816C11.3044 8.73234 11.6159 9.04377 12.0001 9.04377Z" fill="#A2001D"/>
<path d="M12.0006 9.73929L14.782 10.087V5.91309H9.2168V10.087L11.9982 9.73928C11.2304 9.73856 10.6082 9.11592 10.6082 8.34795C10.6082 7.57954 11.2311 6.95661 11.9995 6.95661C12.7679 6.95661 13.3908 7.57954 13.3908 8.34795C13.3908 9.11599 12.7685 9.73868 12.0006 9.73929Z" fill="#F0F0F0"/>
<path d="M24 8.00811V0H0V8.00811H9.21729V5.91333H14.7825V8.00811H24Z" fill="#0052B4"/>
<path fill-rule="evenodd" clip-rule="evenodd" d="M13.3495 8.00811C13.1977 7.40409 12.6511 6.95686 12 6.95686C11.3489 6.95686 10.8022 7.40409 10.6505 8.00811C10.6232 8.11694 10.6086 8.23087 10.6086 8.34819C10.6086 9.11661 11.2316 9.73953 12 9.73953C12.7684 9.73953 13.3913 9.11661 13.3913 8.34819C13.3913 8.23087 13.3768 8.11694 13.3495 8.00811ZM12.6957 8.34816C12.6957 8.73234 12.3843 9.04377 12.0001 9.04377C11.6159 9.04377 11.3044 8.73234 11.3044 8.34816C11.3044 7.96398 11.6159 7.65254 12.0001 7.65254C12.3843 7.65254 12.6957 7.96398 12.6957 8.34816Z" fill="#0052B4"/>
<path d="M12.348 7.30469H11.6523V9.39164H12.348V7.30469Z" fill="#FFDA44"/>
<path d="M12.3468 7.30457L13.043 6.6084H10.9561L11.6522 7.30457H12.3468Z" fill="#6DA544"/>
<path d="M11.6516 9.18273V9.39152H12.3472V9.18273H13.1125L14.782 10.0871H9.2168L10.8863 9.18273H11.6516Z" fill="#6DA544"/>
</svg>
