<svg width="24" height="16" viewBox="0 0 24 16" fill="none" xmlns="http://www.w3.org/2000/svg">
<path d="M24 0H0V15.9997H24V0Z" fill="#F0F0F0"/>
<path d="M24 0H0V5.33321H24V0Z" fill="#FF9811"/>
<path d="M24 10.667H0V16.0002H24V10.667Z" fill="#6DA544"/>
<path fill-rule="evenodd" clip-rule="evenodd" d="M14.0567 8.00001C14.0567 9.13641 13.1354 10.0576 11.999 10.0576C10.8626 10.0576 9.94141 9.13641 9.94141 8.00001C9.94141 6.86361 10.8626 5.94238 11.999 5.94238C13.1354 5.94238 14.0567 6.86361 14.0567 8.00001ZM13.2851 8.00037C13.2851 8.71059 12.7093 9.28634 11.9991 9.28634C11.2889 9.28634 10.7131 8.71059 10.7131 8.00037C10.7131 7.29015 11.2889 6.7144 11.9991 6.7144C12.7093 6.7144 13.2851 7.29015 13.2851 8.00037Z" fill="#0052B4"/>
<path d="M11.9991 6.41303L12.3958 7.31279L13.3734 7.20648L12.7925 7.99994L13.3734 8.79339L12.3958 8.68708L11.9991 9.58684L11.6023 8.68708L10.6248 8.79339L11.2056 7.99994L10.6248 7.20648L11.6023 7.31279L11.9991 6.41303Z" fill="#0052B4"/>
</svg>
