<svg width="24" height="16" viewBox="0 0 24 16" fill="none" xmlns="http://www.w3.org/2000/svg">
<path d="M24 0H0V16H24V0Z" fill="#F0F0F0"/>
<path d="M12 7.71588C12.4638 7.71584 12.949 7.44038 13.4626 7.1487C13.783 6.96679 14.2218 6.71759 14.41 6.71759C14.5983 6.71759 15.0371 6.96673 15.3574 7.1487C15.8711 7.4404 16.3562 7.71588 16.8201 7.71588C17.284 7.71588 17.7691 7.4404 18.2828 7.1487C18.6032 6.9668 19.042 6.71759 19.2302 6.71759C19.4185 6.71759 19.8573 6.96673 20.1777 7.1487C20.6913 7.4404 21.1765 7.71588 21.6404 7.71588C22.1042 7.71588 22.5894 7.4404 23.103 7.1487C23.3976 6.98136 23.7918 6.75776 23.9998 6.7228L24 5.67599C23.5514 5.69493 23.0829 5.96024 22.5879 6.24135C22.2675 6.42327 21.8288 6.67245 21.6405 6.67245C21.4522 6.67245 21.0134 6.42331 20.6931 6.24135C20.1794 5.94965 19.6943 5.67417 19.2304 5.67417C18.7665 5.67417 18.2813 5.94965 17.7677 6.24135C17.4473 6.42325 17.0084 6.67245 16.8202 6.67245C16.632 6.67245 16.1932 6.42331 15.8729 6.24135C15.3592 5.94965 14.874 5.67417 14.4102 5.67417C13.9463 5.67417 13.4611 5.94965 12.9475 6.24135C12.6271 6.42325 12.1882 6.67245 12 6.67245C12.0001 6.67245 12 6.67245 12 6.67245L12 7.71588Z" fill="#0052B4"/>
<path d="M12 5.10669C12.4638 5.10665 12.949 4.83119 13.4626 4.53951C13.783 4.3576 14.2218 4.1084 14.41 4.1084C14.5983 4.1084 15.0371 4.35754 15.3574 4.53951C15.8711 4.83121 16.3562 5.10669 16.8201 5.10669C17.284 5.10669 17.7691 4.83121 18.2828 4.53951C18.6032 4.35761 19.042 4.1084 19.2302 4.1084C19.4185 4.1084 19.8573 4.35754 20.1777 4.53951C20.6913 4.83121 21.1765 5.10669 21.6404 5.10669C22.1042 5.10669 22.5894 4.83121 23.103 4.53951C23.3976 4.37217 23.7918 4.14858 23.9998 4.11361V3.06681C23.5512 3.08574 23.0827 3.35105 22.5877 3.63216C22.2675 3.81413 21.8288 4.06326 21.6405 4.06326C21.4522 4.06326 21.0134 3.81413 20.6931 3.63216C20.1794 3.34046 19.6943 3.06498 19.2304 3.06498C18.7665 3.06498 18.2813 3.34046 17.7677 3.63216C17.4473 3.81407 17.0084 4.06326 16.8202 4.06326C16.632 4.06326 16.1932 3.81413 15.8729 3.63216C15.3592 3.34046 14.874 3.06498 14.4102 3.06498C13.9463 3.06498 13.4611 3.34046 12.9475 3.63216C12.6271 3.81407 12.1882 4.06326 12 4.06326C12 4.06326 12.0001 4.06326 12 4.06326L12 5.10669Z" fill="#0052B4"/>
<path d="M12 2.4983C12.4638 2.49827 12.949 2.2228 13.4626 1.93112C13.783 1.74922 14.2218 1.50002 14.41 1.50002C14.5983 1.50002 15.0371 1.74915 15.3574 1.93112C15.8711 2.22282 16.3562 2.4983 16.8201 2.4983C17.284 2.4983 17.7691 2.22282 18.2828 1.93112C18.6032 1.74922 19.042 1.50002 19.2302 1.50002C19.4185 1.50002 19.8573 1.74915 20.1777 1.93112C20.6913 2.22282 21.1765 2.4983 21.6404 2.4983C22.1042 2.4983 22.5894 2.22282 23.103 1.93112C23.3976 1.76378 23.7918 1.54019 23.9998 1.50522V0.458371C23.5512 0.477308 23.0827 0.742618 22.5877 1.02372C22.2674 1.20564 21.8286 1.45483 21.6403 1.45483C21.4521 1.45483 21.0132 1.20569 20.6929 1.02372C20.1792 0.732024 19.6941 0.456543 19.2302 0.456543C18.7663 0.456543 18.2812 0.732024 17.7675 1.02372C17.4471 1.20563 17.0082 1.45483 16.8201 1.45483C16.6318 1.45483 16.193 1.20569 15.8727 1.02372C15.359 0.732024 14.8739 0.456543 14.41 0.456543C13.9461 0.456543 13.461 0.732024 12.9473 1.02372C12.627 1.20558 12.1883 1.4547 12 1.45483V2.4983Z" fill="#0052B4"/>
<path d="M20.6931 8.84979C21.0134 9.03175 21.4522 9.28089 21.6405 9.28089C21.8288 9.28089 22.2675 9.03171 22.5877 8.84979C23.0827 8.56868 23.5512 8.30337 23.9998 8.28443V9.33124C23.7918 9.3662 23.3976 9.5898 23.103 9.75714C22.5894 10.0488 22.1042 10.3243 21.6404 10.3243C21.1765 10.3243 20.6913 10.0488 20.1777 9.75714C19.8573 9.57517 19.4185 9.32603 19.2302 9.32603C19.042 9.32603 18.6035 9.57506 18.2831 9.75697C17.7694 10.0487 17.284 10.3243 16.8201 10.3243C16.3562 10.3243 15.8711 10.0488 15.3574 9.75714C15.0371 9.57517 14.5983 9.32603 14.41 9.32603C14.2218 9.32603 13.7833 9.57506 13.4629 9.75696C12.9492 10.0487 12.4638 10.3243 11.9999 10.3243C11.536 10.3243 11.0509 10.0488 10.5372 9.75714C10.2169 9.57517 9.77803 9.32603 9.58978 9.32603C9.40153 9.32603 8.96273 9.57522 8.64239 9.75714C8.12873 10.0488 7.64358 10.3243 7.1797 10.3243C6.71583 10.3243 6.23067 10.0488 5.71702 9.75714C5.39667 9.57517 4.95783 9.32603 4.76958 9.32603C4.58139 9.32603 4.14281 9.57506 3.82244 9.75697C3.30878 10.0487 2.82333 10.3243 2.35945 10.3243C1.89558 10.3243 1.41042 10.0488 0.896766 9.75714C0.602203 9.5898 0.207984 9.3662 0 9.33124V8.28443C0.448594 8.30337 0.917109 8.56868 1.4122 8.84979C1.7325 9.03175 2.17134 9.28089 2.35959 9.28089C2.54779 9.28089 2.98637 9.03186 3.30673 8.84995C3.82039 8.55825 4.30584 8.2826 4.76972 8.2826C5.23359 8.2826 5.71875 8.55808 6.23241 8.84979C6.55275 9.03175 6.99159 9.28089 7.17984 9.28089C7.36809 9.28089 7.80689 9.03171 8.12723 8.84979C8.64089 8.55808 9.12605 8.2826 9.58992 8.2826C10.0538 8.2826 10.539 8.55808 11.0526 8.84979C11.373 9.03175 11.8118 9.28089 12 9.28089C12.1882 9.28089 12.6268 9.03186 12.9472 8.84995C13.4608 8.55825 13.9463 8.2826 14.4102 8.2826C14.874 8.2826 15.3592 8.55808 15.8729 8.84979C16.1932 9.03175 16.632 9.28089 16.8202 9.28089C17.0084 9.28089 17.447 9.03186 17.7674 8.84996C18.281 8.55826 18.7665 8.2826 19.2304 8.2826C19.6943 8.2826 20.1794 8.55808 20.6931 8.84979Z" fill="#0052B4"/>
<path d="M21.6405 11.8893C21.4522 11.8893 21.0134 11.6402 20.6931 11.4582C20.1794 11.1665 19.6943 10.891 19.2304 10.891C18.7665 10.891 18.2813 11.1665 17.7677 11.4582C17.4473 11.6401 17.0084 11.8893 16.8202 11.8893C16.632 11.8893 16.1932 11.6402 15.8729 11.4582C15.3592 11.1665 14.874 10.891 14.4102 10.891C13.9463 10.891 13.4611 11.1665 12.9475 11.4582C12.6271 11.6401 12.1882 11.8893 12 11.8893C11.8118 11.8893 11.373 11.6402 11.0526 11.4582C10.539 11.1665 10.0538 10.891 9.58992 10.891C9.12605 10.891 8.64089 11.1665 8.12723 11.4582C7.80689 11.6401 7.36809 11.8893 7.17984 11.8893C6.99159 11.8893 6.55275 11.6402 6.23241 11.4582C5.71875 11.1665 5.23359 10.891 4.76972 10.891C4.30584 10.891 3.82069 11.1665 3.30703 11.4582C2.98667 11.6401 2.54779 11.8893 2.35959 11.8893C2.17134 11.8893 1.7325 11.6402 1.4122 11.4582C0.917109 11.1771 0.448594 10.9118 0 10.8929V11.9397C0.207984 11.9746 0.602203 12.1982 0.896766 12.3656C1.41042 12.6573 1.89558 12.9327 2.35945 12.9327C2.82333 12.9327 3.30848 12.6573 3.82214 12.3656C4.14251 12.1837 4.58139 11.9345 4.76958 11.9345C4.95783 11.9345 5.39667 12.1836 5.71702 12.3656C6.23067 12.6573 6.71583 12.9327 7.1797 12.9327C7.64358 12.9327 8.12873 12.6573 8.64239 12.3656C8.96273 12.1836 9.40153 11.9345 9.58978 11.9345C9.77803 11.9345 10.2169 12.1836 10.5372 12.3656C11.0509 12.6573 11.536 12.9327 11.9999 12.9327C12.4638 12.9327 12.9489 12.6573 13.4626 12.3656C13.783 12.1837 14.2218 11.9345 14.41 11.9345C14.5983 11.9345 15.0371 12.1836 15.3574 12.3656C15.8711 12.6573 16.3562 12.9327 16.8201 12.9327C17.284 12.9327 17.7691 12.6573 18.2828 12.3656C18.6032 12.1837 19.042 11.9345 19.2302 11.9345C19.4185 11.9345 19.8573 12.1836 20.1777 12.3656C20.6913 12.6573 21.1765 12.9327 21.6404 12.9327C22.1042 12.9327 22.5894 12.6573 23.103 12.3656C23.3976 12.1982 23.7918 11.9746 23.9998 11.9397V10.8929C23.5512 10.9118 23.0827 11.1771 22.5877 11.4582C22.2675 11.6401 21.8288 11.8893 21.6405 11.8893Z" fill="#0052B4"/>
<path d="M22.5879 14.0666C23.0829 13.7855 23.5514 13.5202 24 13.5013L23.9998 14.5481C23.7918 14.5831 23.3976 14.8066 23.103 14.974C22.5894 15.2657 22.1042 15.5412 21.6404 15.5412C21.1765 15.5412 20.6913 15.2657 20.1777 14.974C19.8573 14.792 19.4185 14.5429 19.2302 14.5429C19.042 14.5429 18.6035 14.7919 18.2831 14.9738C17.7695 15.2655 17.284 15.5412 16.8201 15.5412C16.3562 15.5412 15.8711 15.2657 15.3574 14.974C15.0371 14.792 14.5983 14.5429 14.41 14.5429C14.2218 14.5429 13.7833 14.7919 13.4629 14.9738C12.9492 15.2655 12.4638 15.5412 11.9999 15.5412C11.536 15.5412 11.0509 15.2657 10.5372 14.974C10.2169 14.792 9.77803 14.5429 9.58978 14.5429C9.40153 14.5429 8.96273 14.7921 8.64239 14.974C8.12873 15.2657 7.64358 15.5412 7.1797 15.5412C6.71583 15.5412 6.23067 15.2657 5.71702 14.974C5.39667 14.792 4.95783 14.5429 4.76958 14.5429C4.58139 14.5429 4.14282 14.7919 3.82245 14.9738C3.3088 15.2655 2.82333 15.5412 2.35945 15.5412C1.89558 15.5412 1.41042 15.2657 0.896766 14.974C0.602203 14.8066 0.207984 14.5831 0 14.5481V13.5013C0.448594 13.5202 0.917109 13.7855 1.4122 14.0666C1.7325 14.2486 2.17134 14.4977 2.35959 14.4977C2.54778 14.4977 2.98637 14.2487 3.30673 14.0668C3.82039 13.7751 4.30584 13.4995 4.76972 13.4995C5.23359 13.4995 5.71875 13.7749 6.23241 14.0666C6.55275 14.2486 6.99159 14.4977 7.17984 14.4977C7.36809 14.4977 7.80689 14.2486 8.12723 14.0666C8.64089 13.7749 9.12605 13.4995 9.58992 13.4995C10.0538 13.4995 10.539 13.7749 11.0526 14.0666C11.373 14.2486 11.8118 14.4977 12 14.4977C12.1882 14.4977 12.6268 14.2487 12.9472 14.0668C13.4608 13.7751 13.9463 13.4995 14.4102 13.4995C14.874 13.4995 15.3592 13.7749 15.8729 14.0666C16.1932 14.2486 16.632 14.4977 16.8202 14.4977C17.0084 14.4977 17.447 14.2487 17.7673 14.0668C18.281 13.7751 18.7665 13.4995 19.2304 13.4995C19.6943 13.4995 20.1794 13.7749 20.6931 14.0666C21.0134 14.2486 21.4522 14.4977 21.6405 14.4977C21.8288 14.4977 22.2675 14.2486 22.5879 14.0666Z" fill="#0052B4"/>
<path d="M16.4355 3.91309H19.566L18.0007 5.47827L16.4355 3.91309Z" fill="#6DA544"/>
<path d="M18.348 5.12988H17.6523V7.04292H18.348V5.12988Z" fill="#A2001D"/>
<path d="M18.348 10.1737H17.6523V12.0867H18.348V10.1737Z" fill="#A2001D"/>
<path d="M20.0879 9.1306C20.0879 8.55428 19.6207 8.08713 19.0444 8.08713C18.7771 8.08713 18.5334 8.18772 18.3488 8.353V7.73927H18.6967V7.04366H18.3488V6.6958H17.6532V7.04366H17.3053V7.73927H17.6532V8.353C17.4685 8.18772 17.2248 8.08713 16.9575 8.08713C16.3812 8.08713 15.9141 8.55428 15.9141 9.1306C15.9141 9.43955 16.0485 9.71709 16.2619 9.9082V10.5219H19.7402V9.90815C19.9535 9.71709 20.0879 9.43955 20.0879 9.1306Z" fill="#FFDA44"/>
<path d="M19.0434 8.78216C18.9337 8.78216 18.8569 8.8303 18.8117 8.87071L18.3478 9.28606H17.6521L17.1882 8.87071C17.1431 8.83035 17.0662 8.78216 16.9565 8.78216C16.7647 8.78216 16.6086 8.93821 16.6086 9.13002C16.6086 9.26511 16.6815 9.35047 16.7249 9.38937L16.9565 9.59675V9.82564H19.0435V9.5967L19.2751 9.38933C19.3185 9.35047 19.3913 9.26506 19.3913 9.12997C19.3912 8.93821 19.2352 8.78216 19.0434 8.78216Z" fill="#D80027"/>
<path d="M6.75 0H5.25V3.25H0V4.74998H5.25V7.99998H6.75V4.74998H12V3.25H6.75V0Z" fill="#D80027"/>
<path d="M0 0V0.706962L2.68955 2.50001H3.75L0 0Z" fill="#D80027"/>
<path d="M12 0V0.706962L9.31045 2.50001H8.25L12 0Z" fill="#D80027"/>
<path d="M0 7.99992V7.29296L2.68955 5.49992H3.75L0 7.99992Z" fill="#D80027"/>
<path d="M12 7.99992V7.29296L9.31045 5.49992H8.25L12 7.99992Z" fill="#D80027"/>
<path d="M0 1.06067V2.50028H2.15948L0 1.06067Z" fill="#2E52B2"/>
<path d="M4.49997 0V2.29277L1.06066 0H4.49997Z" fill="#2E52B2"/>
<path d="M12 1.06067V2.50028H9.84055L12 1.06067Z" fill="#2E52B2"/>
<path d="M7.5 0V2.29277L10.9393 0H7.5Z" fill="#2E52B2"/>
<path d="M0 1.06067V2.50028H2.15948L0 1.06067Z" fill="#2E52B2"/>
<path d="M4.49997 0V2.29277L1.06066 0H4.49997Z" fill="#2E52B2"/>
<path d="M12 1.06067V2.50028H9.84055L12 1.06067Z" fill="#2E52B2"/>
<path d="M7.5 0V2.29277L10.9393 0H7.5Z" fill="#2E52B2"/>
<path d="M0 6.93958V5.49992H2.15948L0 6.93958Z" fill="#2E52B2"/>
<path d="M4.49997 7.99971V5.70699L1.06066 7.99971H4.49997Z" fill="#2E52B2"/>
<path d="M12 6.93958V5.49992H9.84055L12 6.93958Z" fill="#2E52B2"/>
<path d="M7.5 7.99971V5.70699L10.9393 7.99971H7.5Z" fill="#2E52B2"/>
</svg>
