<svg width="24" height="16" viewBox="0 0 24 16" fill="none" xmlns="http://www.w3.org/2000/svg">
<path d="M24 0H0V16H24V0Z" fill="#F0F0F0"/>
<path fill-rule="evenodd" clip-rule="evenodd" d="M0 0H24V4.63818H22.9565V5.33332H21.9131V4.63818H20.8696V5.33332H19.8262V4.63818H18.7827V5.33332H17.739V4.63818H16.6956V5.33332H15.6521V4.63818H14.6086V5.33332H13.5652V4.63818H12.5217V5.33332H11.4783V4.63818H10.4348V5.33332H9.39139V4.63818H8.3479V5.33332H7.30447V4.63818H6.26099V5.33332H5.21731V4.63818H4.17383V5.33332H3.1304V4.63818H2.08691V5.33332H1.04348V4.63818H0V0Z" fill="#6DA544"/>
<path fill-rule="evenodd" clip-rule="evenodd" d="M2.08691 10.6664V11.3625H3.1304V10.6664H4.17383V11.3625H5.21731V10.6664H6.26099V11.3625H7.30447V10.6664H8.3479V11.3625H9.39139V10.6664H10.4348V11.3625H11.4783V10.6664H12.5217V11.3625H13.5652V10.6664H14.6086V11.3625H15.6521V10.6664H16.6956V11.3625H17.739V10.6664H18.7827V11.3625H19.8262V10.6664H20.8696V11.3625H21.9131V10.6664H22.9565V11.3625H24V15.9997H0V11.3625H1.04348V10.6664H2.08691ZM13.2414 6.33057H14.0787C14.0841 6.42212 14.087 6.51488 14.0871 6.60882C14.0871 8.32528 13.1704 9.66978 12.0001 9.66978C10.8298 9.66978 9.91312 8.32528 9.91307 6.60882C9.91307 6.51488 9.91598 6.42212 9.92137 6.33057H10.7587C10.7518 6.42254 10.7478 6.51545 10.7478 6.60882C10.7478 7.22791 10.9025 7.82802 11.1723 8.2552C11.2556 8.38692 11.3954 8.57298 11.5826 8.69846V6.33057H12.4174V8.69846C12.6046 8.57302 12.7445 8.38702 12.8277 8.2552C13.0975 7.82807 13.2523 7.22791 13.2523 6.60882C13.2523 6.51545 13.2483 6.42258 13.2414 6.33057Z" fill="#D80027"/>
</svg>
