<svg width="24" height="16" viewBox="0 0 24 16" fill="none" xmlns="http://www.w3.org/2000/svg">
<path d="M24 0H0V15.9997H24V0Z" fill="#F0F0F0"/>
<path d="M24 0H0V5.33321H24V0Z" fill="#A2001D"/>
<path d="M24 10.667H0V16.0002H24V10.667Z" fill="black"/>
<path d="M10.2744 7.53478C10.2705 7.53478 10.2667 7.53506 10.2628 7.53511L8.89836 7.53478C8.96755 7.2675 9.21003 7.06926 9.49864 7.06926V6.13818C8.64298 6.13818 7.94694 6.83428 7.94694 7.68989V8.46572H10.2629C10.2681 8.46572 10.2723 8.46572 10.2745 8.46572C10.3601 8.46572 10.4297 8.53533 10.4297 8.62087V8.93119H7.32617V9.86222H11.3607V8.62092C11.3607 8.02205 10.8734 7.53478 10.2744 7.53478Z" fill="#496E2D"/>
<path d="M12.602 8.93133V6.13818H11.6711V9.86237H13.2228V8.93133H12.602Z" fill="#496E2D"/>
<path d="M15.7055 8.93133V6.13818H14.7744V8.93133H14.4641V8.00035H13.533V9.86237H16.3262V8.93133H15.7055Z" fill="#496E2D"/>
</svg>
