<svg width="24" height="16" viewBox="0 0 24 16" fill="none" xmlns="http://www.w3.org/2000/svg">
<path d="M24 0H0V16H24V0Z" fill="#F0F0F0"/>
<path d="M15 6.26775H13L12 4.53569L11 6.2677H9L10.0001 7.99976L9 9.73173H11L12 11.4638L13 9.73178H15L13.9999 7.99972L15 6.26775ZM13.2285 7.99972L12.6143 9.06372H11.3857L10.7715 7.99972L11.3857 6.93571H12.6143L13.2285 7.99972ZM12 5.87175L12.2286 6.26775H11.7714L12 5.87175ZM10.1571 6.93571H10.6144L10.3858 7.33171L10.1571 6.93571ZM10.1571 9.06377L10.3857 8.66777L10.6143 9.06377H10.1571ZM12 10.1277L11.7714 9.73173H12.2287L12 10.1277ZM13.8429 9.06377H13.3856L13.6142 8.66777L13.8429 9.06377ZM13.3856 6.93571H13.8429L13.6143 7.33171L13.3856 6.93571Z" fill="#2E52B2"/>
<path d="M24 0.999512H0V2.99932H24V0.999512Z" fill="#2E52B2"/>
<path d="M24 12.9994H0V14.9992H24V12.9994Z" fill="#2E52B2"/>
</svg>
