<svg width="24" height="16" viewBox="0 0 24 16" fill="none" xmlns="http://www.w3.org/2000/svg">
<path d="M24 0H0V16H24V0Z" fill="#FFDA44"/>
<path d="M0 0H24V15.9998" fill="#D80027"/>
<path d="M14.0908 10.092C13.7622 10.221 13.3804 10.2074 13.0491 10.0214C12.4638 9.69291 12.2549 8.94934 12.5835 8.36397L12.4837 8.30805C13.4859 8.06637 14.2274 7.15672 14.2144 6.0832C14.2063 5.4158 13.9081 4.81871 13.4416 4.41016L12.7112 5.15841C12.9874 5.37849 13.1664 5.71603 13.171 6.09581C13.1791 6.76701 12.6397 7.31975 11.9685 7.32791L11.9699 7.44223C11.2595 6.69519 10.101 6.50793 9.17775 7.05589C8.60386 7.39662 8.23589 7.9534 8.11523 8.56169L9.12849 8.82011C9.18103 8.47089 9.38381 8.14713 9.71039 7.95321C10.2876 7.61061 11.036 7.80139 11.3787 8.37864L11.477 8.32033C11.1852 9.30901 11.6022 10.406 12.5385 10.9315C13.1205 11.2582 13.7866 11.2985 14.3738 11.0988L14.0908 10.092Z" fill="#FF9811"/>
<path d="M14.9611 5.41765L14.3957 7.43546L12.6991 7.12215L11.6071 4.87109L8.65687 5.91799L8.42419 5.2624L7.65234 5.16729L8.23392 6.80631L10.2642 6.28708L10.8412 7.91297L9.43772 9.98421L11.8194 12.0156L11.368 12.5449L11.6715 13.261L12.8002 11.9378L11.3354 10.4392L12.455 9.12664L14.9505 9.3065L15.519 6.22811L16.2031 6.35444L16.6715 5.73349L14.9611 5.41765ZM11.9985 8.05392V8.05397V8.05392Z" fill="#FFEACF"/>
</svg>
