<svg width="24" height="16" viewBox="0 0 24 16" fill="none" xmlns="http://www.w3.org/2000/svg">
<path d="M24 0H0V16H24V0Z" fill="#F0F0F0"/>
<path d="M5.42466 1.51074C4.77634 1.51074 4.2316 1.95418 4.07715 2.55422L5.42466 2.90207L6.77218 2.55422C6.61773 1.95408 6.07295 1.51074 5.42466 1.51074Z" fill="black"/>
<path d="M4.03336 4.64125L5.77247 4.9891V4.24961C6.26132 4.12371 6.64617 3.73882 6.77203 3.24997L5.42466 2.90207L3.68555 2.90211L4.03341 3.94558L4.03336 4.64125Z" fill="black"/>
<path d="M18.9247 1.51074C18.2763 1.51074 17.7316 1.95418 17.5771 2.55422L18.9247 2.90207L20.2722 2.55422C20.1177 1.95408 19.5729 1.51074 18.9247 1.51074Z" fill="black"/>
<path d="M17.5334 4.64125L19.2725 4.9891V4.24961C19.7613 4.12371 20.1462 3.73882 20.272 3.24997L18.9247 2.90207L17.1855 2.90211L17.5334 3.94558L17.5334 4.64125Z" fill="black"/>
<path d="M18.9247 11.0106C18.2763 11.0106 17.7316 11.454 17.5771 12.0541L18.9247 12.4019L20.2722 12.0541C20.1177 11.454 19.5729 11.0106 18.9247 11.0106Z" fill="black"/>
<path d="M17.5334 14.1411L19.2725 14.489V13.7495C19.7613 13.6236 20.1462 13.2387 20.272 12.7498L18.9247 12.4019L17.1855 12.402L17.5334 13.4454L17.5334 14.1411Z" fill="black"/>
<path d="M5.42466 11.0106C4.77634 11.0106 4.2316 11.454 4.07715 12.0541L5.42466 12.4019L6.77218 12.0541C6.61773 11.454 6.07295 11.0106 5.42466 11.0106Z" fill="black"/>
<path d="M4.03336 14.1411L5.77247 14.489V13.7495C6.26132 13.6236 6.64617 13.2387 6.77203 12.7498L5.42466 12.4019L3.68555 12.402L4.03341 13.4454L4.03336 14.1411Z" fill="black"/>
<path d="M6.77213 2.5542H3.68555V3.94544H4.03341V3.24982H6.77213C6.80077 3.13863 6.81605 3.0221 6.81605 2.90196C6.81596 2.78192 6.80072 2.66539 6.77213 2.5542Z" fill="#ACABB1"/>
<path d="M20.2722 2.5542H17.1855V3.94544H17.5334V3.24982H20.2721C20.3008 3.13863 20.316 3.0221 20.316 2.90196C20.316 2.78192 20.3008 2.66539 20.2722 2.5542Z" fill="#ACABB1"/>
<path d="M20.2722 12.0541H17.1855V13.4453H17.5334V12.7497H20.2721C20.3008 12.6385 20.316 12.522 20.316 12.4018C20.316 12.2818 20.3008 12.1652 20.2722 12.0541Z" fill="#ACABB1"/>
<path d="M6.77213 12.0541H3.68555V13.4453H4.03341V12.7497H6.77213C6.80077 12.6385 6.81605 12.522 6.81605 12.4018C6.81596 12.2818 6.80072 12.1652 6.77213 12.0541Z" fill="#ACABB1"/>
<path d="M13.5 0H10.5V6.4999H0V9.49987H10.5V15.9998H13.5V9.49987H24V6.4999H13.5V0Z" fill="#D80027"/>
</svg>
