<svg width="24" height="16" viewBox="0 0 24 16" fill="none" xmlns="http://www.w3.org/2000/svg">
<path d="M24 0H0V16H24V0Z" fill="#F0F0F0"/>
<path d="M10.957 3.82581L12.0005 4.08667L13.044 3.82581V2.93886L12.6266 3.14759L12.0005 2.52148L11.3744 3.14759L10.957 2.93886V3.82581Z" fill="#FFDA44"/>
<path d="M14.1213 7.99998L24 1.4142V0H21.8787L12 6.58573L2.12133 0H0V1.4142L9.87867 7.99998L0 14.5857V15.9999H2.12133L12 9.41418L21.8787 15.9999H24V14.5857L14.1213 7.99998Z" fill="#D80027"/>
<path d="M10.9565 3.82578V4.47799C10.9565 5.27673 12 5.52146 12 5.52146C12 5.52146 13.0435 5.27673 13.0435 4.47799V3.82578H10.9565Z" fill="#D80027"/>
</svg>
