<svg width="24" height="16" viewBox="0 0 24 16" fill="none" xmlns="http://www.w3.org/2000/svg">
<path d="M24 0H0V16H24V0Z" fill="#338AF3"/>
<path d="M9.25305 8.45803H7.5C7.5 9.07935 8.04112 9.58297 8.66245 9.58297H8.625C8.625 10.2043 9.12862 10.708 9.75005 10.708C9.75005 11.3293 10.2537 11.833 10.8751 11.833H13.1251C13.7464 11.833 14.2501 11.3294 14.2501 10.708C14.8715 10.708 15.3752 10.2044 15.3752 9.58297H15.3377C15.9588 9.58297 16.5 9.07935 16.5 8.45803H14.7468C14.2215 9.43674 13.1884 10.1023 11.9999 10.1023C10.8114 10.1023 9.77832 9.43675 9.25305 8.45803Z" fill="#FFDA44"/>
<path d="M15.0883 6.69501L13.8264 7.20589L14.4984 8.2578L13.1281 8.03215L12.9545 9.22347L12.0001 8.34729L11.0456 9.22347L10.872 8.03215L9.50179 8.25771L10.1737 7.20585L8.91187 6.69501L10.1737 6.18412L9.50179 5.13231L10.872 5.35791L11.0457 4.1665L12.0001 5.04278L12.9546 4.1665L13.1281 5.35791L14.4984 5.13231L13.8265 6.18417L15.0883 6.69501Z" fill="#FFDA44"/>
</svg>
