<svg width="24" height="16" viewBox="0 0 24 16" fill="none" xmlns="http://www.w3.org/2000/svg">
<path d="M24 0H0V16H24V0Z" fill="#F0F0F0"/>
<path d="M13.9538 1.99948L15.153 2.55302L14.1326 4.84415C13.855 4.36992 13.5473 3.94517 13.254 3.58413L13.9538 1.99948Z" fill="#F0F0F0"/>
<path d="M12.8144 3.07467C12.3501 2.56767 11.9999 2.27603 11.9999 2.27603C11.9999 2.27603 11.6496 2.5674 11.1854 3.0744C11.2384 3.01645 11.29 2.96213 11.3397 2.90994V13.0892C11.7251 13.4938 11.9999 13.7225 11.9999 13.7225C11.9999 13.7225 12.2749 13.4937 12.6605 13.0888V2.90994C12.7101 2.96197 12.7615 3.01692 12.8144 3.07467Z" fill="#F0F0F0"/>
<path d="M13.2542 12.4153L13.9538 13.9993L15.153 13.4459L14.1328 11.1552C13.8552 11.6294 13.5475 12.0542 13.2542 12.4153Z" fill="#F0F0F0"/>
<path d="M10.7458 12.415C10.4525 12.0539 10.1448 11.6291 9.86728 11.1549L8.84692 13.4459L10.0461 13.9993L10.7458 12.415Z" fill="#F0F0F0"/>
<path d="M9.86748 4.84444C10.145 4.37019 10.4527 3.94541 10.7461 3.58435L10.0461 1.99948L8.84692 2.55302L9.86748 4.84444Z" fill="#F0F0F0"/>
<path d="M24 0H0V4.24584H9.60088L8.84692 2.55302L10.0461 1.99948L10.7461 3.58435C10.5824 3.78583 10.4142 4.00715 10.2493 4.24584H11.3397V2.90994C11.29 2.96213 11.2384 3.01645 11.1854 3.0744C11.6496 2.5674 11.9999 2.27603 11.9999 2.27603C11.9999 2.27603 12.2749 2.50502 12.6605 2.90994V4.24584H13.7509C13.5859 4.00707 13.4177 3.78567 13.254 3.58413L13.9538 1.99948L15.153 2.55302L14.3991 4.24584H24V0Z" fill="black"/>
<path d="M14.2012 4.96372V11.0356C14.6978 10.1556 15.0817 9.11502 15.0817 7.99969C15.0817 6.88436 14.6978 5.84379 14.2012 4.96372Z" fill="black"/>
<path d="M9.79871 4.96372V11.0356C9.30212 10.1556 8.91821 9.11502 8.91821 7.99969C8.91821 6.88436 9.30212 5.84379 9.79871 4.96372Z" fill="black"/>
<path d="M10.2496 11.7544H11.3397V13.0894C11.7251 13.494 11.9999 13.7226 11.9999 13.7226C11.9999 13.7226 12.2749 13.4938 12.6605 13.0889V11.7544H13.7506C13.5858 11.9929 13.4178 12.2141 13.2542 12.4154L13.9538 13.9995L15.153 13.446L14.3996 11.7544H24V15.9997H0V11.7544H9.60034L8.84692 13.446L10.0461 13.9995L10.7458 12.4151C10.5823 12.2139 10.4144 11.9928 10.2496 11.7544Z" fill="#496E2D"/>
<path d="M9.79883 4.9641V11.036C10.2894 11.9051 10.8898 12.6176 11.3397 13.0899V2.91016C10.8898 3.38246 10.2893 4.09491 9.79883 4.9641Z" fill="#A2001D"/>
<path d="M9.61452 10.691C9.21032 9.88879 8.91821 8.97279 8.91821 7.99991C8.91821 7.02743 9.21007 6.1118 9.61401 5.30983H0V10.691H9.61452Z" fill="#A2001D"/>
<path d="M14.2012 11.0358C14.2011 11.036 14.2013 11.0357 14.2012 11.0358V4.96394C14.2013 4.96408 14.2011 4.9638 14.2012 4.96394C13.7106 4.09475 13.1104 3.38246 12.6605 2.91016V13.09C13.1105 12.6176 13.7106 11.905 14.2012 11.0358Z" fill="#A2001D"/>
<path d="M24 10.691H14.3854C14.7896 9.88879 15.0817 8.97279 15.0817 7.99991C15.0817 7.02743 14.7898 6.1118 14.3859 5.30983H24V10.691Z" fill="#A2001D"/>
</svg>
