<svg width="24" height="16" viewBox="0 0 24 16" fill="none" xmlns="http://www.w3.org/2000/svg">
<path d="M24 0H0V16H24V0Z" fill="#D80027"/>
<path d="M12 15.9995C16.4182 15.9995 19.9998 12.4179 19.9998 7.99974C19.9998 3.58161 16.4182 0 12 0C7.58182 0 4.00018 3.58161 4.00018 7.99974C4.00018 12.4179 7.58182 15.9995 12 15.9995Z" fill="#D80027"/>
<path d="M14.3172 8.74998L15.9127 7.99948L14.3171 7.24902C14.3936 7.48549 14.435 7.73779 14.435 7.99976C14.435 8.26153 14.3937 8.51366 14.3172 8.74998Z" fill="#FFDA44"/>
<path d="M14.3158 8.75446C14.1555 9.24656 13.8427 9.6698 13.4332 9.96838L15.1654 10.2998L14.3158 8.75446Z" fill="#FFDA44"/>
<path d="M13.4289 9.9715C13.0283 10.2622 12.5357 10.4339 12.0031 10.4345L13.2095 11.7212L13.4289 9.9715Z" fill="#FFDA44"/>
<path d="M11.9975 10.4345C11.4649 10.4339 10.9723 10.2623 10.5717 9.97162L10.7912 11.7212L11.9975 10.4345Z" fill="#FFDA44"/>
<path d="M10.5673 9.9684C10.1578 9.66986 9.84504 9.2467 9.68473 8.75468L8.83527 10.2997L10.5673 9.9684Z" fill="#FFDA44"/>
<path d="M9.68313 8.74973C9.60671 8.51349 9.56543 8.26144 9.56543 7.99976C9.56543 7.73784 9.60679 7.48558 9.68333 7.24916L8.08789 7.99948L9.68313 8.74973Z" fill="#FFDA44"/>
<path d="M9.68486 7.24443C9.84527 6.7524 10.1582 6.32924 10.5677 6.03076L8.83527 5.69921L9.68486 7.24443Z" fill="#FFDA44"/>
<path d="M10.5715 6.02801C10.9722 5.73716 11.4651 5.56548 11.998 5.565L10.7912 4.27783L10.5715 6.02801Z" fill="#FFDA44"/>
<path d="M12.0027 5.565C12.5355 5.56552 13.0283 5.73721 13.429 6.02806L13.2095 4.27783L12.0027 5.565Z" fill="#FFDA44"/>
<path d="M13.4327 6.03077L15.1655 5.69921L14.3157 7.24485C14.1553 6.75264 13.8424 6.32933 13.4327 6.03077Z" fill="#FFDA44"/>
<path d="M10.7828 7.99991C10.7242 7.99991 10.6662 8.00287 10.6091 8.00863C10.6112 8.34589 10.7333 8.65452 10.9348 8.89428C11.0423 8.60497 11.2028 8.34121 11.4052 8.11551C11.2118 8.04112 11.002 7.99991 10.7828 7.99991Z" fill="#FFDA44"/>
<path d="M11.5321 9.30999C11.6784 9.3622 11.8359 9.39089 12.0001 9.39089C12.1643 9.39089 12.3218 9.36225 12.468 9.30999C12.3883 8.9971 12.2237 8.71782 12.0001 8.49831C11.7765 8.71782 11.6119 8.9971 11.5321 9.30999Z" fill="#FFDA44"/>
<path d="M13.2049 7.30437C12.9644 6.88855 12.5151 6.60852 12.0002 6.60852C11.4852 6.60852 11.0359 6.88855 10.7953 7.30437C11.2339 7.30662 11.6451 7.42583 12.0002 7.63175C12.3552 7.42583 12.7664 7.30662 13.2049 7.30437Z" fill="#FFDA44"/>
<path d="M12.5952 8.11551C12.7977 8.34121 12.9582 8.60502 13.0656 8.89428C13.2672 8.65447 13.3892 8.34585 13.3913 8.00863C13.3341 8.00296 13.2762 7.99991 13.2176 7.99991C12.9984 7.99991 12.7886 8.04112 12.5952 8.11551Z" fill="#FFDA44"/>
</svg>
