<svg width="24" height="16" viewBox="0 0 24 16" fill="none" xmlns="http://www.w3.org/2000/svg">
<path d="M24 0H0V16H24V0Z" fill="#E31D1C"/>
<path fill-rule="evenodd" clip-rule="evenodd" d="M8.5 2.09901H9.66284C9.77503 2.09901 9.9412 2.0333 10.125 1.96061C10.4211 1.84353 10.7629 1.70837 10.9986 1.80046C11.3808 1.94974 12.0242 2.43168 12.0242 2.43168C12.0242 2.43168 13.0863 1.59323 13.7199 1.59323C14.3534 1.59323 15.4962 1.5 15.4962 1.5C15.4962 1.5 15.2281 2.19592 14.474 2.3138C13.7199 2.43168 12.8177 3.00901 12.8177 3.00901H14.0433C14.2302 3.00901 14.474 3.29075 14.474 3.29075C14.474 3.29075 13.971 3.63253 13.7199 3.63253H13.1914C13.1914 3.63253 12.6576 4.09063 11.9981 3.99317C11.3386 3.8957 10.8094 3.29075 10.8094 3.29075C10.8094 3.29075 10.2324 3.20804 10.2324 3.10853C10.2324 3.10853 10.1157 3.0487 9.99588 3.03189C10.1144 2.95283 10.2324 2.8645 10.2324 2.8645C10.2324 2.8645 10.4608 2.65028 10.6351 2.65028C10.8094 2.65028 11.3916 3.00901 11.3916 3.00901L11.5306 2.8645L10.8094 2.3138C9.33855 2.46791 8.5 2.09901 8.5 2.09901ZM9.76986 3.10853C9.71156 3.2078 9.85406 3.12649 9.99588 3.03189C9.90658 3.01935 9.81557 3.03071 9.76986 3.10853ZM9.84425 8.87254C9.67499 8.83264 9.50038 8.82258 9.32842 8.84234L9.76018 8.44883L9.07682 8.37065L9.65831 8.00612L9 7.80817L9.63777 7.55248L9.02567 7.24112L9.69922 7.1025L9.15302 6.68773L9.8407 6.67063L9.37793 6.16579L10.0576 6.27075L9.69319 5.69208L10.3431 5.91573L10.0887 5.28181L10.6878 5.61696L10.5516 4.94817L11.0809 5.38406L11.0672 4.70189L11.5095 5.2245L11.6189 4.55088L11.9599 5.14342L12.1888 4.5L12.4178 5.14342L12.7588 4.55088L12.8682 5.2245L13.3105 4.70189L13.2968 5.38406L13.8261 4.94817L13.6898 5.61696L14.289 5.28181L14.0346 5.91573L14.6845 5.69208L14.3201 6.27075L14.9998 6.16579L14.537 6.67063L15.2247 6.68773L14.6785 7.1025L15.352 7.24112L14.7399 7.55248L15.3777 7.80817L14.7194 8.00612L15.3009 8.37065L14.6175 8.44883L15.124 8.91048L14.9407 8.89871C14.5392 8.77528 14.0979 8.82448 13.7282 9.04628L13.2862 9.31149C12.4945 9.78651 11.5054 9.78651 10.7137 9.31149L10.2717 9.04628C10.16 8.97929 10.0418 8.92804 9.92014 8.89254L9.94011 8.86638L9.84425 8.87254ZM13.5729 10.5107C13.5712 10.5114 13.5695 10.512 13.5678 10.5127L13.5738 10.5187L13.5729 10.5107Z" fill="#FFC84A"/>
<path fill-rule="evenodd" clip-rule="evenodd" d="M24 8.90027C23.9951 8.89746 23.9903 8.8947 23.9854 8.89198L23.2862 9.31149C22.4945 9.78651 21.5054 9.78651 20.7137 9.31149L20.2717 9.04628C19.7966 8.76127 19.2032 8.76127 18.7282 9.04628L18.2862 9.31149C17.4945 9.78651 16.5054 9.78651 15.7137 9.31149L15.2717 9.04628C14.7966 8.76127 14.2032 8.76127 13.7282 9.04628L13.2862 9.31149C12.4945 9.78651 11.5054 9.78651 10.7137 9.31149L10.2717 9.04628C9.79664 8.76127 9.2032 8.76127 8.72818 9.04628L8.28616 9.31149C7.49446 9.78651 6.50539 9.78651 5.71368 9.31149L5.27167 9.04628C4.79664 8.76127 4.2032 8.76127 3.72818 9.04628L3.28616 9.31149C2.49446 9.78651 1.50539 9.78651 0.713684 9.31149L0.0145662 8.89202C0.0096884 8.89473 0.00483279 8.89748 0 8.90027V10.2171L1.22818 10.954C1.7032 11.239 2.29664 11.239 2.77167 10.954L3.21368 10.6888C4.00539 10.2138 4.99446 10.2138 5.78616 10.6888L6.22818 10.954C6.7032 11.239 7.29664 11.239 7.77167 10.954L8.21368 10.6888C9.00539 10.2138 9.99446 10.2138 10.7862 10.6888L11.2282 10.954C11.7032 11.239 12.2966 11.239 12.7717 10.954L13.2137 10.6888C14.0054 10.2138 14.9945 10.2138 15.7862 10.6888L16.2282 10.954C16.7032 11.239 17.2966 11.239 17.7717 10.954L18.2137 10.6888C19.0054 10.2138 19.9945 10.2138 20.7862 10.6888L21.2282 10.954C21.7032 11.239 22.2966 11.239 22.7717 10.954L24 10.217V8.90027ZM24 11.3832L23.2862 11.8115C22.4945 12.2865 21.5054 12.2865 20.7137 11.8115L20.2717 11.5463C19.7966 11.2613 19.2032 11.2613 18.7282 11.5463L18.2862 11.8115C17.4945 12.2865 16.5054 12.2865 15.7137 11.8115L15.2717 11.5463C14.7966 11.2613 14.2032 11.2613 13.7282 11.5463L13.2862 11.8115C12.4945 12.2865 11.5054 12.2865 10.7137 11.8115L10.2717 11.5463C9.79664 11.2613 9.2032 11.2613 8.72818 11.5463L8.28616 11.8115C7.49446 12.2865 6.50539 12.2865 5.71368 11.8115L5.27167 11.5463C4.79664 11.2613 4.2032 11.2613 3.72818 11.5463L3.28616 11.8115C2.49446 12.2865 1.50539 12.2865 0.713684 11.8115L0 11.3833V12.7171L1.22818 13.454C1.7032 13.739 2.29664 13.739 2.77167 13.454L3.21368 13.1888C4.00539 12.7138 4.99446 12.7138 5.78616 13.1888L6.22818 13.454C6.7032 13.739 7.29664 13.739 7.77167 13.454L8.21368 13.1888C9.00539 12.7138 9.99446 12.7138 10.7862 13.1888L11.2282 13.454C11.7032 13.739 12.2966 13.739 12.7717 13.454L13.2137 13.1888C14.0054 12.7138 14.9945 12.7138 15.7862 13.1888L16.2282 13.454C16.7032 13.739 17.2966 13.739 17.7717 13.454L18.2137 13.1888C19.0054 12.7138 19.9945 12.7138 20.7862 13.1888L21.2282 13.454C21.7032 13.739 22.2966 13.739 22.7717 13.454L24 12.717V11.3832ZM24 13.8832L23.2862 14.3115C22.4945 14.7865 21.5054 14.7865 20.7137 14.3115L20.2717 14.0463C19.7966 13.7613 19.2032 13.7613 18.7282 14.0463L18.2862 14.3115C17.4945 14.7865 16.5054 14.7865 15.7137 14.3115L15.2717 14.0463C14.7966 13.7613 14.2032 13.7613 13.7282 14.0463L13.2862 14.3115C12.4945 14.7865 11.5054 14.7865 10.7137 14.3115L10.2717 14.0463C9.79664 13.7613 9.2032 13.7613 8.72818 14.0463L8.28616 14.3115C7.49446 14.7865 6.50539 14.7865 5.71368 14.3115L5.27167 14.0463C4.79664 13.7613 4.2032 13.7613 3.72818 14.0463L3.28616 14.3115C2.49446 14.7865 1.50539 14.7865 0.713684 14.3115L0 13.8833V15.8663C0.143177 15.9491 0.308795 15.9975 0.4855 16H23.5145C23.6912 15.9975 23.8568 15.9491 24 15.8663V13.8832Z" fill="#0053A0"/>
<path fill-rule="evenodd" clip-rule="evenodd" d="M24 7.7168L22.7717 8.4538C22.2966 8.73881 21.7032 8.73881 21.2282 8.4538L20.7862 8.18859C19.9945 7.71356 19.0054 7.71356 18.2137 8.18859L17.7717 8.4538C17.2966 8.73881 16.7032 8.73881 16.2282 8.4538L15.7862 8.18859C14.9945 7.71356 14.0054 7.71356 13.2137 8.18859L12.7717 8.4538C12.2966 8.73881 11.7032 8.73881 11.2282 8.4538L10.7862 8.18859C9.99446 7.71356 9.00539 7.71356 8.21368 8.18859L7.77167 8.4538C7.29664 8.73881 6.7032 8.73881 6.22818 8.4538L5.78616 8.18859C4.99446 7.71356 4.00539 7.71356 3.21368 8.18859L2.77167 8.4538C2.29664 8.73881 1.7032 8.73881 1.22818 8.4538L0 7.71689V8.88308L0.713684 9.31129C1.50539 9.78631 2.49446 9.78631 3.28616 9.31129L3.72818 9.04608C4.2032 8.76107 4.79664 8.76107 5.27167 9.04608L5.71368 9.31129C6.50539 9.78631 7.49446 9.78631 8.28616 9.31129L8.72818 9.04608C9.2032 8.76107 9.79664 8.76107 10.2717 9.04608L10.7137 9.31129C11.5054 9.78631 12.4945 9.78631 13.2862 9.31129L13.7282 9.04608C14.2032 8.76107 14.7966 8.76107 15.2717 9.04608L15.7137 9.31129C16.5054 9.78631 17.4945 9.78631 18.2862 9.31129L18.7282 9.04608C19.2032 8.76107 19.7966 8.76107 20.2717 9.04608L20.7137 9.31129C21.5054 9.78631 22.4945 9.78631 23.2862 9.31129L24 8.88299V7.7168ZM24 10.2168L22.7717 10.9538C22.2966 11.2388 21.7032 11.2388 21.2282 10.9538L20.7862 10.6886C19.9945 10.2136 19.0054 10.2136 18.2137 10.6886L17.7717 10.9538C17.2966 11.2388 16.7032 11.2388 16.2282 10.9538L15.7862 10.6886C14.9945 10.2136 14.0054 10.2136 13.2137 10.6886L12.7717 10.9538C12.2966 11.2388 11.7032 11.2388 11.2282 10.9538L10.7862 10.6886C9.99446 10.2136 9.00539 10.2136 8.21368 10.6886L7.77167 10.9538C7.29664 11.2388 6.7032 11.2388 6.22818 10.9538L5.78616 10.6886C4.99446 10.2136 4.00539 10.2136 3.21368 10.6886L2.77167 10.9538C2.29664 11.2388 1.7032 11.2388 1.22818 10.9538L0 10.2169V11.3831L0.713684 11.8113C1.50539 12.2863 2.49446 12.2863 3.28616 11.8113L3.72818 11.5461C4.2032 11.2611 4.79664 11.2611 5.27167 11.5461L5.71368 11.8113C6.50539 12.2863 7.49446 12.2863 8.28616 11.8113L8.72818 11.5461C9.2032 11.2611 9.79664 11.2611 10.2717 11.5461L10.7137 11.8113C11.5054 12.2863 12.4945 12.2863 13.2862 11.8113L13.7282 11.5461C14.2032 11.2611 14.7966 11.2611 15.2717 11.5461L15.7137 11.8113C16.5054 12.2863 17.4945 12.2863 18.2862 11.8113L18.7282 11.5461C19.2032 11.2611 19.7966 11.2611 20.2717 11.5461L20.7137 11.8113C21.5054 12.2863 22.4945 12.2863 23.2862 11.8113L24 11.383V10.2168ZM24 12.7168L22.7717 13.4538C22.2966 13.7388 21.7032 13.7388 21.2282 13.4538L20.7862 13.1886C19.9945 12.7136 19.0054 12.7136 18.2137 13.1886L17.7717 13.4538C17.2966 13.7388 16.7032 13.7388 16.2282 13.4538L15.7862 13.1886C14.9945 12.7136 14.0054 12.7136 13.2137 13.1886L12.7717 13.4538C12.2966 13.7388 11.7032 13.7388 11.2282 13.4538L10.7862 13.1886C9.99446 12.7136 9.00539 12.7136 8.21368 13.1886L7.77167 13.4538C7.29664 13.7388 6.7032 13.7388 6.22818 13.4538L5.78616 13.1886C4.99446 12.7136 4.00539 12.7136 3.21368 13.1886L2.77167 13.4538C2.29664 13.7388 1.7032 13.7388 1.22818 13.4538L0 12.7169V13.8831L0.713684 14.3113C1.50539 14.7863 2.49446 14.7863 3.28616 14.3113L3.72818 14.0461C4.2032 13.7611 4.79664 13.7611 5.27167 14.0461L5.71368 14.3113C6.50539 14.7863 7.49446 14.7863 8.28616 14.3113L8.72818 14.0461C9.2032 13.7611 9.79664 13.7611 10.2717 14.0461L10.7137 14.3113C11.5054 14.7863 12.4945 14.7863 13.2862 14.3113L13.7282 14.0461C14.2032 13.7611 14.7966 13.7611 15.2717 14.0461L15.7137 14.3113C16.5054 14.7863 17.4945 14.7863 18.2862 14.3113L18.7282 14.0461C19.2032 13.7611 19.7966 13.7611 20.2717 14.0461L20.7137 14.3113C21.5054 14.7863 22.4945 14.7863 23.2862 14.3113L24 13.883V12.7168Z" fill="#F0F0F0"/>
</svg>
