<svg width="24" height="16" viewBox="0 0 24 16" fill="none" xmlns="http://www.w3.org/2000/svg">
<path d="M24 0H0V16H24V0Z" fill="#D80027"/>
<path d="M24 0H0V15.9998" fill="#6DA544"/>
<path d="M20.9381 0H19.586L0 13.0572V13.9586V15.9998H3.06187H4.41398L24 2.94255V2.0412V0H20.9381Z" fill="#FFDA44"/>
<path d="M24 0H20.9381L0 13.9586V15.9998H3.06187L24 2.0412V0Z" fill="black"/>
<path d="M8.73011 8.46524L9.61614 9.14633L10.5377 8.51413L10.1637 9.56726L11.0498 10.2484L9.93264 10.2182L9.55862 11.2713L9.24217 10.1994L8.125 10.1692L9.04656 9.53703L8.73011 8.46524Z" fill="#F0F0F0"/>
<path d="M13.5555 5.15527L14.4415 5.83636L15.363 5.20416L14.9891 6.25729L15.8751 6.93838L14.758 6.90815L14.384 7.96132L14.0675 6.88944L12.9504 6.85926L13.8719 6.22706L13.5555 5.15527Z" fill="#F0F0F0"/>
</svg>
