<svg width="24" height="16" viewBox="0 0 24 16" fill="none" xmlns="http://www.w3.org/2000/svg">
<path d="M24 0H0V16H24V0Z" fill="white"/>
<path d="M14.9216 7.99932C14.9216 8.72976 13.6135 10.5558 11.9998 10.5558C10.3862 10.5558 9.07812 8.72972 9.07812 7.99932C9.07812 6.38571 10.3862 5.07764 11.9998 5.07764C13.6135 5.07764 14.9216 6.38571 14.9216 7.99932Z" fill="#D80027"/>
<path d="M14.9216 7.99951C14.9216 9.61312 13.6135 10.9212 11.9998 10.9212C10.3862 10.9212 9.07812 9.61312 9.07812 7.99951" fill="#0052B4"/>
<path d="M15.874 9.80755L15.0992 10.5823L15.6157 11.0987L16.3904 10.324L15.874 9.80755Z" fill="black"/>
<path d="M14.5827 11.0981L13.808 11.8729L14.3244 12.3893L15.0992 11.6146L14.5827 11.0981Z" fill="black"/>
<path d="M17.4235 11.356L16.6488 12.1307L17.1653 12.6472L17.94 11.8724L17.4235 11.356Z" fill="black"/>
<path d="M16.132 12.6475L15.3573 13.4223L15.8738 13.9387L16.6485 13.164L16.132 12.6475Z" fill="black"/>
<path d="M16.6486 10.582L15.8739 11.3567L16.3904 11.8732L17.1651 11.0985L16.6486 10.582Z" fill="black"/>
<path d="M15.3574 11.8731L14.5826 12.6478L15.0991 13.1643L15.8738 12.3895L15.3574 11.8731Z" fill="black"/>
<path d="M14.5831 3.35058L16.649 5.4165L17.1655 4.90004L15.0996 2.83411L14.5831 3.35058Z" fill="black"/>
<path d="M13.8081 4.12564L14.5829 4.90037L15.0993 4.38394L14.3246 3.60921L13.8081 4.12564Z" fill="black"/>
<path d="M15.0989 5.4172L15.8736 6.19193L16.3901 5.6755L15.6153 4.90077L15.0989 5.4172Z" fill="black"/>
<path d="M15.3567 2.57625L16.1315 3.35098L16.6479 2.83451L15.8732 2.05978L15.3567 2.57625Z" fill="black"/>
<path d="M16.6485 3.86732L17.4232 4.64205L17.9397 4.12559L17.1649 3.35085L16.6485 3.86732Z" fill="black"/>
<path d="M8.64296 13.4222L6.57702 11.3562L6.06055 11.8727L8.12649 13.9386L8.64296 13.4222Z" fill="black"/>
<path d="M9.41719 12.6476L8.64245 11.8729L8.12601 12.3893L8.90075 13.164L9.41719 12.6476Z" fill="black"/>
<path d="M8.12642 11.3565L7.35168 10.5818L6.8352 11.0983L7.60994 11.873L8.12642 11.3565Z" fill="black"/>
<path d="M10.1925 11.8733L8.12658 9.80734L7.61011 10.3238L9.67605 12.3897L10.1925 11.8733Z" fill="black"/>
<path d="M6.57723 4.64148L8.64318 2.57555L8.12671 2.05908L6.06076 4.12501L6.57723 4.64148Z" fill="black"/>
<path d="M7.35116 5.4169L9.4171 3.35098L8.90063 2.83451L6.83469 4.90044L7.35116 5.4169Z" fill="black"/>
<path d="M8.12582 6.19136L10.1918 4.12543L9.67533 3.60899L7.60938 5.67492L8.12582 6.19136Z" fill="black"/>
</svg>
