<svg width="24" height="16" viewBox="0 0 24 16" fill="none" xmlns="http://www.w3.org/2000/svg">
<path d="M24 0H0V15.969H24V0Z" fill="#0052B4"/>
<path d="M7.51459 4.85979L7.68733 5.39018H8.24603L7.79402 5.71799L7.9667 6.24833L7.51459 5.92057L7.06253 6.24833L7.23522 5.71799L6.7832 5.39018H7.34191L7.51459 4.85979Z" fill="#F0F0F0"/>
<path d="M9.25361 4.33911L9.42634 4.86954H9.98504L9.53303 5.19731L9.70572 5.72769L9.25361 5.39988L8.80154 5.72769L8.97423 5.19731L8.52222 4.86954H9.08092L9.25361 4.33911Z" fill="#F0F0F0"/>
<path d="M10.9929 3.81836L11.1656 4.34874H11.7243L11.2722 4.67656L11.4449 5.20689L10.9929 4.87913L10.5408 5.20689L10.7135 4.67656L10.2615 4.34874H10.8202L10.9929 3.81836Z" fill="#F0F0F0"/>
<path d="M16.4867 4.85979L16.3139 5.39018H15.7552L16.2072 5.71799L16.0345 6.24833L16.4867 5.92057L16.9387 6.24833L16.766 5.71799L17.218 5.39018H16.6593L16.4867 4.85979Z" fill="#F0F0F0"/>
<path d="M14.7475 4.33911L14.5748 4.86954H14.0161L14.4681 5.19731L14.2954 5.72769L14.7475 5.39988L15.1996 5.72769L15.0269 5.19731L15.4789 4.86954H14.9202L14.7475 4.33911Z" fill="#F0F0F0"/>
<path d="M13.0081 3.81836L12.8355 4.34874H12.2767L12.7288 4.67656L12.5561 5.20689L13.0081 4.87913L13.4602 5.20689L13.2875 4.67656L13.7395 4.34874H13.1808L13.0081 3.81836Z" fill="#F0F0F0"/>
<path d="M13.3905 8.33147L11.9992 6.5957L11.3036 6.94288V7.63715L10.2601 8.33142H9.56445V9.22836C10.584 9.64043 11.3036 10.6375 11.3036 11.8029H11.9992V11.1086L12.6948 10.4143L13.3904 11.1086L14.0861 10.4144V9.7201L14.7817 8.67865L13.3905 8.33147Z" fill="#FFDA44"/>
</svg>
