<svg width="24" height="16" viewBox="0 0 24 16" fill="none" xmlns="http://www.w3.org/2000/svg">
<path d="M24 0H0V15.9997H24V0Z" fill="black"/>
<path d="M24 0H0V5.33321H24V0Z" fill="#D80027"/>
<path d="M24 10.667H0V16.0002H24V10.667Z" fill="#496E2D"/>
<path d="M13.1908 7.06403L13.6109 7.64294L14.2912 7.42234L13.8705 8.00073L14.2906 8.57959L13.6105 8.35816L13.1897 8.93659L13.1902 8.22137L12.51 7.99989L13.1904 7.7793L13.1908 7.06403Z" fill="#F0F0F0"/>
<path d="M12.0444 9.44701C11.2453 9.44701 10.5975 8.79915 10.5975 8.00007C10.5975 7.20099 11.2453 6.55313 12.0444 6.55313C12.2936 6.55313 12.528 6.61618 12.7327 6.72704C12.4116 6.41307 11.9725 6.21924 11.4879 6.21924C10.5044 6.21924 9.70703 7.01658 9.70703 8.00012C9.70703 8.98365 10.5044 9.78099 11.4879 9.78099C11.9725 9.78099 12.4116 9.58716 12.7327 9.2732C12.5281 9.38405 12.2936 9.44701 12.0444 9.44701Z" fill="#F0F0F0"/>
</svg>
