<svg width="24" height="16" viewBox="0 0 24 16" fill="none" xmlns="http://www.w3.org/2000/svg">
<path d="M24 0.000488281H0V16H24V0.000488281Z" fill="#D80027"/>
<path d="M24 0V7.81353L0 8.00811V0H24Z" fill="#0052B4"/>
<path d="M9.91213 5.56518C9.91213 4.98885 9.44497 4.5217 8.86864 4.5217C8.60131 4.5217 8.35766 4.62229 8.17302 4.78757V4.17385H8.52088V3.47823H8.17302V3.13037H7.47739V3.47823H7.12953V4.17385H7.47739V4.78757C7.29275 4.62229 7.04905 4.5217 6.78177 4.5217C6.20544 4.5217 5.73828 4.98885 5.73828 5.56518C5.73828 5.87413 5.87267 6.15167 6.08614 6.34278V6.95651H9.56441V6.34278C9.77774 6.15167 9.91213 5.87417 9.91213 5.56518Z" fill="#FFDA44"/>
</svg>
