<svg width="24" height="16" viewBox="0 0 24 16" fill="none" xmlns="http://www.w3.org/2000/svg">
<path d="M0 0V16H24V0H0Z" fill="#FFDA44"/>
<path fill-rule="evenodd" clip-rule="evenodd" d="M10.4355 14.9565H22.9572L21.9138 14.9559V13.9124H22.9572V2.08693H21.9138V1.04346H11.479V2.08693H10.4355V13.9124H11.479V14.9559L10.4355 14.9565ZM16.8136 7.73912V5.65218C16.8136 5.30418 16.2919 4.95618 16.2919 4.95618C16.2919 4.95618 15.7702 5.30418 15.7702 5.65218H13.6832V7.73912H14.7267V8.7826C14.7267 9.01111 14.7726 9.22973 14.8561 9.42797L14.3787 9.82607H12.9877V3.391C12.4112 3.391 11.9443 3.85848 11.9443 4.43447V8.95631C11.9443 9.26517 12.0784 9.54276 12.2917 9.73368V11.3912H12.9877V10.5215H16.1182V11.913H15.4222V12.6084H16.8136V11.217L17.4512 10.5215H19.5272V11.913H18.8312V12.6084H20.2227V11.217L20.8602 10.5215L21.4486 8.63438L20.9312 7.73908L20.9312 6.90391H17.5791V6.13869H21.1399V5.93H17.3704V7.1126H20.7225V7.73907L20.9312 7.73908H19.1056C18.7432 7.73596 18.2091 7.7375 17.7356 7.73886C17.3419 7.74 16.9894 7.74102 16.8136 7.73912Z" fill="#A2001D"/>
<path d="M5.21686 1.04346H1.04297V14.9565H5.21686V1.04346Z" fill="#6DA544"/>
<path d="M9.39069 1.04346H5.2168V14.9565H9.39069V1.04346Z" fill="#FF9811"/>
</svg>
