<svg width="24" height="16" viewBox="0 0 24 16" fill="none" xmlns="http://www.w3.org/2000/svg">
<path d="M24 0H0V16H24V0Z" fill="#496E2D"/>
<path d="M12.0001 3.12402L12.2055 3.75448H12.8697L12.3324 4.14428L12.5375 4.77474L12.0001 4.38503L11.4628 4.77474L11.6679 4.14428L11.1306 3.75448H11.7948L12.0001 3.12402Z" fill="#FFDA44"/>
<path d="M9.47422 4.22702L9.86915 4.58187L10.3294 4.31675L10.1133 4.80119L10.5081 5.15619L9.97963 5.10075L9.76349 5.58519L9.65296 5.06645L9.12444 5.01102L9.58466 4.7458L9.47422 4.22702Z" fill="#FFDA44"/>
<path d="M7.625 6.07233L8.14484 6.18264L8.41053 5.72332L8.46612 6.25076L8.98592 6.36108L8.50044 6.57675L8.55603 7.10419L8.20039 6.71013L7.71491 6.9258L7.98064 6.46648L7.625 6.07233Z" fill="#FFDA44"/>
<path d="M14.5262 4.22702L14.1313 4.58187L13.6711 4.31675L13.8872 4.80119L13.4923 5.15619L14.0208 5.10075L14.2369 5.58519L14.3475 5.06645L14.876 5.01102L14.4158 4.7458L14.5262 4.22702Z" fill="#FFDA44"/>
<path d="M16.3754 6.07233L15.8556 6.18264L15.5899 5.72332L15.5343 6.25076L15.0146 6.36108L15.5 6.57675L15.4445 7.10419L15.8001 6.71013L16.2856 6.9258L16.0198 6.46648L16.3754 6.07233Z" fill="#FFDA44"/>
<path d="M13.3923 7.65117C13.1958 7.65117 13.0095 7.69028 12.8363 7.75241C12.9311 7.54146 12.9947 7.3067 12.9947 7.05603C12.9947 6.06417 12.0009 5.32031 12.0009 5.32031C12.0009 5.32031 11.0071 6.06422 11.0071 7.05603C11.0071 7.30665 11.0706 7.54141 11.1655 7.75241C10.9923 7.69028 10.8059 7.65117 10.6095 7.65117C9.61567 7.65117 8.87036 8.64303 8.87036 8.64303C8.87036 8.64303 9.61572 9.63489 10.6095 9.63489C11.1921 9.63489 11.689 9.29402 12.0008 9.01196C12.3125 9.29407 12.8095 9.63489 13.3922 9.63489C14.386 9.63489 15.1313 8.64303 15.1313 8.64303C15.1313 8.64303 14.386 7.65117 13.3923 7.65117Z" fill="#F0F0F0"/>
<path d="M12.0011 12.4119C12.7905 12.4119 13.5181 12.149 14.1019 11.7067H9.90047C10.4841 12.149 11.2117 12.4119 12.0011 12.4119Z" fill="#F0F0F0"/>
<path d="M8.8125 10.3291C8.92289 10.5813 9.06286 10.8175 9.22734 11.0343H14.7748C14.9392 10.8176 15.0792 10.5813 15.1896 10.3291H8.8125Z" fill="#F0F0F0"/>
</svg>
