<svg width="24" height="16" viewBox="0 0 24 16" fill="none" xmlns="http://www.w3.org/2000/svg">
<path d="M0 0V8V16H24V8V0H0Z" fill="#D80027"/>
<path d="M16.5 6.61658H13.0623L12 3.34717L10.9377 6.61668H7.5L10.2811 8.63736L9.21881 11.9069L12 9.88609L14.7812 11.9068L13.7189 8.63722L16.5 6.61658ZM11.0595 8.38432L11.4188 7.27875H12.5812L12.9405 8.38432V8.38437L12 9.06763L11.0595 8.38432ZM12.3661 6.61658H11.634L12 5.48982L12.3661 6.61658ZM13.5037 7.97514L13.2774 7.27875H14.4622L13.5037 7.97514ZM10.7226 7.27875L10.4963 7.97514L9.53784 7.27875H10.7226ZM10.4783 10.1733L10.8444 9.04654L11.4367 9.47691L10.4783 10.1733ZM12.5632 9.47686L13.1556 9.04649L13.5217 10.1732L12.5632 9.47686Z" fill="#FFDA44"/>
</svg>
