<svg width="24" height="16" viewBox="0 0 24 16" fill="none" xmlns="http://www.w3.org/2000/svg">
<g clip-path="url(#clip0_15610_340315)">
<g clip-path="url(#clip1_15610_340315)">
<path d="M24 0H0V15.9995H24V0Z" fill="#FFDA44"/>
<path d="M14.7821 6.29437H12.869C12.869 5.81419 12.4797 5.4248 11.9994 5.4248C11.5192 5.4248 11.1299 5.81414 11.1299 6.29437H9.2168C9.2168 6.76724 9.62869 7.15054 10.1015 7.15054H10.073C10.073 7.62341 10.4563 8.00675 10.9292 8.00675C10.9292 8.42538 11.2298 8.77328 11.627 8.84763L10.9523 10.3708C11.2755 10.5022 11.6289 10.5753 11.9994 10.5753C12.3699 10.5753 12.7232 10.5022 13.0465 10.3708L12.3719 8.84763C12.7689 8.77328 13.0696 8.42538 13.0696 8.00675C13.5426 8.00675 13.9258 7.62336 13.9258 7.15054H13.8973C14.3702 7.15049 14.7821 6.76715 14.7821 6.29437Z" fill="#FF9811"/>
<path d="M8.52155 0H0V16H8.52155V0Z" fill="#0052B4"/>
<path d="M12.0001 7.47788L10.8696 7.99959V9.04306L12.0001 9.73868L13.1305 9.04306V7.99959L12.0001 7.47788Z" fill="#0052B4"/>
<path d="M23.9998 0H15.4783V16H23.9998V0Z" fill="#D80027"/>
<path d="M13.1298 6.95636H10.8691V7.99983H13.1298V6.95636Z" fill="#D80027"/>
</g>
</g>
<defs>
<clipPath id="clip0_15610_340315">
<rect width="24" height="16" fill="white"/>
</clipPath>
<clipPath id="clip1_15610_340315">
<rect width="24.0001" height="16" fill="white"/>
</clipPath>
</defs>
</svg>
