<svg width="24" height="16" viewBox="0 0 24 16" fill="none" xmlns="http://www.w3.org/2000/svg">
<path d="M24 0H0V16H24V0Z" fill="#D80027"/>
<path d="M17.218 4.17383H6.7832V11.8261H17.218V4.17383Z" fill="#6DA544"/>
<path d="M13.2889 10.2607C12.0403 10.2607 11.028 9.24849 11.028 7.99985C11.028 6.75121 12.0402 5.739 13.2889 5.739C13.6782 5.739 14.0445 5.83743 14.3643 6.01073C13.8626 5.52009 13.1765 5.21729 12.4193 5.21729C10.8826 5.21729 9.63672 6.46307 9.63672 7.99985C9.63672 9.53663 10.8826 10.7824 12.4193 10.7824C13.1765 10.7824 13.8626 10.4796 14.3643 9.98896C14.0446 10.1623 13.6783 10.2607 13.2889 10.2607Z" fill="#F0F0F0"/>
</svg>
