<svg width="24" height="16" viewBox="0 0 24 16" fill="none" xmlns="http://www.w3.org/2000/svg">
<path d="M16 0H7.99997H0V15.9998H7.99997H16H24V0H16Z" fill="#D80027"/>
<path d="M15.9998 0H8V16H15.9998V0Z" fill="#F0F0F0"/>
<path d="M7.99983 0H0V16H7.99983V0Z" fill="#6DA544"/>
<path d="M9.75 7.99989C9.75 9.24248 10.7574 10.2499 12 10.2499C13.2426 10.2499 14.25 9.24248 14.25 7.99989V7.24989H9.75V7.99989Z" fill="#6DA544"/>
<path d="M15 6.49999H12.75C12.75 6.08581 12.4142 5.75 12 5.75C11.5858 5.75 11.25 6.08581 11.25 6.49999H9C9 6.91417 9.3608 7.24998 9.77498 7.24998H9.75C9.75 7.66417 10.0858 7.99998 10.5 7.99998C10.5 8.41416 10.8358 8.74997 11.25 8.74997H12.75C13.1642 8.74997 13.5 8.41416 13.5 7.99998C13.9142 7.99998 14.25 7.66417 14.25 7.24998H14.225C14.6392 7.24998 15 6.91422 15 6.49999Z" fill="#FF9811"/>
</svg>
