<svg width="24" height="16" viewBox="0 0 24 16" fill="none" xmlns="http://www.w3.org/2000/svg">
<path d="M24 0H0V16H24V0Z" fill="#0052B4"/>
<path d="M10.9612 4.67724L9.98412 5.13676L10.5044 6.08305L9.44351 5.88007L9.30907 6.95185L8.57009 6.16358L7.83106 6.95185L7.69666 5.88007L6.6357 6.08305L7.15601 5.13676L6.17899 4.67724L7.15601 4.21762L6.6357 3.27142L7.69662 3.4743L7.8311 2.40253L8.57009 3.1908L9.30907 2.40253L9.44351 3.4743L10.5045 3.27142L9.98417 4.21766L10.9612 4.67724Z" fill="#F0F0F0"/>
<path d="M20.0117 0L0 15.7589V15.9353L23.6136 0H20.0117Z" fill="#F0F0F0"/>
<path d="M24 0H23.6136L0 15.9353V16H0.174516L24 2.42166V0Z" fill="#FF9811"/>
</svg>
