<svg width="24" height="16" viewBox="0 0 24 16" fill="none" xmlns="http://www.w3.org/2000/svg">
<path d="M24 0H0V16H24V0Z" fill="#FFDA44"/>
<path fill-rule="evenodd" clip-rule="evenodd" d="M0 0V5.97978L9.2496 7.40275C9.22852 7.54084 9.21758 7.68228 9.21758 7.82626C9.21758 7.96999 9.22848 8.11117 9.24949 8.24902L0 9.67198V15.9997H0.853688L9.75589 9.47152C9.92376 9.7001 10.1257 9.9021 10.3543 10.07L6.00574 15.9997H10.7423L11.5767 10.5767C11.7148 10.5978 11.8561 10.6087 12 10.6087C12.1439 10.6087 12.2852 10.5978 12.4232 10.5767L13.2575 15.9997H17.9941L13.6457 10.0701C13.8743 9.90214 14.0763 9.70014 14.2441 9.47155L23.1463 15.9997H24V9.67203L14.7506 8.24904C14.7716 8.11118 14.7825 7.96999 14.7825 7.82626C14.7825 7.68227 14.7715 7.54084 14.7505 7.40274L24 5.97978V0H22.672L14.2438 6.18049C14.0759 5.95198 13.8739 5.75006 13.6454 5.58221L17.7391 0H13.204L12.4231 5.0758C12.2852 5.05475 12.1439 5.04384 12 5.04384C11.8562 5.04384 11.7149 5.05475 11.5769 5.0758L10.796 0H6.26091L10.3546 5.58224C10.1261 5.75009 9.92415 5.952 9.75626 6.1805L1.32811 0H0ZM14.087 7.8261C14.087 8.97869 13.1527 9.91305 12.0001 9.91305C10.8475 9.91305 9.91309 8.97869 9.91309 7.8261C9.91309 6.67351 10.8475 5.73915 12.0001 5.73915C13.1527 5.73915 14.087 6.67351 14.087 7.8261Z" fill="#D80027"/>
</svg>
