<svg width="24" height="16" viewBox="0 0 24 16" fill="none" xmlns="http://www.w3.org/2000/svg">
<path d="M24 0H0V16H24V0Z" fill="#FFDA44"/>
<path fill-rule="evenodd" clip-rule="evenodd" d="M0 1.39111H24V14.6091H0V1.39111ZM13.7391 5.91354H10.2609V4.52222L10.9565 4.87004L12 3.82658L13.0435 4.87004L13.7391 4.52222V5.91354ZM13.3919 8.00069H15.1304C15.1304 8.53268 14.6671 8.96394 14.1352 8.96394H14.1673C14.1673 9.40031 13.8771 9.76871 13.4792 9.88712L14.261 10.6689L13.5231 11.4068L12.4764 10.3601C12.4354 10.3751 12.393 10.3871 12.3492 10.3954L12.9816 11.8234C12.6786 11.9466 12.3474 12.015 12 12.015C11.6527 12.015 11.3215 11.9466 11.0184 11.8234L11.6509 10.3954C11.6071 10.3871 11.5647 10.3751 11.5236 10.3601L10.477 11.4068L9.73911 10.6689L10.5209 9.88712C10.123 9.76871 9.83277 9.40036 9.83277 8.96394H9.86488C9.33299 8.96394 8.86963 8.53268 8.86963 8.00069H10.5869C10.5188 7.8827 10.4791 7.7462 10.4791 7.60023C10.4791 7.15687 10.8386 6.79752 11.2818 6.79752C11.5881 6.79752 11.8541 6.96913 11.9894 7.22133C12.1248 6.96913 12.3908 6.79752 12.6971 6.79752C13.1403 6.79752 13.4998 7.15687 13.4998 7.60023C13.4998 7.74629 13.4601 7.8828 13.3919 8.00069Z" fill="#A2001D"/>
<path d="M11.9996 8.52148L10.8691 9.04326V10.0868L11.9996 10.7824L13.13 10.0868V9.04326L11.9996 8.52148Z" fill="#6DA544"/>
<path d="M13.1298 8H10.8691V9.39137H13.1298V8Z" fill="#0052B4"/>
</svg>
