<svg width="24" height="16" viewBox="0 0 24 16" fill="none" xmlns="http://www.w3.org/2000/svg">
<g clip-path="url(#clip0_15610_340334)">
<g clip-path="url(#clip1_15610_340334)">
<path d="M24 0H0V15.9995H24V0Z" fill="#0052B4"/>
<path d="M24 0H15.4785V16H24V0Z" fill="#A2001D"/>
<path d="M8.52155 0H0V16H8.52155V0Z" fill="#A2001D"/>
<path d="M5.99999 8.52132H5.30436V11.3037H5.99999V8.52132Z" fill="#FFDA44"/>
<path d="M3.21711 8.52132H2.52148V11.3037H3.21711V8.52132Z" fill="#FFDA44"/>
<path d="M4.26096 10.2605C4.64515 10.2605 4.95659 9.94907 4.95659 9.56489C4.95659 9.18071 4.64515 8.86927 4.26096 8.86927C3.87678 8.86927 3.56534 9.18071 3.56534 9.56489C3.56534 9.94907 3.87678 10.2605 4.26096 10.2605Z" fill="#FFDA44"/>
<path d="M4.26101 7.478C4.45312 7.478 4.60887 7.32226 4.60887 7.13014C4.60887 6.93803 4.45312 6.78229 4.26101 6.78229C4.06889 6.78229 3.91315 6.93803 3.91315 7.13014C3.91315 7.32226 4.06889 7.478 4.26101 7.478Z" fill="#FFDA44"/>
<path d="M4.95625 10.6084H3.56491V11.304H4.95625V10.6084Z" fill="#FFDA44"/>
<path d="M4.95625 7.82573H3.56491V8.52134H4.95625V7.82573Z" fill="#FFDA44"/>
<path d="M4.26078 4.69531L4.50711 5.45341H5.30427L4.65941 5.92197L4.9056 6.68007L4.26078 6.21152L3.61597 6.68007L3.86211 5.92197L3.2173 5.45341H4.01441L4.26078 4.69531Z" fill="#FFDA44"/>
</g>
</g>
<defs>
<clipPath id="clip0_15610_340334">
<rect width="24" height="16" fill="white"/>
</clipPath>
<clipPath id="clip1_15610_340334">
<rect width="24" height="16" fill="white"/>
</clipPath>
</defs>
</svg>
