<svg width="24" height="16" viewBox="0 0 24 16" fill="none" xmlns="http://www.w3.org/2000/svg">
<path d="M24 0H0V16H24V0Z" fill="#338AF3"/>
<path d="M13.0187 10.8113L13.1393 12.0365C13.2447 12.0884 13.3706 12.0986 13.4894 12.0547C13.6612 11.9909 13.7699 11.8318 13.7779 11.6593C13.919 11.7582 14.1114 11.7694 14.2668 11.6723C14.4221 11.5752 14.4965 11.3975 14.4696 11.2274C14.6276 11.2956 14.818 11.2679 14.9509 11.1418C15.0835 11.0154 15.1209 10.8264 15.0604 10.6652C15.229 10.7007 15.41 10.6351 15.5148 10.4848C15.6196 10.3346 15.6181 10.1421 15.5266 9.9959C15.699 9.99684 15.8635 9.89615 15.9359 9.72783C16.0082 9.55922 15.9677 9.37088 15.8485 9.24628C16.0176 9.21207 16.1582 9.0804 16.1948 8.90087C16.2317 8.72138 16.1541 8.54509 16.0124 8.44736C16.1706 8.37976 16.2816 8.22269 16.2816 8.03964V8.02989C16.2813 7.84685 16.1698 7.69005 16.0115 7.62302C16.1529 7.52468 16.2299 7.34843 16.1931 7.1689C16.1559 6.98937 16.0151 6.85798 15.8459 6.82433C15.9648 6.69941 16.0047 6.51079 15.9321 6.34246C15.8591 6.17451 15.6947 6.07405 15.5226 6.07527C15.6138 5.92907 15.6147 5.73661 15.5096 5.58661C15.4045 5.43628 15.2232 5.37136 15.0546 5.40708C15.1148 5.2456 15.0771 5.05688 14.9442 4.93083C14.8113 4.80502 14.6206 4.77755 14.4626 4.84637C14.4892 4.67602 14.4145 4.49851 14.2589 4.402C14.1033 4.30515 13.9108 4.31668 13.77 4.41587C13.7617 4.24347 13.6524 4.08466 13.4803 4.02114C13.3085 3.95796 13.1225 4.00783 13.0044 4.13364C12.9613 3.96681 12.8222 3.83341 12.641 3.80622C12.46 3.77875 12.2882 3.86557 12.1978 4.012C12.1222 3.85755 11.9598 3.75485 11.7771 3.76427C11.594 3.77341 11.4428 3.89271 11.3834 4.05419C11.2784 3.91774 11.0982 3.84953 10.9211 3.89561C10.7436 3.94164 10.6193 4.08925 10.5942 4.25992C10.4634 4.14719 10.273 4.11705 10.1088 4.19795C9.94438 4.27909 9.85255 4.44831 9.8623 4.62043C9.71207 4.53657 9.51955 4.54515 9.37518 4.65765C9.23052 4.77015 9.17441 4.95441 9.21871 5.12091C9.05427 5.06893 8.86766 5.11589 8.7487 5.25492C8.62944 5.39433 8.61144 5.58591 8.68818 5.74036C8.51666 5.72231 8.34304 5.80589 8.25416 5.96592C8.16529 6.12627 8.18652 6.3179 8.29255 6.45369C8.12099 6.4708 7.96776 6.58775 7.91315 6.76283C7.85854 6.93762 7.91816 7.121 8.04955 7.2326C7.88512 7.28398 7.75846 7.42957 7.74046 7.61201C7.72246 7.79388 7.81752 7.96131 7.96841 8.04395C7.81752 8.12725 7.72307 8.29459 7.74168 8.47679C7.76024 8.65899 7.88662 8.80426 8.05138 8.85507C7.91999 8.96696 7.86093 9.15061 7.91615 9.32541C7.97109 9.5002 8.12455 9.61678 8.29612 9.63333C8.19009 9.76945 8.16941 9.96107 8.2589 10.1211C8.34805 10.2811 8.52168 10.3643 8.69291 10.3461C8.61674 10.5004 8.63507 10.692 8.75465 10.8308C8.87423 10.9699 9.06083 11.0166 9.22499 10.964C9.18126 11.1308 9.23769 11.3148 9.38235 11.4269C9.52734 11.5391 9.71985 11.5474 9.87013 11.4629C9.86066 11.6351 9.95277 11.8043 10.1175 11.8852C10.282 11.9658 10.4721 11.935 10.6026 11.8223C10.6243 11.966 10.7159 12.093 10.8505 12.1568L10.983 10.8114C9.85373 10.3968 9.0481 9.31201 9.0481 8.03903C9.0481 6.40842 10.37 5.08655 12.0006 5.08655C13.6312 5.08655 14.9531 6.40842 14.9531 8.03903C14.9531 9.31185 14.1477 10.3966 13.0187 10.8113Z" fill="#F0F0F0"/>
<path d="M12.0007 5.67754L12.5137 7.25636H14.1739L12.8309 8.2322L13.3439 9.81107L12.0007 8.83533L10.6577 9.81107L11.1707 8.2322L9.82764 7.25636H11.4878L12.0007 5.67754Z" fill="#F0F0F0"/>
<path d="M12.5142 7.25656L12.0012 5.67773H12.2965C12.6227 5.67773 12.887 5.94206 12.887 6.26821V6.56348C12.887 6.75796 12.7926 6.92994 12.6475 7.03752L12.6691 7.25656H12.5142Z" fill="#BDBCC1"/>
<path d="M12.888 9.47977L12.0012 8.83553L11.1146 9.47967L10.8203 12.4685C10.8203 12.4685 11.1156 12.7638 12.0013 12.7638C12.8871 12.7638 13.1823 12.4685 13.1823 12.4685L12.888 9.47977Z" fill="#BDBCC1"/>
<path d="M11.3335 7.25656L11.3551 7.03752C11.21 6.92994 11.1156 6.75796 11.1156 6.56348V6.26821C11.1156 5.94211 11.3799 5.67773 11.7061 5.67773H12.0012L11.4882 7.25656H11.3335Z" fill="#BDBCC1"/>
</svg>
