<svg width="24" height="16" viewBox="0 0 24 16" fill="none" xmlns="http://www.w3.org/2000/svg">
<path d="M24 0H0V15.9995H24V0Z" fill="#F0F0F0"/>
<path d="M0 0L7.34835 4.89909H24V0H0Z" fill="#496E2D"/>
<path fill-rule="evenodd" clip-rule="evenodd" d="M0 5.88473H24V10.0873H0V5.88473ZM3.23992 7.99967H1.84058V9.40419L3.24251 8.00227L3.23992 7.99967ZM2.6807 9.90174H5.14555L3.91311 8.67154L2.6807 9.90174ZM4.5837 8.00227L5.98526 9.40378V7.99967H4.5863L4.5837 8.00227Z" fill="black"/>
<path d="M6.77084 5.81899L6.09833 5.14648L3.91311 7.33168L1.72794 5.14648L1.05542 5.81899L3.24251 8.00227L1.05542 10.1893L1.72794 10.8528L3.91311 8.67154L6.09833 10.8528L6.77084 10.1893L4.5837 8.00227L6.77084 5.81899Z" fill="black"/>
<path fill-rule="evenodd" clip-rule="evenodd" d="M12 8.00031L0 16V0L12 8.00031ZM6.77084 5.8192L6.09833 5.1467L3.91311 7.33189L1.72794 5.1467L1.05542 5.8192L3.23992 7.99988H1.84058V9.4044L1.05542 10.1895L1.72794 10.853L2.6807 9.90196H5.14555L6.09833 10.853L6.77084 10.1895L5.98526 9.40399V7.99988H4.5863L6.77084 5.8192Z" fill="#A2001D"/>
<path d="M0 15.9996H23.9997V11.1303H7.30426L0 15.9996Z" fill="#FFDA44"/>
<path d="M3.91272 5.14648L4.4486 6.79587L3.91279 7.33168L3.37687 6.79576L3.91272 5.14648Z" fill="#FFDA44"/>
<path d="M4.58598 7.99967L5.26079 7.32606H6.91277L5.98494 8.00018L4.58598 7.99967Z" fill="#FFDA44"/>
<path d="M2.68038 9.90175L2.21748 10.3638L2.05858 10.8528L3.36762 9.90175H2.68038Z" fill="#FFDA44"/>
<path d="M4.4578 9.90175L5.76681 10.8528L5.60785 10.3635L5.14523 9.90175H4.4578Z" fill="#FFDA44"/>
<path d="M1.84026 7.99994L3.2396 7.99967L2.5648 7.32606H0.912766L1.84026 7.99994Z" fill="#FFDA44"/>
</svg>
