<svg width="24" height="16" viewBox="0 0 24 16" fill="none" xmlns="http://www.w3.org/2000/svg">
<path d="M24 0H0V16H24V0Z" fill="#496E2D"/>
<path d="M12 10.0086C9.84581 10.0086 8.04619 8.49463 7.60467 6.47289C7.5368 6.78367 7.5 7.10602 7.5 7.43719C7.5 9.92248 9.51464 11.9371 12 11.9371C14.4854 11.9371 16.5 9.92248 16.5 7.43719C16.5 7.10598 16.4632 6.78367 16.3953 6.47289C15.9538 8.49463 14.1542 10.0086 12 10.0086Z" fill="#FFDA44"/>
<path d="M12 4.06201L12.4188 5.35115H13.7743L12.6777 6.14783L13.0966 7.43702L12 6.64025L10.9034 7.43702L11.3223 6.14783L10.2257 5.35115H11.5811L12 4.06201Z" fill="#FFDA44"/>
</svg>
