<svg width="24" height="16" viewBox="0 0 24 16" fill="none" xmlns="http://www.w3.org/2000/svg">
<path d="M24 0H0V16H24V0Z" fill="#0052B4"/>
<path d="M15.666 5V8.66657C15.666 10.4526 17.9993 10.9999 17.9993 10.9999C17.9993 10.9999 20.3327 10.4527 20.3327 8.66657V5H15.666V5Z" fill="#338AF3"/>
<path d="M15.666 8.66602C15.666 10.4521 17.9993 10.9994 17.9993 10.9994C17.9993 10.9994 20.3327 10.4521 20.3327 8.66602H15.666Z" fill="#A2001D"/>
<path d="M19.0001 6.6667H18.3333V6H17.6667V6.6667H17V7.33339H17.6667V9.33329H18.3333V7.33339H19.0001V6.6667Z" fill="black"/>
<path d="M12 0V1.43216L9.8828 2.60866H12V5.39108H9.22955L12 6.93021V7.99974H10.7494L7.30434 6.08604V7.99974H4.69566V5.72291L0.597375 7.99974H0V6.56754L2.1172 5.39108H0V2.60866H2.77045L0 1.06902V0H1.25063L4.69566 1.91365V0H7.30434V2.27679L11.4026 0H12Z" fill="#F0F0F0"/>
<path d="M7.30444 5.39082L12 7.99974L12.0001 7.26182L8.63227 5.39082H7.30444Z" fill="#F0F0F0"/>
<path d="M7.30444 5.39082L12 7.99974L12.0001 7.26182L8.63227 5.39082H7.30444Z" fill="#F0F0F0"/>
<path d="M4.69566 2.60866L0 0V0.737664L3.36783 2.60866H4.69566Z" fill="#F0F0F0"/>
<path d="M4.69566 2.60866L0 0V0.737664L3.36783 2.60866H4.69566Z" fill="#F0F0F0"/>
<path d="M6.75 0H5.25V3.2499H0V4.74989H5.25V7.99988H6.75V4.74989H12V3.2499H6.75V0Z" fill="#D80027"/>
<path d="M7.30444 5.39082L12.0001 7.99948V7.26182L8.63226 5.39082H7.30444Z" fill="#D80027"/>
<path d="M3.36778 5.39082L0 7.26182V7.99948L4.69566 5.39082H3.36778Z" fill="#D80027"/>
<path d="M4.69566 2.60866L0 0V0.737664L3.36783 2.60866H4.69566Z" fill="#D80027"/>
<path d="M8.63231 2.60866L12.0001 0.737664V0L7.30444 2.60866H8.63231Z" fill="#D80027"/>
</svg>
