<svg width="24" height="16" viewBox="0 0 24 16" fill="none" xmlns="http://www.w3.org/2000/svg">
<path d="M24 0H0V16H24V0Z" fill="#0052B4"/>
<path d="M24 6.95632V9.04322H13.0435V15.9995H10.9565V9.04322H0V6.95632H10.9565V0H13.0435V6.95632H24Z" fill="#F0F0F0"/>
<path d="M18.1221 4.24455C18.1221 4.13824 18.2085 4.0517 18.315 4.0517H18.7282C19.3815 4.0517 19.9129 3.52029 19.9129 2.86705C19.9129 2.21385 19.3815 1.68239 18.7282 1.68239H18.3358C18.2077 1.5862 18.0358 1.52686 17.8462 1.52686C17.4508 1.52686 17.1303 1.78331 17.1303 2.09962C17.1303 2.41288 17.4447 2.66699 17.8348 2.67191L17.8347 2.67421H18.7282C18.8346 2.67421 18.9211 2.76069 18.9211 2.86709C18.9211 2.9735 18.8346 3.05994 18.7282 3.05994H18.315C17.6617 3.05994 17.1303 3.59135 17.1303 4.24459C17.1303 4.89779 17.6617 5.42925 18.315 5.42925H19.9129V4.43743H18.315C18.2085 4.43739 18.1221 4.3509 18.1221 4.24455Z" fill="#F0F0F0"/>
<path d="M5.07876 4.24455C5.07876 4.13824 5.16524 4.0517 5.27165 4.0517H5.6849C6.33815 4.0517 6.86962 3.52029 6.86962 2.86705C6.86962 2.21385 6.33819 1.68239 5.6849 1.68239H5.29246C5.16435 1.5862 4.99251 1.52686 4.80294 1.52686C4.40751 1.52686 4.08702 1.78331 4.08702 2.09962C4.08702 2.41288 4.40141 2.66699 4.79151 2.67191L4.79137 2.67421H5.6849C5.7913 2.67421 5.87779 2.76069 5.87779 2.86709C5.87779 2.9735 5.7913 3.05994 5.6849 3.05994H5.27165C4.6184 3.05994 4.08698 3.59135 4.08698 4.24459C4.08698 4.89779 4.61835 5.42925 5.27165 5.42925H6.86962V4.43743H5.27165C5.16524 4.43739 5.07876 4.3509 5.07876 4.24455Z" fill="#F0F0F0"/>
<path d="M18.1221 13.288C18.1221 13.1817 18.2085 13.0951 18.315 13.0951H18.7282C19.3815 13.0951 19.9129 12.5637 19.9129 11.9105C19.9129 11.2573 19.3815 10.7258 18.7282 10.7258H18.3358C18.2077 10.6296 18.0358 10.5703 17.8462 10.5703C17.4508 10.5703 17.1303 10.8267 17.1303 11.143C17.1303 11.4563 17.4447 11.7104 17.8348 11.7153L17.8347 11.7176H18.7282C18.8346 11.7176 18.9211 11.8041 18.9211 11.9105C18.9211 12.0169 18.8346 12.1034 18.7282 12.1034H18.315C17.6617 12.1034 17.1303 12.6348 17.1303 13.288C17.1303 13.9412 17.6617 14.4727 18.315 14.4727H19.9129V13.4809H18.315C18.2085 13.4808 18.1221 13.3944 18.1221 13.288Z" fill="#F0F0F0"/>
<path d="M5.07876 13.288C5.07876 13.1817 5.16524 13.0951 5.27165 13.0951H5.6849C6.33815 13.0951 6.86962 12.5637 6.86962 11.9105C6.86962 11.2573 6.33819 10.7258 5.6849 10.7258H5.29246C5.16435 10.6296 4.99251 10.5703 4.80294 10.5703C4.40751 10.5703 4.08702 10.8267 4.08702 11.143C4.08702 11.4563 4.40141 11.7104 4.79151 11.7153L4.79137 11.7176H5.6849C5.7913 11.7176 5.87779 11.8041 5.87779 11.9105C5.87779 12.0169 5.7913 12.1034 5.6849 12.1034H5.27165C4.6184 12.1034 4.08698 12.6348 4.08698 13.288C4.08698 13.9412 4.61835 14.4727 5.27165 14.4727H6.86962V13.4809H5.27165C5.16524 13.4808 5.07876 13.3944 5.07876 13.288Z" fill="#F0F0F0"/>
</svg>
