<svg width="24" height="16" viewBox="0 0 24 16" fill="none" xmlns="http://www.w3.org/2000/svg">
<path d="M24 0H0V15.9997H24V0Z" fill="#D80027"/>
<path d="M14.3911 3.82598L13.4141 3.36641L13.9344 2.42019L12.8734 2.62312L12.739 1.55137L12 2.33962L11.261 1.55137L11.1266 2.62312L10.0656 2.42019L10.5859 3.36641L9.60889 3.82598H14.3911Z" fill="#D80027"/>
<path d="M24 10.667H0V16.0002H24V10.667Z" fill="#496E2D"/>
<path fill-rule="evenodd" clip-rule="evenodd" d="M0 0H24V5.33321H0V0ZM13.4141 3.36641L14.3911 3.82598H9.60889L10.5859 3.36641L10.0656 2.42019L11.1266 2.62312L11.261 1.55137L12 2.33962L12.739 1.55137L12.8734 2.62312L13.9344 2.42019L13.4141 3.36641Z" fill="black"/>
</svg>
