<svg width="24" height="16" viewBox="0 0 24 16" fill="none" xmlns="http://www.w3.org/2000/svg">
<path d="M24 0H0V16H24V0Z" fill="#F0F0F0"/>
<path d="M24 1.99951H0V3.99932H24V1.99951Z" fill="#D80027"/>
<path d="M24 5.99965H0V7.99946H24V5.99965Z" fill="#D80027"/>
<path d="M24 9.99928H0V11.9991H24V9.99928Z" fill="#D80027"/>
<path d="M24 13.9994H0V15.9992H24V13.9994Z" fill="#D80027"/>
<path d="M12 0H0V8.61539H12V0Z" fill="#0052B4"/>
<path d="M6.60577 6.28547C5.5132 6.28547 4.62755 5.39977 4.62755 4.30727C4.62755 3.21476 5.51325 2.32907 6.60577 2.32907C6.94641 2.32907 7.26689 2.41522 7.54678 2.56682C7.1078 2.13754 6.50742 1.87256 5.84489 1.87256C4.50023 1.87256 3.41016 2.96263 3.41016 4.30727C3.41016 5.65191 4.50028 6.74198 5.84489 6.74198C6.50738 6.74198 7.1078 6.477 7.54678 6.04772C7.26694 6.19931 6.94641 6.28547 6.60577 6.28547Z" fill="#FFDA44"/>
<path d="M7.1631 2.91597L7.51434 3.6504L8.30746 3.46712L7.95229 4.19959L8.59016 4.70546L7.79596 4.88447L7.79821 5.69854L7.1631 5.1892L6.52799 5.69854L6.5302 4.88447L5.73599 4.70546L6.37387 4.19959L6.0186 3.46712L6.81182 3.6504L7.1631 2.91597Z" fill="#FFDA44"/>
</svg>
