<svg width="24" height="16" viewBox="0 0 24 16" fill="none" xmlns="http://www.w3.org/2000/svg">
<path d="M24 0H0V16H24V0Z" fill="#496E2D"/>
<path d="M0 16V0H24" fill="#0052B4"/>
<path d="M24 3.1353V0H19.297L0 12.8647V16H4.70297L24 3.1353Z" fill="#F0F0F0"/>
<path d="M24 0V1.8809L2.82155 16H0V14.1191L21.1785 0H24Z" fill="#A2001D"/>
<path d="M8.79941 4.86936L7.73342 5.37074L8.30108 6.40314L7.14359 6.1817L6.99692 7.35102L6.19072 6.49099L5.38447 7.35102L5.2378 6.1817L4.08031 6.40309L4.64792 5.37074L3.58203 4.86936L4.64797 4.36793L4.08031 3.33562L5.2378 3.55697L5.38452 2.3877L6.19072 3.24773L6.99697 2.3877L7.14359 3.55697L8.30108 3.33562L7.73352 4.36802L8.79941 4.86936Z" fill="#FFDA44"/>
</svg>
