<svg width="24" height="16" viewBox="0 0 24 16" fill="none" xmlns="http://www.w3.org/2000/svg">
<path d="M24 0H0V16H24V0Z" fill="#F0F0F0"/>
<path d="M12.0005 6.05225C10.9248 6.05225 10.0527 6.92428 10.0527 8.00008C10.0527 9.07588 10.9247 9.94791 12.0005 9.94791C13.0763 9.94791 13.9483 9.07588 13.9483 8.00008C13.9483 6.92428 13.0763 6.05225 12.0005 6.05225ZM12.0005 9.11315C11.3858 9.11315 10.8875 8.61481 10.8875 8.00008C10.8875 7.38535 11.3858 6.88701 12.0005 6.88701C12.6152 6.88701 13.1136 7.38535 13.1136 8.00008C13.1136 8.61481 12.6152 9.11315 12.0005 9.11315Z" fill="#FFDA44"/>
<path d="M12.964 8.27826L12.0001 8L11.0362 8.27826L10.7148 8.83481H13.2853L12.964 8.27826Z" fill="#0052B4"/>
<path d="M24 0H0V5.3333H24V0Z" fill="#338AF3"/>
<path d="M24 10.6667H0V16H24V10.6667Z" fill="#338AF3"/>
<path d="M12 6.60871L11.3574 7.72173L12 7.99998L12.6426 7.72173L12 6.60871Z" fill="#338AF3"/>
<path d="M11.0352 8.27819H12.9629L12.6417 7.72168H11.3564L11.0352 8.27819Z" fill="#6DA544"/>
</svg>
