<svg width="24" height="16" viewBox="0 0 24 16" fill="none" xmlns="http://www.w3.org/2000/svg">
<path d="M24 0H0V16H24V0Z" fill="#FFDA44"/>
<path fill-rule="evenodd" clip-rule="evenodd" d="M0 0H12V7.98423H0V0ZM6.11085 1.14225L6.00004 0.801758L5.88918 1.14225H5.53049L5.82065 1.35268L5.70983 1.69317L6.00004 1.48274L6.29024 1.69317L6.17943 1.35268L6.46958 1.14225H6.11085ZM6.00005 3.24364L6.18615 3.81543H6.78868L6.30127 4.16893L6.48741 4.74072L6.00005 4.38731L5.51265 4.74072L5.69883 4.16893L5.21143 3.81543H5.81391L6.00005 3.24364ZM6.00004 6.29113L6.11085 6.63162H6.46958L6.17943 6.84205L6.29024 7.18254L6.00004 6.97211L5.70983 7.18254L5.82065 6.84205L5.53049 6.63162H5.88918L6.00004 6.29113ZM9.27809 3.54645L9.38895 3.88689H9.74768L9.45743 4.09737L9.56829 4.43791L9.27809 4.22748L8.98788 4.43791L9.09874 4.09737L8.80854 3.88689H9.16723L9.27809 3.54645ZM2.83285 3.88689L2.72203 3.54645L2.61118 3.88689H2.25244L2.54269 4.09737L2.43183 4.43791L2.72203 4.22748L3.01219 4.43791L2.90138 4.09737L3.19158 3.88689H2.83285Z" fill="#F0F0F0"/>
<path d="M0 0.705637L2.68955 2.49516H3.75L0 0V0.705637Z" fill="#D80027"/>
<path d="M8.25 2.49516L12 0V0.705637L9.31045 2.49516H8.25Z" fill="#D80027"/>
<path fill-rule="evenodd" clip-rule="evenodd" d="M5.25 0.000999451H6.75V3.24465H12V4.74172H6.75V7.98542H5.25V4.74172H0V3.24465H5.25V0.000999451ZM6.11085 1.14225L6.00004 0.801758L5.88918 1.14225H5.53049L5.82065 1.35268L5.70983 1.69317L6.00004 1.48274L6.29024 1.69317L6.17943 1.35268L6.46958 1.14225H6.11085ZM6.00005 3.24364L6.18615 3.81543H6.78868L6.30127 4.16893L6.48741 4.74072L6.00005 4.38731L5.51265 4.74072L5.69883 4.16893L5.21143 3.81543H5.81391L6.00005 3.24364ZM6.00004 6.29113L6.11085 6.63162H6.46958L6.17943 6.84205L6.29024 7.18254L6.00004 6.97211L5.70983 7.18254L5.82065 6.84205L5.53049 6.63162H5.88918L6.00004 6.29113ZM9.27809 3.54645L9.38895 3.88689H9.74768L9.45743 4.09737L9.56829 4.43791L9.27809 4.22748L8.98788 4.43791L9.09874 4.09737L8.80854 3.88689H9.16723L9.27809 3.54645ZM2.83285 3.88689L2.72203 3.54645L2.61118 3.88689H2.25244L2.54269 4.09737L2.43183 4.43791L2.72203 4.22748L3.01219 4.43791L2.90138 4.09737L3.19158 3.88689H2.83285Z" fill="#D80027"/>
<path d="M0 7.98442V7.27883L2.68955 5.48926H3.75L0 7.98442Z" fill="#D80027"/>
<path d="M12 7.27883V7.98442L8.25 5.48926H9.31045L12 7.27883Z" fill="#D80027"/>
<path d="M4.49997 2.28833L1.06066 0H4.49997V2.28833Z" fill="#2E52B2"/>
<path d="M2.15948 2.49503L0 1.05821V2.49503H2.15948Z" fill="#2E52B2"/>
<path d="M12 1.05821L9.84055 2.49503H12V1.05821Z" fill="#2E52B2"/>
<path d="M7.5 2.28833L10.9393 0H7.5V2.28833Z" fill="#2E52B2"/>
<path d="M0 5.48926V6.92612L2.15948 5.48926H0Z" fill="#2E52B2"/>
<path d="M4.49997 7.9846V5.69632L1.06066 7.9846H4.49997Z" fill="#2E52B2"/>
<path d="M12.0001 5.48887V6.92573L9.84066 5.48887H12.0001Z" fill="#2E52B2"/>
<path d="M7.50011 7.98389V5.69561L10.9394 7.98389H7.50011Z" fill="#2E52B2"/>
<path fill-rule="evenodd" clip-rule="evenodd" d="M7.06073 3.99168C7.06073 4.57631 6.58587 5.05025 6.00009 5.05025C5.41432 5.05025 4.93945 4.57631 4.93945 3.99168C4.93945 3.40705 5.41432 2.93311 6.00009 2.93311C6.58587 2.93311 7.06073 3.40705 7.06073 3.99168ZM6.00005 3.24364L6.18615 3.81543H6.78868L6.30127 4.16893L6.48741 4.74072L6.00005 4.38731L5.51265 4.74072L5.69883 4.16893L5.21143 3.81543H5.81391L6.00005 3.24364Z" fill="#2E52B2"/>
</svg>
