<svg width="24" height="16" viewBox="0 0 24 16" fill="none" xmlns="http://www.w3.org/2000/svg">
<path d="M24 0H0V16H24V0Z" fill="#F0F0F0"/>
<path d="M0 16H24V0L0 16Z" fill="#0052B4"/>
<path d="M11.7391 0H0V7.82572L11.7391 0Z" fill="#FFDA44"/>
<path d="M8.81436 7.72994L9.5038 7.35648L8.81436 6.98302C8.65339 5.93731 7.82717 5.11107 6.78158 4.95019L6.40812 4.26074L6.03467 4.95019C4.98898 5.11117 4.16281 5.9374 4.00189 6.98302L3.3125 7.35652L4.00194 7.72998C4.16291 8.77569 4.98913 9.60193 6.03472 9.76281L6.40812 10.4522L6.78158 9.76276C7.82722 9.60188 8.65339 8.7756 8.81436 7.72994ZM6.40808 8.7478C5.63966 8.7478 5.01673 8.12487 5.01673 7.35643C5.01673 6.58799 5.63966 5.96515 6.40808 5.96515C7.1765 5.96515 7.79942 6.58809 7.79942 7.35652C7.79942 8.12496 7.1765 8.7478 6.40808 8.7478Z" fill="black"/>
<path d="M6.40947 6.31299L6.71073 6.83472H7.31317L7.01195 7.3565L7.31317 7.87823H6.71073L6.40947 8.4L6.1083 7.87823H5.50586L5.80703 7.3565L5.50586 6.83472H6.1083L6.40947 6.31299Z" fill="#D80027"/>
</svg>
