<svg width="24" height="16" viewBox="0 0 24 16" fill="none" xmlns="http://www.w3.org/2000/svg">
<path d="M24 0.000488281H0V16H24V0.000488281Z" fill="#0052B4"/>
<path d="M24 0V7.81353L0 8.0081V0H24Z" fill="#D80027"/>
<path d="M19.9997 8.00024C20.0018 8.00235 12.0071 16.0057 11.9998 16C11.9925 16.0057 3.99794 8.00235 4 8.00024C3.99794 7.99813 11.9925 -0.00527418 11.9998 0.000491395C12.0071 -0.00527418 20.0017 7.99813 19.9997 8.00024Z" fill="#F0F0F0"/>
<path d="M12.001 4.17432L12.8644 6.8314H15.6583L13.398 8.47361L14.2613 11.1307L12.001 9.48854L9.74072 11.1307L10.6041 8.47361L8.34375 6.8314H11.1376L12.001 4.17432Z" fill="#FFDA44"/>
</svg>
