<svg width="24" height="16" viewBox="0 0 24 16" fill="none" xmlns="http://www.w3.org/2000/svg">
<path d="M24 0H0V16H24V0Z" fill="#D80027"/>
<path d="M11.7389 0.521484H2.52148C1.41691 0.521484 0.521484 1.41866 0.521484 2.52537V7.73899H6.56472L11.7389 4.48684V0.521484Z" fill="#0052B4"/>
<path d="M0.521484 8.2607V13.4741C0.521484 14.5808 1.41691 15.478 2.52148 15.478H11.7389V11.5128L6.56487 8.2607H0.521484Z" fill="#0052B4"/>
<path d="M12.2606 15.478H21.478C22.5826 15.478 23.478 14.5808 23.478 13.4741V8.2607H17.4347L12.2606 11.5128V15.478Z" fill="#0052B4"/>
<path d="M23.478 7.73899H17.4348L12.2606 4.48682V0.521484H21.478C22.5826 0.521484 23.478 1.41865 23.478 2.52537V7.73899Z" fill="#0052B4"/>
<path d="M7.13086 8.00008L12.0004 4.93945L16.87 8.00008L12.0004 11.0608L7.13086 8.00008Z" fill="#F0F0F0"/>
<path d="M15.2346 9.02646L14.6549 9.39115H9.2168L9.24708 9.33063L9.91228 7.99968L10.6078 8.69515H11.9993L12.6947 7.65168L13.3907 7.99968L14.0862 7.3042L15.2346 9.02646Z" fill="#6DA544"/>
<path d="M12.001 5.9126L12.1737 6.44406H12.7324L12.2803 6.77242L12.4531 7.30393L12.001 6.97543L11.5489 7.30393L11.7216 6.77242L11.2695 6.44406H11.8283L12.001 5.9126Z" fill="#FFDA44"/>
</svg>
