<svg width="24" height="16" viewBox="0 0 24 16" fill="none" xmlns="http://www.w3.org/2000/svg">
<path d="M24 0H0V16H24V0Z" fill="#F0F0F0"/>
<path fill-rule="evenodd" clip-rule="evenodd" d="M0 0V16H12.7118L4.10672 8.19158H13.1446L0 0ZM4.13745 4.98442L3.6401 4.7505L3.905 4.26871L3.36485 4.37207L3.29637 3.82639L2.92015 4.22769L2.54393 3.82639L2.47549 4.37207L1.93526 4.26871L2.2002 4.7505L1.7028 4.98442H1.45926C1.45926 5.79125 2.11331 6.44531 2.92012 6.44531C3.72693 6.44531 4.38098 5.79125 4.38098 4.98442H4.13745ZM4.59387 11.2082L3.91001 10.8865L4.27423 10.2242L3.53154 10.3662L3.43742 9.61595L2.92015 10.1678L2.40284 9.61595L2.30871 10.3662L1.56607 10.2241L1.93029 10.8865L1.24634 11.2082L1.93029 11.5299L1.56607 12.1923L2.30876 12.0503L2.40284 12.8005L2.92015 12.2486L3.43742 12.8005L3.53154 12.0503L4.27418 12.1923L3.91001 11.5299L4.59387 11.2082Z" fill="#0052B4"/>
<path fill-rule="evenodd" clip-rule="evenodd" d="M0.478516 0.861328L11.474 7.71357H2.86886L11.474 15.522H0.478516V0.861328ZM4.13794 4.98419L3.64059 4.75027L3.90548 4.26848L3.36534 4.37184L3.29686 3.82616L2.92064 4.22746L2.54442 3.82616L2.47598 4.37184L1.93575 4.26848L2.20069 4.75027L1.70329 4.98419H1.45975C1.45975 5.79102 2.11379 6.44508 2.92061 6.44508C3.72742 6.44508 4.38146 5.79102 4.38146 4.98419H4.13794ZM4.59436 11.208L3.9105 10.8863L4.27472 10.2239L3.53203 10.366L3.4379 9.61572L2.92064 10.1675L2.40333 9.61572L2.3092 10.366L1.56656 10.2239L1.93078 10.8863L1.24683 11.208L1.93078 11.5297L1.56656 12.192L2.30925 12.05L2.40333 12.8002L2.92064 12.2484L3.4379 12.8002L3.53203 12.05L4.27467 12.1921L3.9105 11.5297L4.59436 11.208Z" fill="#D80027"/>
</svg>
