<svg width="24" height="16" viewBox="0 0 24 16" fill="none" xmlns="http://www.w3.org/2000/svg">
<path d="M24 0H0V16H24V0Z" fill="#0052B4"/>
<path d="M12.0002 0V1.43267L9.88252 2.60866H12.0002V5.39108H9.22932L12.0002 6.93072V7.99974H10.7491L7.30458 6.08604V7.99974H4.6959V5.72291L0.597666 7.99974H0.000244141V6.56759L2.11749 5.39108H0.000244141V2.60866H2.7707L0.000244141 1.06958V0H1.25087L4.6959 1.91426V0H7.30458V2.27683L11.4029 0H12.0002Z" fill="#F0F0F0"/>
<path d="M7.30444 5.39082L12.0002 7.99974L12.0001 7.26182L8.63227 5.39082H7.30444Z" fill="#F0F0F0"/>
<path d="M7.30444 5.39082L12.0002 7.99974L12.0001 7.26182L8.63227 5.39082H7.30444Z" fill="#F0F0F0"/>
<path d="M4.69566 2.60871L0.000244141 0L0 0.737711L3.36783 2.60871H4.69566Z" fill="#F0F0F0"/>
<path d="M4.69566 2.60871L0.000244141 0L0 0.737711L3.36783 2.60871H4.69566Z" fill="#F0F0F0"/>
<path d="M19.936 6.95633L20.0948 7.44514H20.6087L20.1929 7.7472L20.3517 8.23596L19.936 7.9339L19.5202 8.23596L19.679 7.7472L19.2632 7.44514H19.7771L19.936 6.95633Z" fill="#D80027"/>
<path d="M18.0989 10.4756L18.3371 11.2088H19.108L18.4843 11.662L18.7225 12.3951L18.0989 11.9419L17.4752 12.3951L17.7135 11.662L17.0898 11.2088H17.8607L18.0989 10.4756Z" fill="#D80027"/>
<path d="M18.1683 4.71715L18.3669 5.32821H19.0093L18.4895 5.70573L18.688 6.31669L18.1683 5.93907L17.6486 6.31669L17.8471 5.70573L17.3274 5.32821H17.9698L18.1683 4.71715Z" fill="#D80027"/>
<path d="M16.4005 6.93515L16.6387 7.66831H17.4096L16.7859 8.1214L17.0242 8.85457L16.4005 8.40148L15.7768 8.85457L16.015 8.1214L15.3914 7.66831H16.1622L16.4005 6.93515Z" fill="#D80027"/>
<path d="M6.75 0H5.25V3.25H0V4.74998H5.25V7.99998H6.75V4.74998H12V3.25H6.75V0Z" fill="#D80027"/>
<path d="M7.30421 5.39082L11.9999 7.99958V7.26182L8.63204 5.39082H7.30421Z" fill="#D80027"/>
<path d="M3.36778 5.39082L0 7.26182V7.99958L4.69566 5.39082H3.36778Z" fill="#D80027"/>
<path d="M4.69566 2.60871L0 0V0.737711L3.36783 2.60871H4.69566Z" fill="#D80027"/>
<path d="M8.63209 2.60871L11.9999 0.737711V0L7.30421 2.60871H8.63209Z" fill="#D80027"/>
</svg>
