<svg width="24" height="16" viewBox="0 0 24 16" fill="none" xmlns="http://www.w3.org/2000/svg">
<path d="M24 0.000488281H0V16H24V0.000488281Z" fill="#F0F0F0"/>
<path fill-rule="evenodd" clip-rule="evenodd" d="M6 0H24V16H6V0ZM12.4267 9.27486C13.478 10.7298 15.5096 11.0569 16.9644 10.0057C17.4181 9.67794 17.762 9.25485 17.9888 8.78376C17.8173 9.77783 17.2728 10.7083 16.3906 11.3457C14.5999 12.6396 12.0995 12.2368 10.8057 10.4462C9.51187 8.65556 9.91462 6.15518 11.7052 4.86135C12.5875 4.22395 13.6419 3.99914 14.6395 4.14834C14.1209 4.21575 13.6113 4.40948 13.1577 4.73723C11.7027 5.78839 11.3755 7.81997 12.4267 9.27486ZM17.7217 4.98722L16.9021 4.10401L17.0459 5.3003L15.9527 5.80663L17.1349 6.03955L17.2786 7.23584L17.8654 6.1835L19.0476 6.41638L18.2281 5.53307L18.8149 4.48088L17.7217 4.98722Z" fill="#496E2D"/>
</svg>
