<svg width="24" height="16" viewBox="0 0 24 16" fill="none" xmlns="http://www.w3.org/2000/svg">
<path d="M24 0H0V15.9999H24V0Z" fill="#F0F0F0"/>
<path d="M12 8.00002C12 8.00002 12 11.9987 12 16H0V8.00002H4.00017C7.82503 8.00002 12 8.00002 12 8.00002Z" fill="#0052B4"/>
<path d="M5.99993 1.76709L6.55418 3.47285H8.34775L6.89674 4.52713L7.45094 6.23288L5.99993 5.17865L4.54891 6.23288L5.10311 4.52713L3.6521 3.47285H5.44568L5.99993 1.76709Z" fill="#0052B4"/>
<path d="M24 0V7.99993H19.9998C15.7586 7.99993 12 7.99993 12 7.99993C12 7.99993 12 3.76598 12 0H24Z" fill="#D80027"/>
<path d="M17.9999 9.76721L18.5542 11.473H20.3478L18.8967 12.5272L19.4509 14.233L17.9999 13.1788L16.5489 14.233L17.1031 12.5272L15.6521 11.473H17.4457L17.9999 9.76721Z" fill="#D80027"/>
</svg>
