<svg width="24" height="16" viewBox="0 0 24 16" fill="none" xmlns="http://www.w3.org/2000/svg">
<path d="M24 0H0V15.9999H24V0Z" fill="#F0F0F0"/>
<path d="M24 0V7.99994H12L0 0H24Z" fill="#0052B4"/>
<path d="M24 8V15.9999H0L12 8H24Z" fill="#D80027"/>
<path d="M7.58935 7.99976L6.31023 7.39811L6.99142 6.15928L5.60242 6.42497L5.4264 5.02185L4.4589 6.05381L3.49145 5.02185L3.31543 6.42497L1.92648 6.15924L2.60762 7.39806L1.3285 7.99976L2.60762 8.60141L1.92648 9.84024L3.31553 9.57455L3.49145 10.9777L4.4589 9.94571L5.4264 10.9777L5.60242 9.57455L6.99137 9.84028L6.31018 8.6015L7.58935 7.99976Z" fill="#FFDA44"/>
<path d="M1.0213 1.5127L1.44697 2.10783L2.14442 1.88686L1.70998 2.47561L2.13566 3.07065L1.44148 2.83946L1.00705 3.42817L1.01253 2.69654L0.318359 2.46525L1.01586 2.24438L1.0213 1.5127Z" fill="#FFDA44"/>
<path d="M1.0213 12.5714L1.44697 13.1666L2.14442 12.9456L1.70998 13.5344L2.13566 14.1295L1.44148 13.8982L1.00705 14.4869L1.01253 13.7553L0.318359 13.524L1.01586 13.3031L1.0213 12.5714Z" fill="#FFDA44"/>
<path d="M9.86218 7.0418L9.43651 7.63689L8.73906 7.41596L9.1735 8.00467L8.74782 8.59981L9.442 8.36857L9.87644 8.95723L9.87095 8.22565L10.5651 7.99436L9.86762 7.77344L9.86218 7.0418Z" fill="#FFDA44"/>
</svg>
