<svg width="24" height="16" viewBox="0 0 24 16" fill="none" xmlns="http://www.w3.org/2000/svg">
<path d="M24 0H0V16H24V0Z" fill="black"/>
<path d="M0 0H24V15.9998" fill="#A2001D"/>
<path d="M9.59124 11.3039L9.7207 11.7026H10.1398L9.80077 11.9489L9.93028 12.3474L9.59124 12.1011L9.25219 12.3474L9.38166 11.9489L9.04261 11.7026H9.46167L9.59124 11.3039Z" fill="#F0F0F0"/>
<path d="M8.52102 7.47803L8.73688 8.14233H9.43537L8.87024 8.55281L9.0861 9.21712L8.52102 8.80654L7.95595 9.21712L8.17185 8.55281L7.60673 8.14233H8.30521L8.52102 7.47803Z" fill="#F0F0F0"/>
<path d="M8.52102 12.3476L8.73684 13.0119H9.43537L8.8702 13.4224L9.0861 14.0868L8.52102 13.6762L7.95595 14.0868L8.17176 13.4224L7.60673 13.0119H8.30512L8.52102 12.3476Z" fill="#F0F0F0"/>
<path d="M10.5632 9.21739L10.7791 9.88169H11.4776L10.9125 10.2922L11.1284 10.9565L10.5632 10.5459L9.9982 10.9565L10.2141 10.2922L9.64898 9.88169H10.3475L10.5632 9.21739Z" fill="#F0F0F0"/>
<path d="M6.47875 9.21739L6.69465 9.88169H7.39304L6.82801 10.2922L7.04378 10.9565L6.47875 10.5459L5.91367 10.9565L6.12953 10.2922L5.56445 9.88169H6.26289L6.47875 9.21739Z" fill="#F0F0F0"/>
<path d="M17.6498 5.57002C17.2923 5.21246 16.8277 5.00129 16.3285 4.96496L17.8228 3.80271C17.2276 3.2075 16.43 2.93876 15.6516 2.99562C15.5585 2.6607 15.3808 2.34444 15.1175 2.08105L14.5272 3.26164C14.4884 3.19104 14.4394 3.12462 14.3796 3.0649C14.04 2.7253 13.4894 2.72534 13.1499 3.0649C12.8104 3.40446 12.8103 3.95505 13.1499 4.29461C13.2097 4.35442 13.2761 4.40345 13.3466 4.44217L12.166 5.03246C12.4295 5.2959 12.7459 5.47364 13.081 5.56678C13.0239 6.34518 13.2924 7.14266 13.8876 7.73787L15.1933 6.05925C15.2915 5.9625 15.4212 5.90916 15.5592 5.90916C15.6986 5.90916 15.8296 5.96344 15.9282 6.06197C16.0267 6.16054 16.081 6.29151 16.081 6.43087C16.081 6.57027 16.0267 6.70124 15.9282 6.79977L16.4201 7.29167C16.65 7.06175 16.7766 6.75599 16.7766 6.43087C16.7766 6.16486 16.6918 5.91192 16.5351 5.70272C16.7634 5.76366 16.9792 5.88314 17.158 6.06187C17.7005 6.6043 17.7005 7.487 17.158 8.02943L17.6499 8.52133C18.044 8.12716 18.2611 7.60306 18.2611 7.04567C18.261 6.48824 18.044 5.96419 17.6498 5.57002Z" fill="#FFDA44"/>
</svg>
