<svg width="24" height="16" viewBox="0 0 24 16" fill="none" xmlns="http://www.w3.org/2000/svg">
<path d="M24 0H0V15.9995H24V0Z" fill="#F0F0F0"/>
<path d="M24 0H0V3.19979H24V0Z" fill="#D80027"/>
<path d="M3.50603 6.39941H0V9.59921H2.46633L2.76718 8.67339L0.913086 7.32627H3.2049L3.50603 6.39941Z" fill="#D80027"/>
<path d="M4.32005 6.39941L4.62118 7.32627H6.91309L5.05899 8.67339L5.35978 9.59921H24V6.39941H4.32005Z" fill="#D80027"/>
<path d="M4.04142 9.59921L3.91304 9.50593L3.78465 9.59921H4.04142Z" fill="#D80027"/>
<path d="M0 12.7994H24V15.9992H0V12.7994Z" fill="#D80027"/>
<path fill-rule="evenodd" clip-rule="evenodd" d="M0 16L12 8.00031L0 0V16ZM4.62118 7.32627L3.91304 5.1467L3.2049 7.32627H0.913086L2.76718 8.67339L2.0589 10.853L3.91304 9.50593L5.76713 10.853L5.05899 8.67339L6.91309 7.32627H4.62118Z" fill="#0052B4"/>
</svg>
