<svg width="24" height="16" viewBox="0 0 24 16" fill="none" xmlns="http://www.w3.org/2000/svg">
<path d="M24 0H0V16H24V0Z" fill="#F0F0F0"/>
<path d="M24 0H0V2.68066H24V0Z" fill="#0052B4"/>
<path d="M24 13.3192H0V15.9994H24V13.3192Z" fill="#0052B4"/>
<path fill-rule="evenodd" clip-rule="evenodd" d="M0 3.74463H24V12.2562H0V3.74463ZM11.9999 7.99987C11.9999 9.69989 10.6217 11.078 8.92169 11.078C7.22166 11.078 5.84351 9.69989 5.84351 7.99987C5.84351 6.29985 7.22166 4.92172 8.92169 4.92172C10.6217 4.92172 11.9999 6.29985 11.9999 7.99987Z" fill="#D80027"/>
<path d="M8.92169 4.92172L9.61247 7.04729H11.8511L10.0394 8.36109L10.7354 10.493L8.92181 9.173L7.11098 10.4905L7.80427 8.36109L5.99414 7.04729H8.23111L8.92169 4.92172Z" fill="#D80027"/>
</svg>
