<svg width="24" height="16" viewBox="0 0 24 16" fill="none" xmlns="http://www.w3.org/2000/svg">
<g clip-path="url(#clip0_15610_340317)">
<path d="M24 0H0V15.9995H24V0Z" fill="#FFDA44"/>
<path d="M24 0H15.4785V16H24V0Z" fill="#0052B4"/>
<path d="M8.52155 0H0V16H8.52155V0Z" fill="#0052B4"/>
<path d="M14.332 8.71681L14.8699 9.43418V6.56466L14.332 7.28203H12.7178V5.66796L13.4352 5.12988H10.5656L11.283 5.66796V7.28203H9.66889L9.13086 6.56466V9.43418L9.66889 8.71681H11.283V10.3309L10.5656 10.869H13.4352L12.7178 10.3309V8.71681H14.332Z" fill="#D80027"/>
<path d="M14.152 7.64063H12.3585V5.84717H11.6411V7.64063H9.84766V8.35805H11.6411V10.1515H12.3585V8.35805H14.152V7.64063Z" fill="#F0F0F0"/>
</g>
<defs>
<clipPath id="clip0_15610_340317">
<rect width="24" height="16" fill="white"/>
</clipPath>
</defs>
</svg>
