<svg width="24" height="16" viewBox="0 0 24 16" fill="none" xmlns="http://www.w3.org/2000/svg">
<path d="M24 0H0V16H24V0Z" fill="#F0F0F0"/>
<path d="M11.077 0H0V16H11.077V0Z" fill="#0052B4"/>
<path d="M8.0332 2.78271V4.08709C8.0332 4.73543 8.55881 5.261 9.20709 5.261C9.85537 5.261 10.381 4.73538 10.381 4.08709V2.78271H8.0332Z" fill="#D80027"/>
<path d="M9.20678 4.56552C8.94306 4.56552 8.72852 4.35097 8.72852 4.08725V3.47852H9.685V4.08725C9.68509 4.35097 9.47055 4.56552 9.20678 4.56552Z" fill="#F0F0F0"/>
<path d="M13.8587 8.34822H11.7718C11.7718 7.96407 11.4603 7.65258 11.0761 7.65258C10.692 7.65258 10.3805 7.96407 10.3805 8.34822H8.29356C8.29356 8.73242 8.6282 9.04386 9.01234 9.04386H8.98918C8.98918 9.42806 9.30062 9.7395 9.68481 9.7395C9.68481 10.1237 9.99624 10.4351 10.3804 10.4351H11.7718C12.1559 10.4351 12.4674 10.1237 12.4674 9.7395C12.8515 9.7395 13.163 9.42806 13.163 9.04386H13.1399C13.5241 9.04386 13.8587 8.73242 13.8587 8.34822Z" fill="#FFDA44"/>
<path d="M14.1446 7.23502L13.962 7.52738L14.1835 7.79139L13.849 7.70813L13.6663 8.00041L13.6422 7.65652L13.3077 7.57309L13.6274 7.44394L13.6034 7.10001L13.825 7.36421L14.1446 7.23502Z" fill="#FFDA44"/>
<path d="M13.0789 6.34042L13.0073 6.67764L13.3058 6.85L12.9629 6.8861L12.8913 7.22328L12.751 6.90836L12.4082 6.94437L12.6644 6.71364L12.5242 6.39878L12.8227 6.57114L13.0789 6.34042Z" fill="#FFDA44"/>
<path d="M11.7716 5.86475L11.8196 6.20614L12.159 6.266L11.8493 6.41718L11.8972 6.75853L11.6577 6.51051L11.3479 6.66168L11.5097 6.35722L11.2702 6.1093L11.6098 6.16916L11.7716 5.86475Z" fill="#FFDA44"/>
<path d="M10.3805 5.86475L10.5424 6.16916L10.8819 6.10925L10.6424 6.35727L10.8042 6.66168L10.4944 6.51051L10.2549 6.75848L10.3029 6.41718L9.9931 6.2661L10.3325 6.20614L10.3805 5.86475Z" fill="#FFDA44"/>
<path d="M9.0732 6.34042L9.32938 6.57114L9.62788 6.39878L9.48772 6.71378L9.74384 6.94441L9.401 6.90836L9.26075 7.22328L9.18922 6.88605L8.84633 6.85005L9.14483 6.67769L9.0732 6.34042Z" fill="#FFDA44"/>
<path d="M8.00761 7.23483L8.32725 7.36402L8.54873 7.09988L8.52487 7.4439L8.84442 7.57299L8.50987 7.65639L8.48578 8.00022L8.3032 7.70795L7.96875 7.79125L8.19033 7.5272L8.00761 7.23483Z" fill="#FFDA44"/>
</svg>
