<svg width="24" height="16" viewBox="0 0 24 16" fill="none" xmlns="http://www.w3.org/2000/svg">
<path d="M24 0H0V16H24V0Z" fill="#D80027"/>
<path d="M9.21755 6.50012V0H0V16H9.21755V10.0627C9.21746 10.0627 9.21764 10.0627 9.21755 10.0627C8.28558 10.0627 7.52979 9.30719 7.52979 8.3752V6.50012H9.21755Z" fill="#6DA544"/>
<path fill-rule="evenodd" clip-rule="evenodd" d="M12.2168 8.00006C12.2168 9.65696 10.8736 11.0001 9.21679 11.0001C7.55994 11.0001 6.2168 9.65696 6.2168 8.00006C6.2168 6.34317 7.55994 5 9.21679 5C10.8736 5 12.2168 6.34317 12.2168 8.00006ZM7.52905 8.37511V6.50003H10.9041V8.37511C10.9041 9.3071 10.1485 10.0627 9.21655 10.0627C8.28458 10.0627 7.52905 9.3071 7.52905 8.37511Z" fill="#FFDA44"/>
<path d="M9.2168 8.93753C8.90663 8.93753 8.6543 8.68519 8.6543 8.37502V7.625H9.77934V8.37502C9.7793 8.68515 9.52692 8.93753 9.2168 8.93753Z" fill="#F0F0F0"/>
</svg>
