<svg width="24" height="16" viewBox="0 0 24 16" fill="none" xmlns="http://www.w3.org/2000/svg">
<path d="M24 0H0V15.9997H24V0Z" fill="#F0F0F0"/>
<path d="M24 0H0V5.33321H24V0Z" fill="#D80027"/>
<path d="M24 10.667H0V16.0002H24V10.667Z" fill="#0052B4"/>
<path d="M13.5735 6.15967L12.9832 6.74992C13.235 7.00173 13.3907 7.34955 13.3907 7.73373C13.3907 8.50211 12.7678 9.12499 11.9995 9.12499C11.2311 9.12499 10.6082 8.50207 10.6082 7.73373C10.6082 7.34959 10.764 7.00173 11.0157 6.74992L10.4255 6.15967C10.0226 6.56251 9.77344 7.11901 9.77344 7.73369C9.77344 8.96313 10.77 9.95974 11.9995 9.95974C13.2289 9.95974 14.2255 8.96313 14.2255 7.73369C14.2255 7.11906 13.9763 6.56251 13.5735 6.15967Z" fill="#6DA544"/>
<path d="M12.0008 6.89893L12.208 7.53666H12.8785L12.336 7.93079L12.5433 8.56848L12.0008 8.17435L11.4583 8.56848L11.6655 7.93079L11.123 7.53666H11.7935L12.0008 6.89893Z" fill="#FFDA44"/>
</svg>
