<svg width="24" height="16" viewBox="0 0 24 16" fill="none" xmlns="http://www.w3.org/2000/svg">
<path d="M24 0H0V16H24V0Z" fill="#F0F0F0"/>
<path d="M24 0H0V5.3333H24V0Z" fill="#D80027"/>
<path d="M24 10.6667H0V16H24V10.6667Z" fill="#D80027"/>
<path d="M10.5 7.49913L12 6.49716L13.5 7.49913V8.5011H10.5V7.49913Z" fill="#D80027"/>
<path fill-rule="evenodd" clip-rule="evenodd" d="M11.9996 9.55845C12.9831 9.55845 13.7805 8.9837 13.7805 8.00015C13.7805 7.0166 12.9832 6.21924 11.9996 6.21924C11.0161 6.21924 10.2188 7.0166 10.2188 8.00015C10.2188 8.9837 11.016 9.55845 11.9996 9.55845ZM11.7768 6.88706H12.222V8.44535H11.7768V6.88706ZM11.3319 7.55485H10.8867V8.44549H11.3319V7.55485ZM13.1126 7.55485H12.6674V8.44549H13.1126V7.55485Z" fill="#FFDA44"/>
<path d="M11.777 8V8.44526H12.2223V8H12.6677V8.44541H13.1129V8H13.7805C13.7805 8.98355 12.9832 9.78091 11.9996 9.78091C11.0161 9.78091 10.2188 8.98355 10.2188 8H10.887V8.44541H11.3322V8H11.777Z" fill="#0052B4"/>
</svg>
