<svg width="24" height="16" viewBox="0 0 24 16" fill="none" xmlns="http://www.w3.org/2000/svg">
<path d="M24 0H0V15.9846H24V0Z" fill="#338AF3"/>
<path d="M24 11.9961H0V16H24V11.9961Z" fill="#496E2D"/>
<path d="M24 7.99178H0V11.9957H24V7.99178Z" fill="#FFDA44"/>
<path d="M13.0435 4.67718L14.0205 5.13629L13.5003 6.08159L14.5611 5.87882L14.6956 6.94957L15.4346 6.16209L16.1736 6.94957L16.308 5.87882L17.3689 6.08159L16.8486 5.13629L17.8256 4.67718L16.8486 4.21802L17.3689 3.27277L16.308 3.47549L16.1735 2.40479L15.4346 3.19227L14.6955 2.40479L14.5611 3.47549L13.5002 3.27277L14.0205 4.21811L13.0435 4.67718Z" fill="#FFDA44"/>
</svg>
