<svg width="24" height="16" viewBox="0 0 24 16" fill="none" xmlns="http://www.w3.org/2000/svg">
<path d="M24 0H0V15.9995H24V0Z" fill="#F0F0F0"/>
<path d="M24 0H0V5.33315H24V0Z" fill="black"/>
<path d="M24 10.6665H0V15.9996H24V10.6665Z" fill="#496E2D"/>
<path d="M12 8.00031L0 16V0L12 8.00031Z" fill="#D80027"/>
<path d="M14.3303 8C14.3303 7.06757 14.9856 6.28861 15.8607 6.0975C15.7263 6.06811 15.5867 6.05222 15.4434 6.05222C14.3676 6.05222 13.4956 6.92423 13.4956 8C13.4956 9.07577 14.3676 9.94778 15.4434 9.94778C15.5867 9.94778 15.7263 9.93189 15.8607 9.9025C14.9856 9.71139 14.3303 8.93243 14.3303 8Z" fill="#D80027"/>
<path d="M15.9427 6.74791L16.219 7.59822H17.113L16.3897 8.12373L16.666 8.97398L15.9427 8.44852L15.2194 8.97398L15.4957 8.12373L14.7724 7.59822H15.6664L15.9427 6.74791Z" fill="#D80027"/>
</svg>
