<svg width="24" height="16" viewBox="0 0 24 16" fill="none" xmlns="http://www.w3.org/2000/svg">
<path d="M24 0H0V16H24V0Z" fill="#6DA544"/>
<path d="M8.60388 9.56528C8.60388 10.1416 9.06002 10.6088 9.62276 10.6088H12.6794C12.6794 11.0889 13.0595 11.4783 13.5285 11.4783H14.5474C15.0163 11.4783 15.3964 11.089 15.3964 10.6088V9.56528H8.60388Z" fill="#F0F0F0"/>
<path d="M15.4812 4.52159V6.95635C15.4812 7.33992 15.1765 7.65196 14.8019 7.65196V8.69544C15.7383 8.69544 16.5 7.91531 16.5 6.95635V4.52159H15.4812Z" fill="#F0F0F0"/>
<path d="M8.17927 6.95671C8.17927 7.34029 7.87458 7.65233 7.5 7.65233V8.6958C8.43637 8.6958 9.19809 7.91567 9.19809 6.95671V4.52196H8.17922L8.17927 6.95671Z" fill="#F0F0F0"/>
<path d="M14.9717 4.52148H13.9529V6.95624H14.9717V4.52148Z" fill="#F0F0F0"/>
<path d="M12.4246 5.91292C12.4246 6.00883 12.3484 6.08682 12.2548 6.08682C12.1611 6.08682 12.0849 6.00883 12.0849 5.91292V4.52159H11.0661V5.91292C11.0661 6.00883 10.9899 6.08682 10.8962 6.08682C10.8026 6.08682 10.7264 6.00883 10.7264 5.91292V4.52159H9.70753V5.91292C9.70753 6.58416 10.2408 7.1303 10.8962 7.1303C11.1486 7.1303 11.3828 7.04906 11.5755 6.91107C11.7681 7.04906 12.0023 7.1303 12.2547 7.1303C12.3055 7.1303 12.3555 7.12664 12.4047 7.12022C12.3325 7.42486 12.0646 7.65201 11.7453 7.65201V8.69548C12.6817 8.69548 13.4434 7.91535 13.4434 6.95639V4.52159H12.4245L12.4246 5.91292Z" fill="#F0F0F0"/>
<path d="M11.2357 7.6517H9.70753V8.69517H11.2357V7.6517Z" fill="#F0F0F0"/>
</svg>
