<svg width="24" height="16" viewBox="0 0 24 16" fill="none" xmlns="http://www.w3.org/2000/svg">
<path d="M24 0H0V16H24V0Z" fill="#F0F0F0"/>
<path fill-rule="evenodd" clip-rule="evenodd" d="M0 0H24V8.00001H0V0ZM5.82613 1.62172C4.73225 1.86065 3.91307 2.83436 3.91307 3.99993C3.91307 5.16555 4.73225 6.13926 5.82613 6.37809C5.65799 6.41479 5.48357 6.43472 5.30441 6.43472C3.95971 6.43472 2.86963 5.34461 2.86963 3.99988C2.86963 2.65515 3.95966 1.5651 5.30441 1.5651C5.48357 1.5651 5.65799 1.58497 5.82613 1.62172ZM7.21624 2.27076L7.04356 1.73933L6.87087 2.27076H6.31207L6.76418 2.59922L6.59145 3.13066L7.04356 2.80224L7.49562 3.13066L7.32293 2.59922L7.77504 2.27076H7.21624ZM5.68805 2.78219L5.86069 3.31362H6.41948L5.96737 3.64208L6.14006 4.17351L5.68805 3.8451L5.23594 4.17351L5.40867 3.64208L4.95656 3.31362H5.51536L5.68805 2.78219ZM8.5717 3.31362L8.39901 2.78219L8.22637 3.31362H7.66757L8.11968 3.64208L7.94695 4.17351L8.39901 3.8451L8.85107 4.17351L8.67838 3.64208L9.13049 3.31362H8.5717ZM7.87726 4.34767L8.04995 4.8791H8.60875L8.15669 5.20756L8.32937 5.73899L7.87726 5.41058L7.42525 5.73899L7.59794 5.20756L7.14587 4.8791H7.70462L7.87726 4.34767ZM6.38245 4.8791L6.20981 4.34767L6.03712 4.8791H5.47837L5.93044 5.20756L5.75775 5.73899L6.20981 5.41058L6.66187 5.73899L6.48918 5.20756L6.94125 4.8791H6.38245Z" fill="#D80027"/>
</svg>
