<svg width="24" height="16" viewBox="0 0 24 16" fill="none" xmlns="http://www.w3.org/2000/svg">
<path d="M24 0H0V16H24V0Z" fill="#496E2D"/>
<path d="M0 15.9999V0H24" fill="#0052B4"/>
<path d="M0 14.5857V15.9999H2.12133L24 1.4142V0H21.8787L0 14.5857Z" fill="#FFDA44"/>
<path d="M4.01663 1.09912L4.25663 1.83768H5.03316L4.40489 2.29409L4.64489 3.03269L4.01663 2.57623L3.38827 3.03269L3.62827 2.29409L3 1.83768H3.77658L4.01663 1.09912Z" fill="#F0F0F0"/>
<path d="M7.98345 1.09912L8.2235 1.83768H9.00007L8.37181 2.29409L8.61181 3.03269L7.98345 2.57623L7.35518 3.03269L7.59518 2.29409L6.96692 1.83768H7.74345L7.98345 1.09912Z" fill="#F0F0F0"/>
<path d="M4.01663 4.96628L4.25663 5.70484H5.03316L4.40489 6.1613L4.64489 6.8999L4.01663 6.44339L3.38827 6.8999L3.62827 6.1613L3 5.70484H3.77658L4.01663 4.96628Z" fill="#F0F0F0"/>
<path d="M7.98345 4.96628L8.2235 5.70484H9.00007L8.37181 6.1613L8.61181 6.8999L7.98345 6.44339L7.35518 6.8999L7.59518 6.1613L6.96692 5.70484H7.74345L7.98345 4.96628Z" fill="#F0F0F0"/>
<path d="M5.99996 3.03259L6.23996 3.77114H7.01659L6.38823 4.22761L6.62823 4.96625L5.99996 4.50974L5.3717 4.96625L5.6117 4.22761L4.98334 3.77114H5.75996L5.99996 3.03259Z" fill="#F0F0F0"/>
</svg>
