<svg width="24" height="16" viewBox="0 0 24 16" fill="none" xmlns="http://www.w3.org/2000/svg">
<path d="M24 0H0V16H24V0Z" fill="#F0F0F0"/>
<path d="M24 0H0V5.3333H24V0Z" fill="#0052B4"/>
<path d="M24 10.6667H0V16H24V10.6667Z" fill="#0052B4"/>
<path d="M13.6691 9.01341L11.9996 9.84822L10.3301 9.01341V7.90039H13.6691V9.01341Z" fill="#6DA544"/>
<path d="M10.9327 7.90012H13.0664L11.9996 6.05225L10.9327 7.90012Z" fill="#FFDA44"/>
<path d="M13.5735 6.14765L12.9832 6.73791C13.235 6.98973 13.3907 7.3375 13.3907 7.72174C13.3907 8.49013 12.7678 9.11302 11.9995 9.11302C11.2311 9.11302 10.6082 8.49009 10.6082 7.72174C10.6082 7.33759 10.764 6.98973 11.0157 6.73791L10.4255 6.14765C10.0226 6.5505 9.77344 7.10701 9.77344 7.7217C9.77344 8.95116 10.77 9.94779 11.9995 9.94779C13.2289 9.94779 14.2255 8.95116 14.2255 7.7217C14.2255 7.10696 13.9763 6.55041 13.5735 6.14765Z" fill="#FFDA44"/>
</svg>
