<svg width="24" height="16" viewBox="0 0 24 16" fill="none" xmlns="http://www.w3.org/2000/svg">
<path d="M24 0.000488281H0V16H24V0.000488281Z" fill="#338AF3"/>
<path d="M24 7.81353V0H0V8.00811L10.261 7.92492V7.65242C10.261 6.69346 11.0411 5.91333 12.0001 5.91333C12.9591 5.91333 13.7392 6.69346 13.7392 7.65242V7.89672L24 7.81353Z" fill="#F0F0F0"/>
<path d="M13.6353 7.06009L15.1754 5.52002C15.586 6.12967 15.826 6.8633 15.8261 7.65202V8.69549C15.8261 10.3563 14.7623 11.773 13.2804 12.3009C13.4888 12.6962 13.4575 13.194 13.1602 13.565L12.0231 12.6538L10.886 13.565C10.5922 13.1983 10.5584 12.7079 10.7589 12.3148C9.2565 11.7983 8.17383 10.371 8.17383 8.69549V7.65202C8.17383 6.86335 8.41378 6.12962 8.82441 5.52002L10.3648 7.06036C10.2976 7.24525 10.261 7.44465 10.261 7.65245V8.69593H13.7392V7.65245C13.7392 7.44455 13.7025 7.24506 13.6353 7.06009Z" fill="#6DA544"/>
<path fill-rule="evenodd" clip-rule="evenodd" d="M11.9994 11.4786C10.4651 11.4786 9.2168 10.2303 9.2168 8.69605V7.65257C9.2168 6.11823 10.4651 4.86996 11.9994 4.86996C13.5337 4.86996 14.782 6.11823 14.782 7.65253V8.696C14.782 10.2303 13.5337 11.4786 11.9994 11.4786ZM10.2605 8.69605C10.2607 9.65487 11.0407 10.4348 11.9996 10.4348C12.9585 10.4348 13.7385 9.65487 13.7387 8.69605V7.65258C13.7387 6.69362 12.9586 5.91349 11.9996 5.91349C11.0406 5.91349 10.2605 6.69362 10.2605 7.65258V8.69605Z" fill="#FFDA44"/>
<path d="M13.043 3.82639C13.6193 3.82639 14.0865 4.29354 14.0865 4.86987C14.0865 5.17886 13.9521 5.45636 13.7387 5.64747V6.2612H10.2605V5.64747C10.047 5.45636 9.9126 5.17882 9.9126 4.86987C9.9126 4.29354 10.3798 3.82639 10.9561 3.82639C11.2234 3.82639 11.4671 3.92698 11.6518 4.09226V3.47853H11.3039V2.78292H11.6518V2.43506H12.3474V2.78292H12.6952V3.47853H12.3474V4.09226C12.532 3.92698 12.7757 3.82639 13.043 3.82639Z" fill="#FFDA44"/>
</svg>
