<svg width="24" height="16" viewBox="0 0 24 16" fill="none" xmlns="http://www.w3.org/2000/svg">
<path d="M24 0H0V15.9997H24V0Z" fill="#F0F0F0"/>
<path d="M24 10.667H0V16.0002H24V10.667Z" fill="#D80027"/>
<path d="M12.0005 6.26074L12.4321 7.58923H13.8292L12.699 8.41043L13.1307 9.73896L12.0005 8.9179L10.8703 9.73896L11.3021 8.41043L10.1719 7.58923H11.5689L12.0005 6.26074Z" fill="black"/>
<path fill-rule="evenodd" clip-rule="evenodd" d="M0 0H24V5.33321H0V0ZM9.39127 3.18825C9.39127 3.444 9.18319 3.65203 8.92749 3.65203V4.34771C9.56682 4.34771 10.0869 3.82758 10.0869 3.18825V1.56506H9.39127V3.18825ZM14.3768 1.56511V3.1883C14.3768 3.44405 14.1688 3.65208 13.9131 3.65208V4.34771C14.5524 4.34771 15.0725 3.82758 15.0725 3.18825V1.56506L14.3768 1.56511ZM13.3335 1.56528H14.0292V3.18842H13.3335V1.56528ZM12.2898 2.49263C12.2898 2.55652 12.2378 2.6086 12.1739 2.6086C12.11 2.6086 12.058 2.55656 12.058 2.49263V1.56511H11.3624V2.49263C11.3624 2.55652 11.3103 2.6086 11.2464 2.6086C11.1825 2.6086 11.1305 2.55656 11.1305 2.49263V1.56511H10.4348V2.49263C10.4348 2.94019 10.7989 3.30422 11.2464 3.30422C11.4187 3.30422 11.5786 3.25008 11.7102 3.15807C11.8417 3.25003 12.0016 3.30422 12.174 3.30422C12.2086 3.30422 12.2428 3.30178 12.2764 3.29747C12.2271 3.50058 12.0442 3.65204 11.8262 3.65204V4.34766C12.4655 4.34766 12.9856 3.82753 12.9856 3.18821V1.56506H12.29L12.2898 2.49263ZM10.4348 3.65217H11.4783V4.34779H10.4348V3.65217Z" fill="#496E2D"/>
</svg>
