<svg width="24" height="16" viewBox="0 0 24 16" fill="none" xmlns="http://www.w3.org/2000/svg">
<path d="M24 0H0V16H24V0Z" fill="#0052B4"/>
<path fill-rule="evenodd" clip-rule="evenodd" d="M0 0H24V5.33315H12V8.51219C12 10.7822 9.03449 11.4778 9.03449 11.4778C9.03449 11.4778 6.06885 10.7823 6.06885 8.51219V5.33315H0V0Z" fill="#D80027"/>
<path d="M7.29585 5.21678H10.774V3.8255L10.0784 4.17331L9.03487 3.12988L7.99148 4.17331L7.29585 3.8255V5.21678Z" fill="#FFDA44"/>
<path d="M11.3049 9.06756L9.04403 6.80676L6.7832 9.06756L7.52106 9.80536L9.04403 8.28241L10.567 9.80536L11.3049 9.06756Z" fill="#FFDA44"/>
<path d="M7.28207 10.666C8.10145 11.2587 9.03449 11.4775 9.03449 11.4775C9.03449 11.4775 9.96746 11.2587 10.7868 10.666H24V15.9991H0V10.666H7.28207Z" fill="#F0F0F0"/>
<path d="M11.3044 6.95593H10.2495C10.3088 6.85356 10.3433 6.73501 10.3433 6.60822C10.3433 6.22403 10.0318 5.9126 9.64767 5.9126C9.38221 5.9126 9.15168 6.06128 9.0344 6.27991C8.91712 6.06133 8.68654 5.9126 8.42114 5.9126C8.037 5.9126 7.72551 6.22403 7.72551 6.60822C7.72551 6.73506 7.76001 6.8536 7.81931 6.95593H6.78271C6.78271 7.34011 7.11736 7.65155 7.5015 7.65155H7.47834C7.47834 8.03573 7.78978 8.34717 8.17397 8.34717C8.17397 8.68733 8.41823 8.96994 8.74087 9.03041L8.19271 10.2679C8.45536 10.3747 8.74242 10.4341 9.04345 10.4341C9.34448 10.4341 9.6315 10.3747 9.89418 10.2679L9.34603 9.03041C9.66867 8.96994 9.91293 8.68733 9.91293 8.34717C10.2971 8.34717 10.6086 8.03573 10.6086 7.65155H10.5854C10.9697 7.65155 11.3044 7.34011 11.3044 6.95593Z" fill="#F0F0F0"/>
</svg>
