<svg width="24" height="16" viewBox="0 0 24 16" fill="none" xmlns="http://www.w3.org/2000/svg">
<path d="M24 0H0V15.9995H24V0Z" fill="#FFDA44"/>
<path d="M24 0H0V5.33315H24V0Z" fill="#6DA544"/>
<path d="M24 10.6664H0V15.9995H24V10.6664Z" fill="#6DA544"/>
<path d="M12 8.00031L0 16V0L12 8.00031Z" fill="#D80027"/>
<path d="M14.1582 6.6084L14.5036 7.67123H15.6212L14.7171 8.32822L15.0624 9.39106L14.1582 8.73411L13.2542 9.39106L13.5994 8.32822L12.6953 7.67123H13.8129L14.1582 6.6084Z" fill="black"/>
<path d="M17.6363 6.6084L17.9816 7.67123H19.0992L18.1951 8.32822L18.5404 9.39106L17.6363 8.73411L16.7321 9.39106L17.0775 8.32822L16.1733 7.67123H17.2909L17.6363 6.6084Z" fill="black"/>
</svg>
