<svg width="24" height="16" viewBox="0 0 24 16" fill="none" xmlns="http://www.w3.org/2000/svg">
<path d="M24 0H0V16H24V0Z" fill="#F0F0F0"/>
<path fill-rule="evenodd" clip-rule="evenodd" d="M6.84961 5.21777H11.2191V8.48006C11.2191 8.73661 11.1621 8.97886 11.0493 9.20593C10.8761 9.55435 10.5711 9.86714 10.136 10.1406C9.70453 10.4117 9.26128 10.5691 9.03431 10.6391C8.80734 10.5692 8.36409 10.4116 7.93266 10.1406C7.49756 9.86714 7.19255 9.55434 7.01953 9.20591C6.90666 8.97879 6.84961 8.73657 6.84961 8.48006V5.21777ZM9.03441 8.32155C9.15075 8.32155 9.26311 8.33851 9.36917 8.3701V7.9865H10.3735V7.31692H9.36917V6.64739H10.0387V5.97786H9.36917V5.30828H8.69966V5.97786H8.03019V6.64739H8.69966V7.31692H7.69531V7.9865H8.69966V8.37009C8.80571 8.33851 8.91807 8.32155 9.03441 8.32155Z" fill="#0052B4"/>
<path d="M6.06885 5.21777H0V10.7827H7.45042C7.45027 10.7826 7.45057 10.7828 7.45042 10.7827C6.74441 10.321 6.06885 9.59605 6.06885 8.5129V5.21777Z" fill="#0052B4"/>
<path d="M10.6185 10.7827C10.6183 10.7828 10.6186 10.7826 10.6185 10.7827C11.3245 10.321 12 9.59603 12 8.5129V5.21777H24V10.7827H10.6185Z" fill="#0052B4"/>
<path d="M7.44997 10.7826H0V16.0001H24V10.7826H10.6189C9.9129 11.2443 9.03431 11.378 9.03431 11.378C9.03431 11.378 8.15598 11.2443 7.44997 10.7826Z" fill="#D80027"/>
<path d="M11.1653 8.89933C11.1374 9.00444 11.0987 9.10672 11.0493 9.20609C10.8583 9.07096 10.6252 8.99124 10.3734 8.99124C10.2817 8.99124 10.1927 9.00211 10.1071 9.02204C9.96968 8.70979 9.70011 8.46883 9.36917 8.37027V7.98666H10.3735V7.31709H9.36917V6.64755H10.0387V5.97802H9.36917V5.30845H8.69966V5.97802H8.03019V6.64755H8.69966V7.31709H7.69531V7.98666H8.69966V8.37025C8.36869 8.46882 8.09914 8.70978 7.96172 9.02204C7.87608 9.00211 7.78697 8.99124 7.69537 8.99124C7.44356 8.99124 7.2105 9.07097 7.01953 9.20607C6.90666 8.97896 6.84961 8.73673 6.84961 8.48023V4.63916H11.2191V8.48023C11.2191 8.6245 11.2011 8.76425 11.1653 8.89933Z" fill="#D80027"/>
</svg>
