<svg width="24" height="16" viewBox="0 0 24 16" fill="none" xmlns="http://www.w3.org/2000/svg">
<path d="M24 0H0V15.9997H24V0Z" fill="#FFD018"/>
<path fill-rule="evenodd" clip-rule="evenodd" d="M0 4.75H24V11.25H0V4.75ZM8.1438 6.53863C8.1438 6.68105 8.18519 6.79651 8.23626 6.79651H15.6482C15.6993 6.79651 15.7407 6.68105 15.7407 6.53863C15.7407 6.39621 15.6993 6.28076 15.6482 6.28076H8.23626C8.18519 6.28076 8.1438 6.39621 8.1438 6.53863ZM8.1438 8.24127C8.1438 8.38369 8.18519 8.49914 8.23626 8.49914H15.6482C15.6993 8.49914 15.7407 8.38369 15.7407 8.24127C15.7407 8.09885 15.6993 7.9834 15.6482 7.9834H8.23626C8.18519 7.9834 8.1438 8.09885 8.1438 8.24127ZM7.04267 9.55922C6.97421 9.55922 6.9187 9.42813 6.9187 9.26643C6.9187 9.10472 6.97421 8.97363 7.04267 8.97363H16.9805C17.049 8.97363 17.1045 9.10472 17.1045 9.26643C17.1045 9.42813 17.049 9.55922 16.9805 9.55922H7.04267Z" fill="#C51918"/>
<path fill-rule="evenodd" clip-rule="evenodd" d="M12.5568 10.3115C13.766 9.76428 14.8661 7.95395 14.8661 7.95395C14.8661 7.95395 13.6158 5.4082 11.8858 5.4082C11.8767 5.4082 11.8677 5.40827 11.8587 5.40841C11.7536 5.58821 11.6249 5.8875 11.7085 6.17782C11.7707 6.39385 11.8719 6.49702 11.9614 6.58823C12.0614 6.69004 12.1466 6.77696 12.1466 6.98933C12.1466 7.1426 12.1261 7.29703 12.1085 7.42952C12.0799 7.64507 12.0589 7.80257 12.1466 7.80257C12.2883 7.80257 12.3374 8.0804 12.2079 8.26876C12.1722 8.32079 12.1376 8.35889 12.1063 8.39325C12.0246 8.48328 11.9661 8.54762 11.9717 8.7695C11.9755 8.92429 12.1483 9.07764 12.2766 9.19155C12.4024 9.30322 12.4855 9.37698 12.3248 9.37698C12.0002 9.37698 11.5724 9.69204 11.7085 9.69204C11.8446 9.69204 12.5568 9.93751 12.5568 10.2597V10.3115Z" fill="#F7FCFF"/>
<path fill-rule="evenodd" clip-rule="evenodd" d="M11.7096 6.17762C11.6261 5.8873 11.7547 5.588 11.8598 5.4082C10.1442 5.43454 8.94727 7.95375 8.94727 7.95375C8.94727 7.95375 10.4739 10.466 11.9072 10.466C12.1239 10.466 12.3426 10.4087 12.5579 10.3112V10.2595C12.5579 9.9373 11.8457 9.69183 11.7096 9.69183C11.5735 9.69183 12.0013 9.37677 12.3259 9.37677C12.4866 9.37677 12.4035 9.30301 12.2777 9.19134C12.1494 9.07743 11.9766 8.92408 11.9728 8.76929C11.9672 8.54741 12.0257 8.48307 12.1075 8.39304C12.1387 8.35868 12.1733 8.32058 12.209 8.26856C12.2191 8.25388 12.2281 8.23865 12.2361 8.22306V8.88129H12.421V8.12811H12.2712C12.3108 7.96658 12.2567 7.80236 12.1478 7.80236C12.0601 7.80236 12.081 7.64487 12.1096 7.42931V7.42931C12.1272 7.29682 12.1478 7.14239 12.1478 6.98912C12.1478 6.77675 12.0625 6.68984 11.9625 6.58802C11.873 6.49681 11.7718 6.39364 11.7096 6.17762ZM12.7816 7.04736H12.9665V7.80054H12.7816V7.04736ZM12.2363 7.04755H12.4213V7.80072H12.2363V7.04755ZM12.6938 7.04736H12.5088V7.80054H12.6938V7.04736ZM13.0543 7.04736H13.2393V7.80054H13.0543V7.04736ZM13.512 7.04736H13.3271V7.80054H13.512V7.04736ZM13.5999 7.04736H13.7848V7.80054H13.5999V7.04736ZM12.7816 8.12811H12.9665V8.88129H12.7816V8.12811ZM12.6938 8.12811H12.5088V8.88129H12.6938V8.12811ZM13.0543 8.12811H13.2393V8.88129H13.0543V8.12811ZM13.512 8.12811H13.3271V8.88129H13.512V8.12811ZM13.5999 8.12811H13.7848V8.88129H13.5999V8.12811Z" fill="#272727"/>
<path fill-rule="evenodd" clip-rule="evenodd" d="M15.4497 6.48609L15.8801 5.93701L16.6417 6.48609L15.8801 7.04961L15.4497 6.48609ZM15.4497 8.18872L15.8801 7.63965L16.6417 8.18872L15.8801 8.75224L15.4497 8.18872ZM10.5846 7.04736H10.7695V7.80054H10.5846V7.04736ZM10.0393 7.04762H10.2243V7.8008H10.0393V7.04762ZM10.4967 7.04736H10.3118V7.80054H10.4967V7.04736ZM10.8573 7.04736H11.0422V7.80054H10.8573V7.04736ZM11.315 7.04736H11.1301V7.80054H11.315V7.04736ZM11.4028 7.04736H11.5878V7.80054H11.4028V7.04736ZM10.224 8.12811H10.0391V8.88129H10.224V8.12811ZM10.5846 8.12811H10.7695V8.88129H10.5846V8.12811ZM10.4967 8.12811H10.3118V8.88129H10.4967V8.12811ZM10.8573 8.12811H11.0422V8.88129H10.8573V8.12811ZM11.315 8.12811H11.1301V8.88129H11.315V8.12811ZM11.4028 8.12811H11.5878V8.88129H11.4028V8.12811Z" fill="#F7FCFF"/>
<path fill-rule="evenodd" clip-rule="evenodd" d="M0 0H24V3.55572H0V0ZM0 12.4443H24V16H0V12.4443ZM10.4773 6.75733C10.4484 6.59312 10.5669 5.91377 10.8259 5.83351C11.085 5.75325 11.6152 6.40477 11.6152 6.40477L11.4823 6.42821L11.5174 6.62709L11.5573 6.85382C11.583 6.99932 11.4818 6.86713 11.4818 6.86713L11.5233 7.10213L11.389 6.98729L11.4335 7.23999L11.3631 7.25241C11.3631 7.25241 11.2998 7.76417 11.2577 7.52551C11.2157 7.28685 10.9047 7.07267 10.9047 7.07267C10.9047 7.07267 10.8104 7.33591 10.7919 7.2311C10.7734 7.12629 10.5941 6.73673 10.5941 6.73673C10.5941 6.73673 10.5063 6.92154 10.4773 6.75733ZM15.7949 9.50316C15.7949 9.33642 16.0296 8.68797 16.2987 8.65392C16.5677 8.61986 16.9768 9.35356 16.9768 9.35356H16.8418V9.5555V9.78573C16.8418 9.93348 16.7651 9.78573 16.7651 9.78573V10.0244L16.6528 9.88794V10.1445H16.5813C16.5813 10.1445 16.4301 10.6375 16.4301 10.3952C16.4301 10.1529 16.1611 9.88794 16.1611 9.88794C16.1611 9.88794 16.0224 10.1308 16.0224 10.0244C16.0224 9.91794 15.9136 9.50316 15.9136 9.50316C15.9136 9.50316 15.7949 9.6699 15.7949 9.50316ZM7.57387 8.55529C7.84291 8.58934 8.07762 9.23779 8.07762 9.40453C8.07762 9.57127 7.95897 9.40453 7.95897 9.40453C7.95897 9.40453 7.8501 9.8193 7.8501 9.92573C7.8501 10.0322 7.71143 9.78931 7.71143 9.78931C7.71143 9.78931 7.44244 10.0542 7.44244 10.2966C7.44244 10.5389 7.29124 10.0459 7.29124 10.0459H7.21973V9.78931L7.1074 9.92573V9.6871C7.1074 9.6871 7.03074 9.83484 7.03074 9.6871V9.45687V9.25493H6.89575C6.89575 9.25493 7.30482 8.52123 7.57387 8.55529Z" fill="#3D57DB"/>
</svg>
