<svg width="24" height="16" viewBox="0 0 24 16" fill="none" xmlns="http://www.w3.org/2000/svg">
<path d="M24 0H0V15.9995H24V0Z" fill="#D80027"/>
<path d="M24 0V8.00813H12L0 0H24Z" fill="#0052B4"/>
<path fill-rule="evenodd" clip-rule="evenodd" d="M0 16L12 8.00031L0 0V16ZM3.64282 8.42848V5.64278H7.50007V8.42848C7.50007 9.90475 5.57145 10.357 5.57145 10.357C5.57145 10.357 3.64282 9.90475 3.64282 8.42848Z" fill="#F0F0F0"/>
<path d="M4.741 5.64285H6.4013C6.30614 5.27316 5.97054 5 5.57115 5C5.17175 5 4.83615 5.27316 4.741 5.64285Z" fill="#FFDA44"/>
<path d="M3.64233 7.99986H2.7942C2.78877 8.07059 2.78516 8.14193 2.78516 8.21407C2.78516 9.75254 4.03236 10.9998 5.57089 10.9998C7.10942 10.9998 8.35662 9.75258 8.35662 8.21407C8.35662 8.14193 8.35296 8.07059 8.34757 7.99986H7.49958V8.42855C7.49958 9.90482 5.57096 10.3571 5.57096 10.3571C5.57096 10.3571 3.64233 9.90482 3.64233 8.42855V7.99986Z" fill="#FFDA44"/>
<path d="M5.57231 9.46012C5.21456 9.33141 4.5 9.0023 4.5 8.4286V6.5H6.64289V8.4286C6.64285 9.00422 5.92833 9.33249 5.57231 9.46012Z" fill="#338AF3"/>
<path d="M6.00111 7.5715V7.14297L5.57248 6.92871L5.14395 7.14297V7.5715L4.92969 7.78586V8.64296H6.21537V7.78586L6.00111 7.5715Z" fill="#F3F3F3"/>
</svg>
