<svg width="24" height="16" viewBox="0 0 24 16" fill="none" xmlns="http://www.w3.org/2000/svg">
<path d="M24 0H0V16H24V0Z" fill="#F0F0F0"/>
<path d="M24 0H0V5.33315H24V0Z" fill="#D80027"/>
<path d="M24 10.666H0V15.9992H24V10.666Z" fill="black"/>
<path d="M8.77977 6.08643L9.21139 7.4149H10.6084L9.4782 8.23604L9.90987 9.56456L8.77977 8.74351L7.64961 9.56456L8.08128 8.23604L6.95117 7.4149H8.34809L8.77977 6.08643Z" fill="#6DA544"/>
<path d="M15.2195 6.08643L15.6512 7.4149H17.0481L15.918 8.23604L16.3497 9.56456L15.2195 8.74351L14.0894 9.56456L14.5211 8.23604L13.3909 7.4149H14.7879L15.2195 6.08643Z" fill="#6DA544"/>
</svg>
