<svg width="24" height="16" viewBox="0 0 24 16" fill="none" xmlns="http://www.w3.org/2000/svg">
<path d="M24 0H0V16H24V0Z" fill="#0052B4"/>
<path d="M15.5645 5V8.66657C15.5645 10.4526 17.9992 10.9999 17.9992 10.9999C17.9992 10.9999 20.434 10.4527 20.434 8.66657V5H15.5645V5Z" fill="#FFDA44"/>
<path d="M17.653 6.33267C17.653 6.70087 17.3415 7.66601 16.9573 7.66601C16.5732 7.66601 16.2617 6.70091 16.2617 6.33267C16.2617 5.96442 16.9573 5.66602 16.9573 5.66602C16.9573 5.66602 17.653 5.96447 17.653 6.33267Z" fill="#FF9811"/>
<path d="M19.4989 7.05875C19.6111 6.79626 19.6985 6.41259 19.6985 6.22157C19.6985 5.91473 19.2811 5.66602 19.2811 5.66602C19.2811 5.66602 18.8637 5.91473 18.8637 6.22157C18.8637 6.41259 18.951 6.79626 19.0632 7.05875L18.8223 7.58014C18.9639 7.63536 19.1187 7.66597 19.2811 7.66597C19.4434 7.66597 19.5982 7.63531 19.7399 7.58014L19.4989 7.05875Z" fill="#A2001D"/>
<path d="M17.4787 8.66633C17.4787 8.66633 17.1309 9.33298 17.1309 9.99968C17.1309 9.99968 18.1743 9.99968 18.87 9.99968C18.87 9.33303 18.5221 8.66633 18.5221 8.66633L18.0004 8.33301L17.4787 8.66633Z" fill="#6DA544"/>
<path d="M12 0V1.43216L9.8828 2.60866H12V5.39108H9.22955L12 6.93021V7.99974H10.7494L7.30434 6.08604V7.99974H4.69566V5.72291L0.597375 7.99974H0V6.56754L2.1172 5.39108H0V2.60866H2.77045L0 1.06902V0H1.25063L4.69566 1.91365V0H7.30434V2.27679L11.4026 0H12Z" fill="#F0F0F0"/>
<path d="M7.30444 5.39082L12 7.99974L12.0001 7.26182L8.63227 5.39082H7.30444Z" fill="#F0F0F0"/>
<path d="M7.30444 5.39082L12 7.99974L12.0001 7.26182L8.63227 5.39082H7.30444Z" fill="#F0F0F0"/>
<path d="M4.69566 2.60866L0 0V0.737664L3.36783 2.60866H4.69566Z" fill="#F0F0F0"/>
<path d="M4.69566 2.60866L0 0V0.737664L3.36783 2.60866H4.69566Z" fill="#F0F0F0"/>
<path d="M18.5217 8.66649V8.49985C18.5217 8.22371 18.2881 7.99988 18 7.99988C17.7118 7.99988 17.4783 8.22376 17.4783 8.49985V8.66649H18.5217Z" fill="#D80027"/>
<path d="M6.75 0H5.25V3.2499H0V4.74989H5.25V7.99988H6.75V4.74989H12V3.2499H6.75V0Z" fill="#D80027"/>
<path d="M7.30444 5.39082L12.0001 7.99948V7.26182L8.63226 5.39082H7.30444Z" fill="#D80027"/>
<path d="M3.36778 5.39082L0 7.26182V7.99948L4.69566 5.39082H3.36778Z" fill="#D80027"/>
<path d="M4.69566 2.60866L0 0V0.737664L3.36783 2.60866H4.69566Z" fill="#D80027"/>
<path d="M8.63231 2.60866L12.0001 0.737664V0L7.30444 2.60866H8.63231Z" fill="#D80027"/>
</svg>
