<svg width="24" height="16" viewBox="0 0 24 16" fill="none" xmlns="http://www.w3.org/2000/svg">
<path d="M24 0H0V15.9685H24V0Z" fill="#F0F0F0"/>
<path d="M24 0H0V5.32281H24V0Z" fill="#D80027"/>
<path d="M24 10.646H0V15.9688H24V10.646Z" fill="#6DA544"/>
<path d="M10.6094 10.0673H13.3921V8.887L12.8355 9.16475L12.0007 8.33163L11.166 9.16475L10.6094 8.887V10.0673Z" fill="#FFDA44"/>
<path d="M9.01737 8.67869L9.14689 9.07654H9.56595L9.22691 9.32239L9.35642 9.72014L9.01737 9.47429L8.67828 9.72014L8.8078 9.32239L8.46875 9.07654H8.88781L9.01737 8.67869Z" fill="#FFDA44"/>
<path d="M9.4189 7.29041L9.54841 7.68816H9.96747L9.62843 7.93401L9.75794 8.33185L9.4189 8.08596L9.0798 8.33185L9.20932 7.93401L8.87027 7.68816H9.28933L9.4189 7.29041Z" fill="#FFDA44"/>
<path d="M10.5668 6.24902L10.6963 6.64677H11.1154L10.7763 6.89262L10.9058 7.29047L10.5668 7.04457L10.2277 7.29047L10.3572 6.89262L10.0182 6.64677H10.4372L10.5668 6.24902Z" fill="#FFDA44"/>
<path d="M14.984 8.67869L14.8545 9.07654H14.4355L14.7745 9.32239L14.645 9.72014L14.984 9.47429L15.3231 9.72014L15.1936 9.32239L15.5327 9.07654H15.1136L14.984 8.67869Z" fill="#FFDA44"/>
<path d="M14.5825 7.29041L14.453 7.68816H14.034L14.373 7.93401L14.2435 8.33185L14.5825 8.08596L14.9216 8.33185L14.7921 7.93401L15.1312 7.68816H14.7121L14.5825 7.29041Z" fill="#FFDA44"/>
<path d="M13.4346 6.24902L13.3051 6.64677H12.8861L13.2251 6.89262L13.0956 7.29047L13.4346 7.04457L13.7737 7.29047L13.6442 6.89262L13.9833 6.64677H13.5642L13.4346 6.24902Z" fill="#FFDA44"/>
<path d="M12.0007 5.72803L12.1302 6.12583H12.5493L12.2102 6.37172L12.3397 6.76948L12.0007 6.52368L11.6616 6.76948L11.7911 6.37172L11.4521 6.12583H11.8712L12.0007 5.72803Z" fill="#FFDA44"/>
</svg>
