<svg width="24" height="16" viewBox="0 0 24 16" fill="none" xmlns="http://www.w3.org/2000/svg">
<path d="M24 0H0V16H24V0Z" fill="#0052B4"/>
<path d="M9.8775 4.174L10.0502 4.70548H10.6089L10.1569 5.03389L10.3296 5.56533L9.8775 5.23687L9.42543 5.56533L9.59812 5.03389L9.14601 4.70548H9.70481L9.8775 4.174Z" fill="#F0F0F0"/>
<path d="M5.47616 9.21756L5.69202 9.88189H6.39045L5.82538 10.2924L6.04128 10.9568L5.47616 10.5461L4.91108 10.9568L5.12689 10.2924L4.56186 9.88189H5.26025L5.47616 9.21756Z" fill="#F0F0F0"/>
<path d="M6.78293 1.60986L6.99874 2.27419H7.69723L7.1321 2.68473L7.34801 3.34901L6.78293 2.93842L6.21781 3.34901L6.43371 2.68473L5.86864 2.27419H6.56707L6.78293 1.60986Z" fill="#F0F0F0"/>
<path d="M3.26 4.21857L3.47581 4.8829H4.17425L3.60917 5.29344L3.82508 5.95772L3.26 5.54718L2.69487 5.95772L2.91078 5.29344L2.3457 4.8829H3.04414L3.26 4.21857Z" fill="#F0F0F0"/>
<path d="M22.6589 12.6174H5.5221C5.5221 12.6174 10.6424 8.466 20.0812 2.26074C20.0812 2.26074 15.9354 8.3047 22.6589 12.6174Z" fill="#FFDA44"/>
<path d="M5.52216 13.1605C4.99824 13.1605 4.9974 13.9747 5.52216 13.9747H22.659C23.1829 13.9747 23.1837 13.1605 22.659 13.1605H5.52216Z" fill="#FFDA44"/>
</svg>
