<svg width="24" height="16" viewBox="0 0 24 16" fill="none" xmlns="http://www.w3.org/2000/svg">
<path d="M24 0H0V16H24V0Z" fill="#496E2D"/>
<path fill-rule="evenodd" clip-rule="evenodd" d="M3.91406 0H8.08795V16H3.91406V0ZM6.91412 5.3573H7.21848V5.96603H6.91412V6.27035H6.37927L6.00108 6.64864L5.6229 6.27035H5.08805V5.96603H4.78369V5.3573H5.08805V5.05298H5.6229L6.00104 4.67474L6.37922 5.05298H6.91412V5.3573ZM5.50694 8.88848L4.80813 8.36792V7.63183L5.50694 7.11122H6.49525L7.19407 7.63183V8.36792L6.49525 8.88848H5.50694ZM7.21848 10.0342H6.91412V9.72982H6.37922L6.00104 9.35162L5.6229 9.72982H5.08805V10.0342H4.78369V10.6429H5.08805V10.9472H5.6229L6.00108 11.3255L6.37927 10.9472H6.91412V10.6429H7.21848V10.0342Z" fill="#D80027"/>
<path d="M6.3487 7.65227H5.65308V8.34791H6.3487V7.65227Z" fill="#D80027"/>
<path d="M6.00128 6.00943C6.1934 6.00943 6.34914 5.85369 6.34914 5.66156C6.34914 5.46944 6.1934 5.31369 6.00128 5.31369C5.80917 5.31369 5.65343 5.46944 5.65343 5.66156C5.65343 5.85369 5.80917 6.00943 6.00128 6.00943Z" fill="#D80027"/>
<path d="M6.00116 10.6861C6.19328 10.6861 6.34902 10.5304 6.34902 10.3383C6.34902 10.1461 6.19328 9.9904 6.00116 9.9904C5.80905 9.9904 5.65331 10.1461 5.65331 10.3383C5.65331 10.5304 5.80905 10.6861 6.00116 10.6861Z" fill="#D80027"/>
<path d="M16.7436 4.61C17.1372 3.51291 16.6951 2.31973 15.7461 1.72544C15.9168 1.74765 16.0877 1.78783 16.2563 1.8483C17.522 2.30243 18.1799 3.69653 17.7258 4.96232C17.2717 6.22811 15.8776 6.88602 14.6118 6.43188C14.4432 6.37137 14.2857 6.29374 14.1399 6.20243C15.2501 6.34699 16.35 5.70713 16.7436 4.61Z" fill="#F0F0F0"/>
<path d="M14.5606 1.4248L14.2186 1.8667L13.6926 1.67798L14.0073 2.1398L13.6653 2.5817L14.2016 2.42523L14.5163 2.88705L14.5332 2.32857L15.0696 2.17205L14.5436 1.98338L14.5606 1.4248Z" fill="#F0F0F0"/>
<path d="M15.4842 2.86491L15.1421 3.30681L14.6162 3.11809L14.9308 3.57991L14.5888 4.02181L15.1252 3.86529L15.4398 4.32716L15.4567 3.76863L15.9932 3.61206L15.4672 3.42344L15.4842 2.86491Z" fill="#F0F0F0"/>
<path d="M12.9324 1.94933L12.5904 2.39123L12.0645 2.2026L12.3791 2.66438L12.0371 3.10623L12.5735 2.94976L12.8881 3.41158L12.905 2.85305L13.4415 2.69663L12.9155 2.50786L12.9324 1.94933Z" fill="#F0F0F0"/>
<path d="M12.8949 3.59871L12.5529 4.04061L12.0269 3.85189L12.3415 4.31371L11.9995 4.75561L12.5359 4.59914L12.8505 5.06096L12.8675 4.50243L13.4039 4.34596L12.8779 4.15724L12.8949 3.59871Z" fill="#F0F0F0"/>
<path d="M14.4645 4.16211L14.1225 4.60401L13.5966 4.41528L13.9112 4.87715L13.5692 5.31901L14.1056 5.16253L14.4202 5.62436L14.4371 5.06583L14.9735 4.90936L14.4476 4.72068L14.4645 4.16211Z" fill="#F0F0F0"/>
<path d="M5.50545 4.2124L4.80664 3.69184V2.95565L5.50545 2.4351H6.49377L7.19258 2.95565V3.69184L6.49377 4.2124H5.50545Z" fill="#F0F0F0"/>
<path d="M5.50545 13.5658L4.80664 13.0452V12.309L5.50545 11.7885H6.49377L7.19258 12.309V13.0452L6.49377 13.5658H5.50545Z" fill="#F0F0F0"/>
<path d="M5.99961 2.43506H5.50545L4.80664 2.95562V3.31553H5.99961V2.43506Z" fill="#FF9811"/>
<path d="M5.99953 4.21254H6.49368L7.1925 3.69198V3.31642L5.99961 3.31553L5.99953 4.21254Z" fill="#FF9811"/>
<path d="M5.99961 11.7885H5.50545L4.80664 12.309V12.6689H5.99961V11.7885Z" fill="#FF9811"/>
<path d="M5.99953 13.5659H6.49368L7.1925 13.0453V12.6698L5.99961 12.6689L5.99953 13.5659Z" fill="#FF9811"/>
</svg>
