<svg width="24" height="16" viewBox="0 0 24 16" fill="none" xmlns="http://www.w3.org/2000/svg">
<path d="M24 0H0V16H24V0Z" fill="#D80027"/>
<path fill-rule="evenodd" clip-rule="evenodd" d="M16.5 7.99946C16.5 10.4847 14.4853 12.4994 12 12.4994C9.51472 12.4994 7.5 10.4847 7.5 7.99946C7.5 5.51421 9.51472 3.49951 12 3.49951C14.4853 3.49951 16.5 5.51421 16.5 7.99946ZM10.3637 7.99963C10.3637 9.4682 11.5541 10.6587 13.0227 10.6587C13.4807 10.6587 13.9114 10.5429 14.2877 10.3391C13.6976 10.9162 12.8906 11.2724 12 11.2724C10.1926 11.2724 8.72729 9.80711 8.72729 7.99967C8.72729 6.19224 10.1926 4.72699 12 4.72699C12.8906 4.72699 13.6975 5.08319 14.2877 5.66021C13.9115 5.45636 13.4807 5.34058 13.0227 5.34058C11.5541 5.34058 10.3637 6.53105 10.3637 7.99963ZM13.3264 7.3428L12.5543 6.27899L12.5535 7.59344L11.3032 7.99881L12.5531 8.40578L12.5523 9.72014L13.3255 8.65721L14.5754 9.06413L13.8034 8.00031L14.5767 6.93739L13.3264 7.3428Z" fill="#F0F0F0"/>
</svg>
