<svg width="24" height="16" viewBox="0 0 24 16" fill="none" xmlns="http://www.w3.org/2000/svg">
<path d="M24 0H0V16H24V0Z" fill="#D80027"/>
<path d="M11.5873 6.16262L12.412 7.29918L13.7477 6.86609L12.9217 8.00161L13.7463 9.13808L12.4111 8.70335L11.5851 9.83892L11.586 8.43475L10.2508 7.99997L11.5864 7.56689L11.5873 6.16262Z" fill="#F0F0F0"/>
<path d="M9.33683 10.841C7.76797 10.841 6.49611 9.56914 6.49611 8.00025C6.49611 6.43135 7.76797 5.15947 9.33683 5.15947C9.82602 5.15947 10.2862 5.28317 10.6881 5.50091C10.0577 4.8844 9.19559 4.50391 8.24427 4.50391C6.31334 4.50391 4.74805 6.06928 4.74805 8.0002C4.74805 9.93112 6.31339 11.4965 8.24427 11.4965C9.19559 11.4965 10.0577 11.116 10.6881 10.4995C10.2863 10.7173 9.82602 10.841 9.33683 10.841Z" fill="#F0F0F0"/>
</svg>
