<svg width="24" height="16" viewBox="0 0 24 16" fill="none" xmlns="http://www.w3.org/2000/svg">
<path d="M24 0H0V16H24V0Z" fill="#338AF3"/>
<path d="M15.0791 11.6522L15.2518 12.1837H15.8106L15.3585 12.5121L15.5312 13.0436L15.0791 12.7151L14.627 13.0436L14.7997 12.5121L14.3477 12.1837H14.9065L15.0791 11.6522Z" fill="#FFDA44"/>
<path d="M19.5293 8.17406L19.702 8.70552H20.2607L19.8087 9.03392L19.9814 9.56533L19.5293 9.23693L19.0772 9.56533L19.2499 9.03392L18.7978 8.70552H19.3566L19.5293 8.17406Z" fill="#FFDA44"/>
<path d="M20.6443 2.95654L20.817 3.48796H21.3758L20.9237 3.81641L21.0964 4.34782L20.6443 4.01938L20.1922 4.34782L20.3649 3.81641L19.9129 3.48796H20.4716L20.6443 2.95654Z" fill="#FFDA44"/>
<path d="M20.9205 6.78255L21.0932 7.31402H21.6519L21.1999 7.64242L21.3726 8.17384L20.9205 7.84539L20.4684 8.17384L20.6411 7.64242L20.189 7.31402H20.7478L20.9205 6.78255Z" fill="#FFDA44"/>
<path d="M15.8803 10.4021L16.3783 10.6558L16.7733 10.2607L16.6859 10.8126L17.1838 11.0663L16.6318 11.1537L16.5445 11.7056L16.2908 11.2077L15.7389 11.2951L16.134 10.9L15.8803 10.4021Z" fill="#FFDA44"/>
<path d="M15.8803 8.31547L16.3783 8.56916L16.7733 8.17406L16.6859 8.72596L17.1838 8.97959L16.6318 9.06706L16.5445 9.61891L16.2908 9.12106L15.7389 9.20848L16.134 8.81338L15.8803 8.31547Z" fill="#FFDA44"/>
<path d="M17.6194 9.65303L18.1173 9.90667L18.5124 9.51156L18.4251 10.0635L18.9229 10.3172L18.3709 10.4046L18.2835 10.9565L18.0299 10.4586L17.478 10.546L17.8731 10.1509L17.6194 9.65303Z" fill="#FFDA44"/>
<path d="M17.6194 5.18482L18.1173 5.43845L18.5124 5.04335L18.4251 5.59525L18.9229 5.84893L18.3709 5.93635L18.2835 6.48826L18.0299 5.99035L17.478 6.07782L17.8731 5.68267L17.6194 5.18482Z" fill="#FFDA44"/>
<path d="M19.3049 5.13132L19.8028 5.38495L20.198 4.9899L20.1105 5.54175L20.6084 5.79543L20.0564 5.88286L19.9691 6.43476L19.7154 5.93685L19.1635 6.02428L19.5586 5.62917L19.3049 5.13132Z" fill="#FFDA44"/>
<path d="M12 0H0V7.99974H12V0Z" fill="#F0F0F0"/>
<path d="M7.30444 5.39082L12.0001 7.99948V7.26182L8.63227 5.39082H7.30444Z" fill="#0052B4"/>
<path d="M4.69566 2.60866L0 0V0.737664L3.36783 2.60866H4.69566Z" fill="#0052B4"/>
<path d="M9.2294 5.39082L12.0001 6.93009V5.39082H9.2294Z" fill="#0052B4"/>
<path d="M7.30444 5.39082L12.0001 7.99948V7.26182L8.63227 5.39082H7.30444Z" fill="#0052B4"/>
<path d="M10.7493 7.99943L7.30444 6.08545V7.99943H10.7493Z" fill="#0052B4"/>
<path d="M2.11739 5.39082L0 6.56718V5.39082H2.11739Z" fill="#0052B4"/>
<path d="M4.69556 5.72257V7.9995H0.597325L4.69556 5.72257Z" fill="#0052B4"/>
<path d="M2.77069 2.60836L0 1.0691V2.60836H2.77069Z" fill="#0052B4"/>
<path d="M4.69566 2.60866L0 0V0.737664L3.36783 2.60866H4.69566Z" fill="#0052B4"/>
<path d="M1.2507 0L4.69559 1.91398V0H1.2507Z" fill="#0052B4"/>
<path d="M9.88278 2.6088L12.0002 1.43249V2.6088H9.88278Z" fill="#0052B4"/>
<path d="M7.30444 2.27693V0H11.4027L7.30444 2.27693Z" fill="#0052B4"/>
<path d="M6.75 0H5.25V3.24995H0V4.74993H5.25V7.99988H6.75V4.74993H12V3.24995H6.75V0Z" fill="#D80027"/>
<path d="M7.30444 5.39082L12.0001 7.99948V7.26182L8.63227 5.39082H7.30444Z" fill="#D80027"/>
<path d="M3.36778 5.39082L0 7.26182V7.99948L4.69566 5.39082H3.36778Z" fill="#D80027"/>
<path d="M4.69566 2.60866L0 0V0.737664L3.36783 2.60866H4.69566Z" fill="#D80027"/>
<path d="M8.63232 2.60866L12.0001 0.737664V0L7.30444 2.60866H8.63232Z" fill="#D80027"/>
</svg>
