<svg width="24" height="16" viewBox="0 0 24 16" fill="none" xmlns="http://www.w3.org/2000/svg">
<path d="M24 0H0V16H24V0Z" fill="#D80027"/>
<path d="M12 0H0V8.00001H12V0Z" fill="#0052B4"/>
<path fill-rule="evenodd" clip-rule="evenodd" d="M7.62077 4.52674L8.74 4.00027L7.62077 3.47381L8.21678 2.3898L7.00141 2.62231L6.84742 1.39453L6.00086 2.2975L5.15434 1.39453L5.00031 2.62231L3.78498 2.3898L4.38095 3.47381L3.26172 4.00027L4.38095 4.52669L3.78498 5.6107L5.00031 5.37819L5.1543 6.60597L6.00086 5.703L6.84737 6.60597L7.00141 5.37819L8.21673 5.61075L7.62077 4.52674ZM7.36067 4.00081C7.36067 4.75175 6.75193 5.3605 6.00101 5.3605C5.2501 5.3605 4.64136 4.75175 4.64136 4.00081C4.64136 3.24988 5.2501 2.64113 6.00101 2.64113C6.75193 2.64113 7.36067 3.24988 7.36067 4.00081Z" fill="#F0F0F0"/>
<path d="M6.00099 4.90918C5.49981 4.90918 5.09204 4.50136 5.09204 4.00021C5.09204 3.49901 5.49985 3.09123 6.00099 3.09123C6.50218 3.09123 6.90994 3.49906 6.90994 4.00021C6.90994 4.50136 6.50218 4.90918 6.00099 4.90918Z" fill="#F0F0F0"/>
</svg>
