<svg width="24" height="16" viewBox="0 0 24 16" fill="none" xmlns="http://www.w3.org/2000/svg">
<g clip-path="url(#clip0_15610_340353)">
<path d="M24 0H0V15.9999H24V0Z" fill="black"/>
<path d="M0 2.66699H24V5.33366H0V2.66699Z" fill="#FFDA44"/>
<path d="M0 10.6671H24V13.3337H0V10.6671Z" fill="#FFDA44"/>
<path d="M0 5.33301H24V7.99968H12.664L12.0001 7.71199C12.0001 7.71199 12.2289 6.95256 12.2411 6.90057C12.25 6.8626 12.2548 6.82299 12.2548 6.7823C12.2548 6.63821 12.1964 6.50775 12.102 6.41339L12.3479 6.16744C12.1906 6.01007 11.9732 5.91276 11.7331 5.91276C11.4929 5.91276 11.2756 6.01007 11.1182 6.16744L11.3642 6.41339C11.2697 6.5078 11.2113 6.63821 11.2113 6.7823C11.2113 6.83499 11.2193 6.88576 11.2338 6.93371L10.8635 7.30403H11.5365C11.5365 7.30403 11.2921 7.67105 11.1364 7.99968H0V5.33301Z" fill="#D80027"/>
<path d="M0 13.3331H24V15.9998H0V13.3331Z" fill="#D80027"/>
<path fill-rule="evenodd" clip-rule="evenodd" d="M14.6695 7.99984C14.6695 9.47431 13.4742 10.6696 11.9998 10.6696C10.5253 10.6696 9.33008 9.47431 9.33008 7.99984C9.33008 6.52537 10.5253 5.33008 11.9998 5.33008C13.4742 5.33008 14.6695 6.52537 14.6695 7.99984ZM11.9999 7.712L12.9778 8.1358C13.3289 8.2918 13.487 8.70281 13.3309 9.0541C13.3279 9.06075 13.3246 9.06713 13.3215 9.07364H12.665L12.3476 9.39104V10.0867H11.652L11.9999 9.73881V9.39094L11.6623 9.07355L11.4593 8.98336C11.1082 8.82731 10.9543 8.40838 11.1061 8.06516C11.258 7.72193 11.5363 7.30404 11.5363 7.30404H10.8633L11.2336 6.93372C11.2191 6.88577 11.2111 6.835 11.2111 6.78231C11.2111 6.63821 11.2695 6.50781 11.3639 6.4134L11.118 6.16744C11.2753 6.01008 11.4927 5.91277 11.7328 5.91277C11.973 5.91277 12.1903 6.01008 12.3477 6.16744L12.1017 6.4134C12.1962 6.50776 12.2545 6.63821 12.2545 6.78231C12.2545 6.823 12.2497 6.86261 12.2408 6.90058C12.2287 6.95256 11.9999 7.712 11.9999 7.712Z" fill="#F0F0F0"/>
</g>
<defs>
<clipPath id="clip0_15610_340353">
<rect width="24" height="16" fill="white"/>
</clipPath>
</defs>
</svg>
