<svg width="24" height="16" viewBox="0 0 24 16" fill="none" xmlns="http://www.w3.org/2000/svg">
<path d="M24 0H0V16H24V0Z" fill="#338AF3"/>
<path d="M12.0116 5.23656C10.4821 5.23656 9.24235 6.47634 9.24235 8.00576C9.24235 9.53518 10.4821 10.775 12.0116 10.775C13.541 10.775 14.7808 9.53518 14.7808 8.00576C14.7808 6.47634 13.5409 5.23656 12.0116 5.23656ZM11.3192 8.00576C11.3192 7.62345 11.6292 7.31347 12.0115 7.31347C12.3939 7.31347 12.7038 7.62345 12.7038 8.00576C12.7038 8.38816 12.3939 8.69805 12.0115 8.69805C11.6292 8.69805 11.3192 8.38811 11.3192 8.00576ZM12.7293 6.82148C12.6219 6.75623 12.5047 6.70556 12.3807 6.67129V5.96222C12.693 6.01823 12.9809 6.14391 13.228 6.32278L12.7293 6.82148ZM11.6885 6.65943C11.5586 6.69046 11.4359 6.73982 11.323 6.80465L10.822 6.30361C11.0753 6.12628 11.3697 6.00375 11.6884 5.95392L11.6885 6.65943ZM11.323 9.20687C11.4358 9.2716 11.5585 9.32096 11.6884 9.35209V10.0575C11.3698 10.0077 11.0754 9.88519 10.822 9.70782L11.323 9.20687ZM12.3808 9.34023C12.5048 9.30601 12.6219 9.25529 12.7293 9.19004L13.228 9.6887C12.9809 9.86762 12.693 9.99324 12.3807 10.0493L12.3808 9.34023ZM13.2126 8.69425C13.2736 8.58813 13.3212 8.47329 13.3525 8.35188H14.0592C14.0072 8.66167 13.8867 8.94808 13.7136 9.1952L13.2126 8.69425ZM13.3526 7.65959C13.3213 7.53819 13.2736 7.42339 13.2127 7.31727L13.7137 6.81623C13.8868 7.06335 14.0072 7.34975 14.0593 7.65954L13.3526 7.65959ZM10.3286 6.78927L10.8273 7.28792C10.758 7.40202 10.7047 7.52694 10.6705 7.65954H9.9639C10.0178 7.33845 10.1453 7.04249 10.3286 6.78927ZM9.96394 8.35188H10.6706C10.7047 8.48449 10.758 8.60941 10.8273 8.7235L10.3287 9.22215C10.1453 8.96903 10.0178 8.67307 9.96394 8.35188Z" fill="#F0F0F0"/>
<path d="M16.5117 8.00566C16.5117 6.77479 16.0173 5.6595 15.2165 4.84703L14.4822 5.58132C15.0951 6.20582 15.4732 7.06152 15.4732 8.00566C15.4732 9.91739 13.9234 11.4672 12.0117 11.4672C10.0999 11.4672 8.55019 9.91739 8.55019 8.00566C8.55019 7.04975 8.93761 6.1844 9.56405 5.55802L8.82975 4.82373C8.01544 5.63803 7.51172 6.76307 7.51172 8.00566C7.51172 10.0649 8.89495 11.801 10.783 12.3358C10.576 12.729 10.6075 13.2241 10.9032 13.5931C11.2915 13.2818 11.6937 12.9595 12.0348 12.6862C12.3759 12.9595 12.778 13.2818 13.1664 13.5931C13.465 13.2204 13.4944 12.719 13.2805 12.3239C15.1478 11.7762 16.5117 10.0503 16.5117 8.00566Z" fill="#F0F0F0"/>
</svg>
