<svg width="24" height="16" viewBox="0 0 24 16" fill="none" xmlns="http://www.w3.org/2000/svg">
<path d="M24 0H0V16H24V0Z" fill="#F0F0F0"/>
<path fill-rule="evenodd" clip-rule="evenodd" d="M12 0H24V2.28577H12V0ZM12 6.85726H24V4.57149H12V6.85726ZM24 11.4289V9.14319H0V11.4289H24ZM0 15.9996V13.7138H24V15.9996H0Z" fill="#338AF3"/>
<path d="M9 4.57168L7.77417 5.1483L8.42691 6.33553L7.0958 6.08085L6.92714 7.42558L6 6.43659L5.07281 7.42558L4.9042 6.08085L3.57309 6.33548L4.22583 5.1483L3 4.57168L4.22583 3.99506L3.57309 2.80787L4.90416 3.0625L5.07286 1.71777L6 2.70681L6.92719 1.71777L7.0958 3.0625L8.42695 2.80787L7.77417 3.9951L9 4.57168Z" fill="#FFDA44"/>
</svg>
