<svg width="24" height="16" viewBox="0 0 24 16" fill="none" xmlns="http://www.w3.org/2000/svg">
<path d="M12 0H24V15.9999H0V7.99994H12V0Z" fill="#F0F0F0"/>
<path d="M12 0H0V7.99994H12V0Z" fill="#F0F0F0"/>
<path d="M12 5.9999H24V4.00004H12V5.9999Z" fill="#0052B4"/>
<path d="M0 12V10.0001H24V12H0Z" fill="#0052B4"/>
<path d="M9.2294 5.39144L12.0001 6.9307V5.39144H9.2294Z" fill="#0052B4"/>
<path d="M7.30444 5.39144L12.0001 8.00016V7.26248L8.63227 5.39144H7.30444Z" fill="#0052B4"/>
<path d="M10.7493 8.00012L7.30444 6.08609V8.00012H10.7493Z" fill="#0052B4"/>
<path d="M7.30444 5.39144L12.0001 8.00016V7.26248L8.63227 5.39144H7.30444Z" fill="#0052B4"/>
<path d="M2.11739 5.39144L0 6.56779V5.39144H2.11739Z" fill="#0052B4"/>
<path d="M4.69556 5.72308V8.00006H0.597325L4.69556 5.72308Z" fill="#0052B4"/>
<path d="M2.77069 2.60851L0 1.06925V2.60851H2.77069Z" fill="#0052B4"/>
<path d="M4.69566 2.60872L0 0V0.737682L3.36783 2.60872H4.69566Z" fill="#0052B4"/>
<path d="M1.2507 0L4.69559 1.91407V0H1.2507Z" fill="#0052B4"/>
<path d="M4.69566 2.60872L0 0V0.737682L3.36783 2.60872H4.69566Z" fill="#0052B4"/>
<path d="M9.88278 2.60894L12.0002 1.43264V2.60894H9.88278Z" fill="#0052B4"/>
<path d="M7.30444 2.27699V0H11.4027L7.30444 2.27699Z" fill="#0052B4"/>
<path d="M12 3.99987H24V2.00002H12V3.99987Z" fill="#D80027"/>
<path d="M24 9.99994V8.00008H0V9.99994H24Z" fill="#D80027"/>
<path d="M0 16V14.0001H24V16H0Z" fill="#D80027"/>
<path d="M6.75 0H5.25V3.25008H0V4.7501H5.25V8.00013H6.75V4.7501H12V3.25008H6.75V0Z" fill="#D80027"/>
<path d="M7.30444 5.39144L12.0001 8.00016V7.26248L8.63227 5.39144H7.30444Z" fill="#D80027"/>
<path d="M3.36778 5.39144L0 7.26248V8.00008L4.69566 5.39144H3.36778Z" fill="#D80027"/>
<path d="M4.69566 2.60872L0 0V0.737682L3.36783 2.60872H4.69566Z" fill="#D80027"/>
<path d="M8.63232 2.60872L12.0001 0.737729V0L7.30444 2.60872H8.63232Z" fill="#D80027"/>
</svg>
