<svg width="24" height="16" viewBox="0 0 24 16" fill="none" xmlns="http://www.w3.org/2000/svg">
<g clip-path="url(#clip0_15610_340222)">
<path d="M24 0.015625H0V15.9846H24V0.015625Z" fill="#F0F0F0"/>
<path d="M24 2.01123H0V4.00716H24V2.01123Z" fill="#D80027"/>
<path d="M24 6.00361H0V7.99954H24V6.00361Z" fill="#D80027"/>
<path d="M24 9.9955H0V11.9914H24V9.9955Z" fill="#D80027"/>
<path d="M24 13.9879H0V15.9838H24V13.9879Z" fill="#D80027"/>
<path d="M12 0.015625H0V8.61432H12V0.015625Z" fill="#2E52B2"/>
<path d="M4.67906 3.53789L4.48579 4.1313H3.86066L4.36649 4.49785L4.17323 5.0912L4.67906 4.72465L5.18456 5.0912L4.99134 4.49785L5.49716 4.1313H4.87199L4.67906 3.53789Z" fill="#F0F0F0"/>
<path d="M4.87199 6.2728L4.67906 5.67944L4.48579 6.2728H3.86066L4.36649 6.6394L4.17323 7.23275L4.67906 6.86616L5.18456 7.23275L4.99134 6.6394L5.49716 6.2728H4.87199Z" fill="#F0F0F0"/>
<path d="M2.23012 6.2728L2.03714 5.67944L1.84388 6.2728H1.21875L1.72458 6.6394L1.53131 7.23275L2.03714 6.86616L2.54269 7.23275L2.34947 6.6394L2.8552 6.2728H2.23012Z" fill="#F0F0F0"/>
<path d="M2.03714 3.53789L1.84388 4.1313H1.21875L1.72458 4.49785L1.53131 5.0912L2.03714 4.72465L2.54269 5.0912L2.34947 4.49785L2.8552 4.1313H2.23012L2.03714 3.53789Z" fill="#F0F0F0"/>
<path d="M4.67906 1.39648L4.48579 1.98993H3.86066L4.36649 2.35653L4.17323 2.94989L4.67906 2.58329L5.18456 2.94989L4.99134 2.35653L5.49716 1.98993H4.87199L4.67906 1.39648Z" fill="#F0F0F0"/>
<path d="M2.03714 1.39648L1.84388 1.98993H1.21875L1.72458 2.35653L1.53131 2.94989L2.03714 2.58329L2.54269 2.94989L2.34947 2.35653L2.8552 1.98993H2.23012L2.03714 1.39648Z" fill="#F0F0F0"/>
<path d="M7.32104 3.53789L7.12782 4.1313H6.5027L7.00848 4.49785L6.81531 5.0912L7.32104 4.72465L7.82663 5.0912L7.63337 4.49785L8.1392 4.1313H7.51407L7.32104 3.53789Z" fill="#F0F0F0"/>
<path d="M7.51407 6.2728L7.32104 5.67944L7.12782 6.2728H6.5027L7.00848 6.6394L6.81531 7.23275L7.32104 6.86616L7.82663 7.23275L7.63337 6.6394L8.1392 6.2728H7.51407Z" fill="#F0F0F0"/>
<path d="M10.1561 6.2728L9.96307 5.67944L9.7698 6.2728H9.14473L9.65046 6.6394L9.45724 7.23275L9.96307 6.86616L10.4686 7.23275L10.2754 6.6394L10.7812 6.2728H10.1561Z" fill="#F0F0F0"/>
<path d="M9.96307 3.53789L9.7698 4.1313H9.14473L9.65046 4.49785L9.45724 5.0912L9.96307 4.72465L10.4686 5.0912L10.2754 4.49785L10.7812 4.1313H10.1561L9.96307 3.53789Z" fill="#F0F0F0"/>
<path d="M7.32104 1.39648L7.12782 1.98993H6.5027L7.00848 2.35653L6.81531 2.94989L7.32104 2.58329L7.82663 2.94989L7.63337 2.35653L8.1392 1.98993H7.51407L7.32104 1.39648Z" fill="#F0F0F0"/>
<path d="M9.96307 1.39648L9.7698 1.98993H9.14473L9.65046 2.35653L9.45724 2.94989L9.96307 2.58329L10.4686 2.94989L10.2754 2.35653L10.7812 1.98993H10.1561L9.96307 1.39648Z" fill="#F0F0F0"/>
</g>
<defs>
<clipPath id="clip0_15610_340222">
<rect width="24" height="15.969" fill="white" transform="translate(0 0.015625)"/>
</clipPath>
</defs>
</svg>
