<svg width="24" height="16" viewBox="0 0 24 16" fill="none" xmlns="http://www.w3.org/2000/svg">
<path d="M24 0H0V15.9997H24V0Z" fill="#D80027"/>
<path d="M24 11.1304H0V15.9998H24V11.1304Z" fill="#6DA544"/>
<path d="M24 0H0V4.89915H24V0Z" fill="#338AF3"/>
<path d="M24 5.88525H0V10.0879H24V5.88525Z" fill="#F0F0F0"/>
<path d="M8.84485 2.44949C8.84485 1.70023 9.37145 1.07422 10.0747 0.920699C9.96657 0.897121 9.85445 0.884277 9.73927 0.884277C8.87481 0.884277 8.17407 1.58501 8.17407 2.44949C8.17407 3.31396 8.87481 4.0147 9.73927 4.0147C9.85449 4.0147 9.96662 4.0019 10.0747 3.97827C9.37145 3.82476 8.84485 3.19874 8.84485 2.44949Z" fill="#F0F0F0"/>
<path d="M10.9997 3.16081L11.1057 3.48692H11.4486L11.1712 3.68853L11.2772 4.01459L10.9997 3.81303L10.7223 4.01459L10.8283 3.68853L10.5509 3.48692H10.8938L10.9997 3.16081Z" fill="#F0F0F0"/>
<path d="M12.0941 3.16081L12.2 3.48692H12.5429L12.2655 3.68853L12.3715 4.01459L12.0941 3.81303L11.8167 4.01459L11.9226 3.68853L11.6453 3.48692H11.9881L12.0941 3.16081Z" fill="#F0F0F0"/>
<path d="M13.1886 3.16081L13.2946 3.48692H13.6374L13.3601 3.68853L13.466 4.01459L13.1886 3.81303L12.9112 4.01459L13.0172 3.68853L12.7397 3.48692H13.0826L13.1886 3.16081Z" fill="#F0F0F0"/>
<path d="M14.2828 3.16081L14.3889 3.48692H14.7318L14.4543 3.68853L14.5603 4.01459L14.2828 3.81303L14.0054 4.01459L14.1115 3.68853L13.834 3.48692H14.1768L14.2828 3.16081Z" fill="#F0F0F0"/>
<path d="M15.3772 3.16081L15.4831 3.48692H15.826L15.5486 3.68853L15.6546 4.01459L15.3772 3.81303L15.0998 4.01459L15.2057 3.68853L14.9284 3.48692H15.2712L15.3772 3.16081Z" fill="#F0F0F0"/>
<path d="M12.0941 2.02253L12.2 2.3486H12.5429L12.2655 2.55016L12.3715 2.87627L12.0941 2.67476L11.8167 2.87627L11.9226 2.55016L11.6453 2.3486H11.9881L12.0941 2.02253Z" fill="#F0F0F0"/>
<path d="M13.1886 2.02253L13.2946 2.3486H13.6374L13.3601 2.55016L13.466 2.87627L13.1886 2.67476L12.9112 2.87627L13.0172 2.55016L12.7397 2.3486H13.0826L13.1886 2.02253Z" fill="#F0F0F0"/>
<path d="M14.2828 2.02253L14.3889 2.3486H14.7318L14.4543 2.55016L14.5603 2.87627L14.2828 2.67476L14.0054 2.87627L14.1115 2.55016L13.834 2.3486H14.1768L14.2828 2.02253Z" fill="#F0F0F0"/>
<path d="M15.3772 2.02253L15.4831 2.3486H15.826L15.5486 2.55016L15.6546 2.87627L15.3772 2.67476L15.0998 2.87627L15.2057 2.55016L14.9284 2.3486H15.2712L15.3772 2.02253Z" fill="#F0F0F0"/>
<path d="M13.1886 0.884277L13.2946 1.21034H13.6374L13.3601 1.4119L13.466 1.73801L13.1886 1.53645L12.9112 1.73801L13.0172 1.4119L12.7397 1.21034H13.0826L13.1886 0.884277Z" fill="#F0F0F0"/>
<path d="M14.2828 0.884277L14.3889 1.21034H14.7318L14.4543 1.4119L14.5603 1.73801L14.2828 1.53645L14.0054 1.73801L14.1115 1.4119L13.834 1.21034H14.1768L14.2828 0.884277Z" fill="#F0F0F0"/>
<path d="M15.3772 0.884277L15.4831 1.21034H15.826L15.5486 1.4119L15.6546 1.73801L15.3772 1.53645L15.0998 1.73801L15.2057 1.4119L14.9284 1.21034H15.2712L15.3772 0.884277Z" fill="#F0F0F0"/>
</svg>
