<svg width="24" height="16" viewBox="0 0 24 16" fill="none" xmlns="http://www.w3.org/2000/svg">
<path d="M24 0H0V15.9995H24V0Z" fill="#FFDA44"/>
<path d="M14.2251 9.80279C14.3784 9.91857 14.5965 9.88829 14.7123 9.73501C14.8282 9.58182 14.7978 9.36362 14.6447 9.24779C14.4914 9.13197 14.2732 9.16234 14.1574 9.31553C14.0416 9.46876 14.0718 9.68691 14.2251 9.80279Z" fill="#F0F0F0"/>
<path fill-rule="evenodd" clip-rule="evenodd" d="M12 0H24V16H12V0ZM18.4812 6.47966L17.6422 7.58951L16.809 6.96135L15.3056 8.95024C15.5425 9.30887 15.5413 9.79215 15.2673 10.1545C14.9198 10.6143 14.2654 10.7053 13.8056 10.3577C13.3459 10.0102 13.255 9.35584 13.6025 8.8961C13.8764 8.53366 14.341 8.40063 14.7507 8.53071L17.0939 5.43094L18.4812 6.47966Z" fill="#F0F0F0"/>
<path d="M15.4999 7.53921L15.0628 6.96107L14.2296 7.58924L13.3906 6.47939L14.778 5.43066L15.9359 6.96242L15.4999 7.53921Z" fill="#ACABB1"/>
<path fill-rule="evenodd" clip-rule="evenodd" d="M15.9359 8.11601L16.5663 8.94996C16.3294 9.3086 16.3307 9.79187 16.6046 10.1543C16.9521 10.614 17.6065 10.7049 18.0662 10.3575C18.5259 10.0099 18.6169 9.35556 18.2694 8.89582C17.9955 8.53343 17.5308 8.40045 17.1212 8.53043L16.3719 7.53921L15.9359 8.11601ZM17.7146 9.31535C17.5987 9.16211 17.3806 9.13174 17.2273 9.24761C17.0741 9.36344 17.0438 9.58164 17.1596 9.73483C17.2754 9.88811 17.4936 9.91839 17.6468 9.80261C17.8001 9.68673 17.8304 9.46858 17.7146 9.31535Z" fill="#ACABB1"/>
</svg>
