<svg width="24" height="16" viewBox="0 0 24 16" fill="none" xmlns="http://www.w3.org/2000/svg">
<path d="M24 0H0V16H24V0Z" fill="#D80027"/>
<path d="M24 4.52148H0V11.4785H24V4.52148Z" fill="#0052B4"/>
<path d="M17.2181 9.39951L16.8415 9.6937L17.005 10.1426L16.6088 9.87548L16.2323 10.1696L16.364 9.71034L15.9678 9.4431L16.4454 9.42646L16.5771 8.96717L16.7406 9.4162L17.2181 9.39951Z" fill="#F0F0F0"/>
<path d="M16.2537 7.72971L16.0005 8.13495L16.3077 8.50096L15.844 8.38546L15.5908 8.79061L15.5574 8.31393L15.0938 8.19833L15.5368 8.01931L15.5036 7.54258L15.8107 7.90868L16.2537 7.72971Z" fill="#F0F0F0"/>
<path d="M14.7766 6.49L14.6773 6.9574L15.0911 7.19628L14.6159 7.24639L14.5165 7.71365L14.3221 7.27719L13.8469 7.32707L14.202 7.00732L14.0077 6.57086L14.4215 6.80974L14.7766 6.49Z" fill="#F0F0F0"/>
<path d="M12.9646 5.83057L13.0311 6.30373L13.5017 6.3867L13.0722 6.59624L13.1387 7.0694L12.8068 6.72571L12.3773 6.93511L12.6016 6.51317L12.2697 6.16957L12.7403 6.25245L12.9646 5.83057Z" fill="#F0F0F0"/>
<path d="M11.0365 5.83057L11.2609 6.25245L11.7314 6.16948L11.3994 6.51327L11.6237 6.9352L11.1943 6.72571L10.8623 7.06936L10.9289 6.59624L10.4994 6.3868L10.97 6.30373L11.0365 5.83057Z" fill="#F0F0F0"/>
<path d="M9.22444 6.49L9.57966 6.80974L9.99333 6.57086L9.79908 7.00747L10.1541 7.32716L9.67894 7.27719L9.48455 7.71365L9.38531 7.2463L8.91005 7.19642L9.32391 6.95745L9.22444 6.49Z" fill="#F0F0F0"/>
<path d="M7.74742 7.72985L8.19053 7.90882L8.49756 7.54281L8.46432 8.01959L8.90729 8.19861L8.44365 8.31416L8.41028 8.79074L8.1572 8.3856L7.69351 8.50114L8.00064 8.13509L7.74742 7.72985Z" fill="#F0F0F0"/>
<path d="M6.7832 9.39959L7.26086 9.41627L7.42417 8.9673L7.55603 9.42663L8.0335 9.44337L7.63731 9.71056L7.76903 10.1699L7.39253 9.87566L6.99644 10.1428L7.15984 9.69378L6.7832 9.39959Z" fill="#F0F0F0"/>
<path d="M24 0H0V4.52147H24V0Z" fill="#FFDA44"/>
</svg>
