<svg width="24" height="16" viewBox="0 0 24 16" fill="none" xmlns="http://www.w3.org/2000/svg">
<path d="M24 0.000488281H0V16H24V0.000488281Z" fill="#0052B4"/>
<path d="M12 1.06066V0.000488281H10.9393L7.5 2.29291V0.000488281H4.5V2.29291L1.06069 0.000488281H0V1.06062L2.15948 2.50004H0V5.49992H2.15948L0 6.93986V7.99999H1.06069L4.5 5.707V7.99999H7.5V5.707L10.9393 7.99999H12V6.93986L9.84052 5.49992H12V2.50018H9.84058L12 1.06066Z" fill="#F0F0F0"/>
<path d="M18.5217 6.08683C18.5217 6.37495 18.2881 6.60852 18 6.60852C17.7119 6.60852 17.4783 6.37495 17.4783 6.08683V8.86896H18.5218L18.5217 6.08683V6.08683Z" fill="#F0F0F0"/>
<path d="M6.75 0H5.25V3.24985H0V4.74979H5.25V7.99969H6.75V4.74979H12V3.24985H6.75V0Z" fill="#D80027"/>
<path d="M0 0.000772042V0.707759L2.68955 2.5007H3.75L0 0.000772042Z" fill="#D80027"/>
<path d="M12 0.000282827V0.70727L9.31045 2.50021H8.25L12 0.000282827Z" fill="#D80027"/>
<path d="M0 0.000772042V0.707759L2.68955 2.5007H3.75L0 0.000772042Z" fill="#D80027"/>
<path d="M12 0.000282827V0.70727L9.31045 2.50021H8.25L12 0.000282827Z" fill="#D80027"/>
<path d="M0 8.00017V7.29323L2.68955 5.50024H3.75L0 8.00017Z" fill="#D80027"/>
<path d="M12 8.00017V7.29323L9.31045 5.50024H8.25L12 8.00017Z" fill="#D80027"/>
<path fill-rule="evenodd" clip-rule="evenodd" d="M15.5645 8.17406V4.34814H20.434V8.17402C20.434 10.0377 17.9992 10.6087 17.9992 10.6087C17.9992 10.6087 15.5645 10.0377 15.5645 8.17406ZM17.9993 6.60853C18.2874 6.60853 18.521 6.37496 18.521 6.08683L18.521 8.86897H17.4775V6.08683C17.4775 6.37496 17.7111 6.60853 17.9993 6.60853Z" fill="#6DA544"/>
<path d="M18.0002 6.60882C18.2884 6.60882 18.522 6.37525 18.522 6.08713C18.522 5.799 18.2884 5.56543 18.0002 5.56543C17.7121 5.56543 17.4785 5.799 17.4785 6.08713C17.4785 6.37525 17.7121 6.60882 18.0002 6.60882Z" fill="#A2001D"/>
<path d="M16.376 9.79802C17.0843 10.3941 18.0002 10.6089 18.0002 10.6089C18.0002 10.6089 18.916 10.3941 19.6243 9.79803L20.1625 10.3362C19.7573 11.1177 18.9413 11.6521 18.0002 11.6521C17.059 11.6521 16.2431 11.1178 15.8379 10.3362L16.376 9.79802Z" fill="#FFDA44"/>
<path d="M16.9569 5.04346H16.2612V5.73905H16.9569V5.04346Z" fill="#FFDA44"/>
<path d="M16.9569 6.6083H16.2612V7.3039H16.9569V6.6083Z" fill="#FFDA44"/>
<path d="M16.9569 8.17369H16.2612V8.86928H16.9569V8.17369Z" fill="#FFDA44"/>
<path d="M19.7393 5.04346H19.0436V5.73905H19.7393V5.04346Z" fill="#FFDA44"/>
<path d="M19.7393 6.6083H19.0436V7.3039H19.7393V6.6083Z" fill="#FFDA44"/>
<path d="M19.7393 8.17369H19.0436V8.86928H19.7393V8.17369Z" fill="#FFDA44"/>
</svg>
