<svg width="24" height="16" viewBox="0 0 24 16" fill="none" xmlns="http://www.w3.org/2000/svg">
<g clip-path="url(#clip0_15610_340273)">
<path d="M24 0H0V16.0002H24V0Z" fill="#F0F0F0"/>
<path fill-rule="evenodd" clip-rule="evenodd" d="M13.3589 5.5887C13.3589 4.83833 12.7506 4.22998 12.0002 4.22998C11.2498 4.22998 10.6415 4.83833 10.6415 5.5887H7.65234C7.65234 6.3275 8.29589 6.92643 9.03469 6.92643H8.9902C8.9902 7.64288 9.55337 8.22785 10.2612 8.26265V6.25684H13.7394V8.26264C14.4472 8.22774 15.0103 7.64286 15.0103 6.92643H14.9657C15.7045 6.92643 16.348 6.32746 16.348 5.5887H13.3589ZM12.8361 9.98647C12.4129 10.2396 12.0003 10.3363 12.0003 10.3363C12.0003 10.3363 11.5875 10.2395 11.164 9.98618L10.5603 11.3492C11.0048 11.53 11.4906 11.6303 12 11.6303C12.5094 11.6303 12.9953 11.5299 13.4397 11.3492L12.8361 9.98647Z" fill="#FFDA44"/>
<path fill-rule="evenodd" clip-rule="evenodd" d="M6.88141 10.6869L5.94081 8.05615H5.23047L6.59725 11.5344H7.16551L8.52255 8.05615H7.8122L6.88141 10.6869ZM16.8706 8.05615V11.5344H17.5467V8.05615H16.8706Z" fill="#338AF3"/>
<path fill-rule="evenodd" clip-rule="evenodd" d="M10.957 9.84877V7.0127H11.6527V10.2233C11.4533 10.1458 11.1961 10.0247 10.957 9.84877ZM13.044 9.84877V7.0127H12.3484V10.2233C12.5477 10.1458 12.8049 10.0247 13.044 9.84877Z" fill="#D80027"/>
<path d="M13.7402 6.25635H10.2617V7.35983H13.7402V6.25635Z" fill="#0052B4"/>
</g>
<defs>
<clipPath id="clip0_15610_340273">
<rect width="24" height="16" fill="white"/>
</clipPath>
</defs>
</svg>
