<svg width="24" height="16" viewBox="0 0 24 16" fill="none" xmlns="http://www.w3.org/2000/svg">
<g clip-path="url(#clip0_15610_340235)">
<path d="M24 0H0V15.9685H24V0Z" fill="black"/>
<path d="M0.419922 15.9685H1.25955L10.3595 8.76538H24V15.9686H0L10.0868 7.98438H24V8.24463H10.1778L0.419922 15.9685Z" fill="#6DA544"/>
<path d="M24 7.20314V0H1.25955L10.3595 7.20314H24Z" fill="#D80027"/>
<path d="M24 7.72388V7.98423H10.0868L0 0H0.419922L10.1778 7.72388H24Z" fill="#D80027"/>
<path d="M0.419813 0H0V0.332304L9.66698 7.98423L0 15.6361V15.9685H0.419813L10.1777 8.24458H24V7.72388H10.1777L0.419813 0Z" fill="#FFDA44"/>
<path d="M2.98679 9.68629V9.01751C3.65546 9.01751 4.19945 8.47454 4.19945 7.80726C4.19945 7.33512 3.81456 6.95098 3.34145 6.95098C3.01918 6.95098 2.75696 7.21264 2.75696 7.53433C2.75696 7.74004 2.92464 7.90738 3.13074 7.90738C3.24723 7.90738 3.34206 7.81274 3.34206 7.69648H4.01214C4.01214 8.18153 3.61674 8.5762 3.13079 8.5762C2.55521 8.57611 2.08693 8.10869 2.08693 7.53428C2.08693 6.84385 2.64971 6.28216 3.3415 6.28216C4.18407 6.28216 4.86957 6.96628 4.86957 7.80726C4.86957 8.84329 4.02498 9.68629 2.98679 9.68629Z" fill="#FFDA44"/>
</g>
<defs>
<clipPath id="clip0_15610_340235">
<rect width="24" height="16" fill="white"/>
</clipPath>
</defs>
</svg>
