<svg width="24" height="16" viewBox="0 0 24 16" fill="none" xmlns="http://www.w3.org/2000/svg">
<g clip-path="url(#clip0_15610_340361)">
<g clip-path="url(#clip1_15610_340361)">
<path d="M24 0.015625H0V16.0155H24V0.015625Z" fill="#F0F0F0"/>
<path d="M24 8.01562H0V16.0156H24V8.01562Z" fill="#496E2D"/>
<path d="M17.6875 5.36133C17.3772 4.48115 16.5386 3.85011 15.5522 3.85011H13.6116C12.3612 3.85011 11.3476 4.86375 11.3476 6.11415C11.3476 6.52268 11.4563 6.9153 11.6456 7.2462C10.925 7.24029 10.258 7.25117 9.83823 7.2462C9.83823 6.37305 9.83823 5.26069 9.83823 5.02795L9.92739 4.9388C10.3277 4.53853 10.1942 3.87144 10.1942 3.87144C10.1942 3.87144 9.52717 3.73803 9.12695 4.1383L8.66045 4.60481H8.14019C6.994 4.60481 6.06484 5.53398 6.06484 6.68018H7.57417V8.3782C7.57417 8.62654 7.62428 8.86317 7.71475 9.07866L7.19688 9.51024H6.44219V8.75555H5.6875V10.2649H9.0835V11.7742H8.32881V12.5289H9.83814V11.0196L10.5299 10.1894H12.1651L12.8568 11.0196V11.7743H12.1022V12.529H15.1208V8.37824C15.1208 7.75302 15.6276 7.2462 16.2528 7.2462C16.2689 7.2462 16.2848 7.24676 16.3008 7.24742C16.2695 7.12643 16.2528 6.99959 16.2528 6.86885C16.2529 6.06034 16.8887 5.40038 17.6875 5.36133ZM13.6115 11.7743V10.1895H13.6744L14.3662 11.0196V11.7743H13.6115V11.7743V11.7743Z" fill="#D80027"/>
</g>
</g>
<defs>
<clipPath id="clip0_15610_340361">
<rect width="24" height="16" fill="white"/>
</clipPath>
<clipPath id="clip1_15610_340361">
<rect width="24" height="16" fill="white" transform="translate(0 0.015625)"/>
</clipPath>
</defs>
</svg>
