<svg width="24" height="16" viewBox="0 0 24 16" fill="none" xmlns="http://www.w3.org/2000/svg">
<path d="M24 0H0V16H24V0Z" fill="#D80027"/>
<path d="M12 0H0V7.99974H12V0Z" fill="#0052B4"/>
<path d="M7.75616 4.52141L7.88572 4.92004H8.30474L7.96574 5.16632L8.09525 5.56489L7.75616 5.31857L7.41711 5.56489L7.54663 5.16632L7.20758 4.92004H7.62664L7.75616 4.52141Z" fill="#F0F0F0"/>
<path d="M5.65132 1.39111L5.86722 2.05546H6.56566L6.00058 2.46595L6.21644 3.1302L5.65132 2.71968L5.08629 3.1302L5.30215 2.46595L4.73702 2.05546H5.43551L5.65132 1.39111Z" fill="#F0F0F0"/>
<path d="M7.73836 2.08692L7.95427 2.75123H8.65271L8.08763 3.16171L8.30344 3.82606L7.73836 3.41544L7.17333 3.82606L7.38914 3.16171L6.82407 2.75123H7.5225L7.73836 2.08692Z" fill="#F0F0F0"/>
<path d="M6.08868 4.86938L6.30459 5.53369H7.00303L6.43795 5.94422L6.65376 6.60848L6.08868 6.1979L5.52365 6.60848L5.73946 5.94422L5.17439 5.53369H5.87282L6.08868 4.86938Z" fill="#F0F0F0"/>
<path d="M4.26005 3.13046L4.47591 3.79481H5.17434L4.60927 4.20529L4.82508 4.86964L4.26005 4.45902L3.69497 4.86964L3.91078 4.20529L3.3457 3.79481H4.04414L4.26005 3.13046Z" fill="#F0F0F0"/>
</svg>
