<svg width="24" height="16" viewBox="0 0 24 16" fill="none" xmlns="http://www.w3.org/2000/svg">
<g clip-path="url(#clip0_15610_340360)">
<g clip-path="url(#clip1_15610_340360)">
<path d="M24 0H0V16H24V0Z" fill="#496E2D"/>
<path d="M18.6666 7.99951H16V15.9993H18.6666V7.99951Z" fill="#D80027"/>
<path d="M23 5.16308H20.75C20.75 4.74889 20.4142 4.41309 20 4.41309C19.5858 4.41309 19.25 4.74889 19.25 5.16308H17C17 5.57726 17.3608 5.91307 17.775 5.91307H17.75C17.75 6.32725 18.0857 6.66306 18.5 6.66306C18.5 7.07724 18.8357 7.41305 19.25 7.41305H20.75C21.1642 7.41305 21.5 7.07724 21.5 6.66306C21.9142 6.66306 22.25 6.32725 22.25 5.91307H22.225C22.6393 5.91307 23 5.57726 23 5.16308Z" fill="#FF9811"/>
<path d="M24.0001 7.99963H21.3335V15.9994H24.0001V7.99963Z" fill="#FF9811"/>
<path d="M21.3326 7.99951H18.666V15.9993H21.3326V7.99951Z" fill="black"/>
</g>
</g>
<defs>
<clipPath id="clip0_15610_340360">
<rect width="24" height="16" fill="white"/>
</clipPath>
<clipPath id="clip1_15610_340360">
<rect width="24.0001" height="16" fill="white"/>
</clipPath>
</defs>
</svg>
