<svg width="24" height="16" viewBox="0 0 24 16" fill="none" xmlns="http://www.w3.org/2000/svg">
<path d="M24 0H0V16H24V0Z" fill="black"/>
<path d="M4.98377 0H24V2.29066H7.27447L4.98377 0Z" fill="#6DA544"/>
<path d="M4 0H0V2.29066H6.29069L4 0Z" fill="#6DA544"/>
<path d="M6.25586 13.7439H0V15.9999H24V13.7439H7.23964L4.98377 15.9998H4L6.25586 13.7439Z" fill="#6DA544"/>
<path fill-rule="evenodd" clip-rule="evenodd" d="M4 0L12 7.99988L4.00028 15.9995H0V0H4ZM4.80317 5.49552L5.42469 7.40856H7.43642L6.44194 8.13114L6.51279 8.15624C6.51279 8.15624 6.42162 8.468 6.12176 8.58936C6.11299 8.67191 6.09209 8.75445 6.05721 8.83456L5.9622 9.06253L6.43058 10.5042L5.28154 9.66935H4.32477L3.17567 10.5042L3.5239 9.4325L3.27537 8.83456C3.27537 8.60317 3.32343 8.43592 3.39291 8.29717L2.16992 7.40856H3.88009C3.8934 7.33479 3.90087 7.25318 3.90087 7.16157H3.09326L3.54743 6.70431C3.533 6.65152 3.52465 6.59626 3.52465 6.53893C3.52465 6.19314 3.80501 5.91283 4.15076 5.91283C4.32925 5.91283 4.49031 5.98751 4.60437 6.10734L4.80317 5.49552Z" fill="#F0F0F0"/>
<path d="M5.2503 6.87171L4.80317 5.49542L4.60437 6.10724C4.49031 5.98741 4.32925 5.91274 4.15076 5.91274C3.80501 5.91274 3.52465 6.19305 3.52465 6.53884C3.52465 6.59617 3.533 6.65143 3.54743 6.70421L3.38106 6.87171H5.2503Z" fill="#D80027"/>
<path d="M3.41166 9.16237L3.5239 9.43241L3.17567 10.5041L4.32477 9.66926H5.28154L6.43058 10.5041L5.99467 9.16237H3.41166Z" fill="#D80027"/>
<path d="M9.56499 4.58105L11.8557 6.87171H24V4.58105H9.56499Z" fill="#D80027"/>
<path d="M9.53049 11.453L11.8212 9.16237H24V11.453H9.53049Z" fill="#D80027"/>
<path d="M4.80317 5.49542L5.42469 7.40847H7.43642L5.80902 8.59093L6.43058 10.5041L4.80317 9.3217L3.17567 10.5041L3.79733 8.59093L2.16992 7.40847H4.18156L4.80317 5.49542Z" fill="#D80027"/>
<path d="M9.56557 4.58119H24.0005V2.29053H7.27487L9.56557 4.58119Z" fill="#FFDA44"/>
<path d="M9.53072 11.4533L7.24001 13.744H24.0005V11.4533H9.53072Z" fill="#FFDA44"/>
<path d="M6.51328 8.1562L4.89333 7.58231C4.89333 7.58231 4.77365 6.45943 4.76639 6.42142C4.7114 6.13173 4.45687 5.91278 4.15125 5.91278C3.8055 5.91278 3.52514 6.19309 3.52514 6.53889C3.52514 6.59621 3.53348 6.65148 3.54792 6.70426L3.09375 7.16152C3.09375 7.16152 3.63323 7.16152 3.90136 7.16152C3.90136 7.99973 3.27586 7.99973 3.27586 8.83452L3.62283 9.6693H5.70979L6.0577 8.83452C6.09257 8.75441 6.11348 8.67186 6.12225 8.58932C6.42211 8.46796 6.51328 8.1562 6.51328 8.1562Z" fill="#FFDA44"/>
</svg>
