<svg width="24" height="24" viewBox="0 0 24 24" fill="none" xmlns="http://www.w3.org/2000/svg">
<path fill-rule="evenodd" clip-rule="evenodd" d="M13.4999 5.99988C13.0857 5.99988 12.7499 6.33566 12.7499 6.74988C12.7499 7.16409 13.0857 7.49988 13.4999 7.49988H15.4393L12.4696 10.4695C12.1767 10.7624 12.1767 11.2373 12.4696 11.5302C12.7625 11.8231 13.2374 11.8231 13.5303 11.5302L16.4999 8.56054V10.4999C16.4999 10.9141 16.8357 11.2499 17.2499 11.2499C17.6642 11.2499 17.9999 10.9141 17.9999 10.4999V6.74988V5.99988H17.2499H13.4999ZM11.5303 13.5303C11.8232 13.2374 11.8232 12.7625 11.5303 12.4696C11.2374 12.1767 10.7625 12.1767 10.4696 12.4696L7.49994 15.4393V13.4999C7.49994 13.0857 7.16415 12.7499 6.74994 12.7499C6.33573 12.7499 5.99994 13.0857 5.99994 13.4999V17.2499V17.9999H6.74994H10.4999C10.9142 17.9999 11.2499 17.6641 11.2499 17.2499C11.2499 16.8357 10.9142 16.4999 10.4999 16.4999H8.5606L11.5303 13.5303Z" fill="currentColor"/>
</svg>
