<svg width="24" height="24" viewBox="0 0 24 24" fill="none" xmlns="http://www.w3.org/2000/svg">
<path d="M12.0002 15C12.8102 15 13.5002 14.7 14.1102 14.11C14.7002 13.5 15.0002 12.81 15.0002 12C15.0002 11.19 14.7002 10.5 14.1102 9.89C13.5002 9.3 12.8102 9 12.0002 9C11.1902 9 10.5002 9.3 9.89018 9.89C9.30018 10.5 9.00018 11.19 9.00018 12C9.00018 12.81 9.30018 13.5 9.89018 14.11C10.5002 14.7 11.1902 15 12.0002 15ZM12.0002 2C14.7502 2 17.1002 3 19.0502 4.95C21.0002 6.9 22.0002 9.25 22.0002 12V13.45C22.0002 14.45 21.6502 15.3 21.0002 16C20.3002 16.67 19.5002 17 18.5002 17C17.3002 17 16.3102 16.5 15.5602 15.5C14.5602 16.5 13.3802 17 12.0002 17C10.6302 17 9.45018 16.5 8.46018 15.54C7.50018 14.55 7.00018 13.38 7.00018 12C7.00018 10.63 7.50018 9.45 8.46018 8.46C9.45018 7.5 10.6302 7 12.0002 7C13.3802 7 14.5502 7.5 15.5402 8.46C16.5002 9.45 17.0002 10.63 17.0002 12V13.45C17.0002 13.86 17.1602 14.22 17.4602 14.53C17.7602 14.84 18.1102 15 18.5002 15C18.9202 15 19.2702 14.84 19.5702 14.53C19.8702 14.22 20.0002 13.86 20.0002 13.45V12C20.0002 9.81 19.2302 7.93 17.6502 6.35C16.0702 4.77 14.1902 4 12.0002 4C9.81018 4 7.93018 4.77 6.35018 6.35C4.77018 7.93 4.00018 9.81 4.00018 12C4.00018 14.19 4.77018 16.07 6.35018 17.65C7.93018 19.23 9.81018 20 12.0002 20H17.0002V22H12.0002C9.25018 22 6.90018 21 4.95018 19.05C3.00018 17.1 2.00018 14.75 2.00018 12C2.00018 9.25 3.00018 6.9 4.95018 4.95C6.90018 3 9.25018 2 12.0002 2Z" fill="currentColor"/>
</svg>
