<svg width="24" height="24" viewBox="0 0 24 24" fill="none" xmlns="http://www.w3.org/2000/svg">
<path fill-rule="evenodd" clip-rule="evenodd" d="M15.0304 8.96967C15.3233 9.26256 15.3233 9.73744 15.0304 10.0303L14.0304 11.0303C13.7375 11.3232 13.2626 11.3232 12.9697 11.0303C12.6768 10.7374 12.6768 10.2626 12.9697 9.96967L13.9697 8.96967C14.2626 8.67678 14.7375 8.67678 15.0304 8.96967ZM5.46973 10.4697C5.76262 10.1768 6.2375 10.1768 6.53039 10.4697L10.0304 13.9697C10.3233 14.2626 10.3233 14.7374 10.0304 15.0303C9.7375 15.3232 9.26262 15.3232 8.96973 15.0303L5.46973 11.5303C5.17684 11.2374 5.17684 10.7626 5.46973 10.4697ZM19.0304 10.0303C19.3233 9.73744 19.3233 9.26256 19.0304 8.96967C18.7375 8.67678 18.2626 8.67678 17.9697 8.96967L13.5001 13.4393L10.5304 10.4697C10.2375 10.1768 9.76262 10.1768 9.46973 10.4697C9.17684 10.7626 9.17684 11.2374 9.46973 11.5303L12.9697 15.0303L13.5001 15.5607L14.0304 15.0303L19.0304 10.0303Z" fill="currentColor"/>
</svg>
