<svg width="24" height="24" viewBox="0 0 24 24" fill="none" xmlns="http://www.w3.org/2000/svg">
<path d="M12 2C13.3132 2 14.6136 2.25866 15.8268 2.7612C17.0401 3.26375 18.1425 4.00035 19.0711 4.92893C19.9997 5.85752 20.7362 6.95991 21.2388 8.17317C21.7413 9.38642 22 10.6868 22 12C22 14.6522 20.9464 17.1957 19.0711 19.0711C17.1957 20.9464 14.6522 22 12 22C10.6868 22 9.38642 21.7413 8.17317 21.2388C6.95991 20.7362 5.85752 19.9997 4.92893 19.0711C3.05357 17.1957 2 14.6522 2 12C2 9.34784 3.05357 6.8043 4.92893 4.92893C6.8043 3.05357 9.34784 2 12 2Z" fill="currentColor" fill-opacity="0.34"/>
<path d="M12 2.5C13.2476 2.5 14.4829 2.74572 15.6355 3.22314C16.7881 3.70056 17.8354 4.40033 18.7175 5.28249C19.5997 6.16464 20.2994 7.21191 20.7769 8.36451C21.2543 9.5171 21.5 10.7524 21.5 12C21.5 14.5196 20.4991 16.9359 18.7175 18.7175C16.9359 20.4991 14.5196 21.5 12 21.5C10.7524 21.5 9.5171 21.2543 8.36451 20.7769C7.21191 20.2994 6.16464 19.5997 5.28249 18.7175C3.50089 16.9359 2.5 14.5196 2.5 12C2.5 9.48044 3.50089 7.06408 5.28249 5.28249C7.06408 3.50089 9.48044 2.5 12 2.5Z" stroke="currentColor" stroke-opacity="0.24"/>
</svg>
