<svg width="24" height="24" viewBox="0 0 24 24" fill="none" xmlns="http://www.w3.org/2000/svg">
<path d="M18.2951 7.115C18.6844 6.72564 18.6844 6.09436 18.2951 5.705C17.9057 5.31564 17.2744 5.31564 16.8851 5.705L12.0001 10.59L7.11506 5.705C6.7257 5.31564 6.09442 5.31564 5.70506 5.705C5.3157 6.09436 5.3157 6.72564 5.70506 7.115L10.5901 12L5.70506 16.885C5.3157 17.2744 5.3157 17.9056 5.70506 18.295C6.09442 18.6844 6.7257 18.6844 7.11506 18.295L12.0001 13.41L16.8851 18.295C17.2744 18.6844 17.9057 18.6844 18.2951 18.295C18.6844 17.9056 18.6844 17.2744 18.2951 16.885L13.4101 12L18.2951 7.115Z" fill="currentColor"/>
</svg>
