<svg width="24" height="24" viewBox="0 0 24 24" fill="none" xmlns="http://www.w3.org/2000/svg">
<path d="M17.2951 8.115C17.6844 7.72564 17.6844 7.09436 17.2951 6.705C16.9057 6.31564 16.2744 6.31564 15.8851 6.705L12.0001 10.59L8.11506 6.705C7.7257 6.31564 7.09442 6.31564 6.70506 6.705C6.3157 7.09436 6.3157 7.72564 6.70506 8.115L10.5901 12L6.70506 15.885C6.3157 16.2744 6.3157 16.9056 6.70506 17.295C7.09442 17.6844 7.7257 17.6844 8.11506 17.295L12.0001 13.41L15.8851 17.295C16.2744 17.6844 16.9057 17.6844 17.2951 17.295C17.6844 16.9056 17.6844 16.2744 17.2951 15.885L13.4101 12L17.2951 8.115Z" fill="currentColor"/>
</svg>
