<svg width="24" height="24" viewBox="0 0 24 24" fill="none" xmlns="http://www.w3.org/2000/svg">
<path fill-rule="evenodd" clip-rule="evenodd" d="M11.2497 2.5H9.94734L9.76454 3.78946L9.52979 5.44542C8.79365 5.72349 8.11633 6.12147 7.52344 6.6155L6.03402 5.97276L4.80781 5.44361L4.14042 6.60042L3.39042 7.90042L2.71926 9.06375L3.80166 9.85888L5.1007 10.8132C4.96638 11.5995 4.96591 12.4032 5.1 13.1884L3.79067 14.1518L2.70981 14.9472L3.38042 16.1096L4.13042 17.4096L4.79579 18.5629L6.01989 18.039L7.53447 17.3908C8.12037 17.8772 8.78963 18.2724 9.5197 18.5476L9.75443 20.2098L9.93664 21.5H11.2397H12.7597H14.062L14.2448 20.2105L14.48 18.552C15.209 18.2741 15.8784 17.8782 16.4651 17.3909L17.9795 18.039L19.2036 18.5629L19.869 17.4096L20.619 16.1096L21.2917 14.9436L20.205 14.1491L18.8991 13.1943C19.0334 12.4064 19.0332 11.6011 18.8987 10.8132L20.1977 9.85888L21.2801 9.06375L20.609 7.90042L19.859 6.60042L19.1916 5.44361L17.9654 5.97276L16.4758 6.61556C15.8837 6.12253 15.2065 5.72519 14.4693 5.44977L14.235 3.79025L14.0527 2.5H12.7497H11.2497ZM7.84969 8.39C8.61969 7.5 9.67969 6.86 10.8797 6.61L11.2497 4H12.7497L13.1197 6.62C14.3197 6.86 15.3797 7.5 16.1497 8.39L18.5597 7.35L19.3097 8.65L17.1997 10.2C17.5997 11.37 17.5997 12.64 17.1997 13.81L19.3197 15.36L18.5697 16.66L16.1397 15.62C15.3697 16.5 14.3197 17.14 13.1297 17.39L12.7597 20H11.2397L10.8697 17.38C9.67969 17.14 8.62969 16.5 7.85969 15.62L5.42969 16.66L4.67969 15.36L6.79969 13.8C6.39969 12.64 6.39969 11.37 6.79969 10.2L4.68969 8.65L5.43969 7.35L7.84969 8.39ZM13.5 12C13.5 12.8284 12.8284 13.5 12 13.5C11.1716 13.5 10.5 12.8284 10.5 12C10.5 11.1716 11.1716 10.5 12 10.5C12.8284 10.5 13.5 11.1716 13.5 12ZM15 12C15 13.6569 13.6569 15 12 15C10.3432 15 9.00001 13.6569 9.00001 12C9.00001 10.3431 10.3432 9 12 9C13.6569 9 15 10.3431 15 12Z" fill="currentColor"/>
</svg>
