<svg width="24" height="24" viewBox="0 0 24 24" fill="none" xmlns="http://www.w3.org/2000/svg">
<path fill-rule="evenodd" clip-rule="evenodd" d="M17.2502 6H11.7502V7.5H15.4396L10.4699 12.4697L11.5306 13.5303L16.5002 8.56066V12.25H18.0002V6.75V6H17.2502ZM8.75024 7.5C7.23146 7.5 6.00024 8.73122 6.00024 10.25V15.25C6.00024 16.7688 7.23146 18 8.75024 18H13.7502C15.269 18 16.5002 16.7688 16.5002 15.25V14.25H15.0002V15.25C15.0002 15.9404 14.4406 16.5 13.7502 16.5H8.75024C8.05989 16.5 7.50024 15.9404 7.50024 15.25V10.25C7.50024 9.55964 8.05989 9 8.75024 9H9.75024V7.5H8.75024Z" fill="currentColor"/>
</svg>
