<svg width="24" height="24" viewBox="0 0 24 24" fill="none" xmlns="http://www.w3.org/2000/svg">
<path d="M10.0002 6V8H6.00024V18H16.0002V14H18.0002V19C18.0002 19.2652 17.8949 19.5196 17.7074 19.7071C17.5198 19.8946 17.2655 20 17.0002 20H5.00024C4.73503 20 4.48067 19.8946 4.29314 19.7071C4.1056 19.5196 4.00024 19.2652 4.00024 19V7C4.00024 6.73478 4.1056 6.48043 4.29314 6.29289C4.48067 6.10536 4.73503 6 5.00024 6H10.0002ZM20.0002 4V12H18.0002V7.413L11.2072 14.207L9.79324 12.793L16.5852 6H12.0002V4H20.0002Z" fill="currentColor"/>
</svg>
