<svg width="24" height="24" viewBox="0 0 24 24" fill="none" xmlns="http://www.w3.org/2000/svg">
<path fill-rule="evenodd" clip-rule="evenodd" d="M18.0002 5H13.0002V7H15.586L9.79314 12.7929L11.2074 14.2071L17.0002 8.41421V11H19.0002V6V5H18.0002ZM8.00024 6C6.34339 6 5.00024 7.34315 5.00024 9V16C5.00024 17.6569 6.34339 19 8.00024 19H15.0002C16.6571 19 18.0002 17.6569 18.0002 16V13H16.0002V16C16.0002 16.5523 15.5525 17 15.0002 17H8.00024C7.44796 17 7.00024 16.5523 7.00024 16V9C7.00024 8.44772 7.44796 8 8.00024 8H11.0002V6H8.00024Z" fill="currentColor"/>
</svg>
