<svg width="24" height="24" viewBox="0 0 24 24" fill="none" xmlns="http://www.w3.org/2000/svg">
<path d="M9.50018 3C11.2241 3 12.8774 3.68482 14.0964 4.90381C15.3154 6.12279 16.0002 7.77609 16.0002 9.5C16.0002 11.11 15.4102 12.59 14.4402 13.73L14.7102 14H15.5002L20.5002 19L19.0002 20.5L14.0002 15.5V14.71L13.7302 14.44C12.5902 15.41 11.1102 16 9.50018 16C7.77628 16 6.12298 15.3152 4.90399 14.0962C3.685 12.8772 3.00018 11.2239 3.00018 9.5C3.00018 7.77609 3.685 6.12279 4.90399 4.90381C6.12298 3.68482 7.77628 3 9.50018 3ZM9.50018 5C7.00018 5 5.00018 7 5.00018 9.5C5.00018 12 7.00018 14 9.50018 14C12.0002 14 14.0002 12 14.0002 9.5C14.0002 7 12.0002 5 9.50018 5Z" fill="currentColor"/>
</svg>
