<svg width="24" height="24" viewBox="0 0 24 24" fill="none" xmlns="http://www.w3.org/2000/svg">
<path fill-rule="evenodd" clip-rule="evenodd" d="M10.5002 17C11.9343 17 13.2599 16.5356 14.3349 15.7489L17.7931 19.2071C18.1836 19.5976 18.8168 19.5976 19.2073 19.2071C19.5978 18.8166 19.5978 18.1834 19.2073 17.7929L15.7491 14.3347C16.5357 13.2597 17.0002 11.9341 17.0002 10.5C17.0002 6.91015 14.09 4 10.5002 4C6.91033 4 4.00018 6.91015 4.00018 10.5C4.00018 14.0899 6.91033 17 10.5002 17ZM11.5002 11.5H14.5002V9.5H11.5002V6.5H9.50018V9.5H6.50018V11.5H9.50018V14.5H11.5002V11.5Z" fill="currentColor"/>
</svg>
