<svg width="24" height="24" viewBox="0 0 24 24" fill="none" xmlns="http://www.w3.org/2000/svg">
<path fill-rule="evenodd" clip-rule="evenodd" d="M13.6177 15.0308C12.7317 15.6415 11.6577 15.999 10.5002 15.999C7.46262 15.999 5.00018 13.5366 5.00018 10.499C5.00018 7.46146 7.46262 4.99902 10.5002 4.99902C13.5377 4.99902 16.0002 7.46146 16.0002 10.499C16.0002 11.6565 15.6426 12.7305 15.0319 13.6165L18.2073 16.7919C18.5978 17.1824 18.5978 17.8156 18.2073 18.2061C17.8168 18.5967 17.1836 18.5967 16.7931 18.2061L13.6177 15.0308ZM14.0002 10.499C14.0002 12.432 12.4332 13.999 10.5002 13.999C8.56719 13.999 7.00018 12.432 7.00018 10.499C7.00018 8.56603 8.56719 6.99902 10.5002 6.99902C12.4332 6.99902 14.0002 8.56603 14.0002 10.499Z" fill="currentColor"/>
</svg>
