<svg width="24" height="24" viewBox="0 0 24 24" fill="none" xmlns="http://www.w3.org/2000/svg">
<path d="M14.0002 17.5C14.0002 18.3284 14.6718 19 15.5002 19H16.5002C17.3287 19 18.0002 18.3284 18.0002 17.5V6.5C18.0002 5.67157 17.3287 5 16.5002 5H15.5002C14.6718 5 14.0002 5.67157 14.0002 6.5V17.5ZM6.00024 17.5C6.00024 18.3284 6.67182 19 7.50024 19H8.50024C9.32867 19 10.0002 18.3284 10.0002 17.5V6.5C10.0002 5.67157 9.32867 5 8.50024 5H7.50024C6.67182 5 6.00024 5.67157 6.00024 6.5V17.5Z" fill="currentColor"/>
</svg>
