<svg width="24" height="24" viewBox="0 0 24 24" fill="none" xmlns="http://www.w3.org/2000/svg">
<path fill-rule="evenodd" clip-rule="evenodd" d="M9.99964 7.00018C9.7235 7.00018 9.49964 7.22404 9.49964 7.50018C9.49964 7.77633 9.7235 8.00018 9.99964 8.00018H10.4374L9.99965 11.5004L8.49939 13.0003L8.50037 14.4998H11.2497V14.5001L11.2495 17.0003C11.2495 17.4145 11.5852 17.7504 11.9994 17.7504C12.4136 17.7504 12.7495 17.4147 12.7495 17.0005L12.7497 14.5002V14.4998H15.4994V13.0003L13.9997 11.5004L13.5623 8.00018H13.9996C14.2758 8.00018 14.4996 7.77633 14.4996 7.50018C14.4996 7.22404 14.2758 7.00018 13.9996 7.00018H9.99964Z" fill="currentColor"/>
</svg>
