<svg width="24" height="24" viewBox="0 0 24 24" fill="none" xmlns="http://www.w3.org/2000/svg">
<path fill-rule="evenodd" clip-rule="evenodd" d="M6.5533 20.1648C6.21907 20.6044 5.58764 20.6933 5.18354 20.3169C3.69945 18.9343 2.66466 17.1267 2.22937 15.1296C1.7228 12.8054 2.06133 10.3767 3.18418 8.27966C4.30703 6.1826 6.14066 4.55448 8.35584 3.68763C10.2593 2.94276 12.3374 2.8019 14.3108 3.27063C14.8481 3.39826 15.1242 3.97306 14.9435 4.49497C14.7629 5.01688 14.1938 5.28688 13.6535 5.17272C12.1334 4.85161 10.5448 4.97871 9.08467 5.55011C7.31252 6.24359 5.84562 7.54608 4.94734 9.22373C4.04906 10.9014 3.77824 12.8443 4.18349 14.7037C4.51741 16.2357 5.29229 17.6283 6.40221 18.7153C6.79677 19.1018 6.88754 19.7251 6.5533 20.1648ZM18.7071 7.70711C19.0976 7.31658 19.0976 6.68342 18.7071 6.29289C18.3166 5.90237 17.6834 5.90237 17.2929 6.29289L12.518 11.0677C12.3528 11.0236 12.1791 11 12 11C10.8954 11 9.99999 11.8954 9.99999 13C9.99999 14.1046 10.8954 15 12 15C13.1046 15 14 14.1046 14 13C14 12.8208 13.9764 12.6472 13.9322 12.482L18.7071 7.70711ZM18.7963 20.3355C18.3912 20.7109 17.76 20.6202 17.427 20.1796C17.094 19.7391 17.1864 19.116 17.5821 18.7307C18.5967 17.7423 19.3353 16.4976 19.7139 15.1202C20.0925 13.7429 20.0938 12.2955 19.7268 10.9274C19.5838 10.3939 19.8227 9.81118 20.3342 9.6027C20.8456 9.39423 21.4344 9.6389 21.5908 10.1686C22.1164 11.949 22.1379 13.8476 21.6424 15.6503C21.1469 17.4529 20.1581 19.0739 18.7963 20.3355Z" fill="currentColor"/>
</svg>
