<svg width="24" height="24" viewBox="0 0 24 24" fill="none" xmlns="http://www.w3.org/2000/svg">
<path d="M9.25567 13.5186L8.43598 13.3557L9.25567 13.5186C9.33846 13.1019 9.19883 12.6722 8.88695 12.3838L6.56059 10.2324L9.70719 9.85933C10.129 9.80932 10.4946 9.54373 10.6725 9.15799L11.9997 6.28068L13.3269 9.15799C13.5048 9.54373 13.8703 9.80932 14.2922 9.85933L17.4388 10.2324L15.1124 12.3838C14.8005 12.6722 14.6609 13.1019 14.7437 13.5186L15.3612 16.6265L12.5963 15.0788C12.2256 14.8713 11.7738 14.8713 11.4031 15.0788L11.8113 15.808L11.4031 15.0788L8.63814 16.6265L9.25567 13.5186Z" stroke="currentColor" stroke-width="1.67143"/>
</svg>
