<svg width="24" height="24" viewBox="0 0 24 24" fill="none" xmlns="http://www.w3.org/2000/svg">
<path d="M11.6887 5.81783C11.8112 5.55216 12.1888 5.55216 12.3113 5.81783L13.8543 9.16291C13.9042 9.27119 14.0068 9.34574 14.1252 9.35978L17.7834 9.79351C18.0739 9.82796 18.1906 10.1871 17.9758 10.3857L15.2712 12.8868C15.1837 12.9678 15.1445 13.0884 15.1677 13.2053L15.8857 16.8185C15.9427 17.1054 15.6372 17.3274 15.3819 17.1845L12.1675 15.3852C12.0634 15.3269 11.9366 15.3269 11.8325 15.3852L8.61808 17.1845C8.36279 17.3274 8.05731 17.1054 8.11433 16.8185L8.83226 13.2053C8.8555 13.0884 8.8163 12.9678 8.72876 12.8868L6.02419 10.3857C5.80939 10.1871 5.92607 9.82796 6.21661 9.79351L9.87476 9.35978C9.99317 9.34574 10.0958 9.27119 10.1457 9.16291L11.6887 5.81783Z" fill="currentColor"/>
</svg>
