<svg width="24" height="24" viewBox="0 0 24 24" fill="none" xmlns="http://www.w3.org/2000/svg">
<path d="M12 6.91644L13.1797 9.47405C13.3379 9.81693 13.6628 10.053 14.0378 10.0975L16.8348 10.4291L14.7669 12.3414C14.4896 12.5978 14.3655 12.9798 14.4391 13.3501L15.0327 13.2322L14.4391 13.3501L14.988 16.1127L12.5303 14.737C12.2008 14.5525 11.7992 14.5525 11.4697 14.737L9.01195 16.1127L9.56087 13.3501C9.63446 12.9798 9.51034 12.5978 9.23312 12.3414L7.16524 10.4291L9.96222 10.0975C10.3372 10.053 10.6621 9.81693 10.8203 9.47405L10.1457 9.16291L10.8203 9.47405L12 6.91644ZM15.7448 16.5363L15.7442 16.536L15.7448 16.5363Z" stroke="currentColor" stroke-width="1.48571"/>
</svg>
