<svg width="24" height="24" viewBox="0 0 24 24" fill="none" xmlns="http://www.w3.org/2000/svg">
<path fill-rule="evenodd" clip-rule="evenodd" d="M3.00018 10.001C3.00018 9.44874 3.4479 9.00102 4.00018 9.00102H7.00018L10.2932 5.70931C10.9232 5.07954 12.0002 5.52575 12.0002 6.41656V17.5839C12.0002 18.4747 10.9232 18.9209 10.2932 18.2911L7.00018 14.9994H4.00018C3.4479 14.9994 3.00018 14.5517 3.00018 13.9994V10.001ZM14.2905 9.70708C13.9034 9.31656 13.9034 8.68339 14.2905 8.29287C14.6776 7.90234 15.3053 7.90234 15.6924 8.29287L17.6345 10.2521L19.5767 8.29287C19.9638 7.90234 20.5914 7.90234 20.9785 8.29287C21.3657 8.68339 21.3657 9.31656 20.9785 9.70708L19.0364 11.6663L20.9785 13.6255C21.3657 14.0161 21.3657 14.6492 20.9785 15.0398C20.5914 15.4303 19.9638 15.4303 19.5767 15.0398L17.6345 13.0805L15.6924 15.0398C15.3053 15.4303 14.6776 15.4303 14.2905 15.0398C13.9034 14.6492 13.9034 14.0161 14.2905 13.6255L16.2327 11.6663L14.2905 9.70708Z" fill="currentColor"/>
</svg>
