<svg width="24" height="24" viewBox="0 0 24 24" fill="none" xmlns="http://www.w3.org/2000/svg">
<path fill-rule="evenodd" clip-rule="evenodd" d="M3.00018 10.001C3.00018 9.44874 3.4479 9.00102 4.00018 9.00102H7.00018L10.2932 5.70931C10.9232 5.07954 12.0002 5.52575 12.0002 6.41656V17.5839C12.0002 18.4747 10.9232 18.9209 10.2932 18.2911L7.00018 14.9994H4.00018C3.4479 14.9994 3.00018 14.5517 3.00018 13.9994V10.001ZM15.0002 16.0415C15.0002 15.6846 15.1968 15.3622 15.477 15.141C16.4047 14.4085 17.0002 13.2737 17.0002 11.9999C17.0002 10.726 16.4047 9.59128 15.477 8.85875C15.1968 8.63754 15.0002 8.31518 15.0002 7.95822V7.75537C15.0002 7.06522 15.6869 6.58931 16.2655 6.9654C17.9116 8.03522 19.0002 9.89042 19.0002 11.9999C19.0002 14.1093 17.9116 15.9645 16.2655 17.0344C15.6869 17.4105 15.0002 16.9345 15.0002 16.2444V16.0415ZM13.0002 13.9999C14.1048 13.9999 15.0002 13.1044 15.0002 11.9999C15.0002 10.8953 14.1048 9.99988 13.0002 9.99988V13.9999Z" fill="currentColor"/>
</svg>
